%FSLAX35Y35*%
%MOIN*%
%SFA1.000B1.000*%

G04 Copyright (c) 2015-2018 in2H2 inc.
G04 System developed for in2H2 inc. by Intermotion Technology, Inc.
G04 
G04 Full system RTL, C sources and board design files available at https://github.com/nearist
G04 
G04 in2H2 inc. Team Members:
G04 - Chris McCormick - Algorithm Research and Design
G04 - Matt McCormick - Board Production, System Q/A
G04 
G04 Intermotion Technology Inc. Team Members:
G04 - Mick Fandrich - Project Lead
G04 - Dr. Ludovico Minati - Board Architecture and Design, FPGA Technology Advisor
G04 - Vardan Movsisyan - RTL Team Lead
G04 - Khachatur Gyozalyan - RTL Design
G04 - Tigran Papazyan - RTL Design
G04 - Taron Harutyunyan - RTL Design
G04 - Hayk Ghaltaghchyan - System Software
G04 
G04 Tecno77 S.r.l. Team Members:
G04 - Stefano Aldrigo, Board Layout Design
G04 
G04 We dedicate this project to the memory of Bruce McCormick, an AI pioneer
G04 and advocate, a good friend and father.
G04 
G04 These materials are provided free of charge: you can redistribute them and/or modify  
G04 them under the terms of the GNU General Public License as published by  
G04 the Free Software Foundation, version 3.
G04 
G04 These materials are distributed in the hope that they will be useful, but 
G04 WITHOUT ANY WARRANTY; without even the implied warranty of 
G04 MERCHANTABILITY or FITNESS FOR A PARTICULAR PURPOSE. See the GNU 
G04 General Public License for more details.
G04 In particular, this design should be treated as UNVERIFIED and UNCERTIFIED
G04 
G04 You should have received a copy of the GNU General Public License 
G04 along with this design. If not, see <http://www.gnu.org/licenses/>.

%FSLAX35Y35*%
%MOIN*%
%SFA1.000B1.000*%

%MIA0B0*%
%IPPOS*%
%ADD11C,0.00800*%
%ADD26C,0.01000*%
%ADD57R,0.02400X0.17500*%
%ADD77C,0.00700*%
%ADD118R,0.02369X0.02369*%
%ADD122R,0.03400X0.04400*%
%ADD125C,0.11900*%
%ADD128R,0.02400X0.02400*%
%ADD130R,0.04731X0.04337*%
%ADD132R,0.04400X0.03400*%
%ADD138R,0.01581X0.03156*%
%ADD158R,0.02172X0.03156*%
%ADD162C,0.04400*%
%ADD163C,0.27959*%
%ADD165R,0.01581X0.15754*%
%ADD168C,0.30400*%
%ADD169R,0.05900X0.11500*%
%ADD170R,0.11500X0.05900*%
%ADD171R,0.09400X0.09400*%
%ADD172R,0.07500X0.05900*%
%ADD173R,0.13400X0.13400*%
%ADD174C,0.13400*%
%ADD175R,0.07900X0.07900*%
%ADD176C,0.07900*%
%ADD177R,0.05900X0.08900*%
%ADD178R,0.14800X0.08400*%
%ADD179R,0.03156X0.02172*%
%ADD180R,0.03156X0.01581*%
%ADD181R,0.06699X0.08983*%
%ADD182R,0.10636X0.07880*%
%ADD184R,0.08400X0.08400*%
%ADD186R,0.07900X0.06400*%
%LNsoldermaskbtm-v*%
%LPD*%
G54D57*X308661Y523074D03*X304724D03*X300787D03*X296850D03*X292913D03*X288976D03*X285039D03*X281102D03*X277165D03*X273228D03*X269291D03*X265354D03*X261417D03*X257480D03*X253543D03*X245669D03*X241732D03*X237795D03*X233858D03*X229921D03*X225984D03*X222047D03*X218110D03*X214173D03*X210236D03*X206299D03*X202362D03*X198425D03*X194488D03*X190551D03*X186614D03*X182677D03*X178740D03*X174803D03*X170866D03*X166929D03*X162992D03*X159055D03*X155118D03*G54D118*X417717Y488189D03*X421654D03*X379528Y521260D03*Y525197D03*X387402Y521260D03*Y525197D03*X430709Y521260D03*Y525197D03*X458268Y521260D03*Y525197D03*X462205Y521260D03*Y525197D03*X413386Y490157D03*Y486220D03*X417717Y481890D03*X421654D03*X395276Y475984D03*Y472047D03*X413386Y481890D03*X409449D03*X400787Y473622D03*Y477559D03*X407087Y490157D03*Y486220D03*Y473622D03*Y477559D03*X413386Y473622D03*Y477559D03*X396850Y481890D03*X392913D03*X454331Y521260D03*Y525197D03*X400787Y481890D03*X404724D03*X400787Y490157D03*Y486220D03*X447638Y500394D03*X451575D03*X447638Y494094D03*X451575D03*X476772Y500394D03*X472835D03*X476772Y494094D03*X472835D03*X476772Y489567D03*X472835D03*X428740Y445276D03*X424803D03*X425591Y488189D03*X429528D03*X407087Y465748D03*Y469685D03*Y461811D03*Y457874D03*Y450000D03*Y453937D03*X417323Y468898D03*Y472835D03*X431890Y469291D03*X435827D03*X445669Y473622D03*Y469685D03*X447638Y465748D03*X451575D03*X447638Y459449D03*X451575D03*Y450787D03*X447638D03*X391339Y464173D03*Y468110D03*X410630Y443307D03*X406693D03*X387795Y437402D03*Y441339D03*X396457D03*Y437402D03*X402756Y441339D03*Y437402D03*X431102Y441339D03*Y437402D03*X437402Y441339D03*Y437402D03*X473228Y450394D03*Y454331D03*X387402Y415748D03*X391339D03*X426378Y412205D03*Y416142D03*X431102Y412205D03*Y416142D03*X419685Y437402D03*Y441339D03*X437402Y412205D03*Y416142D03*X411024Y415748D03*X407087D03*X399213Y521260D03*Y525197D03*X407087Y521260D03*Y525197D03*X442520Y521260D03*Y525197D03*X456299Y509449D03*Y513386D03*X468110Y509449D03*Y513386D03*X429528Y476378D03*Y480315D03*X401181Y466142D03*X397244D03*X457874Y470472D03*X453937D03*X379528Y456693D03*X375591D03*X379528Y450394D03*X375591D03*X451575Y488189D03*X447638D03*X379528Y440551D03*X375591D03*X379528Y428740D03*X375591D03*X407480Y431102D03*Y435039D03*X399213Y415748D03*X403150D03*X473228Y462205D03*Y466142D03*X379528Y432677D03*X375591D03*X395276Y521260D03*Y525197D03*X403150Y521260D03*Y525197D03*X473228Y474016D03*Y470079D03*X411024Y521260D03*Y525197D03*X438583Y521260D03*Y525197D03*X464173Y509449D03*Y513386D03*X446457Y521260D03*Y525197D03*X379528Y436614D03*X375591D03*X450394Y521260D03*Y525197D03*X460236Y509449D03*Y513386D03*X375591Y490945D03*X379528D03*X407087Y498031D03*Y494094D03*X375591Y483071D03*Y487008D03*X379528Y483071D03*Y487008D03*X383465Y483071D03*Y487008D03*X385039Y468110D03*Y464173D03*X375591Y472047D03*Y475984D03*X379528Y472047D03*Y475984D03*X383465Y472047D03*Y475984D03*X375591Y468110D03*Y464173D03*X422835Y468898D03*Y472835D03*X387402Y472047D03*Y475984D03*X407874Y510236D03*X403937D03*X394882Y488189D03*X390945D03*X425591Y494488D03*X429528D03*X394882Y492126D03*X390945D03*X391339Y472047D03*Y475984D03*Y521260D03*Y525197D03*X434646Y521260D03*Y525197D03*X375591Y521260D03*Y525197D03*X383465Y521260D03*Y525197D03*X426772Y521260D03*Y525197D03*X375591Y494882D03*Y498819D03*X414961Y521260D03*Y525197D03*X418898D03*X422835D03*X375591Y510630D03*X379528D03*X375591Y506693D03*Y502756D03*X441732Y450000D03*Y453937D03*X429528Y484252D03*X425591D03*X438583Y485827D03*Y481890D03*X433465Y445276D03*X437402D03*X424803Y441339D03*Y437402D03*X447638Y483465D03*X451575D03*X435433Y453937D03*Y450000D03*X418110Y426378D03*X414173D03*X460630Y481102D03*Y477165D03*X472835Y364173D03*X476772D03*X434646Y397244D03*Y401181D03*X442520Y397244D03*Y401181D03*X485827Y397244D03*Y401181D03*X513386Y397244D03*Y401181D03*X517323Y397244D03*Y401181D03*X468504Y366142D03*Y362205D03*X472835Y357874D03*X476772D03*X450394Y351969D03*Y348031D03*X468504Y357874D03*X464567D03*X455906Y349606D03*Y353543D03*X462205Y366142D03*Y362205D03*Y349606D03*Y353543D03*X468504Y349606D03*Y353543D03*X451969Y357874D03*X448031D03*X509449Y397244D03*Y401181D03*X455906Y357874D03*X459843D03*X455906Y366142D03*Y362205D03*X502756Y376378D03*X506693D03*X502756Y370079D03*X506693D03*X531890Y376378D03*X527953D03*X531890Y370079D03*X527953D03*X531890Y365551D03*X527953D03*X483858Y321260D03*X479921D03*X480709Y364173D03*X484646D03*X462205Y341732D03*Y345669D03*Y337795D03*Y333858D03*Y325984D03*Y329921D03*X472441Y344882D03*Y348819D03*X487008Y345276D03*X490945D03*X500787Y349606D03*Y345669D03*X502756Y341732D03*X506693D03*X502756Y335433D03*X506693D03*Y326772D03*X502756D03*X446457Y340157D03*Y344094D03*X465748Y319291D03*X461811D03*X442913Y313386D03*Y317323D03*X451575D03*Y313386D03*X457874Y317323D03*Y313386D03*X486220Y317323D03*Y313386D03*X492520Y317323D03*Y313386D03*X528346Y326378D03*Y330315D03*X442520Y291732D03*X446457D03*X481496Y288189D03*Y292126D03*X486220Y288189D03*Y292126D03*X474803Y313386D03*Y317323D03*X492520Y288189D03*Y292126D03*X466142Y291732D03*X462205D03*X454331Y397244D03*Y401181D03*X462205Y397244D03*Y401181D03*X497638Y397244D03*Y401181D03*X511417Y385433D03*Y389370D03*X523228Y385433D03*Y389370D03*X484646Y352362D03*Y356299D03*X456299Y342126D03*X452362D03*X512992Y346457D03*X509055D03*X434646Y332677D03*X430709D03*X434646Y326378D03*X430709D03*X506693Y364173D03*X502756D03*X434646Y316535D03*X430709D03*X434646Y304724D03*X430709D03*X462598Y307087D03*Y311024D03*X454331Y291732D03*X458268D03*X528346Y338189D03*Y342126D03*X434646Y308661D03*X430709D03*X450394Y397244D03*Y401181D03*X458268Y397244D03*Y401181D03*X528346Y350000D03*Y346063D03*X466142Y397244D03*Y401181D03*X493701Y397244D03*Y401181D03*X519291Y385433D03*Y389370D03*X501575Y397244D03*Y401181D03*X434646Y312598D03*X430709D03*X505512Y397244D03*Y401181D03*X515354Y385433D03*Y389370D03*X430709Y366929D03*X434646D03*X462205Y374016D03*Y370079D03*X430709Y359055D03*Y362992D03*X434646Y359055D03*Y362992D03*X438583Y359055D03*Y362992D03*X440157Y344094D03*Y340157D03*X430709Y348031D03*Y351969D03*X434646Y348031D03*Y351969D03*X438583Y348031D03*Y351969D03*X430709Y344094D03*Y340157D03*X477953Y344882D03*Y348819D03*X442520Y348031D03*Y351969D03*X462992Y386220D03*X459055D03*X450000Y364173D03*X446063D03*X480709Y370472D03*X484646D03*X450000Y368110D03*X446063D03*X446457Y348031D03*Y351969D03*Y397244D03*Y401181D03*X489764Y397244D03*Y401181D03*X430709Y397244D03*Y401181D03*X438583Y397244D03*Y401181D03*X481890Y397244D03*Y401181D03*X430709Y370866D03*Y374803D03*X470079Y397244D03*Y401181D03*X474016D03*X477953D03*X430709Y386614D03*X434646D03*X430709Y382677D03*Y378740D03*X496850Y325984D03*Y329921D03*X484646Y360236D03*X480709D03*X493701Y361811D03*Y357874D03*X488583Y321260D03*X492520D03*X479921Y317323D03*Y313386D03*X502756Y359449D03*X506693D03*X490551Y329921D03*Y325984D03*X473228Y302362D03*X469291D03*X515748Y357087D03*Y353150D03*X472835Y240157D03*X476772D03*X434646Y273228D03*Y277165D03*X442520Y273228D03*Y277165D03*X485827Y273228D03*Y277165D03*X513386Y273228D03*Y277165D03*X517323Y273228D03*Y277165D03*X468504Y242126D03*Y238189D03*X472835Y233858D03*X476772D03*X450394Y227953D03*Y224016D03*X468504Y233858D03*X464567D03*X455906Y225591D03*Y229528D03*X462205Y242126D03*Y238189D03*Y225591D03*Y229528D03*X468504Y225591D03*Y229528D03*X451969Y233858D03*X448031D03*X509449Y273228D03*Y277165D03*X455906Y233858D03*X459843D03*X455906Y242126D03*Y238189D03*X502756Y252362D03*X506693D03*X502756Y246063D03*X506693D03*X531890Y252362D03*X527953D03*X531890Y246063D03*X527953D03*X531890Y241535D03*X527953D03*X483858Y197244D03*X479921D03*X480709Y240157D03*X484646D03*X462205Y217717D03*Y221654D03*Y213780D03*Y209843D03*Y201969D03*Y205906D03*X472441Y220866D03*Y224803D03*X487008Y221260D03*X490945D03*X500787Y225591D03*Y221654D03*X502756Y217717D03*X506693D03*X502756Y211417D03*X506693D03*Y202756D03*X502756D03*X446457Y216142D03*Y220079D03*X465748Y195276D03*X461811D03*X442913Y189370D03*Y193307D03*X451575D03*Y189370D03*X457874Y193307D03*Y189370D03*X486220Y193307D03*Y189370D03*X492520Y193307D03*Y189370D03*X528346Y202362D03*Y206299D03*X442520Y167717D03*X446457D03*X481496Y164173D03*Y168110D03*X486220Y164173D03*Y168110D03*X474803Y189370D03*Y193307D03*X492520Y164173D03*Y168110D03*X466142Y167717D03*X462205D03*X454331Y273228D03*Y277165D03*X462205Y273228D03*Y277165D03*X497638Y273228D03*Y277165D03*X511417Y261417D03*Y265354D03*X523228Y261417D03*Y265354D03*X484646Y228346D03*Y232283D03*X456299Y218110D03*X452362D03*X512992Y222441D03*X509055D03*X434646Y208661D03*X430709D03*X434646Y202362D03*X430709D03*X506693Y240157D03*X502756D03*X434646Y192520D03*X430709D03*X434646Y180709D03*X430709D03*X462598Y183071D03*Y187008D03*X454331Y167717D03*X458268D03*X528346Y214173D03*Y218110D03*X434646Y184646D03*X430709D03*X450394Y273228D03*Y277165D03*X458268Y273228D03*Y277165D03*X528346Y225984D03*Y222047D03*X466142Y273228D03*Y277165D03*X493701Y273228D03*Y277165D03*X519291Y261417D03*Y265354D03*X501575Y273228D03*Y277165D03*X434646Y188583D03*X430709D03*X505512Y273228D03*Y277165D03*X515354Y261417D03*Y265354D03*X430709Y242913D03*X434646D03*X462205Y250000D03*Y246063D03*X430709Y235039D03*Y238976D03*X434646Y235039D03*Y238976D03*X438583Y235039D03*Y238976D03*X440157Y220079D03*Y216142D03*X430709Y224016D03*Y227953D03*X434646Y224016D03*Y227953D03*X438583Y224016D03*Y227953D03*X430709Y220079D03*Y216142D03*X477953Y220866D03*Y224803D03*X442520Y224016D03*Y227953D03*X462992Y262205D03*X459055D03*X450000Y240157D03*X446063D03*X480709Y246457D03*X484646D03*X450000Y244094D03*X446063D03*X446457Y224016D03*Y227953D03*Y273228D03*Y277165D03*X489764Y273228D03*Y277165D03*X430709Y273228D03*Y277165D03*X438583Y273228D03*Y277165D03*X481890Y273228D03*Y277165D03*X430709Y246850D03*Y250787D03*X470079Y273228D03*Y277165D03*X474016D03*X477953D03*X430709Y262598D03*X434646D03*X430709Y258661D03*Y254724D03*X496850Y201969D03*Y205906D03*X484646Y236220D03*X480709D03*X493701Y237795D03*Y233858D03*X488583Y197244D03*X492520D03*X479921Y193307D03*Y189370D03*X502756Y235433D03*X506693D03*X490551Y205906D03*Y201969D03*X473228Y178346D03*X469291D03*X515748Y233071D03*Y229134D03*X491732Y521260D03*Y525197D03*X499606Y521260D03*Y525197D03*X542913Y521260D03*Y525197D03*X570472Y521260D03*Y525197D03*X574409Y521260D03*Y525197D03*X566535Y521260D03*Y525197D03*X511417Y521260D03*Y525197D03*X519291Y521260D03*Y525197D03*X554724Y521260D03*Y525197D03*X507480Y521260D03*Y525197D03*X515354Y521260D03*Y525197D03*X523228Y521260D03*Y525197D03*X550787Y521260D03*Y525197D03*X558661Y521260D03*Y525197D03*X562598Y521260D03*Y525197D03*X520079Y510236D03*X516142D03*X503543Y521260D03*Y525197D03*X546850Y521260D03*Y525197D03*X487795Y521260D03*Y525197D03*X495669Y521260D03*Y525197D03*X538976Y521260D03*Y525197D03*X487795Y494882D03*Y498819D03*X527165Y521260D03*Y525197D03*X531102D03*X535039D03*X487795Y510630D03*X491732D03*X487795Y506693D03*Y502756D03*X546850Y397244D03*Y401181D03*X554724Y397244D03*Y401181D03*X598031Y397244D03*Y401181D03*X625591Y397244D03*Y401181D03*X799606Y386220D03*X795669D03*X629528Y397244D03*Y401181D03*X621654Y397244D03*Y401181D03*X566535Y397244D03*Y401181D03*X574409Y397244D03*Y401181D03*X609843Y397244D03*Y401181D03*X562598Y397244D03*Y401181D03*X570472Y397244D03*Y401181D03*X578346Y397244D03*Y401181D03*X605906Y397244D03*Y401181D03*X613780Y397244D03*Y401181D03*X617717Y397244D03*Y401181D03*X575197Y386220D03*X571260D03*X558661Y397244D03*Y401181D03*X601969Y397244D03*Y401181D03*X542913Y397244D03*Y401181D03*X550787Y397244D03*Y401181D03*X594094Y397244D03*Y401181D03*X542913Y370866D03*Y374803D03*X582283Y397244D03*Y401181D03*X586220D03*X590157D03*X542913Y386614D03*X546850D03*X542913Y382677D03*Y378740D03*X546850Y273228D03*Y277165D03*X554724Y273228D03*Y277165D03*X598031Y273228D03*Y277165D03*X625591Y273228D03*Y277165D03*X629528Y273228D03*Y277165D03*X621654Y273228D03*Y277165D03*X566535Y273228D03*Y277165D03*X574409Y273228D03*Y277165D03*X609843Y273228D03*Y277165D03*X562598Y273228D03*Y277165D03*X570472Y273228D03*Y277165D03*X578346Y273228D03*Y277165D03*X605906Y273228D03*Y277165D03*X613780Y273228D03*Y277165D03*X617717Y273228D03*Y277165D03*X575197Y262205D03*X571260D03*X558661Y273228D03*Y277165D03*X601969Y273228D03*Y277165D03*X542913Y273228D03*Y277165D03*X550787Y273228D03*Y277165D03*X594094Y273228D03*Y277165D03*X542913Y246850D03*Y250787D03*X582283Y273228D03*Y277165D03*X586220D03*X590157D03*X542913Y262598D03*X546850D03*X542913Y258661D03*Y254724D03*X603937Y521260D03*Y525197D03*X611811Y521260D03*Y525197D03*X655118Y521260D03*Y525197D03*X682677Y521260D03*Y525197D03*X686614Y521260D03*Y525197D03*X678740Y521260D03*Y525197D03*X623622Y521260D03*Y525197D03*X631496Y521260D03*Y525197D03*X666929Y521260D03*Y525197D03*X619685Y521260D03*Y525197D03*X627559Y521260D03*Y525197D03*X635433Y521260D03*Y525197D03*X662992Y521260D03*Y525197D03*X670866Y521260D03*Y525197D03*X674803Y521260D03*Y525197D03*X632283Y510236D03*X628346D03*X615748Y521260D03*Y525197D03*X659055Y521260D03*Y525197D03*X600000Y521260D03*Y525197D03*X607874Y521260D03*Y525197D03*X651181Y521260D03*Y525197D03*X600000Y494882D03*Y498819D03*X639370Y521260D03*Y525197D03*X643307D03*X647244D03*X600000Y510630D03*X603937D03*X600000Y506693D03*Y502756D03*X659055Y397244D03*Y401181D03*X666929Y397244D03*Y401181D03*X710236Y397244D03*Y401181D03*X737795Y397244D03*Y401181D03*X741732Y397244D03*Y401181D03*X733858Y397244D03*Y401181D03*X678740Y397244D03*Y401181D03*X686614Y397244D03*Y401181D03*X722047Y397244D03*Y401181D03*X674803Y397244D03*Y401181D03*X682677Y397244D03*Y401181D03*X690551Y397244D03*Y401181D03*X718110Y397244D03*Y401181D03*X725984Y397244D03*Y401181D03*X729921Y397244D03*Y401181D03*X687402Y386220D03*X683465D03*X670866Y397244D03*Y401181D03*X714173Y397244D03*Y401181D03*X655118Y397244D03*Y401181D03*X662992Y397244D03*Y401181D03*X706299Y397244D03*Y401181D03*X655118Y370866D03*Y374803D03*X694488Y397244D03*Y401181D03*X698425D03*X702362D03*X655118Y386614D03*X659055D03*X655118Y382677D03*Y378740D03*X659055Y273228D03*Y277165D03*X666929Y273228D03*Y277165D03*X710236Y273228D03*Y277165D03*X737795Y273228D03*Y277165D03*X911811Y262205D03*X907874D03*X741732Y273228D03*Y277165D03*X733858Y273228D03*Y277165D03*X678740Y273228D03*Y277165D03*X686614Y273228D03*Y277165D03*X722047Y273228D03*Y277165D03*X674803Y273228D03*Y277165D03*X682677Y273228D03*Y277165D03*X690551Y273228D03*Y277165D03*X718110Y273228D03*Y277165D03*X725984Y273228D03*Y277165D03*X729921Y273228D03*Y277165D03*X687402Y262205D03*X683465D03*X670866Y273228D03*Y277165D03*X714173Y273228D03*Y277165D03*X655118Y273228D03*Y277165D03*X662992Y273228D03*Y277165D03*X706299Y273228D03*Y277165D03*X655118Y246850D03*Y250787D03*X694488Y273228D03*Y277165D03*X698425D03*X702362D03*X655118Y262598D03*X659055D03*X655118Y258661D03*Y254724D03*X716142Y521260D03*Y525197D03*X724016Y521260D03*Y525197D03*X767323Y521260D03*Y525197D03*X794882Y521260D03*Y525197D03*X798819Y521260D03*Y525197D03*X790945Y521260D03*Y525197D03*X735827Y521260D03*Y525197D03*X743701Y521260D03*Y525197D03*X779134Y521260D03*Y525197D03*X731890Y521260D03*Y525197D03*X739764Y521260D03*Y525197D03*X747638Y521260D03*Y525197D03*X775197Y521260D03*Y525197D03*X783071Y521260D03*Y525197D03*X787008Y521260D03*Y525197D03*X743701Y498031D03*Y494094D03*X727953Y521260D03*Y525197D03*X771260Y521260D03*Y525197D03*X712205Y521260D03*Y525197D03*X720079Y521260D03*Y525197D03*X763386Y521260D03*Y525197D03*X712205Y494882D03*Y498819D03*X751575Y521260D03*Y525197D03*X755512D03*X759449D03*X712205Y510630D03*X716142D03*X712205Y506693D03*Y502756D03*X771260Y397244D03*Y401181D03*X779134Y397244D03*Y401181D03*X822441Y397244D03*Y401181D03*X850000Y397244D03*Y401181D03*X853937Y397244D03*Y401181D03*X846063Y397244D03*Y401181D03*X790945Y397244D03*Y401181D03*X798819Y397244D03*Y401181D03*X834252Y397244D03*Y401181D03*X787008Y397244D03*Y401181D03*X794882Y397244D03*Y401181D03*X802756Y397244D03*Y401181D03*X830315Y397244D03*Y401181D03*X838189Y397244D03*Y401181D03*X842126Y397244D03*Y401181D03*X783071Y397244D03*Y401181D03*X826378Y397244D03*Y401181D03*X767323Y397244D03*Y401181D03*X775197Y397244D03*Y401181D03*X818504Y397244D03*Y401181D03*X767323Y370866D03*Y374803D03*X806693Y397244D03*Y401181D03*X810630D03*X814567D03*X767323Y386614D03*X771260D03*X767323Y382677D03*Y378740D03*X771260Y273228D03*Y277165D03*X779134Y273228D03*Y277165D03*X822441Y273228D03*Y277165D03*X850000Y273228D03*Y277165D03*X853937Y273228D03*Y277165D03*X846063Y273228D03*Y277165D03*X790945Y273228D03*Y277165D03*X798819Y273228D03*Y277165D03*X834252Y273228D03*Y277165D03*X787008Y273228D03*Y277165D03*X794882Y273228D03*Y277165D03*X802756Y273228D03*Y277165D03*X830315Y273228D03*Y277165D03*X838189Y273228D03*Y277165D03*X842126Y273228D03*Y277165D03*X799606Y262205D03*X795669D03*X783071Y273228D03*Y277165D03*X826378Y273228D03*Y277165D03*X767323Y273228D03*Y277165D03*X775197Y273228D03*Y277165D03*X818504Y273228D03*Y277165D03*X767323Y246850D03*Y250787D03*X806693Y273228D03*Y277165D03*X810630D03*X814567D03*X767323Y262598D03*X771260D03*X767323Y258661D03*Y254724D03*X828346Y521260D03*Y525197D03*X836220Y521260D03*Y525197D03*X879528Y521260D03*Y525197D03*X907087Y521260D03*Y525197D03*X911024Y521260D03*Y525197D03*X903150Y521260D03*Y525197D03*X848031Y521260D03*Y525197D03*X855906Y521260D03*Y525197D03*X891339Y521260D03*Y525197D03*X844094Y521260D03*Y525197D03*X851969Y521260D03*Y525197D03*X859843Y521260D03*Y525197D03*X887402Y521260D03*Y525197D03*X895276Y521260D03*Y525197D03*X899213Y521260D03*Y525197D03*X856693Y510236D03*X852756D03*X840157Y521260D03*Y525197D03*X883465Y521260D03*Y525197D03*X824409Y521260D03*Y525197D03*X832283Y521260D03*Y525197D03*X875591Y521260D03*Y525197D03*X824409Y494882D03*Y498819D03*X863780Y521260D03*Y525197D03*X867717D03*X871654D03*X824409Y510630D03*X828346D03*X824409Y506693D03*Y502756D03*X883465Y397244D03*Y401181D03*X891339Y397244D03*Y401181D03*X934646Y397244D03*Y401181D03*X962205Y397244D03*Y401181D03*X966142Y397244D03*Y401181D03*X958268Y397244D03*Y401181D03*X903150Y397244D03*Y401181D03*X911024Y397244D03*Y401181D03*X946457Y397244D03*Y401181D03*X899213Y397244D03*Y401181D03*X907087Y397244D03*Y401181D03*X914961Y397244D03*Y401181D03*X942520Y397244D03*Y401181D03*X950394Y397244D03*Y401181D03*X954331Y397244D03*Y401181D03*X911811Y386220D03*X907874D03*X895276Y397244D03*Y401181D03*X938583Y397244D03*Y401181D03*X879528Y397244D03*Y401181D03*X887402Y397244D03*Y401181D03*X930709Y397244D03*Y401181D03*X879528Y370866D03*Y374803D03*X918898Y397244D03*Y401181D03*X922835D03*X926772D03*X879528Y386614D03*X883465D03*X879528Y382677D03*Y378740D03*X883465Y273228D03*Y277165D03*X891339Y273228D03*Y277165D03*X934646Y273228D03*Y277165D03*X962205Y273228D03*Y277165D03*X966142Y273228D03*Y277165D03*X958268Y273228D03*Y277165D03*X903150Y273228D03*Y277165D03*X911024Y273228D03*Y277165D03*X946457Y273228D03*Y277165D03*X899213Y273228D03*Y277165D03*X907087Y273228D03*Y277165D03*X914961Y273228D03*Y277165D03*X942520Y273228D03*Y277165D03*X950394Y273228D03*Y277165D03*X954331Y273228D03*Y277165D03*X895276Y273228D03*Y277165D03*X938583Y273228D03*Y277165D03*X879528Y273228D03*Y277165D03*X887402Y273228D03*Y277165D03*X930709Y273228D03*Y277165D03*X879528Y246850D03*Y250787D03*X918898Y273228D03*Y277165D03*X922835D03*X926772D03*X879528Y262598D03*X883465D03*X879528Y258661D03*Y254724D03*X940551Y521260D03*Y525197D03*X948425Y521260D03*Y525197D03*X991732Y521260D03*Y525197D03*X1019291Y521260D03*Y525197D03*X1023228Y521260D03*Y525197D03*X1015354Y521260D03*Y525197D03*X960236Y521260D03*Y525197D03*X968110Y521260D03*Y525197D03*X1003543Y521260D03*Y525197D03*X956299Y521260D03*Y525197D03*X964173Y521260D03*Y525197D03*X972047Y521260D03*Y525197D03*X999606Y521260D03*Y525197D03*X1007480Y521260D03*Y525197D03*X1011417Y521260D03*Y525197D03*X968898Y510236D03*X964961D03*X952362Y521260D03*Y525197D03*X995669Y521260D03*Y525197D03*X936614Y521260D03*Y525197D03*X944488Y521260D03*Y525197D03*X987795Y521260D03*Y525197D03*X936614Y494882D03*Y498819D03*X975984Y521260D03*Y525197D03*X979921D03*X983858D03*X936614Y510630D03*X940551D03*X936614Y506693D03*Y502756D03*X995669Y397244D03*Y401181D03*X1003543Y397244D03*Y401181D03*X1046850Y397244D03*Y401181D03*X1074409Y397244D03*Y401181D03*X1078346Y397244D03*Y401181D03*X1070472Y397244D03*Y401181D03*X1015354Y397244D03*Y401181D03*X1023228Y397244D03*Y401181D03*X1058661Y397244D03*Y401181D03*X1011417Y397244D03*Y401181D03*X1019291Y397244D03*Y401181D03*X1027165Y397244D03*Y401181D03*X1054724Y397244D03*Y401181D03*X1062598Y397244D03*Y401181D03*X1066535Y397244D03*Y401181D03*X1024016Y386220D03*X1020079D03*X1007480Y397244D03*Y401181D03*X1050787Y397244D03*Y401181D03*X991732Y397244D03*Y401181D03*X999606Y397244D03*Y401181D03*X1042913Y397244D03*Y401181D03*X991732Y370866D03*Y374803D03*X1031102Y397244D03*Y401181D03*X1035039D03*X1038976D03*X991732Y386614D03*X995669D03*X991732Y382677D03*Y378740D03*X995669Y273228D03*Y277165D03*X1003543Y273228D03*Y277165D03*X1046850Y273228D03*Y277165D03*X1074409Y273228D03*Y277165D03*X1078346Y273228D03*Y277165D03*X1070472Y273228D03*Y277165D03*X1015354Y273228D03*Y277165D03*X1023228Y273228D03*Y277165D03*X1058661Y273228D03*Y277165D03*X1011417Y273228D03*Y277165D03*X1019291Y273228D03*Y277165D03*X1027165Y273228D03*Y277165D03*X1054724Y273228D03*Y277165D03*X1062598Y273228D03*Y277165D03*X1066535Y273228D03*Y277165D03*X1024016Y262205D03*X1020079D03*X1007480Y273228D03*Y277165D03*X1050787Y273228D03*Y277165D03*X991732Y273228D03*Y277165D03*X999606Y273228D03*Y277165D03*X1042913Y273228D03*Y277165D03*X991732Y246850D03*Y250787D03*X1031102Y273228D03*Y277165D03*X1035039D03*X1038976D03*X991732Y262598D03*X995669D03*X991732Y258661D03*Y254724D03*X1090945Y488189D03*X1094882D03*X1052756Y521260D03*Y525197D03*X1060630Y521260D03*Y525197D03*X1103937Y521260D03*Y525197D03*X1131496Y521260D03*Y525197D03*X1135433Y521260D03*Y525197D03*X1086614Y490157D03*Y486220D03*X1090945Y481890D03*X1094882D03*X1068504Y475984D03*Y472047D03*X1086614Y481890D03*X1082677D03*X1074016Y473622D03*Y477559D03*X1080315Y490157D03*Y486220D03*Y473622D03*Y477559D03*X1086614Y473622D03*Y477559D03*X1070079Y481890D03*X1066142D03*X1127559Y521260D03*Y525197D03*X1074016Y481890D03*X1077953D03*X1074016Y490157D03*Y486220D03*X1120866Y500394D03*X1124803D03*X1120866Y494094D03*X1124803D03*X1150000Y500394D03*X1146063D03*X1150000Y494094D03*X1146063D03*X1150000Y489567D03*X1146063D03*X1101969Y445276D03*X1098031D03*X1098819Y488189D03*X1102756D03*X1080315Y465748D03*Y469685D03*Y461811D03*Y457874D03*Y450000D03*Y453937D03*X1090551Y468898D03*Y472835D03*X1105118Y469291D03*X1109055D03*X1118898Y473622D03*Y469685D03*X1120866Y465748D03*X1124803D03*X1120866Y459449D03*X1124803D03*Y450787D03*X1120866D03*X1064567Y464173D03*Y468110D03*X1083858Y443307D03*X1079921D03*X1061024Y437402D03*Y441339D03*X1069685D03*Y437402D03*X1075984Y441339D03*Y437402D03*X1104331Y441339D03*Y437402D03*X1110630Y441339D03*Y437402D03*X1146457Y450394D03*Y454331D03*X1060630Y415748D03*X1064567D03*X1099606Y412205D03*Y416142D03*X1104331Y412205D03*Y416142D03*X1092913Y437402D03*Y441339D03*X1110630Y412205D03*Y416142D03*X1084252Y415748D03*X1080315D03*X1072441Y521260D03*Y525197D03*X1080315Y521260D03*Y525197D03*X1115748Y521260D03*Y525197D03*X1129528Y509449D03*Y513386D03*X1141339Y509449D03*Y513386D03*X1102756Y476378D03*Y480315D03*X1074409Y466142D03*X1070472D03*X1131102Y470472D03*X1127165D03*X1052756Y456693D03*X1048819D03*X1052756Y450394D03*X1048819D03*X1124803Y488189D03*X1120866D03*X1052756Y440551D03*X1048819D03*X1052756Y428740D03*X1048819D03*X1080709Y431102D03*Y435039D03*X1072441Y415748D03*X1076378D03*X1146457Y462205D03*Y466142D03*X1052756Y432677D03*X1048819D03*X1068504Y521260D03*Y525197D03*X1076378Y521260D03*Y525197D03*X1146457Y474016D03*Y470079D03*X1084252Y521260D03*Y525197D03*X1111811Y521260D03*Y525197D03*X1137402Y509449D03*Y513386D03*X1119685Y521260D03*Y525197D03*X1052756Y436614D03*X1048819D03*X1123622Y521260D03*Y525197D03*X1133465Y509449D03*Y513386D03*X1048819Y490945D03*X1052756D03*X1080315Y498031D03*Y494094D03*X1048819Y483071D03*Y487008D03*X1052756Y483071D03*Y487008D03*X1056693Y483071D03*Y487008D03*X1058268Y468110D03*Y464173D03*X1048819Y472047D03*Y475984D03*X1052756Y472047D03*Y475984D03*X1056693Y472047D03*Y475984D03*X1048819Y468110D03*Y464173D03*X1096063Y468898D03*Y472835D03*X1060630Y472047D03*Y475984D03*X1081102Y510236D03*X1077165D03*X1068110Y488189D03*X1064173D03*X1098819Y494488D03*X1102756D03*X1068110Y492126D03*X1064173D03*X1064567Y472047D03*Y475984D03*Y521260D03*Y525197D03*X1107874Y521260D03*Y525197D03*X1048819Y521260D03*Y525197D03*X1056693Y521260D03*Y525197D03*X1048819Y494882D03*Y498819D03*X1088189Y521260D03*Y525197D03*X1092126Y521260D03*X1096063D03*X1092126Y525197D03*X1096063D03*X1048819Y510630D03*X1052756D03*X1048819Y506693D03*Y502756D03*X1114961Y450000D03*Y453937D03*X1102756Y484252D03*X1098819D03*X1111811Y485827D03*Y481890D03*X1106693Y445276D03*X1110630D03*X1098031Y441339D03*Y437402D03*X1120866Y483465D03*X1124803D03*X1108661Y453937D03*Y450000D03*X1091339Y426378D03*X1087402D03*X1133858Y481102D03*Y477165D03*X1146063Y364173D03*X1150000D03*X1107874Y397244D03*Y401181D03*X1115748Y397244D03*Y401181D03*X1159055Y397244D03*Y401181D03*X1186614Y397244D03*Y401181D03*X1190551Y397244D03*Y401181D03*X1141732Y366142D03*Y362205D03*X1146063Y357874D03*X1150000D03*X1123622Y351969D03*Y348031D03*X1141732Y357874D03*X1137795D03*X1129134Y349606D03*Y353543D03*X1135433Y366142D03*Y362205D03*Y349606D03*Y353543D03*X1141732Y349606D03*Y353543D03*X1125197Y357874D03*X1121260D03*X1182677Y397244D03*Y401181D03*X1129134Y357874D03*X1133071D03*X1129134Y366142D03*Y362205D03*X1175984Y376378D03*X1179921D03*X1175984Y370079D03*X1179921D03*X1205118Y376378D03*X1201181D03*X1205118Y370079D03*X1201181D03*X1205118Y365551D03*X1201181D03*X1157087Y321260D03*X1153150D03*X1153937Y364173D03*X1157874D03*X1135433Y341732D03*Y345669D03*Y337795D03*Y333858D03*Y325984D03*Y329921D03*X1145669Y344882D03*Y348819D03*X1160236Y345276D03*X1164173D03*X1174016Y349606D03*Y345669D03*X1175984Y341732D03*X1179921D03*X1175984Y335433D03*X1179921D03*Y326772D03*X1175984D03*X1119685Y340157D03*Y344094D03*X1138976Y319291D03*X1135039D03*X1116142Y313386D03*Y317323D03*X1124803D03*Y313386D03*X1131102Y317323D03*Y313386D03*X1159449Y317323D03*Y313386D03*X1165748Y317323D03*Y313386D03*X1201575Y326378D03*Y330315D03*X1115748Y291732D03*X1119685D03*X1154724Y288189D03*Y292126D03*X1159449Y288189D03*Y292126D03*X1148031Y313386D03*Y317323D03*X1165748Y288189D03*Y292126D03*X1139370Y291732D03*X1135433D03*X1127559Y397244D03*Y401181D03*X1135433Y397244D03*Y401181D03*X1170866Y397244D03*Y401181D03*X1184646Y385433D03*Y389370D03*X1196457Y385433D03*Y389370D03*X1157874Y352362D03*Y356299D03*X1129528Y342126D03*X1125591D03*X1186220Y346457D03*X1182283D03*X1107874Y332677D03*X1103937D03*X1107874Y326378D03*X1103937D03*X1179921Y364173D03*X1175984D03*X1107874Y316535D03*X1103937D03*X1107874Y304724D03*X1103937D03*X1135827Y307087D03*Y311024D03*X1127559Y291732D03*X1131496D03*X1201575Y338189D03*Y342126D03*X1107874Y308661D03*X1103937D03*X1123622Y397244D03*Y401181D03*X1131496Y397244D03*Y401181D03*X1201575Y350000D03*Y346063D03*X1139370Y397244D03*Y401181D03*X1166929Y397244D03*Y401181D03*X1192520Y385433D03*Y389370D03*X1174803Y397244D03*Y401181D03*X1107874Y312598D03*X1103937D03*X1178740Y397244D03*Y401181D03*X1188583Y385433D03*Y389370D03*X1103937Y366929D03*X1107874D03*X1135433Y374016D03*Y370079D03*X1103937Y359055D03*Y362992D03*X1107874Y359055D03*Y362992D03*X1111811Y359055D03*Y362992D03*X1113386Y344094D03*Y340157D03*X1103937Y348031D03*Y351969D03*X1107874Y348031D03*Y351969D03*X1111811Y348031D03*Y351969D03*X1103937Y344094D03*Y340157D03*X1151181Y344882D03*Y348819D03*X1115748Y348031D03*Y351969D03*X1136220Y386220D03*X1132283D03*X1123228Y364173D03*X1119291D03*X1153937Y370472D03*X1157874D03*X1123228Y368110D03*X1119291D03*X1119685Y348031D03*Y351969D03*Y397244D03*Y401181D03*X1162992Y397244D03*Y401181D03*X1103937Y397244D03*Y401181D03*X1111811Y397244D03*Y401181D03*X1103937Y370866D03*Y374803D03*X1143307Y397244D03*Y401181D03*X1147244Y397244D03*X1151181D03*X1147244Y401181D03*X1151181D03*X1103937Y386614D03*X1107874D03*X1103937Y382677D03*Y378740D03*X1170079Y325984D03*Y329921D03*X1157874Y360236D03*X1153937D03*X1166929Y361811D03*Y357874D03*X1161811Y321260D03*X1165748D03*X1153150Y317323D03*Y313386D03*X1175984Y359449D03*X1179921D03*X1163780Y329921D03*Y325984D03*X1146457Y302362D03*X1142520D03*X1188976Y357087D03*Y353150D03*X1146063Y240157D03*X1150000D03*X1107874Y273228D03*Y277165D03*X1115748Y273228D03*Y277165D03*X1159055Y273228D03*Y277165D03*X1186614Y273228D03*Y277165D03*X1190551Y273228D03*Y277165D03*X1141732Y242126D03*Y238189D03*X1146063Y233858D03*X1150000D03*X1123622Y227953D03*Y224016D03*X1141732Y233858D03*X1137795D03*X1129134Y225591D03*Y229528D03*X1135433Y242126D03*Y238189D03*Y225591D03*Y229528D03*X1141732Y225591D03*Y229528D03*X1125197Y233858D03*X1121260D03*X1182677Y273228D03*Y277165D03*X1129134Y233858D03*X1133071D03*X1129134Y242126D03*Y238189D03*X1175984Y252362D03*X1179921D03*X1175984Y246063D03*X1179921D03*X1205118Y252362D03*X1201181D03*X1205118Y246063D03*X1201181D03*X1205118Y241535D03*X1201181D03*X1157087Y197244D03*X1153150D03*X1153937Y240157D03*X1157874D03*X1135433Y217717D03*Y221654D03*Y213780D03*Y209843D03*Y201969D03*Y205906D03*X1145669Y220866D03*Y224803D03*X1160236Y221260D03*X1164173D03*X1174016Y225591D03*Y221654D03*X1175984Y217717D03*X1179921D03*X1175984Y211417D03*X1179921D03*Y202756D03*X1175984D03*X1119685Y216142D03*Y220079D03*X1138976Y195276D03*X1135039D03*X1116142Y189370D03*Y193307D03*X1124803D03*Y189370D03*X1131102Y193307D03*Y189370D03*X1159449Y193307D03*Y189370D03*X1165748Y193307D03*Y189370D03*X1201575Y202362D03*Y206299D03*X1115748Y167717D03*X1119685D03*X1154724Y164173D03*Y168110D03*X1159449Y164173D03*Y168110D03*X1148031Y189370D03*Y193307D03*X1165748Y164173D03*Y168110D03*X1139370Y167717D03*X1135433D03*X1127559Y273228D03*Y277165D03*X1135433Y273228D03*Y277165D03*X1170866Y273228D03*Y277165D03*X1184646Y261417D03*Y265354D03*X1196457Y261417D03*Y265354D03*X1157874Y228346D03*Y232283D03*X1129528Y218110D03*X1125591D03*X1186220Y222441D03*X1182283D03*X1107874Y208661D03*X1103937D03*X1107874Y202362D03*X1103937D03*X1179921Y240157D03*X1175984D03*X1107874Y192520D03*X1103937D03*X1107874Y180709D03*X1103937D03*X1135827Y183071D03*Y187008D03*X1127559Y167717D03*X1131496D03*X1201575Y214173D03*Y218110D03*X1107874Y184646D03*X1103937D03*X1123622Y273228D03*Y277165D03*X1131496Y273228D03*Y277165D03*X1201575Y225984D03*Y222047D03*X1139370Y273228D03*Y277165D03*X1166929Y273228D03*Y277165D03*X1192520Y261417D03*Y265354D03*X1174803Y273228D03*Y277165D03*X1107874Y188583D03*X1103937D03*X1178740Y273228D03*Y277165D03*X1188583Y261417D03*Y265354D03*X1103937Y242913D03*X1107874D03*X1135433Y250000D03*Y246063D03*X1103937Y235039D03*Y238976D03*X1107874Y235039D03*Y238976D03*X1111811Y235039D03*Y238976D03*X1113386Y220079D03*Y216142D03*X1103937Y224016D03*Y227953D03*X1107874Y224016D03*Y227953D03*X1111811Y224016D03*Y227953D03*X1103937Y220079D03*Y216142D03*X1151181Y220866D03*Y224803D03*X1115748Y224016D03*Y227953D03*X1136220Y262205D03*X1132283D03*X1123228Y240157D03*X1119291D03*X1153937Y246457D03*X1157874D03*X1123228Y244094D03*X1119291D03*X1119685Y224016D03*Y227953D03*Y273228D03*Y277165D03*X1162992Y273228D03*Y277165D03*X1103937Y273228D03*Y277165D03*X1111811Y273228D03*Y277165D03*X1103937Y246850D03*Y250787D03*X1143307Y273228D03*Y277165D03*X1147244Y273228D03*X1151181D03*X1147244Y277165D03*X1151181D03*X1103937Y262598D03*X1107874D03*X1103937Y258661D03*Y254724D03*X1170079Y201969D03*Y205906D03*X1157874Y236220D03*X1153937D03*X1166929Y237795D03*Y233858D03*X1161811Y197244D03*X1165748D03*X1153150Y193307D03*Y189370D03*X1175984Y235433D03*X1179921D03*X1163780Y205906D03*Y201969D03*X1146457Y178346D03*X1142520D03*X1188976Y233071D03*Y229134D03*X224016Y369685D03*Y373622D03*X159055Y261417D03*Y257480D03*X227953Y346063D03*Y350000D03*X1279134Y314567D03*Y310630D03*X1267323D03*Y314567D03*X224016Y346063D03*Y350000D03*X147244Y322441D03*Y326378D03*X290945Y422835D03*Y426772D03*X159055Y326378D03*Y322441D03*X294882Y422835D03*Y426772D03*X147244Y192520D03*Y196457D03*X257480Y346063D03*Y350000D03*X159055Y196457D03*Y192520D03*X1279134Y237795D03*Y233858D03*X253543Y346063D03*Y350000D03*X1267323Y233858D03*Y237795D03*X294882Y346063D03*X298819D03*Y334252D03*X294882D03*X389370Y298819D03*X385433D03*X257480Y322441D03*Y326378D03*X322441Y342126D03*X326378D03*X302756Y322441D03*X306693D03*X365748Y290945D03*X361811D03*X314567Y338189D03*X318504D03*X314567Y326378D03*X318504D03*Y314567D03*X314567D03*Y271260D03*Y267323D03*X322441Y263386D03*X326378D03*Y251575D03*X322441D03*X314567Y334252D03*X318504D03*X253543Y322441D03*Y326378D03*X298819Y330315D03*X294882D03*X322441Y338189D03*X326378D03*Y326378D03*X322441D03*X314567Y322441D03*X318504D03*X294882Y342126D03*X298819D03*X326378Y318504D03*X322441D03*X326378Y322441D03*X322441D03*X306693Y318504D03*X310630D03*X306693Y314567D03*X310630D03*X326378Y330315D03*X322441D03*X227953Y322441D03*Y326378D03*X294882Y306693D03*X298819D03*X306693Y310630D03*X310630D03*X393307Y287008D03*X389370D03*X330315Y318504D03*X334252D03*X326378Y290945D03*X322441D03*X377559Y334252D03*X381496D03*Y322441D03*X377559D03*X373622Y306693D03*X369685D03*X377559Y294882D03*X381496D03*X385433Y283071D03*X389370D03*X224016Y322441D03*Y326378D03*X385433Y271260D03*X389370D03*X326378Y287008D03*X322441D03*X294882Y314567D03*X298819D03*X294882Y259449D03*X298819D03*Y247638D03*X302756D03*X322441Y259449D03*X326378D03*Y243701D03*X322441D03*X334252Y306693D03*X330315D03*X342126Y283071D03*X338189D03*X326378Y279134D03*X322441D03*X373622D03*X377559D03*X302756Y271260D03*X298819D03*X294882Y267323D03*X298819D03*X294882Y350000D03*X298819D03*X322441Y346063D03*X326378D03*X314567Y342126D03*X318504D03*X298819Y338189D03*X294882D03*X377559D03*X381496D03*X314567Y330315D03*X318504D03*X334252Y263386D03*X330315D03*X393307Y259449D03*Y263386D03*X385433Y275197D03*X389370D03*X369685Y287008D03*X373622D03*X381496Y330315D03*X377559D03*X393307Y322441D03*X389370D03*X334252Y267323D03*X330315D03*X377559Y263386D03*X381496D03*X306693Y259449D03*X310630D03*X298819Y255512D03*X302756D03*X389370Y259449D03*X385433D03*X314567Y247638D03*X318504D03*X393307Y330315D03*X389370D03*X294882Y310630D03*X298819D03*X294882Y263386D03*X298819D03*Y251575D03*X302756D03*X314567Y243701D03*X318504D03*X326378Y247638D03*X322441D03*X385433Y314567D03*X381496D03*X389370Y342126D03*X385433D03*X377559D03*X381496D03*X389370Y306693D03*X385433D03*X377559Y255512D03*X381496D03*X385433Y279134D03*X389370D03*Y338189D03*X385433D03*X393307Y247638D03*X389370D03*X393307Y326378D03*X389370D03*X377559Y259449D03*X381496D03*X369685Y318504D03*X373622D03*X385433Y310630D03*X381496D03*X389370Y263386D03*X385433D03*X393307Y243701D03*X389370D03*X373622Y275197D03*X377559D03*X393307Y290945D03*X389370D03*Y302756D03*X385433D03*X381496Y326378D03*X377559D03*X373622Y310630D03*X369685D03*X318504Y318504D03*X314567D03*X330315Y322441D03*X334252D03*X326378Y334252D03*X322441D03*X389370D03*X385433D03*X377559Y346063D03*X381496D03*X361811Y271260D03*X365748D03*X361811Y267323D03*X365748D03*X389370Y251575D03*X385433D03*X389370Y255512D03*X385433D03*X334252Y271260D03*X330315D03*X334252Y275197D03*X330315D03*X306693Y255512D03*X310630D03*X306693Y251575D03*X310630D03*X373622Y294882D03*X369685D03*X222047Y464173D03*Y460236D03*X373622Y290945D03*X369685D03*X373622Y298819D03*X369685D03*X373622Y302756D03*X369685D03*X367717Y525197D03*X363780D03*X367717Y521260D03*X363780D03*X422835Y401181D03*X418898D03*X422835Y397244D03*X418898D03*X422835Y277165D03*X418898D03*X422835Y273228D03*X418898D03*X334252Y283071D03*X330315D03*X217618Y470079D03*X213681D03*X294882Y357874D03*Y361811D03*X298819Y357874D03*Y361811D03*X302756Y357874D03*Y361811D03*X306693Y357874D03*Y361811D03*X310630Y357874D03*Y361811D03*X314567Y357874D03*Y361811D03*X318504Y357874D03*Y361811D03*X322441Y357874D03*Y361811D03*X342126Y287008D03*X338189D03*X346063Y275197D03*X350000D03*X353937D03*X357874D03*X346063Y322441D03*X350000D03*X218110Y475984D03*X214173D03*X342126Y306693D03*X338189D03*X342126Y318504D03*X338189D03*X357874Y314567D03*X353937D03*X346063Y310630D03*X350000D03*X357874Y306693D03*X353937D03*X346063Y302756D03*X350000D03*X357874Y298819D03*X353937D03*X346063Y294882D03*X350000D03*X357874Y290945D03*X353937D03*X346063Y287008D03*X350000D03*X357874Y283071D03*X353937D03*X346063Y279134D03*X350000D03*X353937D03*X357874D03*X350000Y314567D03*X346063D03*X353937Y310630D03*X357874D03*X350000Y306693D03*X346063D03*X353937Y287008D03*X357874D03*X350000Y283071D03*X346063D03*X357874Y302756D03*X353937D03*X346063Y298819D03*X350000D03*X357874Y294882D03*X353937D03*X334252D03*X330315D03*X334252Y298819D03*X330315D03*X334252Y302756D03*X330315D03*X342126Y279134D03*X338189D03*X342126Y275197D03*X338189D03*X334252Y290945D03*X330315D03*X342126Y310630D03*X338189D03*X342126Y314567D03*X338189D03*X334252Y287008D03*X330315D03*X218110Y481890D03*X214173D03*X342126Y330315D03*X338189D03*X357874Y271260D03*X353937D03*X369685Y259449D03*X373622D03*X369685Y267323D03*X373622D03*X369685Y263386D03*X373622D03*X369685Y271260D03*X373622D03*X342126Y263386D03*X338189D03*X369685Y326378D03*X373622D03*X369685Y322441D03*X373622D03*X369685Y334252D03*X373622D03*X350000Y326378D03*Y330315D03*X357874Y326378D03*X353937D03*X346063Y334252D03*X350000D03*X353937D03*X357874D03*X361811D03*X365748D03*X342126Y267323D03*X338189D03*X357874D03*X353937D03*X350000D03*X346063D03*X361811Y259449D03*X365748D03*X342126D03*X338189D03*X353937Y330315D03*X357874D03*X361811D03*X365748D03*X361811Y326378D03*X365748D03*X346063Y338189D03*X350000D03*X353937D03*X357874D03*X361811D03*X365748D03*X342126Y271260D03*X338189D03*X346063Y259449D03*Y263386D03*X361811D03*X365748D03*X350000Y271260D03*X346063D03*X326378Y357874D03*Y361811D03*X338189Y357874D03*Y361811D03*X318504Y393307D03*X314567D03*X338189Y389370D03*Y385433D03*X326378Y393307D03*X322441D03*X330315Y357874D03*Y361811D03*X334252Y357874D03*Y361811D03*X342126Y357874D03*Y361811D03*X346063Y357874D03*Y361811D03*X334252Y393307D03*X330315D03*X350000Y350000D03*X346063D03*X357874D03*X353937D03*X365748D03*X361811D03*X381496Y227953D03*Y224016D03*X377559Y235827D03*Y231890D03*X381496Y235827D03*Y231890D03*X342126Y243701D03*X338189D03*X346063D03*Y247638D03*Y251575D03*Y255512D03*X377559Y227953D03*Y224016D03*X342126Y342126D03*X338189D03*X350000D03*X346063D03*X357874D03*X353937D03*X365748D03*X361811D03*X369685Y338189D03*X373622D03*X338189D03*X342126D03*X385433Y243701D03*Y247638D03*X334252Y255512D03*X330315D03*X334252Y251575D03*X330315D03*X342126D03*X338189D03*X373622D03*Y255512D03*X381496Y247638D03*X377559D03*X350000Y346063D03*X346063D03*X253543Y393307D03*Y397244D03*X357874Y346063D03*X353937D03*X365748D03*X361811D03*X338189Y334252D03*X342126D03*X369685Y342126D03*X373622D03*X330315Y243701D03*Y247638D03*X342126D03*X338189D03*X381496Y243701D03*X377559D03*X381496Y251575D03*X377559D03*X334252Y259449D03*X330315D03*X342126Y255512D03*X338189D03*X259449Y296063D03*X263386D03*X240945Y277165D03*Y273228D03*X259449Y248819D03*X263386D03*X240945Y229921D03*Y225984D03*X259843Y280709D03*Y276772D03*X255906Y267717D03*X259843D03*X255906Y220472D03*X259843D03*Y233465D03*Y229528D03*X274803Y302756D03*Y306693D03*X270079Y270472D03*Y274409D03*X278346Y293307D03*Y289370D03*X270866Y302756D03*Y306693D03*X240945Y302756D03*Y306693D03*X266929Y255512D03*Y259449D03*X270079Y223228D03*Y227165D03*X278346Y246063D03*Y242126D03*X270866Y255512D03*Y259449D03*X240945Y255512D03*Y259449D03*Y267323D03*Y263386D03*X259055Y255512D03*Y259449D03*X238189Y219291D03*X234252D03*X237008Y267323D03*Y263386D03*X259055Y302756D03*Y306693D03*X242126Y219291D03*X246063D03*X278346Y227165D03*Y223228D03*X274803Y255512D03*Y259449D03*X263780Y223228D03*Y227165D03*X278740Y255512D03*Y259449D03*X230315Y219291D03*X226378D03*X373622Y389370D03*X377559D03*X230315Y223228D03*X226378D03*X229134Y255512D03*Y259449D03*X233071Y255512D03*Y259449D03*X237008Y255512D03*Y259449D03*X262992Y255512D03*Y259449D03*X237008Y302756D03*Y306693D03*X266929Y302756D03*Y306693D03*X278346Y274409D03*Y270472D03*X233071Y302756D03*Y306693D03*X229134Y302756D03*Y306693D03*X373622Y385433D03*X377559D03*X263780Y270472D03*Y274409D03*X233071Y267323D03*Y263386D03*X229134Y267323D03*Y263386D03*X278740Y302756D03*Y306693D03*X262992Y302756D03*Y306693D03*X373622Y381496D03*X377559D03*X304724Y166929D03*X308661D03*X304724Y170866D03*X308661D03*X304724Y174803D03*X308661D03*X304724Y178740D03*X308661D03*X304724Y182677D03*X308661D03*X397244Y166929D03*X401181D03*X397244Y170866D03*X401181D03*X373622Y377559D03*X377559D03*X397244Y174803D03*X401181D03*X397244Y178740D03*X401181D03*X397244Y182677D03*X401181D03*X373622Y373622D03*X377559D03*X334252Y483858D03*X330315D03*X334252Y479921D03*X330315D03*X334252Y475984D03*X330315D03*X334252Y472047D03*X330315D03*X338189Y188583D03*Y192520D03*X334252Y468110D03*X330315D03*X287008Y393307D03*Y397244D03*X338189Y216142D03*Y220079D03*X342126Y322441D03*X338189D03*X369685Y330315D03*X373622D03*X350000Y318504D03*X346063D03*X361811Y310630D03*X365748D03*X361811Y302756D03*X365748D03*Y294882D03*X361811D03*X338189D03*X342126D03*X334252Y188583D03*Y192520D03*X350000Y290945D03*X346063D03*X361811Y287008D03*X365748D03*X361811Y279134D03*X365748D03*Y283071D03*X361811D03*X365748Y298819D03*X361811D03*X365748Y306693D03*X361811D03*X365748Y314567D03*X361811D03*X365748Y275197D03*X361811D03*X342126Y290945D03*X338189D03*X326378Y306693D03*X322441D03*X334252Y216142D03*Y220079D03*X310630Y302756D03*X306693D03*X302756Y298819D03*X298819D03*X318504Y290945D03*X314567D03*X322441Y302756D03*X326378D03*X314567Y283071D03*X318504D03*X298819Y290945D03*X302756D03*X298819Y302756D03*X302756D03*X306693Y298819D03*X310630D03*X298819Y294882D03*X302756D03*X314567Y287008D03*X318504D03*X298819Y283071D03*X302756D03*Y287008D03*X298819D03*X338189Y326378D03*X342126D03*X365748Y322441D03*X361811D03*X306693Y306693D03*X310630D03*X322441Y310630D03*X326378D03*X318504Y373622D03*X314567D03*Y381496D03*X318504D03*X314567Y377559D03*X318504D03*Y389370D03*X314567D03*X318504Y385433D03*X314567D03*X283071Y393307D03*Y397244D03*X147244Y387402D03*Y391339D03*X257480Y369685D03*Y373622D03*X159055Y391339D03*Y387402D03*X1279134Y391339D03*Y387402D03*X253543Y369685D03*Y373622D03*X1267323Y387402D03*Y391339D03*X227953Y369685D03*Y373622D03*X147244Y257480D03*Y261417D03*X235827Y409055D03*X231890D03*X290945Y401181D03*X294882D03*X287008D03*X283071D03*X166929Y391339D03*Y387402D03*X162992Y391339D03*Y387402D03*X265354Y385433D03*X261417D03*X1259449Y387402D03*Y391339D03*X1263386Y387402D03*Y391339D03*X265354Y381496D03*X261417D03*X166929Y261417D03*Y257480D03*X162992Y261417D03*Y257480D03*X265354Y377559D03*X261417D03*X1259449Y310630D03*Y314567D03*X265354Y373622D03*X261417D03*X1263386Y310630D03*Y314567D03*X265354Y369685D03*X261417D03*X166929Y326378D03*Y322441D03*X162992Y326378D03*Y322441D03*X235827Y381496D03*X231890D03*X166929Y196457D03*Y192520D03*X162992Y196457D03*Y192520D03*X235827Y377559D03*X231890D03*X1259449Y233858D03*Y237795D03*X1263386Y233858D03*Y237795D03*X235827Y373622D03*X231890D03*X314567Y275197D03*X310630D03*X306693Y279134D03*Y275197D03*X367717Y513386D03*X363780D03*X422835Y389370D03*X418898D03*X363780Y517323D03*X367717D03*X418898Y393307D03*X422835D03*X310630Y247638D03*Y243701D03*X422835Y265354D03*X418898D03*X306693Y243701D03*Y247638D03*X235827Y405118D03*X231890D03*X294882D03*X290945D03*X418898Y269291D03*X422835D03*X322441Y255512D03*X326378D03*X310630Y263386D03*Y267323D03*X306693Y263386D03*Y267323D03*X244882Y263386D03*Y267323D03*X250394Y223228D03*X246457D03*X248425Y236220D03*X252362D03*X235827Y357874D03*X231890D03*X229921Y495669D03*Y491732D03*X235827Y334252D03*X231890D03*X225984Y495669D03*Y491732D03*X218110Y495669D03*Y491732D03*X210236Y495669D03*Y491732D03*X222047D03*Y495669D03*X206299Y491732D03*Y495669D03*X231890Y350000D03*X235827D03*X346063Y326378D03*Y330315D03*X334252Y247638D03*Y243701D03*X338189Y346063D03*X342126D03*X338189Y302756D03*Y298819D03*X342126D03*Y302756D03*X326378Y381496D03*X322441D03*X326378Y389370D03*X322441D03*X326378Y385433D03*X322441D03*X326378Y377559D03*X322441D03*X231890Y353937D03*X235827D03*X326378Y373622D03*X322441D03*X334252Y377559D03*X330315D03*X334252Y381496D03*X330315D03*X334252Y385433D03*X330315D03*X326378Y369685D03*X322441D03*X334252Y342126D03*X330315D03*X353937Y318504D03*Y322441D03*X357874Y318504D03*Y322441D03*X334252Y373622D03*X330315D03*X227953Y353937D03*X224016D03*X334252Y389370D03*X330315D03*X287008Y430709D03*X283071D03*X287008Y434646D03*X283071D03*X265354Y361811D03*X261417D03*X265354Y357874D03*X261417D03*X235827Y401181D03*X231890D03*X265354Y353937D03*X261417D03*X265354Y350000D03*X261417D03*X265354Y346063D03*X261417D03*X265354Y334252D03*X261417D03*X265354Y330315D03*X261417D03*X265354Y326378D03*X261417D03*X283071Y426772D03*X287008D03*X231890Y326378D03*X235827D03*X231890Y330315D03*X235827D03*X227953D03*X224016D03*X235827Y397244D03*X231890D03*X283071Y438583D03*X287008D03*X271752Y478937D03*X275689D03*X271752Y475000D03*X275689D03*X271752Y471063D03*X275689D03*X271752Y467126D03*X275689D03*X235827Y393307D03*X231890D03*X271752Y463189D03*X275689D03*X292913Y448425D03*Y452362D03*X296850Y448425D03*Y452362D03*X300787D03*Y456299D03*X265354Y405118D03*X261417D03*X265354Y401181D03*X261417D03*X182677Y166929D03*Y162992D03*X170866Y182677D03*Y178740D03*X174803Y182677D03*Y178740D03*Y166929D03*Y162992D03*X170866Y166929D03*Y162992D03*X155118Y182677D03*Y178740D03*X159055Y182677D03*Y178740D03*X265354Y397244D03*X261417D03*X151181Y182677D03*Y178740D03*Y166929D03*Y162992D03*X166929Y182677D03*Y178740D03*Y166929D03*Y162992D03*X182677Y182677D03*Y178740D03*X186614Y182677D03*Y178740D03*X190551Y182677D03*Y178740D03*X186614Y166929D03*Y162992D03*X190551Y166929D03*Y162992D03*X290945Y397244D03*X294882D03*X155118Y166929D03*Y162992D03*X338189Y196457D03*Y200394D03*Y224016D03*Y227953D03*X346063Y192520D03*Y196457D03*X342126Y188583D03*Y192520D03*Y216142D03*Y220079D03*X334252Y196457D03*Y200394D03*Y224016D03*Y227953D03*X330315Y188583D03*Y192520D03*Y216142D03*Y220079D03*X227953Y393307D03*Y397244D03*X224016Y393307D03*Y397244D03*X257480Y393307D03*Y397244D03*X1100000Y525197D03*Y521260D03*X1155118Y401181D03*Y397244D03*Y277165D03*Y273228D03*X540945Y445276D03*X537008D03*X522835Y443307D03*X518898D03*X500000Y437402D03*Y441339D03*X508661D03*Y437402D03*X514961Y441339D03*Y437402D03*X543307Y441339D03*Y437402D03*X549606Y441339D03*Y437402D03*X499606Y415748D03*X503543D03*X538583Y412205D03*Y416142D03*X543307Y412205D03*Y416142D03*X531890Y437402D03*Y441339D03*X549606Y412205D03*Y416142D03*X523228Y415748D03*X519291D03*X491732Y440551D03*X487795D03*X491732Y428740D03*X487795D03*X519685Y431102D03*Y435039D03*X511417Y415748D03*X515354D03*X491732Y432677D03*X487795D03*X491732Y436614D03*X487795D03*X545669Y445276D03*X549606D03*X537008Y441339D03*Y437402D03*X530315Y426378D03*X526378D03*X559843Y500394D03*X563780D03*X559843Y494094D03*X563780D03*X588976Y500394D03*X585039D03*X588976Y494094D03*X585039D03*X588976Y489567D03*X585039D03*X557874Y473622D03*Y469685D03*X559843Y465748D03*X563780D03*X559843Y459449D03*X563780D03*Y450787D03*X559843D03*X585433Y450394D03*Y454331D03*X568504Y509449D03*Y513386D03*X580315Y509449D03*Y513386D03*X570079Y470472D03*X566142D03*X563780Y488189D03*X559843D03*X585433Y462205D03*Y466142D03*Y474016D03*Y470079D03*X576378Y509449D03*Y513386D03*X572441Y509449D03*Y513386D03*X559843Y483465D03*X563780D03*X572835Y481102D03*Y477165D03*X529921Y488189D03*X533858D03*X525591Y490157D03*Y486220D03*X529921Y481890D03*X533858D03*X507480Y475984D03*Y472047D03*X525591Y481890D03*X521654D03*X512992Y473622D03*Y477559D03*X519291Y490157D03*Y486220D03*Y473622D03*Y477559D03*X525591Y473622D03*Y477559D03*X509055Y481890D03*X505118D03*X512992D03*X516929D03*X512992Y490157D03*Y486220D03*X537795Y488189D03*X541732D03*X519291Y465748D03*Y469685D03*Y461811D03*Y457874D03*Y450000D03*Y453937D03*X529528Y468898D03*Y472835D03*X544094Y469291D03*X548031D03*X503543Y464173D03*Y468110D03*X541732Y476378D03*Y480315D03*X513386Y466142D03*X509449D03*X519291Y498031D03*Y494094D03*X495669Y483071D03*Y487008D03*X497244Y468110D03*Y464173D03*X495669Y472047D03*Y475984D03*X535039Y468898D03*Y472835D03*X499606Y472047D03*Y475984D03*X507087Y488189D03*X503150D03*X537795Y494488D03*X541732D03*X507087Y492126D03*X503150D03*X503543Y472047D03*Y475984D03*X553937Y450000D03*Y453937D03*X541732Y484252D03*X537795D03*X550787Y485827D03*Y481890D03*X547638Y453937D03*Y450000D03*X491732Y456693D03*X487795D03*X491732Y450394D03*X487795D03*Y490945D03*X491732D03*X487795Y483071D03*Y487008D03*X491732Y483071D03*Y487008D03*X487795Y472047D03*Y475984D03*X491732Y472047D03*Y475984D03*X487795Y468110D03*Y464173D03*X642126Y488189D03*X646063D03*X637795Y490157D03*Y486220D03*X642126Y481890D03*X646063D03*X619685Y475984D03*Y472047D03*X637795Y481890D03*X633858D03*X625197Y473622D03*Y477559D03*X631496Y490157D03*Y486220D03*Y473622D03*Y477559D03*X637795Y473622D03*Y477559D03*X621260Y481890D03*X617323D03*X625197D03*X629134D03*X625197Y490157D03*Y486220D03*X672047Y494094D03*X675984D03*X701181D03*X697244D03*X701181Y489567D03*X697244D03*X650000Y488189D03*X653937D03*X631496Y465748D03*Y469685D03*Y461811D03*Y457874D03*Y450000D03*Y453937D03*X641732Y468898D03*Y472835D03*X656299Y469291D03*X660236D03*X670079Y473622D03*Y469685D03*X672047Y465748D03*X675984D03*X672047Y459449D03*X675984D03*Y450787D03*X672047D03*X615748Y464173D03*Y468110D03*X697638Y450394D03*Y454331D03*X653937Y476378D03*Y480315D03*X625591Y466142D03*X621654D03*X682283Y470472D03*X678346D03*X603937Y456693D03*X600000D03*X603937Y450394D03*X600000D03*X675984Y488189D03*X672047D03*X697638Y462205D03*Y466142D03*Y474016D03*Y470079D03*X600000Y490945D03*X603937D03*X631496Y498031D03*Y494094D03*X600000Y483071D03*Y487008D03*X603937Y483071D03*Y487008D03*X607874Y483071D03*Y487008D03*X609449Y468110D03*Y464173D03*X600000Y472047D03*Y475984D03*X603937Y472047D03*Y475984D03*X607874Y472047D03*Y475984D03*X600000Y468110D03*Y464173D03*X647244Y468898D03*Y472835D03*X611811Y472047D03*Y475984D03*X619291Y488189D03*X615354D03*X619291Y492126D03*X615354D03*X615748Y472047D03*Y475984D03*X666142Y450000D03*Y453937D03*X653937Y484252D03*X650000D03*X662992Y485827D03*Y481890D03*X672047Y483465D03*X675984D03*X659843Y453937D03*Y450000D03*X685039Y481102D03*Y477165D03*X754331Y488189D03*X758268D03*X750000Y490157D03*Y486220D03*X754331Y481890D03*X758268D03*X731890Y475984D03*Y472047D03*X750000Y481890D03*X746063D03*X737402Y473622D03*Y477559D03*X743701Y490157D03*Y486220D03*Y473622D03*Y477559D03*X750000Y473622D03*Y477559D03*X733465Y481890D03*X729528D03*X737402D03*X741339D03*X737402Y490157D03*Y486220D03*X784252Y494094D03*X788189D03*X813386D03*X809449D03*X813386Y489567D03*X809449D03*X762205Y488189D03*X766142D03*X743701Y465748D03*Y469685D03*Y461811D03*Y457874D03*Y450000D03*Y453937D03*X753937Y468898D03*Y472835D03*X768504Y469291D03*X772441D03*X782283Y473622D03*Y469685D03*X784252Y465748D03*X788189D03*X784252Y459449D03*X788189D03*Y450787D03*X784252D03*X727953Y464173D03*Y468110D03*X809843Y450394D03*Y454331D03*X766142Y476378D03*Y480315D03*X737795Y466142D03*X733858D03*X794488Y470472D03*X790551D03*X716142Y456693D03*X712205D03*X716142Y450394D03*X712205D03*X788189Y488189D03*X784252D03*X809843Y462205D03*Y466142D03*Y474016D03*Y470079D03*X712205Y490945D03*X716142D03*X744488Y510236D03*X740551D03*X712205Y483071D03*Y487008D03*X716142Y483071D03*Y487008D03*X720079Y483071D03*Y487008D03*X721654Y468110D03*Y464173D03*X712205Y472047D03*Y475984D03*X716142Y472047D03*Y475984D03*X720079Y472047D03*Y475984D03*X712205Y468110D03*Y464173D03*X759449Y468898D03*Y472835D03*X724016Y472047D03*Y475984D03*X731496Y488189D03*X727559D03*X731496Y492126D03*X727559D03*X727953Y472047D03*Y475984D03*X778346Y450000D03*Y453937D03*X766142Y484252D03*X762205D03*X775197Y485827D03*Y481890D03*X784252Y483465D03*X788189D03*X772047Y453937D03*Y450000D03*X797244Y481102D03*Y477165D03*X866535Y488189D03*X870472D03*X862205Y490157D03*Y486220D03*X866535Y481890D03*X870472D03*X844094Y475984D03*Y472047D03*X862205Y481890D03*X858268D03*X849606Y473622D03*Y477559D03*X855906Y490157D03*Y486220D03*Y473622D03*Y477559D03*X862205Y473622D03*Y477559D03*X845669Y481890D03*X841732D03*X849606D03*X853543D03*X849606Y490157D03*Y486220D03*X896457Y494094D03*X900394D03*X925591D03*X921654D03*X925591Y489567D03*X921654D03*X874409Y488189D03*X878346D03*X855906Y465748D03*Y469685D03*Y461811D03*Y457874D03*Y450000D03*Y453937D03*X866142Y468898D03*Y472835D03*X880709Y469291D03*X884646D03*X894488Y473622D03*Y469685D03*X896457Y465748D03*X900394D03*X896457Y459449D03*X900394D03*Y450787D03*X896457D03*X840157Y464173D03*Y468110D03*X922047Y450394D03*Y454331D03*X878346Y476378D03*Y480315D03*X850000Y466142D03*X846063D03*X906693Y470472D03*X902756D03*X828346Y456693D03*X824409D03*X828346Y450394D03*X824409D03*X900394Y488189D03*X896457D03*X922047Y462205D03*Y466142D03*Y474016D03*Y470079D03*X824409Y490945D03*X828346D03*X855906Y498031D03*Y494094D03*X824409Y483071D03*Y487008D03*X828346Y483071D03*Y487008D03*X832283Y483071D03*Y487008D03*X833858Y468110D03*Y464173D03*X824409Y472047D03*Y475984D03*X828346Y472047D03*Y475984D03*X832283Y472047D03*Y475984D03*X824409Y468110D03*Y464173D03*X871654Y468898D03*Y472835D03*X836220Y472047D03*Y475984D03*X843701Y488189D03*X839764D03*X843701Y492126D03*X839764D03*X840157Y472047D03*Y475984D03*X890551Y450000D03*Y453937D03*X878346Y484252D03*X874409D03*X887402Y485827D03*Y481890D03*X896457Y483465D03*X900394D03*X884252Y453937D03*Y450000D03*X909449Y481102D03*Y477165D03*X978740Y488189D03*X982677D03*X974409Y490157D03*Y486220D03*X978740Y481890D03*X982677D03*X956299Y475984D03*Y472047D03*X974409Y481890D03*X970472D03*X961811Y473622D03*Y477559D03*X968110Y490157D03*Y486220D03*Y473622D03*Y477559D03*X974409Y473622D03*Y477559D03*X957874Y481890D03*X953937D03*X961811D03*X965748D03*X961811Y490157D03*Y486220D03*X1008661Y494094D03*X1012598D03*X1037795D03*X1033858D03*X1037795Y489567D03*X1033858D03*X986614Y488189D03*X990551D03*X968110Y465748D03*Y469685D03*Y461811D03*Y457874D03*Y450000D03*Y453937D03*X978346Y468898D03*Y472835D03*X992913Y469291D03*X996850D03*X1006693Y473622D03*Y469685D03*X1008661Y465748D03*X1012598D03*X1008661Y459449D03*X1012598D03*Y450787D03*X1008661D03*X952362Y464173D03*Y468110D03*X1034252Y450394D03*Y454331D03*X990551Y476378D03*Y480315D03*X962205Y466142D03*X958268D03*X1018898Y470472D03*X1014961D03*X940551Y456693D03*X936614D03*X940551Y450394D03*X936614D03*X1012598Y488189D03*X1008661D03*X1034252Y462205D03*Y466142D03*Y474016D03*Y470079D03*X936614Y490945D03*X940551D03*X968110Y498031D03*Y494094D03*X936614Y483071D03*Y487008D03*X940551Y483071D03*Y487008D03*X944488Y483071D03*Y487008D03*X946063Y468110D03*Y464173D03*X936614Y472047D03*Y475984D03*X940551Y472047D03*Y475984D03*X944488Y472047D03*Y475984D03*X936614Y468110D03*Y464173D03*X983858Y468898D03*Y472835D03*X948425Y472047D03*Y475984D03*X955906Y488189D03*X951969D03*X955906Y492126D03*X951969D03*X952362Y472047D03*Y475984D03*X1002756Y450000D03*Y453937D03*X990551Y484252D03*X986614D03*X999606Y485827D03*Y481890D03*X1008661Y483465D03*X1012598D03*X996457Y453937D03*Y450000D03*X1021654Y481102D03*Y477165D03*X1008661Y500394D03*X1012598D03*X1037795D03*X1033858D03*X986614Y494488D03*X990551D03*X1017323Y509449D03*Y513386D03*X1029134Y509449D03*Y513386D03*X1025197Y509449D03*Y513386D03*X1021260Y509449D03*Y513386D03*X896457Y500394D03*X900394D03*X925591D03*X921654D03*X874409Y494488D03*X878346D03*X877559Y445276D03*X873622D03*X859449Y443307D03*X855512D03*X836614Y437402D03*Y441339D03*X845276D03*Y437402D03*X851575Y441339D03*Y437402D03*X879921Y441339D03*Y437402D03*X886220Y441339D03*Y437402D03*X836220Y415748D03*X840157D03*X875197Y412205D03*Y416142D03*X879921Y412205D03*Y416142D03*X868504Y437402D03*Y441339D03*X886220Y412205D03*Y416142D03*X859843Y415748D03*X855906D03*X828346Y440551D03*X824409D03*X828346Y428740D03*X824409D03*X856299Y431102D03*Y435039D03*X848031Y415748D03*X851969D03*X828346Y432677D03*X824409D03*X828346Y436614D03*X824409D03*X882283Y445276D03*X886220D03*X873622Y441339D03*Y437402D03*X866929Y426378D03*X862992D03*X905118Y509449D03*Y513386D03*X916929Y509449D03*Y513386D03*X912992Y509449D03*Y513386D03*X909055Y509449D03*Y513386D03*X765354Y445276D03*X761417D03*X747244Y443307D03*X743307D03*X724409Y437402D03*Y441339D03*X733071D03*Y437402D03*X739370Y441339D03*Y437402D03*X767717Y441339D03*Y437402D03*X774016Y441339D03*Y437402D03*X724016Y415748D03*X727953D03*X762992Y412205D03*Y416142D03*X767717Y412205D03*Y416142D03*X756299Y437402D03*Y441339D03*X774016Y412205D03*Y416142D03*X747638Y415748D03*X743701D03*X716142Y440551D03*X712205D03*X716142Y428740D03*X712205D03*X744094Y431102D03*Y435039D03*X735827Y415748D03*X739764D03*X716142Y432677D03*X712205D03*X716142Y436614D03*X712205D03*X770079Y445276D03*X774016D03*X761417Y441339D03*Y437402D03*X754724Y426378D03*X750787D03*X784252Y500394D03*X788189D03*X813386D03*X809449D03*X792913Y509449D03*Y513386D03*X804724Y509449D03*Y513386D03*X800787Y509449D03*Y513386D03*X796850Y509449D03*Y513386D03*X762205Y494488D03*X766142D03*X650000D03*X653937D03*X672047Y500394D03*X675984D03*X701181D03*X697244D03*X680709Y509449D03*Y513386D03*X692520Y509449D03*Y513386D03*X688583Y509449D03*Y513386D03*X684646Y509449D03*Y513386D03*X653150Y445276D03*X649213D03*X635039Y443307D03*X631102D03*X612205Y437402D03*Y441339D03*X620866D03*Y437402D03*X627165Y441339D03*Y437402D03*X655512Y441339D03*Y437402D03*X661811Y441339D03*Y437402D03*X611811Y415748D03*X615748D03*X650787Y412205D03*Y416142D03*X655512Y412205D03*Y416142D03*X644094Y437402D03*Y441339D03*X661811Y412205D03*Y416142D03*X635433Y415748D03*X631496D03*X603937Y440551D03*X600000D03*X603937Y428740D03*X600000D03*X631890Y431102D03*Y435039D03*X623622Y415748D03*X627559D03*X603937Y432677D03*X600000D03*X603937Y436614D03*X600000D03*X657874Y445276D03*X661811D03*X649213Y441339D03*Y437402D03*X642520Y426378D03*X638583D03*X948819Y437402D03*Y441339D03*X957480D03*Y437402D03*X989764Y445276D03*X985827D03*X971654Y443307D03*X967717D03*X963780Y441339D03*Y437402D03*X992126Y441339D03*Y437402D03*X998425Y441339D03*Y437402D03*X948425Y415748D03*X952362D03*X987402Y412205D03*Y416142D03*X992126Y412205D03*Y416142D03*X980709Y437402D03*Y441339D03*X998425Y412205D03*Y416142D03*X972047Y415748D03*X968110D03*X940551Y440551D03*X936614D03*X940551Y428740D03*X936614D03*X968504Y431102D03*Y435039D03*X960236Y415748D03*X964173D03*X940551Y432677D03*X936614D03*X940551Y436614D03*X936614D03*X994488Y445276D03*X998425D03*X985827Y441339D03*Y437402D03*X979134Y426378D03*X975197D03*X585039Y364173D03*X588976D03*X580709Y366142D03*Y362205D03*X585039Y357874D03*X588976D03*X562598Y351969D03*Y348031D03*X580709Y357874D03*X576772D03*X568110Y349606D03*Y353543D03*X574409Y366142D03*Y362205D03*Y349606D03*Y353543D03*X580709Y349606D03*Y353543D03*X564173Y357874D03*X560236D03*X568110D03*X572047D03*X568110Y366142D03*Y362205D03*X644094Y365551D03*X640157D03*X596063Y321260D03*X592126D03*X592913Y364173D03*X596850D03*X574409Y341732D03*Y345669D03*Y337795D03*Y333858D03*Y325984D03*Y329921D03*X584646Y344882D03*Y348819D03*X599213Y345276D03*X603150D03*X612992Y349606D03*Y345669D03*X614961Y341732D03*X618898D03*X614961Y335433D03*X618898D03*Y326772D03*X614961D03*X558661Y340157D03*Y344094D03*X577953Y319291D03*X574016D03*X555118Y313386D03*Y317323D03*X563780D03*Y313386D03*X570079Y317323D03*Y313386D03*X598425Y317323D03*Y313386D03*X604724Y317323D03*Y313386D03*X640551Y326378D03*Y330315D03*X554724Y291732D03*X558661D03*X593701Y288189D03*Y292126D03*X598425Y288189D03*Y292126D03*X587008Y313386D03*Y317323D03*X604724Y288189D03*Y292126D03*X578346Y291732D03*X574409D03*X596850Y352362D03*Y356299D03*X568504Y342126D03*X564567D03*X625197Y346457D03*X621260D03*X546850Y332677D03*X542913D03*X546850Y326378D03*X542913D03*X618898Y364173D03*X614961D03*X546850Y316535D03*X542913D03*X546850Y304724D03*X542913D03*X574803Y307087D03*Y311024D03*X566535Y291732D03*X570472D03*X640551Y338189D03*Y342126D03*X546850Y308661D03*X542913D03*X640551Y350000D03*Y346063D03*X546850Y312598D03*X542913D03*Y366929D03*X546850D03*X542913Y359055D03*Y362992D03*X546850Y359055D03*Y362992D03*X550787Y359055D03*Y362992D03*X552362Y344094D03*Y340157D03*X542913Y348031D03*Y351969D03*X546850Y348031D03*Y351969D03*X550787Y348031D03*Y351969D03*X542913Y344094D03*Y340157D03*X590157Y344882D03*Y348819D03*X554724Y348031D03*Y351969D03*X562205Y364173D03*X558268D03*X562205Y368110D03*X558268D03*X558661Y348031D03*Y351969D03*X609055Y325984D03*Y329921D03*X596850Y360236D03*X592913D03*X605906Y361811D03*Y357874D03*X600787Y321260D03*X604724D03*X592126Y317323D03*Y313386D03*X614961Y359449D03*X618898D03*X602756Y329921D03*Y325984D03*X585433Y302362D03*X581496D03*X627953Y357087D03*Y353150D03*X697244Y364173D03*X701181D03*X692913Y366142D03*Y362205D03*X697244Y357874D03*X701181D03*X674803Y351969D03*Y348031D03*X692913Y357874D03*X688976D03*X680315Y349606D03*Y353543D03*X686614Y366142D03*Y362205D03*Y349606D03*Y353543D03*X692913Y349606D03*Y353543D03*X676378Y357874D03*X672441D03*X680315D03*X684252D03*X680315Y366142D03*Y362205D03*X756299Y365551D03*X752362D03*X708268Y321260D03*X704331D03*X705118Y364173D03*X709055D03*X686614Y341732D03*Y345669D03*Y337795D03*Y333858D03*Y325984D03*Y329921D03*X696850Y344882D03*Y348819D03*X711417Y345276D03*X715354D03*X725197Y349606D03*Y345669D03*X727165Y341732D03*X731102D03*X727165Y335433D03*X731102D03*Y326772D03*X727165D03*X670866Y340157D03*Y344094D03*X690157Y319291D03*X686220D03*X667323Y313386D03*Y317323D03*X675984D03*Y313386D03*X682283Y317323D03*Y313386D03*X710630Y317323D03*Y313386D03*X716929Y317323D03*Y313386D03*X752756Y326378D03*Y330315D03*X666929Y291732D03*X670866D03*X705906Y288189D03*Y292126D03*X710630Y288189D03*Y292126D03*X699213Y313386D03*Y317323D03*X716929Y288189D03*Y292126D03*X690551Y291732D03*X686614D03*X709055Y352362D03*Y356299D03*X680709Y342126D03*X676772D03*X737402Y346457D03*X733465D03*X659055Y332677D03*X655118D03*X659055Y326378D03*X655118D03*X731102Y364173D03*X727165D03*X659055Y316535D03*X655118D03*X659055Y304724D03*X655118D03*X687008Y307087D03*Y311024D03*X678740Y291732D03*X682677D03*X752756Y338189D03*Y342126D03*X659055Y308661D03*X655118D03*X752756Y350000D03*Y346063D03*X659055Y312598D03*X655118D03*Y366929D03*X659055D03*X655118Y359055D03*Y362992D03*X659055Y359055D03*Y362992D03*X662992Y359055D03*Y362992D03*X664567Y344094D03*Y340157D03*X655118Y348031D03*Y351969D03*X659055Y348031D03*Y351969D03*X662992Y348031D03*Y351969D03*X655118Y344094D03*Y340157D03*X702362Y344882D03*Y348819D03*X666929Y348031D03*Y351969D03*X674409Y364173D03*X670472D03*X674409Y368110D03*X670472D03*X670866Y348031D03*Y351969D03*X721260Y325984D03*Y329921D03*X709055Y360236D03*X705118D03*X718110Y361811D03*Y357874D03*X712992Y321260D03*X716929D03*X704331Y317323D03*Y313386D03*X727165Y359449D03*X731102D03*X714961Y329921D03*Y325984D03*X697638Y302362D03*X693701D03*X740157Y357087D03*Y353150D03*X809449Y364173D03*X813386D03*X805118Y366142D03*Y362205D03*X809449Y357874D03*X813386D03*X787008Y351969D03*Y348031D03*X805118Y357874D03*X801181D03*X792520Y349606D03*Y353543D03*X798819Y366142D03*Y362205D03*Y349606D03*Y353543D03*X805118Y349606D03*Y353543D03*X788583Y357874D03*X784646D03*X792520D03*X796457D03*X792520Y366142D03*Y362205D03*X868504Y365551D03*X864567D03*X820472Y321260D03*X816535D03*X817323Y364173D03*X821260D03*X798819Y341732D03*Y345669D03*Y337795D03*Y333858D03*Y325984D03*Y329921D03*X809055Y344882D03*Y348819D03*X823622Y345276D03*X827559D03*X837402Y349606D03*Y345669D03*X839370Y341732D03*X843307D03*X839370Y335433D03*X843307D03*Y326772D03*X839370D03*X783071Y340157D03*Y344094D03*X802362Y319291D03*X798425D03*X779528Y313386D03*Y317323D03*X788189D03*Y313386D03*X794488Y317323D03*Y313386D03*X822835Y317323D03*Y313386D03*X829134Y317323D03*Y313386D03*X864961Y326378D03*Y330315D03*X779134Y291732D03*X783071D03*X818110Y288189D03*Y292126D03*X822835Y288189D03*Y292126D03*X811417Y313386D03*Y317323D03*X829134Y288189D03*Y292126D03*X802756Y291732D03*X798819D03*X821260Y352362D03*Y356299D03*X792913Y342126D03*X788976D03*X849606Y346457D03*X845669D03*X771260Y332677D03*X767323D03*X771260Y326378D03*X767323D03*X843307Y364173D03*X839370D03*X771260Y316535D03*X767323D03*X771260Y304724D03*X767323D03*X799213Y307087D03*Y311024D03*X790945Y291732D03*X794882D03*X864961Y338189D03*Y342126D03*X771260Y308661D03*X767323D03*X864961Y350000D03*Y346063D03*X771260Y312598D03*X767323D03*Y366929D03*X771260D03*X767323Y359055D03*Y362992D03*X771260Y359055D03*Y362992D03*X775197Y359055D03*Y362992D03*X776772Y344094D03*Y340157D03*X767323Y348031D03*Y351969D03*X771260Y348031D03*Y351969D03*X775197Y348031D03*Y351969D03*X767323Y344094D03*Y340157D03*X814567Y344882D03*Y348819D03*X779134Y348031D03*Y351969D03*X786614Y364173D03*X782677D03*X786614Y368110D03*X782677D03*X783071Y348031D03*Y351969D03*X833465Y325984D03*Y329921D03*X821260Y360236D03*X817323D03*X830315Y361811D03*Y357874D03*X825197Y321260D03*X829134D03*X816535Y317323D03*Y313386D03*X839370Y359449D03*X843307D03*X827165Y329921D03*Y325984D03*X809843Y302362D03*X805906D03*X852362Y357087D03*Y353150D03*X921654Y364173D03*X925591D03*X917323Y366142D03*Y362205D03*X921654Y357874D03*X925591D03*X899213Y351969D03*Y348031D03*X917323Y357874D03*X913386D03*X904724Y349606D03*Y353543D03*X911024Y366142D03*Y362205D03*Y349606D03*Y353543D03*X917323Y349606D03*Y353543D03*X900787Y357874D03*X896850D03*X904724D03*X908661D03*X904724Y366142D03*Y362205D03*X980709Y365551D03*X976772D03*X932677Y321260D03*X928740D03*X929528Y364173D03*X933465D03*X911024Y341732D03*Y345669D03*Y337795D03*Y333858D03*Y325984D03*Y329921D03*X921260Y344882D03*Y348819D03*X935827Y345276D03*X939764D03*X949606Y349606D03*Y345669D03*X951575Y341732D03*X955512D03*X951575Y335433D03*X955512D03*Y326772D03*X951575D03*X895276Y340157D03*Y344094D03*X914567Y319291D03*X910630D03*X891732Y313386D03*Y317323D03*X900394D03*Y313386D03*X906693Y317323D03*Y313386D03*X935039Y317323D03*Y313386D03*X941339Y317323D03*Y313386D03*X977165Y326378D03*Y330315D03*X891339Y291732D03*X895276D03*X930315Y288189D03*Y292126D03*X935039Y288189D03*Y292126D03*X923622Y313386D03*Y317323D03*X941339Y288189D03*Y292126D03*X914961Y291732D03*X911024D03*X933465Y352362D03*Y356299D03*X905118Y342126D03*X901181D03*X961811Y346457D03*X957874D03*X883465Y332677D03*X879528D03*X883465Y326378D03*X879528D03*X955512Y364173D03*X951575D03*X883465Y316535D03*X879528D03*X883465Y304724D03*X879528D03*X911417Y307087D03*Y311024D03*X903150Y291732D03*X907087D03*X977165Y338189D03*Y342126D03*X883465Y308661D03*X879528D03*X977165Y350000D03*Y346063D03*X883465Y312598D03*X879528D03*Y366929D03*X883465D03*X879528Y359055D03*Y362992D03*X883465Y359055D03*Y362992D03*X887402Y359055D03*Y362992D03*X888976Y344094D03*Y340157D03*X879528Y348031D03*Y351969D03*X883465Y348031D03*Y351969D03*X887402Y348031D03*Y351969D03*X879528Y344094D03*Y340157D03*X926772Y344882D03*Y348819D03*X891339Y348031D03*Y351969D03*X898819Y364173D03*X894882D03*X898819Y368110D03*X894882D03*X895276Y348031D03*Y351969D03*X945669Y325984D03*Y329921D03*X933465Y360236D03*X929528D03*X942520Y361811D03*Y357874D03*X937402Y321260D03*X941339D03*X928740Y317323D03*Y313386D03*X951575Y359449D03*X955512D03*X939370Y329921D03*Y325984D03*X922047Y302362D03*X918110D03*X964567Y357087D03*Y353150D03*X1033858Y364173D03*X1037795D03*X1029528Y366142D03*Y362205D03*X1033858Y357874D03*X1037795D03*X1011417Y351969D03*Y348031D03*X1029528Y357874D03*X1025591D03*X1016929Y349606D03*Y353543D03*X1023228Y366142D03*Y362205D03*Y349606D03*Y353543D03*X1029528Y349606D03*Y353543D03*X1012992Y357874D03*X1009055D03*X1016929D03*X1020866D03*X1016929Y366142D03*Y362205D03*X1092913Y365551D03*X1088976D03*X1044882Y321260D03*X1040945D03*X1041732Y364173D03*X1045669D03*X1023228Y341732D03*Y345669D03*Y337795D03*Y333858D03*Y325984D03*Y329921D03*X1033465Y344882D03*Y348819D03*X1048031Y345276D03*X1051969D03*X1061811Y349606D03*Y345669D03*X1063780Y341732D03*X1067717D03*X1063780Y335433D03*X1067717D03*Y326772D03*X1063780D03*X1007480Y340157D03*Y344094D03*X1026772Y319291D03*X1022835D03*X1003937Y313386D03*Y317323D03*X1012598D03*Y313386D03*X1018898Y317323D03*Y313386D03*X1047244Y317323D03*Y313386D03*X1053543Y317323D03*Y313386D03*X1089370Y326378D03*Y330315D03*X1003543Y291732D03*X1007480D03*X1042520Y288189D03*Y292126D03*X1047244Y288189D03*Y292126D03*X1035827Y313386D03*Y317323D03*X1053543Y288189D03*Y292126D03*X1027165Y291732D03*X1023228D03*X1045669Y352362D03*Y356299D03*X1017323Y342126D03*X1013386D03*X1074016Y346457D03*X1070079D03*X995669Y332677D03*X991732D03*X995669Y326378D03*X991732D03*X1067717Y364173D03*X1063780D03*X995669Y316535D03*X991732D03*X995669Y304724D03*X991732D03*X1023622Y307087D03*Y311024D03*X1015354Y291732D03*X1019291D03*X1089370Y338189D03*Y342126D03*X995669Y308661D03*X991732D03*X1089370Y350000D03*Y346063D03*X995669Y312598D03*X991732D03*Y366929D03*X995669D03*X991732Y359055D03*Y362992D03*X995669Y359055D03*Y362992D03*X999606Y359055D03*Y362992D03*X1001181Y344094D03*Y340157D03*X991732Y348031D03*Y351969D03*X995669Y348031D03*Y351969D03*X999606Y348031D03*Y351969D03*X991732Y344094D03*Y340157D03*X1038976Y344882D03*Y348819D03*X1003543Y348031D03*Y351969D03*X1011024Y364173D03*X1007087D03*X1011024Y368110D03*X1007087D03*X1007480Y348031D03*Y351969D03*X1057874Y325984D03*Y329921D03*X1045669Y360236D03*X1041732D03*X1054724Y361811D03*Y357874D03*X1049606Y321260D03*X1053543D03*X1040945Y317323D03*Y313386D03*X1063780Y359449D03*X1067717D03*X1051575Y329921D03*Y325984D03*X1034252Y302362D03*X1030315D03*X1076772Y357087D03*Y353150D03*X614961Y376378D03*X618898D03*X614961Y370079D03*X618898D03*X644094Y376378D03*X640157D03*X644094Y370079D03*X640157D03*X574409Y374016D03*Y370079D03*X592913Y370472D03*X596850D03*X623622Y385433D03*Y389370D03*X635433Y385433D03*Y389370D03*X631496Y385433D03*Y389370D03*X627559Y385433D03*Y389370D03*X727165Y376378D03*X731102D03*X727165Y370079D03*X731102D03*X756299Y376378D03*X752362D03*X756299Y370079D03*X752362D03*X686614Y374016D03*Y370079D03*X705118Y370472D03*X709055D03*X735827Y385433D03*Y389370D03*X747638Y385433D03*Y389370D03*X743701Y385433D03*Y389370D03*X739764Y385433D03*Y389370D03*X839370Y376378D03*X843307D03*X839370Y370079D03*X843307D03*X868504Y376378D03*X864567D03*X868504Y370079D03*X864567D03*X798819Y374016D03*Y370079D03*X817323Y370472D03*X821260D03*X848031Y385433D03*Y389370D03*X859843Y385433D03*Y389370D03*X855906Y385433D03*Y389370D03*X851969Y385433D03*Y389370D03*X951575Y376378D03*X955512D03*X951575Y370079D03*X955512D03*X980709Y376378D03*X976772D03*X980709Y370079D03*X976772D03*X911024Y374016D03*Y370079D03*X929528Y370472D03*X933465D03*X960236Y385433D03*Y389370D03*X972047Y385433D03*Y389370D03*X968110Y385433D03*Y389370D03*X964173Y385433D03*Y389370D03*X1063780Y376378D03*X1067717D03*X1063780Y370079D03*X1067717D03*X1092913Y376378D03*X1088976D03*X1092913Y370079D03*X1088976D03*X1023228Y374016D03*Y370079D03*X1041732Y370472D03*X1045669D03*X1072441Y385433D03*Y389370D03*X1084252Y385433D03*Y389370D03*X1080315Y385433D03*Y389370D03*X1076378Y385433D03*Y389370D03*X585039Y240157D03*X588976D03*X580709Y242126D03*Y238189D03*X585039Y233858D03*X588976D03*X562598Y227953D03*Y224016D03*X580709Y233858D03*X576772D03*X568110Y225591D03*Y229528D03*X574409Y242126D03*Y238189D03*Y225591D03*Y229528D03*X580709Y225591D03*Y229528D03*X564173Y233858D03*X560236D03*X568110D03*X572047D03*X568110Y242126D03*Y238189D03*X644094Y241535D03*X640157D03*X596063Y197244D03*X592126D03*X592913Y240157D03*X596850D03*X574409Y217717D03*Y221654D03*Y213780D03*Y209843D03*Y201969D03*Y205906D03*X584646Y220866D03*Y224803D03*X599213Y221260D03*X603150D03*X612992Y225591D03*Y221654D03*X614961Y217717D03*X618898D03*X614961Y211417D03*X618898D03*Y202756D03*X614961D03*X558661Y216142D03*Y220079D03*X577953Y195276D03*X574016D03*X555118Y189370D03*Y193307D03*X563780D03*Y189370D03*X570079Y193307D03*Y189370D03*X598425Y193307D03*Y189370D03*X604724Y193307D03*Y189370D03*X640551Y202362D03*Y206299D03*X554724Y167717D03*X558661D03*X593701Y164173D03*Y168110D03*X598425Y164173D03*Y168110D03*X587008Y189370D03*Y193307D03*X604724Y164173D03*Y168110D03*X578346Y167717D03*X574409D03*X596850Y228346D03*Y232283D03*X568504Y218110D03*X564567D03*X625197Y222441D03*X621260D03*X546850Y208661D03*X542913D03*X546850Y202362D03*X542913D03*X618898Y240157D03*X614961D03*X546850Y192520D03*X542913D03*X546850Y180709D03*X542913D03*X574803Y183071D03*Y187008D03*X566535Y167717D03*X570472D03*X640551Y214173D03*Y218110D03*X546850Y184646D03*X542913D03*X640551Y225984D03*Y222047D03*X546850Y188583D03*X542913D03*Y242913D03*X546850D03*X542913Y235039D03*Y238976D03*X546850Y235039D03*Y238976D03*X550787Y235039D03*Y238976D03*X552362Y220079D03*Y216142D03*X542913Y224016D03*Y227953D03*X546850Y224016D03*Y227953D03*X550787Y224016D03*Y227953D03*X542913Y220079D03*Y216142D03*X590157Y220866D03*Y224803D03*X554724Y224016D03*Y227953D03*X562205Y240157D03*X558268D03*X562205Y244094D03*X558268D03*X558661Y224016D03*Y227953D03*X609055Y201969D03*Y205906D03*X596850Y236220D03*X592913D03*X605906Y237795D03*Y233858D03*X600787Y197244D03*X604724D03*X592126Y193307D03*Y189370D03*X614961Y235433D03*X618898D03*X602756Y205906D03*Y201969D03*X585433Y178346D03*X581496D03*X627953Y233071D03*Y229134D03*X697244Y240157D03*X701181D03*X692913Y242126D03*Y238189D03*X697244Y233858D03*X701181D03*X674803Y227953D03*Y224016D03*X692913Y233858D03*X688976D03*X680315Y225591D03*Y229528D03*X686614Y242126D03*Y238189D03*Y225591D03*Y229528D03*X692913Y225591D03*Y229528D03*X676378Y233858D03*X672441D03*X680315D03*X684252D03*X680315Y242126D03*Y238189D03*X756299Y241535D03*X752362D03*X708268Y197244D03*X704331D03*X705118Y240157D03*X709055D03*X686614Y217717D03*Y221654D03*Y213780D03*Y209843D03*Y201969D03*Y205906D03*X696850Y220866D03*Y224803D03*X711417Y221260D03*X715354D03*X725197Y225591D03*Y221654D03*X727165Y217717D03*X731102D03*X727165Y211417D03*X731102D03*Y202756D03*X727165D03*X670866Y216142D03*Y220079D03*X690157Y195276D03*X686220D03*X667323Y189370D03*Y193307D03*X675984D03*Y189370D03*X682283Y193307D03*Y189370D03*X710630Y193307D03*Y189370D03*X716929Y193307D03*Y189370D03*X752756Y202362D03*Y206299D03*X666929Y167717D03*X670866D03*X705906Y164173D03*Y168110D03*X710630Y164173D03*Y168110D03*X699213Y189370D03*Y193307D03*X716929Y164173D03*Y168110D03*X690551Y167717D03*X686614D03*X709055Y228346D03*Y232283D03*X680709Y218110D03*X676772D03*X737402Y222441D03*X733465D03*X659055Y208661D03*X655118D03*X659055Y202362D03*X655118D03*X731102Y240157D03*X727165D03*X659055Y192520D03*X655118D03*X659055Y180709D03*X655118D03*X687008Y183071D03*Y187008D03*X678740Y167717D03*X682677D03*X752756Y214173D03*Y218110D03*X659055Y184646D03*X655118D03*X752756Y225984D03*Y222047D03*X659055Y188583D03*X655118D03*Y242913D03*X659055D03*X655118Y235039D03*Y238976D03*X659055Y235039D03*Y238976D03*X662992Y235039D03*Y238976D03*X664567Y220079D03*Y216142D03*X655118Y224016D03*Y227953D03*X659055Y224016D03*Y227953D03*X662992Y224016D03*Y227953D03*X655118Y220079D03*Y216142D03*X702362Y220866D03*Y224803D03*X666929Y224016D03*Y227953D03*X674409Y240157D03*X670472D03*X674409Y244094D03*X670472D03*X670866Y224016D03*Y227953D03*X721260Y201969D03*Y205906D03*X709055Y236220D03*X705118D03*X718110Y237795D03*Y233858D03*X712992Y197244D03*X716929D03*X704331Y193307D03*Y189370D03*X727165Y235433D03*X731102D03*X714961Y205906D03*Y201969D03*X697638Y178346D03*X693701D03*X740157Y233071D03*Y229134D03*X809449Y240157D03*X813386D03*X805118Y242126D03*Y238189D03*X809449Y233858D03*X813386D03*X787008Y227953D03*Y224016D03*X805118Y233858D03*X801181D03*X792520Y225591D03*Y229528D03*X798819Y242126D03*Y238189D03*Y225591D03*Y229528D03*X805118Y225591D03*Y229528D03*X788583Y233858D03*X784646D03*X792520D03*X796457D03*X792520Y242126D03*Y238189D03*X868504Y241535D03*X864567D03*X820472Y197244D03*X816535D03*X817323Y240157D03*X821260D03*X798819Y217717D03*Y221654D03*Y213780D03*Y209843D03*Y201969D03*Y205906D03*X809055Y220866D03*Y224803D03*X823622Y221260D03*X827559D03*X837402Y225591D03*Y221654D03*X839370Y217717D03*X843307D03*X839370Y211417D03*X843307D03*Y202756D03*X839370D03*X783071Y216142D03*Y220079D03*X802362Y195276D03*X798425D03*X779528Y189370D03*Y193307D03*X788189D03*Y189370D03*X794488Y193307D03*Y189370D03*X822835Y193307D03*Y189370D03*X829134Y193307D03*Y189370D03*X864961Y202362D03*Y206299D03*X779134Y167717D03*X783071D03*X818110Y164173D03*Y168110D03*X822835Y164173D03*Y168110D03*X811417Y189370D03*Y193307D03*X829134Y164173D03*Y168110D03*X802756Y167717D03*X798819D03*X821260Y228346D03*Y232283D03*X792913Y218110D03*X788976D03*X849606Y222441D03*X845669D03*X771260Y208661D03*X767323D03*X771260Y202362D03*X767323D03*X843307Y240157D03*X839370D03*X771260Y192520D03*X767323D03*X771260Y180709D03*X767323D03*X799213Y183071D03*Y187008D03*X790945Y167717D03*X794882D03*X864961Y214173D03*Y218110D03*X771260Y184646D03*X767323D03*X864961Y225984D03*Y222047D03*X771260Y188583D03*X767323D03*Y242913D03*X771260D03*X767323Y235039D03*Y238976D03*X771260Y235039D03*Y238976D03*X775197Y235039D03*Y238976D03*X776772Y220079D03*Y216142D03*X767323Y224016D03*Y227953D03*X771260Y224016D03*Y227953D03*X775197Y224016D03*Y227953D03*X767323Y220079D03*Y216142D03*X814567Y220866D03*Y224803D03*X779134Y224016D03*Y227953D03*X786614Y240157D03*X782677D03*X786614Y244094D03*X782677D03*X783071Y224016D03*Y227953D03*X833465Y201969D03*Y205906D03*X821260Y236220D03*X817323D03*X830315Y237795D03*Y233858D03*X825197Y197244D03*X829134D03*X816535Y193307D03*Y189370D03*X839370Y235433D03*X843307D03*X827165Y205906D03*Y201969D03*X809843Y178346D03*X805906D03*X852362Y233071D03*Y229134D03*X921654Y240157D03*X925591D03*X917323Y242126D03*Y238189D03*X921654Y233858D03*X925591D03*X899213Y227953D03*Y224016D03*X917323Y233858D03*X913386D03*X904724Y225591D03*Y229528D03*X911024Y242126D03*Y238189D03*Y225591D03*Y229528D03*X917323Y225591D03*Y229528D03*X900787Y233858D03*X896850D03*X904724D03*X908661D03*X904724Y242126D03*Y238189D03*X980709Y241535D03*X976772D03*X932677Y197244D03*X928740D03*X929528Y240157D03*X933465D03*X911024Y217717D03*Y221654D03*Y213780D03*Y209843D03*Y201969D03*Y205906D03*X921260Y220866D03*Y224803D03*X935827Y221260D03*X939764D03*X949606Y225591D03*Y221654D03*X951575Y217717D03*X955512D03*X951575Y211417D03*X955512D03*Y202756D03*X951575D03*X895276Y216142D03*Y220079D03*X914567Y195276D03*X910630D03*X891732Y189370D03*Y193307D03*X900394D03*Y189370D03*X906693Y193307D03*Y189370D03*X935039Y193307D03*Y189370D03*X941339Y193307D03*Y189370D03*X977165Y202362D03*Y206299D03*X891339Y167717D03*X895276D03*X930315Y164173D03*Y168110D03*X935039Y164173D03*Y168110D03*X923622Y189370D03*Y193307D03*X941339Y164173D03*Y168110D03*X914961Y167717D03*X911024D03*X933465Y228346D03*Y232283D03*X905118Y218110D03*X901181D03*X961811Y222441D03*X957874D03*X883465Y208661D03*X879528D03*X883465Y202362D03*X879528D03*X955512Y240157D03*X951575D03*X883465Y192520D03*X879528D03*X883465Y180709D03*X879528D03*X911417Y183071D03*Y187008D03*X903150Y167717D03*X907087D03*X977165Y214173D03*Y218110D03*X883465Y184646D03*X879528D03*X977165Y225984D03*Y222047D03*X883465Y188583D03*X879528D03*Y242913D03*X883465D03*X879528Y235039D03*Y238976D03*X883465Y235039D03*Y238976D03*X887402Y235039D03*Y238976D03*X888976Y220079D03*Y216142D03*X879528Y224016D03*Y227953D03*X883465Y224016D03*Y227953D03*X887402Y224016D03*Y227953D03*X879528Y220079D03*Y216142D03*X926772Y220866D03*Y224803D03*X891339Y224016D03*Y227953D03*X898819Y240157D03*X894882D03*X898819Y244094D03*X894882D03*X895276Y224016D03*Y227953D03*X945669Y201969D03*Y205906D03*X933465Y236220D03*X929528D03*X942520Y237795D03*Y233858D03*X937402Y197244D03*X941339D03*X928740Y193307D03*Y189370D03*X951575Y235433D03*X955512D03*X939370Y205906D03*Y201969D03*X922047Y178346D03*X918110D03*X964567Y233071D03*Y229134D03*X1033858Y240157D03*X1037795D03*X1029528Y242126D03*Y238189D03*X1033858Y233858D03*X1037795D03*X1011417Y227953D03*Y224016D03*X1029528Y233858D03*X1025591D03*X1016929Y225591D03*Y229528D03*X1023228Y242126D03*Y238189D03*Y225591D03*Y229528D03*X1029528Y225591D03*Y229528D03*X1012992Y233858D03*X1009055D03*X1016929D03*X1020866D03*X1016929Y242126D03*Y238189D03*X1044882Y197244D03*X1040945D03*X1041732Y240157D03*X1045669D03*X1023228Y217717D03*Y221654D03*Y213780D03*Y209843D03*Y201969D03*Y205906D03*X1033465Y220866D03*Y224803D03*X1048031Y221260D03*X1051969D03*X1061811Y225591D03*Y221654D03*X1063780Y217717D03*X1067717D03*X1063780Y211417D03*X1067717D03*Y202756D03*X1063780D03*X1007480Y216142D03*Y220079D03*X1026772Y195276D03*X1022835D03*X1003937Y189370D03*Y193307D03*X1012598D03*Y189370D03*X1018898Y193307D03*Y189370D03*X1047244Y193307D03*Y189370D03*X1053543Y193307D03*Y189370D03*X1089370Y202362D03*Y206299D03*X1003543Y167717D03*X1007480D03*X1042520Y164173D03*Y168110D03*X1047244Y164173D03*Y168110D03*X1035827Y189370D03*Y193307D03*X1053543Y164173D03*Y168110D03*X1027165Y167717D03*X1023228D03*X1045669Y228346D03*Y232283D03*X1017323Y218110D03*X1013386D03*X1074016Y222441D03*X1070079D03*X995669Y208661D03*X991732D03*X995669Y202362D03*X991732D03*X1067717Y240157D03*X1063780D03*X995669Y192520D03*X991732D03*X995669Y180709D03*X991732D03*X1023622Y183071D03*Y187008D03*X1015354Y167717D03*X1019291D03*X1089370Y214173D03*Y218110D03*X995669Y184646D03*X991732D03*X1089370Y225984D03*Y222047D03*X995669Y188583D03*X991732D03*Y235039D03*Y238976D03*X995669Y235039D03*Y238976D03*X999606Y235039D03*Y238976D03*X1001181Y220079D03*Y216142D03*X991732Y224016D03*Y227953D03*X995669Y224016D03*Y227953D03*X999606Y224016D03*Y227953D03*X991732Y220079D03*Y216142D03*X1038976Y220866D03*Y224803D03*X1003543Y224016D03*Y227953D03*X1011024Y240157D03*X1007087D03*X1007480Y224016D03*Y227953D03*X1057874Y201969D03*Y205906D03*X1045669Y236220D03*X1041732D03*X1054724Y237795D03*Y233858D03*X1049606Y197244D03*X1053543D03*X1040945Y193307D03*Y189370D03*X1063780Y235433D03*X1067717D03*X1051575Y205906D03*Y201969D03*X1034252Y178346D03*X1030315D03*X1076772Y233071D03*Y229134D03*X991732Y242913D03*X995669D03*X1063780Y252362D03*X1067717D03*X1063780Y246063D03*X1067717D03*X1092913Y252362D03*X1088976D03*X1092913Y246063D03*X1088976D03*X1092913Y241535D03*X1088976D03*X1023228Y250000D03*Y246063D03*X1041732Y246457D03*X1045669D03*X1011024Y244094D03*X1007087D03*X1072441Y261417D03*Y265354D03*X1084252Y261417D03*Y265354D03*X1080315Y261417D03*Y265354D03*X1076378Y261417D03*Y265354D03*X951575Y252362D03*X955512D03*X951575Y246063D03*X955512D03*X980709Y252362D03*X976772D03*X980709Y246063D03*X976772D03*X960236Y261417D03*Y265354D03*X972047Y261417D03*Y265354D03*X968110Y261417D03*Y265354D03*X964173Y261417D03*Y265354D03*X929528Y246457D03*X933465D03*X911024Y250000D03*Y246063D03*X839370Y252362D03*X843307D03*X839370Y246063D03*X843307D03*X868504Y252362D03*X864567D03*X868504Y246063D03*X864567D03*X798819Y250000D03*Y246063D03*X817323Y246457D03*X821260D03*X848031Y261417D03*Y265354D03*X859843Y261417D03*Y265354D03*X855906Y261417D03*Y265354D03*X851969Y261417D03*Y265354D03*X727165Y252362D03*X731102D03*X727165Y246063D03*X731102D03*X756299Y252362D03*X752362D03*X756299Y246063D03*X752362D03*X686614Y250000D03*Y246063D03*X705118Y246457D03*X709055D03*X735827Y261417D03*Y265354D03*X747638Y261417D03*Y265354D03*X743701Y261417D03*Y265354D03*X739764Y261417D03*Y265354D03*X614961Y252362D03*X618898D03*X614961Y246063D03*X618898D03*X574409Y250000D03*Y246063D03*X592913Y246457D03*X596850D03*X644094Y252362D03*X640157D03*X644094Y246063D03*X640157D03*X623622Y261417D03*Y265354D03*X635433Y261417D03*Y265354D03*X631496Y261417D03*Y265354D03*X627559Y261417D03*Y265354D03*X1170866Y487795D03*Y483858D03*Y479921D03*X1166929D03*Y483858D03*Y487795D03*X301772Y436614D03*X297835D03*X1186614Y479921D03*X1182677D03*X1186614Y487795D03*Y483858D03*X1182677D03*Y487795D03*X301772Y440551D03*X297835D03*X275197Y448425D03*Y452362D03*X279134Y448425D03*Y452362D03*X283071Y448425D03*Y452362D03*X346063Y227953D03*Y224016D03*Y216142D03*Y220079D03*X373622Y393307D03*Y397244D03*X377559Y393307D03*Y397244D03*X208268Y166929D03*Y162992D03*X287008Y448425D03*Y452362D03*X290945Y479921D03*Y475984D03*X300787Y460236D03*Y464173D03*X265354Y467126D03*Y463189D03*X229921Y194488D03*X233858D03*X244094D03*X248031D03*X258268D03*X262205D03*X272441D03*X276378D03*X224016Y181693D03*Y177756D03*X212205Y174803D03*Y170866D03*X226378Y462205D03*Y466142D03*X212205Y162992D03*Y166929D03*X216142Y162992D03*Y166929D03*X208268Y174803D03*Y170866D03*X216142Y174803D03*Y170866D03*X233366Y166929D03*X237303D03*X233366Y162992D03*X237303D03*X308661Y491732D03*Y495669D03*X304724Y491732D03*Y495669D03*X288976Y491732D03*Y495669D03*X300787Y491732D03*Y495669D03*X296850Y491732D03*Y495669D03*X334843Y139370D03*Y143307D03*X292913Y491732D03*Y495669D03*X338780Y139370D03*Y143307D03*X285039Y491732D03*Y495669D03*X346654Y139370D03*Y143307D03*X281102Y491732D03*Y495669D03*X350591Y139370D03*Y143307D03*X366339Y139370D03*Y143307D03*X370276Y139370D03*Y143307D03*X382087Y139370D03*Y143307D03*X386024Y139370D03*Y143307D03*X397835Y139370D03*Y143307D03*X401772Y139370D03*Y143307D03*G54D122*X1245422Y284055D03*X1251822D03*X178003Y353937D03*X171603D03*X165405Y380512D03*X159005D03*X178003Y224016D03*X171603D03*X165405Y250591D03*X159005D03*X1245422Y207283D03*X1251822D03*X178003Y418898D03*X171603D03*X165405Y445472D03*X159005D03*X1245422Y360827D03*X1251822D03*X178003Y288976D03*X171603D03*X165405Y315551D03*X159005D03*X178003Y412992D03*X171603D03*X1245422Y366732D03*X1251822D03*X178003Y283071D03*X171603D03*X1245422Y289961D03*X1251822D03*X178003Y348031D03*X171603D03*X178003Y218110D03*X171603D03*X1245422Y213189D03*X1251822D03*X190798Y447441D03*X184398D03*X190798Y252559D03*X184398D03*X190798Y382480D03*X184398D03*X231052Y173228D03*X237452D03*G54D125*X1215748Y415748D03*Y465354D03*G54D128*X365717Y389370D03*X369717D03*G54D130*X234646Y442323D03*Y434843D03*X225197Y438583D03*X270079Y428543D03*Y421063D03*X260630Y424803D03*X252362Y442323D03*Y434843D03*X242913Y438583D03*X270079Y442323D03*Y434843D03*X260630Y438583D03*X234646Y428543D03*Y421063D03*X225197Y424803D03*X252362Y428543D03*Y421063D03*X242913Y424803D03*G54D132*X1267323Y268554D03*Y262154D03*Y191783D03*Y185383D03*X180709Y489027D03*Y482627D03*X1267323Y345326D03*Y338926D03*X129528Y414224D03*Y407824D03*X159055Y440306D03*Y433906D03*X1296850Y364517D03*Y370917D03*X1267323Y333515D03*Y327115D03*X129528Y284302D03*Y277902D03*X159055Y310385D03*Y303985D03*X1296850Y287745D03*Y294145D03*X1267323Y256743D03*Y250343D03*X129528Y349263D03*Y342863D03*X159055Y375346D03*Y368946D03*X129528Y219342D03*Y212942D03*X159055Y245424D03*Y239024D03*X1296850Y210973D03*Y217373D03*X1267323Y179972D03*Y173572D03*X247638Y183909D03*Y177509D03*G54D138*X230906Y207677D03*X232874D03*Y203346D03*X230906D03*X245079Y207677D03*X247047D03*Y203346D03*X245079D03*X259252Y207677D03*X261220D03*Y203346D03*X259252D03*X273425Y207677D03*X275394D03*Y203346D03*X273425D03*G54D158*X228642Y207677D03*X235138D03*Y203346D03*X228642D03*X242815Y207677D03*X249311D03*Y203346D03*X242815D03*X256988Y207677D03*X263484D03*Y203346D03*X256988D03*X271161Y207677D03*X277657D03*Y203346D03*X271161D03*G54D162*X1161024Y497638D03*X135039Y498425D03*X1300787Y162992D03*X115748Y186614D03*X477953Y523228D03*X590157D03*X702362D03*X814567D03*X926772D03*X533071Y399213D03*X645276D03*X757480D03*X869685D03*X981890D03*X533071Y275197D03*X645276D03*X757480D03*X869685D03*X981890D03*X420866Y157087D03*X533071D03*X645276D03*X757480D03*X869685D03*X981890D03*X1094094D03*X1206299D03*X1208268Y399213D03*Y275197D03*X1153150Y523228D03*X285039Y359842D03*X409055Y399212D03*X359843Y503543D03*X407087Y267323D03*G54D163*X123622Y515354D03*X340157D03*X1174803D03*X462205Y426772D03*X1135433D03*X853937Y302756D03*X517323Y178740D03*X1190551D03*X129528Y170866D03*X328346D03*G54D165*X279724Y113780D03*X283661D03*X287598D03*X291535D03*X295472D03*X299409D03*X303346D03*X307283D03*X311220D03*X315157D03*X319094D03*X330906D03*X334843D03*X338780D03*X342717D03*X346654D03*X350591D03*X354528D03*X358465D03*X362402D03*X366339D03*X370276D03*X374213D03*X378150D03*X382087D03*X386024D03*X389961D03*X393898D03*X397835D03*X401772D03*X405709D03*X409646D03*G54D168*X129528Y136811D03*Y473011D03*G54D169*X1295376Y261417D03*X1282576D03*X1295376Y275197D03*X1282576D03*X1239269Y251575D03*X1252069D03*X1225490Y265354D03*X1238290D03*X1225490Y279134D03*X1238290D03*X1225490Y292913D03*X1238290D03*X131002Y361811D03*X143802D03*X131002Y375591D03*X143802D03*X200888Y371654D03*X188088D03*X200888Y357874D03*X188088D03*X200888Y344094D03*X188088D03*X200888Y330315D03*X188088D03*X131002Y245669D03*X143802D03*X131002Y231890D03*X143802D03*X200888Y241732D03*X188088D03*X200888Y227953D03*X188088D03*X200888Y214173D03*X188088D03*X200888Y200394D03*X188088D03*X1295376Y184646D03*X1282576D03*X1295376Y198425D03*X1282576D03*X1239269Y174803D03*X1252069D03*X1225490Y188583D03*X1238290D03*X1225490Y202362D03*X1238290D03*X1225490Y216142D03*X1238290D03*X1207773Y483858D03*X1220573D03*X1218605Y502953D03*X1205805D03*X307183Y192520D03*X319983D03*X307183Y206299D03*X319983D03*X307183Y220079D03*X319983D03*X399702Y192520D03*X412502D03*X399702Y206299D03*X412502D03*X399702Y220079D03*X412502D03*X331794Y456299D03*X318994D03*X131002Y440551D03*X143802D03*X131002Y426772D03*X143802D03*X200888Y436614D03*X188088D03*X200888Y422835D03*X188088D03*X200888Y409055D03*X188088D03*X200888Y395276D03*X188088D03*X1295376Y338189D03*X1282576D03*X1295376Y351969D03*X1282576D03*X1239269Y328346D03*X1252069D03*X1225490Y342126D03*X1238290D03*X1225490Y355906D03*X1238290D03*X1225490Y369685D03*X1238290D03*X131002Y310630D03*X143802D03*X131002Y296850D03*X143802D03*X200888Y306693D03*X188088D03*X200888Y292913D03*X188088D03*X200888Y279134D03*X188088D03*X200888Y265354D03*X188088D03*X499899Y311811D03*X512699D03*X499899Y296063D03*X512699D03*X533959D03*X521159D03*X533959Y311811D03*X521159D03*X1173128D03*X1185928D03*X1173128Y296063D03*X1185928D03*X1207187D03*X1194387D03*X1207187Y311811D03*X1194387D03*X556986Y435827D03*X569786D03*X556986Y420079D03*X569786D03*X591046D03*X578246D03*X591046Y435827D03*X578246D03*X893600D03*X906400D03*X893600Y420079D03*X906400D03*X927660D03*X914860D03*X927660Y435827D03*X914860D03*X781395D03*X794195D03*X781395Y420079D03*X794195D03*X815455D03*X802655D03*X815455Y435827D03*X802655D03*X669191D03*X681991D03*X669191Y420079D03*X681991D03*X703250D03*X690450D03*X703250Y435827D03*X690450D03*X1005805D03*X1018605D03*X1005805Y420079D03*X1018605D03*X1039865D03*X1027065D03*X1039865Y435827D03*X1027065D03*X612104Y311811D03*X624904D03*X612104Y296063D03*X624904D03*X646164D03*X633364D03*X646164Y311811D03*X633364D03*X724309D03*X737109D03*X724309Y296063D03*X737109D03*X758369D03*X745569D03*X758369Y311811D03*X745569D03*X948718D03*X961518D03*X948718Y296063D03*X961518D03*X982778D03*X969978D03*X982778Y311811D03*X969978D03*X1060923D03*X1073723D03*X1060923Y296063D03*X1073723D03*X1094983D03*X1082183D03*X1094983Y311811D03*X1082183D03*X612104Y187795D03*X624904D03*X612104Y172047D03*X624904D03*X646164D03*X633364D03*X646164Y187795D03*X633364D03*X724309D03*X737109D03*X724309Y172047D03*X737109D03*X758369D03*X745569D03*X758369Y187795D03*X745569D03*X836513D03*X849313D03*X836513Y172047D03*X849313D03*X870573D03*X857773D03*X870573Y187795D03*X857773D03*X948718D03*X961518D03*X948718Y172047D03*X961518D03*X982778D03*X969978D03*X982778Y187795D03*X969978D03*X1060923D03*X1073723D03*X1060923Y172047D03*X1073723D03*X1094983D03*X1082183D03*X1094983Y187795D03*X1082183D03*G54D170*X1296850Y313093D03*Y300293D03*X129528Y323915D03*Y336715D03*Y193994D03*Y206794D03*X1296850Y236321D03*Y223521D03*X129528Y388876D03*Y401676D03*X1296850Y389865D03*Y377065D03*X129528Y258954D03*Y271754D03*G54D171*X257489Y166929D03*X275189D03*X257489Y183661D03*X275189D03*G54D172*X172835Y476974D03*Y488774D03*G54D173*X1187008Y465354D03*G54D174*Y448819D03*Y432283D03*Y415748D03*X1165354Y465354D03*Y448819D03*Y432283D03*Y415748D03*G54D175*X161024Y462047D03*G54D176*Y472047D03*Y482047D03*G54D177*X201575Y457579D03*X192520D03*X183465D03*G54D178*X192520Y482579D03*G54D179*X172638Y396949D03*Y403445D03*X176969D03*Y396949D03*X1253740Y378839D03*Y372343D03*X1249409D03*Y378839D03*X172638Y267028D03*Y273524D03*X176969D03*Y267028D03*X1253740Y302067D03*Y295571D03*X1249409D03*Y302067D03*X172638Y331988D03*Y338484D03*X176969D03*Y331988D03*X172638Y202067D03*Y208563D03*X176969D03*Y202067D03*X1253740Y225295D03*Y218799D03*X1249409D03*Y225295D03*G54D180*X172638Y399213D03*Y401181D03*X176969D03*Y399213D03*X1253740Y376575D03*Y374606D03*X1249409D03*Y376575D03*X172638Y269291D03*Y271260D03*X176969D03*Y269291D03*X1253740Y299803D03*Y297835D03*X1249409D03*Y299803D03*X172638Y334252D03*Y336220D03*X176969D03*Y334252D03*X172638Y204331D03*Y206299D03*X176969D03*Y204331D03*X1253740Y223031D03*Y221063D03*X1249409D03*Y223031D03*G54D181*X237795Y455906D03*Y492126D03*G54D182*X255512Y453740D03*Y470669D03*G54D184*X1222189Y526181D03*X1204189D03*G54D186*X1202362Y456205D03*Y468205D03*G54D11*X100000Y117717D02*G01Y537598D01*X123819*X141339Y520079*Y500924*X149606*Y533024*X152606Y536024*X244806*X247806Y533024*Y502762*Y502762D02*G75*G03X251406Y502762I1800D01*Y502762D02*G01Y533024D01*X254406Y536024*X311106*X314106Y533024*Y500924*X322441*Y520079*X339961Y537598*X1241732*Y399213*X1328346*Y150197*X412200*Y102000*X410200Y100000*X330750*X328750Y102000*Y129296*Y129295D02*G03X321250Y129295I-3750J26D01*Y129296D02*G01Y102000D01*X319250Y100000*X279200*X277200Y102000*Y142947*Y142946D02*G03X262800Y142946I-7200J51D01*Y142947D02*G01Y117717D01*X231300*Y150197*X159055*Y117717*X100000*X100551Y91004D02*G01X280551D01*Y56004*X100551*Y91004*Y76004D02*G01X280551D01*X100551Y66004D02*G01X280551D01*X140551Y76004D02*G01Y56004D01*X180551Y76004D02*G01Y56004D01*X240551Y76004D02*G01Y56004D01*X109042Y86441D02*G01Y80404D01*X107451Y86441D02*G01X110633D01*X112678D02*G01Y80404D01*Y86441D02*G01X115633D01*X112678Y83566D02*G01X114497D01*X112678Y80404D02*G01X115633D01*X121088Y85004D02*G01X120860Y85579D01*X120406Y86154*X119951Y86441*X119042*X118588Y86154*X118133Y85579*X117906Y85004*X117678Y84141*Y82704*X117906Y81841*X118133Y81266*X118588Y80691*X119042Y80404*X119951*X120406Y80691*X120860Y81266*X121088Y81841*X123133Y86441D02*G01Y80404D01*Y86441D02*G01X126315Y80404D01*Y86441D02*G01Y80404D01*X129724Y86441D02*G01X129269Y86154D01*X128815Y85579*X128588Y85004*X128360Y84141*Y82704*X128588Y81841*X128815Y81266*X129269Y80691*X129724Y80404*X130633*X131088Y80691*X131542Y81266*X131769Y81841*X131997Y82704*Y84141*X131769Y85004*X131542Y85579*X131088Y86154*X130633Y86441*X129724*X137224D02*G01X134951Y80404D01*X134042Y86441D02*G01X137224D01*X142451D02*G01X140178Y80404D01*X139269Y86441D02*G01X142451D01*X74459Y120344D02*G01X74071Y120026D01*X73878Y119548*Y118912*X74071Y118435*X74459Y118117*X74846*X75234Y118276*X75428Y118435*X75621Y118753*X76009Y119707*X76203Y120026*X76396Y120185*X76784Y120344*X77365*X77753Y120026*X77946Y119548*Y118912*X77753Y118435*X77365Y118117*X73878Y122730D02*G01X74071Y122412D01*X74459Y122094*X74846Y121935*X75428Y121776*X76396*X76978Y121935*X77365Y122094*X77753Y122412*X77946Y122730*Y123367*X77753Y123685*X77365Y124003*X76978Y124162*X76396Y124321*X75428*X74846Y124162*X74459Y124003*X74071Y123685*X73878Y123367*Y122730*Y125753D02*G01X77946D01*Y127662*X73878Y129094D02*G01X77946D01*X73878D02*G01Y130207D01*X74071Y130685*X74459Y131003*X74846Y131162*X75428Y131321*X76396*X76978Y131162*X77365Y131003*X77753Y130685*X77946Y130207*Y129094*X73878Y132753D02*G01X77946D01*X73878D02*G01Y134821D01*X75815Y132753D02*G01Y134026D01*X77946Y132753D02*G01Y134821D01*X73878Y136253D02*G01X77946D01*X73878D02*G01Y137685D01*X74071Y138162*X74265Y138321*X74653Y138480*X75040*X75428Y138321*X75621Y138162*X75815Y137685*Y136253*Y137367D02*G01X77946Y138480D01*X73878Y143571D02*G01X77946D01*X73878D02*G01X77946Y144844D01*X73878Y146117D02*G01X77946Y144844D01*X73878Y146117D02*G01X77946D01*X73878Y148821D02*G01X77946Y147548D01*X73878Y148821D02*G01X77946Y150094D01*X76590Y148026D02*G01Y149617D01*X74459Y153753D02*G01X74071Y153435D01*X73878Y152957*Y152321*X74071Y151844*X74459Y151526*X74846*X75234Y151685*X75428Y151844*X75621Y152162*X76009Y153117*X76203Y153435*X76396Y153594*X76784Y153753*X77365*X77753Y153435*X77946Y152957*Y152321*X77753Y151844*X77365Y151526*X73878Y155185D02*G01X77946D01*X73878Y157412D02*G01X76590Y155185D01*X75621Y155980D02*G01X77946Y157412D01*X73878Y162503D02*G01X77946D01*X73878D02*G01Y163935D01*X74071Y164412*X74265Y164571*X74653Y164730*X75040*X75428Y164571*X75621Y164412*X75815Y163935*Y162503D02*G01Y163935D01*X76009Y164412*X76203Y164571*X76590Y164730*X77171*X77559Y164571*X77753Y164412*X77946Y163935*Y162503*X73878Y167117D02*G01X74071Y166798D01*X74459Y166480*X74846Y166321*X75428Y166162*X76396*X76978Y166321*X77365Y166480*X77753Y166798*X77946Y167117*Y167753*X77753Y168071*X77365Y168389*X76978Y168548*X76396Y168707*X75428*X74846Y168548*X74459Y168389*X74071Y168071*X73878Y167753*Y167117*Y171253D02*G01X77946D01*X73878Y170139D02*G01Y172367D01*Y174912D02*G01X77946D01*X73878Y173798D02*G01Y176026D01*Y178412D02*G01X74071Y178094D01*X74459Y177776*X74846Y177617*X75428Y177457*X76396*X76978Y177617*X77365Y177776*X77753Y178094*X77946Y178412*Y179048*X77753Y179367*X77365Y179685*X76978Y179844*X76396Y180003*X75428*X74846Y179844*X74459Y179685*X74071Y179367*X73878Y179048*Y178412*Y181435D02*G01X77946D01*X73878D02*G01X77946Y182707D01*X73878Y183980D02*G01X77946Y182707D01*X73878Y183980D02*G01X77946D01*G54D26*X313606Y535524D02*G01X150106D01*Y514824*X313606*Y535524*X277665Y100500D02*G01X411705D01*Y121547*X277665*Y100500*X150106Y535522D02*G01X313606D01*X150106Y534622D02*G01X313606D01*X150106Y533722D02*G01X313606D01*X150106Y532822D02*G01X313606D01*X150106Y531922D02*G01X313606D01*X150106Y531022D02*G01X313606D01*X150106Y530122D02*G01X313606D01*X150106Y529222D02*G01X313606D01*X150106Y528322D02*G01X313606D01*X150106Y527422D02*G01X313606D01*X150106Y526522D02*G01X313606D01*X150106Y525622D02*G01X313606D01*X150106Y524722D02*G01X313606D01*X150106Y523822D02*G01X313606D01*X150106Y522922D02*G01X313606D01*X150106Y522022D02*G01X313606D01*X150106Y521122D02*G01X313606D01*X150106Y520222D02*G01X313606D01*X150106Y519322D02*G01X313606D01*X150106Y518422D02*G01X313606D01*X150106Y517522D02*G01X313606D01*X150106Y516622D02*G01X313606D01*X150106Y515722D02*G01X313606D01*X277665Y121199D02*G01X411705D01*X277665Y120299D02*G01X411705D01*X277665Y119399D02*G01X411705D01*X277665Y118499D02*G01X411705D01*X277665Y117599D02*G01X411705D01*X277665Y116699D02*G01X411705D01*X277665Y115799D02*G01X411705D01*X277665Y114899D02*G01X411705D01*X277665Y113999D02*G01X411705D01*X277665Y113099D02*G01X411705D01*X277665Y112199D02*G01X411705D01*X277665Y111299D02*G01X411705D01*X277665Y110399D02*G01X411705D01*X277665Y109499D02*G01X411705D01*X277665Y108599D02*G01X411705D01*X277665Y107699D02*G01X411705D01*X277665Y106799D02*G01X411705D01*X277665Y105899D02*G01X411705D01*X277665Y104999D02*G01X411705D01*X277665Y104099D02*G01X411705D01*X277665Y103199D02*G01X411705D01*X277665Y102299D02*G01X411705D01*X277665Y101399D02*G01X411705D01*X1165248Y497638D02*G03X1165248Y497638I-4224D01*X139264Y498425D02*G03X139264Y498425I-4225D01*X1305012Y162992D02*G03X1305012Y162992I-4225D01*X119972Y186614D02*G03X119972Y186614I-4224D01*X482177Y523228D02*G03X482177Y523228I-4224D01*X594382D02*G03X594382Y523228I-4225D01*X706587D02*G03X706587Y523228I-4225D01*X818791D02*G03X818791Y523228I-4224D01*X930996D02*G03X930996Y523228I-4224D01*X537295Y399213D02*G03X537295Y399213I-4224D01*X649500D02*G03X649500Y399213I-4224D01*X761705D02*G03X761705Y399213I-4225D01*X873909D02*G03X873909Y399213I-4224D01*X986114D02*G03X986114Y399213I-4224D01*X537295Y275197D02*G03X537295Y275197I-4224D01*X649500D02*G03X649500Y275197I-4224D01*X761705D02*G03X761705Y275197I-4225D01*X873909D02*G03X873909Y275197I-4224D01*X986114D02*G03X986114Y275197I-4224D01*X425091Y157087D02*G03X425091Y157087I-4225D01*X537295D02*G03X537295Y157087I-4224D01*X649500D02*G03X649500Y157087I-4224D01*X761705D02*G03X761705Y157087I-4225D01*X873909D02*G03X873909Y157087I-4224D01*X986114D02*G03X986114Y157087I-4224D01*X1098319D02*G03X1098319Y157087I-4225D01*X1210524D02*G03X1210524Y157087I-4225D01*X1212492Y399213D02*G03X1212492Y399213I-4224D01*Y275197D02*G03X1212492Y275197I-4224D01*X1157374Y523228D02*G03X1157374Y523228I-4224D01*X289264Y359842D02*G03X289264Y359842I-4225D01*X413280Y399212D02*G03X413280Y399212I-4225D01*X364067Y503543D02*G03X364067Y503543I-4224D01*X411311Y267323D02*G03X411311Y267323I-4224D01*X1165248Y497638D02*G03X1165248Y497638I-4224D01*X139264Y498425D02*G03X139264Y498425I-4225D01*X1305012Y162992D02*G03X1305012Y162992I-4225D01*X119972Y186614D02*G03X119972Y186614I-4224D01*X482177Y523228D02*G03X482177Y523228I-4224D01*X594382D02*G03X594382Y523228I-4225D01*X706587D02*G03X706587Y523228I-4225D01*X818791D02*G03X818791Y523228I-4224D01*X930996D02*G03X930996Y523228I-4224D01*X537295Y399213D02*G03X537295Y399213I-4224D01*X649500D02*G03X649500Y399213I-4224D01*X761705D02*G03X761705Y399213I-4225D01*X873909D02*G03X873909Y399213I-4224D01*X986114D02*G03X986114Y399213I-4224D01*X537295Y275197D02*G03X537295Y275197I-4224D01*X649500D02*G03X649500Y275197I-4224D01*X761705D02*G03X761705Y275197I-4225D01*X873909D02*G03X873909Y275197I-4224D01*X986114D02*G03X986114Y275197I-4224D01*X425091Y157087D02*G03X425091Y157087I-4225D01*X537295D02*G03X537295Y157087I-4224D01*X649500D02*G03X649500Y157087I-4224D01*X761705D02*G03X761705Y157087I-4225D01*X873909D02*G03X873909Y157087I-4224D01*X986114D02*G03X986114Y157087I-4224D01*X1098319D02*G03X1098319Y157087I-4225D01*X1210524D02*G03X1210524Y157087I-4225D01*X1212492Y399213D02*G03X1212492Y399213I-4224D01*Y275197D02*G03X1212492Y275197I-4224D01*X1157374Y523228D02*G03X1157374Y523228I-4224D01*X289264Y359842D02*G03X289264Y359842I-4225D01*X413280Y399212D02*G03X413280Y399212I-4225D01*X364067Y503543D02*G03X364067Y503543I-4224D01*X411311Y267323D02*G03X411311Y267323I-4224D01*X1156808Y497912D02*G01X1165239D01*X1156846Y497012D02*G01X1165201D01*X1156966Y498812D02*G01X1165082D01*X1157084Y496112D02*G01X1164963D01*X1157344Y499712D02*G01X1164704D01*X1157565Y495212D02*G01X1164482D01*X1158024Y500612D02*G01X1164024D01*X1158419Y494312D02*G01X1163628D01*X1159340Y501512D02*G01X1162708D01*X130824Y498699D02*G01X139255D01*X130862Y497799D02*G01X139217D01*X130981Y499599D02*G01X139097D01*X131100Y496899D02*G01X138979D01*X131359Y500499D02*G01X138719D01*X131581Y495999D02*G01X138498D01*X132039Y501399D02*G01X138039D01*X132435Y495099D02*G01X137644D01*X133355Y502299D02*G01X136723D01*X1296572Y163266D02*G01X1305003D01*X1296610Y162366D02*G01X1304965D01*X1296729Y164166D02*G01X1304845D01*X1296848Y161466D02*G01X1304727D01*X1297107Y165066D02*G01X1304467D01*X1297329Y160566D02*G01X1304246D01*X1297788Y165966D02*G01X1303787D01*X1298183Y159666D02*G01X1303392D01*X1299103Y166866D02*G01X1302471D01*X111533Y186888D02*G01X119964D01*X111570Y185988D02*G01X119926D01*X111690Y187788D02*G01X119806D01*X111809Y185088D02*G01X119687D01*X112068Y188688D02*G01X119428D01*X112289Y184188D02*G01X119207D01*X112748Y189588D02*G01X118748D01*X113143Y183288D02*G01X118353D01*X114064Y190488D02*G01X117432D01*X473737Y523502D02*G01X482168D01*X473775Y522602D02*G01X482131D01*X473895Y524402D02*G01X482011D01*X474013Y521702D02*G01X481892D01*X474273Y525302D02*G01X481633D01*X474494Y520802D02*G01X481411D01*X474953Y526202D02*G01X480953D01*X475348Y519902D02*G01X480558D01*X476269Y527102D02*G01X479637D01*X585942Y523502D02*G01X594373D01*X585980Y522602D02*G01X594335D01*X586100Y524402D02*G01X594215D01*X586218Y521702D02*G01X594097D01*X586477Y525302D02*G01X593838D01*X586699Y520802D02*G01X593616D01*X587158Y526202D02*G01X593157D01*X587553Y519902D02*G01X592762D01*X588474Y527102D02*G01X591841D01*X698147Y523502D02*G01X706578D01*X698184Y522602D02*G01X706540D01*X698304Y524402D02*G01X706420D01*X698423Y521702D02*G01X706301D01*X698682Y525302D02*G01X706042D01*X698904Y520802D02*G01X705821D01*X699362Y526202D02*G01X705362D01*X699757Y519902D02*G01X704967D01*X700678Y527102D02*G01X704046D01*X810351Y523502D02*G01X818782D01*X810389Y522602D02*G01X818745D01*X810509Y524402D02*G01X818625D01*X810628Y521702D02*G01X818506D01*X810887Y525302D02*G01X818247D01*X811108Y520802D02*G01X818025D01*X811567Y526202D02*G01X817567D01*X811962Y519902D02*G01X817172D01*X812883Y527102D02*G01X816251D01*X922556Y523502D02*G01X930987D01*X922594Y522602D02*G01X930949D01*X922714Y524402D02*G01X930830D01*X922832Y521702D02*G01X930711D01*X923092Y525302D02*G01X930452D01*X923313Y520802D02*G01X930230D01*X923772Y526202D02*G01X929772D01*X924167Y519902D02*G01X929376D01*X925088Y527102D02*G01X928456D01*X528855Y399487D02*G01X537286D01*X528893Y398587D02*G01X537249D01*X529013Y400387D02*G01X537129D01*X529132Y397687D02*G01X537010D01*X529391Y401287D02*G01X536751D01*X529612Y396787D02*G01X536529D01*X530071Y402187D02*G01X536071D01*X530466Y395887D02*G01X535676D01*X531387Y403087D02*G01X534755D01*X641060Y399487D02*G01X649491D01*X641098Y398587D02*G01X649453D01*X641218Y400387D02*G01X649334D01*X641336Y397687D02*G01X649215D01*X641596Y401287D02*G01X648956D01*X641817Y396787D02*G01X648734D01*X642276Y402187D02*G01X648275D01*X642671Y395887D02*G01X647880D01*X643592Y403087D02*G01X646960D01*X753265Y399487D02*G01X761696D01*X753303Y398587D02*G01X761658D01*X753422Y400387D02*G01X761538D01*X753541Y397687D02*G01X761420D01*X753800Y401287D02*G01X761160D01*X754022Y396787D02*G01X760939D01*X754480Y402187D02*G01X760480D01*X754875Y395887D02*G01X760085D01*X755796Y403087D02*G01X759164D01*X865470Y399487D02*G01X873901D01*X865507Y398587D02*G01X873863D01*X865627Y400387D02*G01X873743D01*X865746Y397687D02*G01X873624D01*X866005Y401287D02*G01X873365D01*X866226Y396787D02*G01X873144D01*X866685Y402187D02*G01X872685D01*X867080Y395887D02*G01X872290D01*X868001Y403087D02*G01X871369D01*X977674Y399487D02*G01X986105D01*X977712Y398587D02*G01X986068D01*X977832Y400387D02*G01X985948D01*X977950Y397687D02*G01X985829D01*X978210Y401287D02*G01X985570D01*X978431Y396787D02*G01X985348D01*X978890Y402187D02*G01X984890D01*X979285Y395887D02*G01X984495D01*X980206Y403087D02*G01X983574D01*X528855Y275471D02*G01X537286D01*X528893Y274571D02*G01X537249D01*X529013Y276371D02*G01X537129D01*X529132Y273671D02*G01X537010D01*X529391Y277271D02*G01X536751D01*X529612Y272771D02*G01X536529D01*X530071Y278171D02*G01X536071D01*X530466Y271871D02*G01X535676D01*X531387Y279071D02*G01X534755D01*X641060Y275471D02*G01X649491D01*X641098Y274571D02*G01X649453D01*X641218Y276371D02*G01X649334D01*X641336Y273671D02*G01X649215D01*X641596Y277271D02*G01X648956D01*X641817Y272771D02*G01X648734D01*X642276Y278171D02*G01X648275D01*X642671Y271871D02*G01X647880D01*X643592Y279071D02*G01X646960D01*X753265Y275471D02*G01X761696D01*X753303Y274571D02*G01X761658D01*X753422Y276371D02*G01X761538D01*X753541Y273671D02*G01X761420D01*X753800Y277271D02*G01X761160D01*X754022Y272771D02*G01X760939D01*X754480Y278171D02*G01X760480D01*X754875Y271871D02*G01X760085D01*X755796Y279071D02*G01X759164D01*X865470Y275471D02*G01X873901D01*X865507Y274571D02*G01X873863D01*X865627Y276371D02*G01X873743D01*X865746Y273671D02*G01X873624D01*X866005Y277271D02*G01X873365D01*X866226Y272771D02*G01X873144D01*X866685Y278171D02*G01X872685D01*X867080Y271871D02*G01X872290D01*X868001Y279071D02*G01X871369D01*X977674Y275471D02*G01X986105D01*X977712Y274571D02*G01X986068D01*X977832Y276371D02*G01X985948D01*X977950Y273671D02*G01X985829D01*X978210Y277271D02*G01X985570D01*X978431Y272771D02*G01X985348D01*X978890Y278171D02*G01X984890D01*X979285Y271871D02*G01X984495D01*X980206Y279071D02*G01X983574D01*X416651Y157361D02*G01X425082D01*X416688Y156461D02*G01X425044D01*X416808Y158261D02*G01X424924D01*X416927Y155561D02*G01X424805D01*X417186Y159161D02*G01X424546D01*X417408Y154661D02*G01X424325D01*X417866Y160061D02*G01X423866D01*X418261Y153761D02*G01X423471D01*X419182Y160961D02*G01X422550D01*X528855Y157361D02*G01X537286D01*X528893Y156461D02*G01X537249D01*X529013Y158261D02*G01X537129D01*X529132Y155561D02*G01X537010D01*X529391Y159161D02*G01X536751D01*X529612Y154661D02*G01X536529D01*X530071Y160061D02*G01X536071D01*X530466Y153761D02*G01X535676D01*X531387Y160961D02*G01X534755D01*X641060Y157361D02*G01X649491D01*X641098Y156461D02*G01X649453D01*X641218Y158261D02*G01X649334D01*X641336Y155561D02*G01X649215D01*X641596Y159161D02*G01X648956D01*X641817Y154661D02*G01X648734D01*X642276Y160061D02*G01X648275D01*X642671Y153761D02*G01X647880D01*X643592Y160961D02*G01X646960D01*X753265Y157361D02*G01X761696D01*X753303Y156461D02*G01X761658D01*X753422Y158261D02*G01X761538D01*X753541Y155561D02*G01X761420D01*X753800Y159161D02*G01X761160D01*X754022Y154661D02*G01X760939D01*X754480Y160061D02*G01X760480D01*X754875Y153761D02*G01X760085D01*X755796Y160961D02*G01X759164D01*X865470Y157361D02*G01X873901D01*X865507Y156461D02*G01X873863D01*X865627Y158261D02*G01X873743D01*X865746Y155561D02*G01X873624D01*X866005Y159161D02*G01X873365D01*X866226Y154661D02*G01X873144D01*X866685Y160061D02*G01X872685D01*X867080Y153761D02*G01X872290D01*X868001Y160961D02*G01X871369D01*X977674Y157361D02*G01X986105D01*X977712Y156461D02*G01X986068D01*X977832Y158261D02*G01X985948D01*X977950Y155561D02*G01X985829D01*X978210Y159161D02*G01X985570D01*X978431Y154661D02*G01X985348D01*X978890Y160061D02*G01X984890D01*X979285Y153761D02*G01X984495D01*X980206Y160961D02*G01X983574D01*X1089879Y157361D02*G01X1098310D01*X1089917Y156461D02*G01X1098272D01*X1090037Y158261D02*G01X1098152D01*X1090155Y155561D02*G01X1098034D01*X1090414Y159161D02*G01X1097775D01*X1090636Y154661D02*G01X1097553D01*X1091095Y160061D02*G01X1097094D01*X1091490Y153761D02*G01X1096699D01*X1092411Y160961D02*G01X1095778D01*X1202084Y157361D02*G01X1210515D01*X1202121Y156461D02*G01X1210477D01*X1202241Y158261D02*G01X1210357D01*X1202360Y155561D02*G01X1210238D01*X1202619Y159161D02*G01X1209979D01*X1202841Y154661D02*G01X1209758D01*X1203299Y160061D02*G01X1209299D01*X1203694Y153761D02*G01X1208904D01*X1204615Y160961D02*G01X1207983D01*X1204052Y399487D02*G01X1212483D01*X1204090Y398587D02*G01X1212446D01*X1204210Y400387D02*G01X1212326D01*X1204328Y397687D02*G01X1212207D01*X1204588Y401287D02*G01X1211948D01*X1204809Y396787D02*G01X1211726D01*X1205268Y402187D02*G01X1211268D01*X1205663Y395887D02*G01X1210873D01*X1206584Y403087D02*G01X1209952D01*X1204052Y275471D02*G01X1212483D01*X1204090Y274571D02*G01X1212446D01*X1204210Y276371D02*G01X1212326D01*X1204328Y273671D02*G01X1212207D01*X1204588Y277271D02*G01X1211948D01*X1204809Y272771D02*G01X1211726D01*X1205268Y278171D02*G01X1211268D01*X1205663Y271871D02*G01X1210873D01*X1206584Y279071D02*G01X1209952D01*X1148934Y523503D02*G01X1157365D01*X1148972Y522603D02*G01X1157327D01*X1149092Y524403D02*G01X1157208D01*X1149210Y521703D02*G01X1157089D01*X1149470Y525303D02*G01X1156830D01*X1149691Y520803D02*G01X1156608D01*X1150150Y526203D02*G01X1156149D01*X1150545Y519903D02*G01X1155754D01*X1151466Y527103D02*G01X1154834D01*X280824Y360116D02*G01X289255D01*X280862Y359216D02*G01X289217D01*X280981Y361016D02*G01X289097D01*X281100Y358316D02*G01X288979D01*X281359Y361916D02*G01X288719D01*X281581Y357416D02*G01X288498D01*X282039Y362816D02*G01X288039D01*X282435Y356516D02*G01X287644D01*X283355Y363716D02*G01X286723D01*X404840Y399487D02*G01X413271D01*X404877Y398587D02*G01X413233D01*X404997Y400387D02*G01X413113D01*X405116Y397687D02*G01X412994D01*X405375Y401287D02*G01X412735D01*X405597Y396787D02*G01X412514D01*X406055Y402187D02*G01X412055D01*X406450Y395887D02*G01X411660D01*X407371Y403087D02*G01X410739D01*X355627Y503818D02*G01X364058D01*X355665Y502918D02*G01X364020D01*X355785Y504718D02*G01X363900D01*X355903Y502018D02*G01X363782D01*X356162Y505618D02*G01X363523D01*X356384Y501118D02*G01X363301D01*X356843Y506518D02*G01X362842D01*X357238Y500218D02*G01X362447D01*X358159Y507418D02*G01X361526D01*X402871Y267597D02*G01X411302D01*X402909Y266697D02*G01X411264D01*X403029Y268497D02*G01X411145D01*X403147Y265797D02*G01X411026D01*X403407Y269397D02*G01X410767D01*X403628Y264897D02*G01X410545D01*X404087Y270297D02*G01X410086D01*X404482Y263997D02*G01X409691D01*X405403Y271197D02*G01X408771D01*G54D77*X113401Y72988D02*G01Y68854D01*Y72988D02*G01X114515D01*X114992Y72791*X115310Y72398*X115469Y72004*X115628Y71413*Y70429*X115469Y69838*X115310Y69445*X114992Y69051*X114515Y68854*X113401*X118333Y72988D02*G01X117060Y68854D01*X118333Y72988D02*G01X119606Y68854D01*X117538Y70232D02*G01X119128D01*X122151Y72988D02*G01Y68854D01*X121038Y72988D02*G01X123265D01*X124697D02*G01Y68854D01*Y72988D02*G01X126765D01*X124697Y71020D02*G01X125969D01*X124697Y68854D02*G01X126765D01*X106140Y62004D02*G01Y62201D01*X106299Y62595*X106458Y62791*X106776Y62988*X107413*X107731Y62791*X107890Y62595*X108049Y62201*Y61807*X107890Y61413*X107572Y60823*X105981Y58854*X108208*X111867Y62988D02*G01X110276Y58854D01*X109640Y62988D02*G01X111867D01*X116163Y63776D02*G01X113299Y57476D01*X118549Y62988D02*G01X118072Y62791D01*X117753Y62201*X117594Y61216*Y60626*X117753Y59641*X118072Y59051*X118549Y58854*X118867*X119344Y59051*X119663Y59641*X119822Y60626*Y61216*X119663Y62201*X119344Y62791*X118867Y62988*X118549*X123163Y62398D02*G01X123003Y62791D01*X122526Y62988*X122208*X121731Y62791*X121413Y62201*X121253Y61216*Y60232*X121413Y59445*X121731Y59051*X122208Y58854*X122367*X122844Y59051*X123163Y59445*X123322Y60035*Y60232*X123163Y60823*X122844Y61216*X122367Y61413*X122208*X121731Y61216*X121413Y60823*X121253Y60232*X127617Y63776D02*G01X124753Y57476D01*X129049Y62201D02*G01X129367Y62398D01*X129844Y62988*Y58854*X133503Y62988D02*G01X131913Y58854D01*X131276Y62988D02*G01X133503D01*X196935D02*G01Y58854D01*X198367Y61610D02*G01Y58854D01*Y60823D02*G01X198844Y61413D01*X199163Y61610*X199640*X199958Y61413*X200117Y60823*Y58854*X201708Y62004D02*G01Y62201D01*X201867Y62595*X202026Y62791*X202344Y62988*X202981*X203299Y62791*X203458Y62595*X203617Y62201*Y61807*X203458Y61413*X203140Y60823*X201549Y58854*X203776*X205208Y62988D02*G01Y58854D01*X207435Y62988D02*G01Y58854D01*X205208Y61020D02*G01X207435D01*X209026Y62004D02*G01Y62201D01*X209185Y62595*X209344Y62791*X209663Y62988*X210299*X210617Y62791*X210776Y62595*X210935Y62201*Y61807*X210776Y61413*X210458Y60823*X208867Y58854*X211094*X216185Y62988D02*G01Y58854D01*X217617Y61610D02*G01Y58854D01*Y60823D02*G01X218094Y61413D01*X218413Y61610*X218890*X219208Y61413*X219367Y60823*Y58854*X222708Y61020D02*G01X222390Y61413D01*X222072Y61610*X221594*X221276Y61413*X220958Y61020*X220799Y60429*Y60035*X220958Y59445*X221276Y59051*X221594Y58854*X222072*X222390Y59051*X222708Y59445*X255788Y72004D02*G01X255628Y72398D01*X255310Y72791*X254992Y72988*X254356*X254038Y72791*X253719Y72398*X253560Y72004*X253401Y71413*Y70429*X253560Y69838*X253719Y69445*X254038Y69051*X254356Y68854*X254992*X255310Y69051*X255628Y69445*X255788Y69838*X258174Y72988D02*G01X257856Y72791D01*X257538Y72398*X257378Y72004*X257219Y71413*Y70429*X257378Y69838*X257538Y69445*X257856Y69051*X258174Y68854*X258810*X259128Y69051*X259447Y69445*X259606Y69838*X259765Y70429*Y71413*X259606Y72004*X259447Y72398*X259128Y72791*X258810Y72988*X258174*X261197D02*G01Y68854D01*Y72988D02*G01X262310D01*X262788Y72791*X263106Y72398*X263265Y72004*X263424Y71413*Y70429*X263265Y69838*X263106Y69445*X262788Y69051*X262310Y68854*X261197*X264856Y72988D02*G01Y68854D01*Y72988D02*G01X266924D01*X264856Y71020D02*G01X266128D01*X264856Y68854D02*G01X266924D01*X197288Y72004D02*G01X197128Y72398D01*X196810Y72791*X196492Y72988*X195856*X195538Y72791*X195219Y72398*X195060Y72004*X194901Y71413*Y70429*X195060Y69838*X195219Y69445*X195538Y69051*X195856Y68854*X196492*X196810Y69051*X197128Y69445*X197288Y69838*X198719Y72988D02*G01Y70035D01*X198878Y69445*X199197Y69051*X199674Y68854*X199992*X200469Y69051*X200788Y69445*X200947Y70035*Y72988*X204606Y72398D02*G01X204288Y72791D01*X203810Y72988*X203174*X202697Y72791*X202378Y72398*Y72004*X202538Y71610*X202697Y71413*X203015Y71216*X203969Y70823*X204288Y70626*X204447Y70429*X204606Y70035*Y69445*X204288Y69051*X203810Y68854*X203174*X202697Y69051*X202378Y69445*X207151Y72988D02*G01Y68854D01*X206038Y72988D02*G01X208265D01*X210651D02*G01X210333Y72791D01*X210015Y72398*X209856Y72004*X209697Y71413*Y70429*X209856Y69838*X210015Y69445*X210333Y69051*X210651Y68854*X211288*X211606Y69051*X211924Y69445*X212083Y69838*X212242Y70429*Y71413*X212083Y72004*X211924Y72398*X211606Y72791*X211288Y72988*X210651*X213674D02*G01Y68854D01*Y72988D02*G01X214947Y68854D01*X216219Y72988D02*G01X214947Y68854D01*X216219Y72988D02*G01Y68854D01*X217651Y72988D02*G01Y68854D01*Y72988D02*G01X219719D01*X217651Y71020D02*G01X218924D01*X217651Y68854D02*G01X219719D01*X221151Y72988D02*G01Y68854D01*Y72988D02*G01X222583D01*X223060Y72791*X223219Y72595*X223378Y72201*Y71807*X223219Y71413*X223060Y71216*X222583Y71020*X221151*X222265D02*G01X223378Y68854D01*X146856Y72988D02*G01X146538Y72791D01*X146219Y72398*X146060Y72004*X145901Y71413*Y70429*X146060Y69838*X146219Y69445*X146538Y69051*X146856Y68854*X147492*X147810Y69051*X148128Y69445*X148288Y69838*X148447Y70429*Y71413*X148288Y72004*X148128Y72398*X147810Y72791*X147492Y72988*X146856*X149878D02*G01Y68854D01*Y72988D02*G01X151310D01*X151788Y72791*X151947Y72595*X152106Y72201*Y71610*X151947Y71216*X151788Y71020*X151310Y70823*X149878*X153538Y72988D02*G01Y68854D01*Y72988D02*G01X155606D01*X153538Y71020D02*G01X154810D01*X153538Y68854D02*G01X155606D01*X157038Y72988D02*G01Y68854D01*Y72988D02*G01X158469D01*X158947Y72791*X159106Y72595*X159265Y72201*Y71807*X159106Y71413*X158947Y71216*X158469Y71020*X157038*X158151D02*G01X159265Y68854D01*X161969Y72988D02*G01X160697Y68854D01*X161969Y72988D02*G01X163242Y68854D01*X161174Y70232D02*G01X162765D01*X165788Y72988D02*G01Y68854D01*X164674Y72988D02*G01X166901D01*X169288D02*G01X168969Y72791D01*X168651Y72398*X168492Y72004*X168333Y71413*Y70429*X168492Y69838*X168651Y69445*X168969Y69051*X169288Y68854*X169924*X170242Y69051*X170560Y69445*X170719Y69838*X170878Y70429*Y71413*X170719Y72004*X170560Y72398*X170242Y72791*X169924Y72988*X169288*X172310D02*G01Y68854D01*Y72988D02*G01X173742D01*X174219Y72791*X174378Y72595*X174538Y72201*Y71807*X174378Y71413*X174219Y71216*X173742Y71020*X172310*X173424D02*G01X174538Y68854D01*X249515Y62988D02*G01Y58854D01*X250947Y62988D02*G01Y58854D01*Y62988D02*G01X253174Y58854D01*Y62988D02*G01Y58854D01*X254606Y62988D02*G01Y58854D01*X256833Y62988D02*G01Y58854D01*X254606Y61020D02*G01X256833D01*X258265Y62201D02*G01X258583Y62398D01*X259060Y62988*Y58854*X262719Y62988D02*G01X261128Y58854D01*X260492Y62988D02*G01X262719D01*X265106D02*G01X264628Y62791D01*X264310Y62201*X264151Y61216*Y60626*X264310Y59641*X264628Y59051*X265106Y58854*X265424*X265901Y59051*X266219Y59641*X266378Y60626*Y61216*X266219Y62201*X265901Y62791*X265424Y62988*X265106*X267810Y62201D02*G01X268128Y62398D01*X268606Y62988*Y58854*X145969Y62398D02*G01X145651Y62791D01*X145174Y62988*X144538*X144060Y62791*X143742Y62398*Y62004*X143901Y61610*X144060Y61413*X144378Y61216*X145333Y60823*X145651Y60626*X145810Y60429*X145969Y60035*Y59445*X145651Y59051*X145174Y58854*X144538*X144060Y59051*X143742Y59445*X148515Y62988D02*G01Y58854D01*X147401Y62988D02*G01X149628D01*X151060D02*G01Y58854D01*Y62988D02*G01X153128D01*X151060Y61020D02*G01X152333D01*X151060Y58854D02*G01X153128D01*X154560Y62988D02*G01Y58854D01*Y62988D02*G01X156628D01*X154560Y61020D02*G01X155833D01*X159333Y62988D02*G01X158060Y58854D01*X159333Y62988D02*G01X160606Y58854D01*X158538Y60232D02*G01X160128D01*X162038Y62988D02*G01Y58854D01*Y62988D02*G01X164265Y58854D01*Y62988D02*G01Y58854D01*X166651Y62988D02*G01X166333Y62791D01*X166015Y62398*X165856Y62004*X165697Y61413*Y60429*X165856Y59838*X166015Y59445*X166333Y59051*X166651Y58854*X167288*X167606Y59051*X167924Y59445*X168083Y59838*X168242Y60429*Y61413*X168083Y62004*X167924Y62398*X167606Y62791*X167288Y62988*X166651*X174606D02*G01X173333Y58854D01*X174606Y62988D02*G01X175878Y58854D01*X173810Y60232D02*G01X175401D01*X177469Y59248D02*G01X177310Y59051D01*X177469Y58854*X177628Y59051*X177469Y59248*X152094Y84816D02*G01Y80354D01*X150901Y84816D02*G01X153288D01*X154822Y82054D02*G01X156867D01*Y82479*X156697Y82904*X156526Y83116*X156185Y83329*X155674*X155333Y83116*X154992Y82691*X154822Y82054*Y81629*X154992Y80991*X155333Y80566*X155674Y80354*X156185*X156526Y80566*X156867Y80991*X158401Y84816D02*G01Y80354D01*X160106Y83329D02*G01X159935Y83116D01*X160106Y82904*X160276Y83116*X160106Y83329*Y80779D02*G01X159935Y80566D01*X160106Y80354*X160276Y80566*X160106Y80779*X163344Y84179D02*G01Y80354D01*X161810Y82266D02*G01X164878D01*X166753Y84816D02*G01X168628D01*X167606Y83116*X168117*X168458Y82904*X168628Y82691*X168799Y82054*Y81629*X168628Y80991*X168288Y80566*X167776Y80354*X167265*X166753Y80566*X166583Y80779*X166413Y81204*X172549Y83329D02*G01X172378Y82691D01*X172038Y82266*X171526Y82054*X171356*X170844Y82266*X170503Y82691*X170333Y83329*Y83541*X170503Y84179*X170844Y84604*X171356Y84816*X171526*X172038Y84604*X172378Y84179*X172549Y83329*Y82266*X172378Y81204*X172038Y80566*X171526Y80354*X171185*X170674Y80566*X170503Y80991*X175106Y84816D02*G01X174594Y84604D01*X174253Y83966*X174083Y82904*Y82266*X174253Y81204*X174594Y80566*X175106Y80354*X175447*X175958Y80566*X176299Y81204*X176469Y82266*Y82904*X176299Y83966*X175958Y84604*X175447Y84816*X175106*X179708D02*G01X178003Y81841D01*X180560*X179708Y84816D02*G01Y80354D01*X183799Y84816D02*G01X182094Y81841D01*X184651*X183799Y84816D02*G01Y80354D01*X187890Y84816D02*G01X186185Y81841D01*X188742*X187890Y84816D02*G01Y80354D01*X192322Y84179D02*G01X192151Y84604D01*X191640Y84816*X191299*X190788Y84604*X190447Y83966*X190276Y82904*Y81841*X190447Y80991*X190788Y80566*X191299Y80354*X191469*X191981Y80566*X192322Y80991*X192492Y81629*Y81841*X192322Y82479*X191981Y82904*X191469Y83116*X191299*X190788Y82904*X190447Y82479*X190276Y81841*X195049Y84816D02*G01X194538Y84604D01*X194197Y83966*X194026Y82904*Y82266*X194197Y81204*X194538Y80566*X195049Y80354*X195390*X195901Y80566*X196242Y81204*X196413Y82266*Y82904*X196242Y83966*X195901Y84604*X195390Y84816*X195049*X197947Y83966D02*G01X198288Y84179D01*X198799Y84816*Y80354*X202549Y84816D02*G01X200844D01*X200674Y82904*X200844Y83116*X201356Y83329*X201867*X202378Y83116*X202719Y82691*X202890Y82054*X202719Y81629*X202549Y80991*X202208Y80566*X201697Y80354*X201185*X200674Y80566*X200503Y80779*X200333Y81204*X204424Y83966D02*G01X204765Y84179D01*X205276Y84816*Y80354*X206810Y83966D02*G01X207151Y84179D01*X207663Y84816*Y80354*X217038Y83329D02*G01Y81204D01*X217208Y80566*X217549Y80354*X218060*X218401Y80566*X218913Y81204*Y83329D02*G01Y80354D01*X220958Y84816D02*G01Y81204D01*X221128Y80566*X221469Y80354*X221810*X220447Y83329D02*G01X221640D01*X223344Y82054D02*G01X225390D01*Y82479*X225219Y82904*X225049Y83116*X224708Y83329*X224197*X223856Y83116*X223515Y82691*X223344Y82054*Y81629*X223515Y80991*X223856Y80566*X224197Y80354*X224708*X225049Y80566*X225390Y80991*X228969Y82691D02*G01X228628Y83116D01*X228288Y83329*X227776*X227435Y83116*X227094Y82691*X226924Y82054*Y81629*X227094Y80991*X227435Y80566*X227776Y80354*X228288*X228628Y80566*X228969Y80991*X232719Y80566D02*G01X232038D01*X231185Y80779*X230844Y81204*X230503Y82054*Y83116*X230844Y84179*X231185Y84604*X232719*X233231Y84179*X233572Y83541*X233742Y82479*X233572Y81629*X233401Y81416*X232719Y81204D02*G01X232549Y81416D01*Y83541*Y83116D02*G01X232208Y83329D01*X231867*X231526Y83116*X231356Y82691*Y82266*X231526Y81841*X231867Y81629*X232208*X232549Y81841*X232719Y81204D02*G01X233231D01*X233401Y81416*X235788Y84816D02*G01Y81204D01*X235958Y80566*X236299Y80354*X236640*X235276Y83329D02*G01X236469D01*X238174Y82054D02*G01X240219D01*Y82479*X240049Y82904*X239878Y83116*X239538Y83329*X239026*X238685Y83116*X238344Y82691*X238174Y82054*Y81629*X238344Y80991*X238685Y80566*X239026Y80354*X239538*X239878Y80566*X240219Y80991*X243799Y82691D02*G01X243458Y83116D01*X243117Y83329*X242606*X242265Y83116*X241924Y82691*X241753Y82054*Y81629*X241924Y80991*X242265Y80566*X242606Y80354*X243117*X243458Y80566*X243799Y80991*X245333Y83329D02*G01Y80354D01*Y82479D02*G01X245844Y83116D01*X246185Y83329*X246697*X247038Y83116*X247208Y82479*Y80354*X249594Y83329D02*G01X249253Y83116D01*X248913Y82691*X248742Y82054*Y81629*X248913Y80991*X249253Y80566*X249594Y80354*X250106*X250447Y80566*X250788Y80991*X250958Y81629*Y82054*X250788Y82691*X250447Y83116*X250106Y83329*X249594*X254878Y84816D02*G01X253174Y80354D01*X252492Y84816D02*G01X254878D01*X258799D02*G01X257094Y80354D01*X256413Y84816D02*G01X258799D01*X260503Y80779D02*G01X260333Y80566D01*X260503Y80354*X260674Y80566*X260503Y80779*X264253Y82691D02*G01X263913Y83116D01*X263572Y83329*X263060*X262719Y83116*X262378Y82691*X262208Y82054*Y81629*X262378Y80991*X262719Y80566*X263060Y80354*X263572*X263913Y80566*X264253Y80991*X266640Y83329D02*G01X266299Y83116D01*X265958Y82691*X265788Y82054*Y81629*X265958Y80991*X266299Y80566*X266640Y80354*X267151*X267492Y80566*X267833Y80991*X268003Y81629*Y82054*X267833Y82691*X267492Y83116*X267151Y83329*X266640*X269538D02*G01Y80354D01*Y82479D02*G01X270049Y83116D01*X270390Y83329*X270901*X271242Y83116*X271413Y82479*Y80354*Y82479D02*G01X271924Y83116D01*X272265Y83329*X272776*X273117Y83116*X273288Y82479*Y80354*M02*