%FSLAX35Y35*%
%MOIN*%
%SFA1.000B1.000*%

G04 Copyright (c) 2015-2018 in2H2 inc.
G04 System developed for in2H2 inc. by Intermotion Technology, Inc.
G04 
G04 Full system RTL, C sources and board design files available at https://github.com/nearist
G04 
G04 in2H2 inc. Team Members:
G04 - Chris McCormick - Algorithm Research and Design
G04 - Matt McCormick - Board Production, System Q/A
G04 
G04 Intermotion Technology Inc. Team Members:
G04 - Mick Fandrich - Project Lead
G04 - Dr. Ludovico Minati - Board Architecture and Design, FPGA Technology Advisor
G04 - Vardan Movsisyan - RTL Team Lead
G04 - Khachatur Gyozalyan - RTL Design
G04 - Tigran Papazyan - RTL Design
G04 - Taron Harutyunyan - RTL Design
G04 - Hayk Ghaltaghchyan - System Software
G04 
G04 Tecno77 S.r.l. Team Members:
G04 - Stefano Aldrigo, Board Layout Design
G04 
G04 We dedicate this project to the memory of Bruce McCormick, an AI pioneer
G04 and advocate, a good friend and father.
G04 
G04 These materials are provided free of charge: you can redistribute them and/or modify  
G04 them under the terms of the GNU General Public License as published by  
G04 the Free Software Foundation, version 3.
G04 
G04 These materials are distributed in the hope that they will be useful, but 
G04 WITHOUT ANY WARRANTY; without even the implied warranty of 
G04 MERCHANTABILITY or FITNESS FOR A PARTICULAR PURPOSE. See the GNU 
G04 General Public License for more details.
G04 In particular, this design should be treated as UNVERIFIED and UNCERTIFIED
G04 
G04 You should have received a copy of the GNU General Public License 
G04 along with this design. If not, see <http://www.gnu.org/licenses/>.

%FSLAX35Y35*%
%MOIN*%
%SFA1.000B1.000*%

%MIA0B0*%
%IPPOS*%
%ADD11C,0.00800*%
%ADD17C,0.03900*%
%ADD20C,0.04000*%
%ADD21C,0.00984*%
%ADD22C,0.01969*%
%ADD23C,0.02362*%
%ADD25C,0.00700*%
%ADD27R,0.08000X0.08000*%
%ADD28C,0.08000*%
%ADD29C,0.12000*%
%ADD30R,0.02402X0.07402*%
%ADD31C,0.00787*%
%LNbtm.gbr*%
%LPD*%
G54D17*X582284Y216142D03*X621654D03*X279616Y188583D03*X109360Y194835D03*G54D20*X119685Y119685D03*X710236Y237795D03*G54D23*X645276Y124213D03*X637402D03*X724016D03*X716142D03*X188583Y144094D03*X581299Y139961D03*X632480Y146752D03*X665945Y139961D03*X717126Y146752D03*X151969Y167717D03*X161024Y164173D03*X172835Y161024D03*X176772Y157087D03*X180709Y153150D03*X168898Y164961D03*X192520Y148425D03*X570472Y167323D03*X582233Y155855D03*Y162255D03*X592343Y166555D03*X655118Y167323D03*X656496Y149606D03*X666929Y156102D03*X666879Y162402D03*X676969Y166535D03*X125591Y184646D03*X117717D03*Y180709D03*X125591D03*X137402Y182480D03*X141339D03*X133465Y169051D03*X153150Y180315D03*X164961D03*X184646D03*X204331Y169051D03*X208268D03*X231890D03*X243701D03*X255512D03*X263386Y168898D03*X271260Y169051D03*X602362Y170276D03*X612343Y170335D03*X622244Y170276D03*X632283D03*X687008D03*X697047D03*X707087D03*X717126D03*X125591Y192520D03*X117717D03*X125591Y196457D03*X117717D03*X164961Y196850D03*X172835Y195866D03*X307677Y188583D03*X312598D03*X318504D03*X324409D03*X555709Y207087D03*X582382Y207776D03*X574409Y207874D03*X606004Y207776D03*X598130D03*X590256D03*X621752D03*X613878D03*X668898Y197047D03*X717126Y203839D03*X137402Y210039D03*X133465Y208114D03*X161024Y209646D03*X157087D03*X184646Y208114D03*X192520Y216929D03*X200394Y219882D03*X188583Y209055D03*X204331Y208114D03*X208268D03*X231890D03*X243701D03*X263386Y208268D03*X255512Y208114D03*X271260D03*X555315Y225787D03*X641535Y212992D03*X655118Y224409D03*X666879Y212942D03*Y219342D03*X687008Y226969D03*X676988Y223642D03*X696949Y226969D03*X706791D03*X717126D03*X161024Y236417D03*X168898Y234449D03*X586220Y233268D03*X601969Y233661D03*X593898Y233465D03*X609843Y233268D03*X109646Y251575D03*X145079D03*X177559Y250197D03*X645276Y252953D03*X637402D03*X724016D03*X716142D03*G54D27*X173307Y261417D03*X173150Y130591D03*X149370Y234921D03*X626969Y261417D03*X705709D03*X626969Y115748D03*X705709D03*G54D28*X163307Y261417D03*X153307D03*X143307D03*X133307D03*X123307D03*X113307D03*X173150Y120591D03*X163150Y130591D03*Y120591D03*X153150Y130591D03*Y120591D03*X143150Y130591D03*Y120591D03*X133150Y130591D03*Y120591D03*X149370Y224921D03*X139370Y234921D03*Y224921D03*X129370Y234921D03*Y224921D03*X616969Y261417D03*X606969D03*X596969D03*X586969D03*X576969D03*X695709D03*X685709D03*X675709D03*X665709D03*X655709D03*X616969Y115748D03*X606969D03*X596969D03*X586969D03*X576969D03*X695709D03*X685709D03*X675709D03*X665709D03*X655709D03*G54D29*X357874Y257480D03*X367874Y267480D03*Y247480D03*X347874Y267480D03*Y247480D03*X310630Y257480D03*X320630Y267480D03*Y247480D03*X300630Y267480D03*Y247480D03*X263386Y257480D03*X273386Y267480D03*Y247480D03*X253386Y267480D03*Y247480D03*X216142Y257480D03*X226142Y267480D03*Y247480D03*X206142Y267480D03*Y247480D03*X546850Y257480D03*X556850Y267480D03*Y247480D03*X536850Y267480D03*Y247480D03*X499606Y257480D03*X509606Y267480D03*Y247480D03*X489606Y267480D03*Y247480D03*X452362Y257480D03*X462362Y267480D03*Y247480D03*X442362Y267480D03*Y247480D03*X405118Y257480D03*X415118Y267480D03*Y247480D03*X395118Y267480D03*Y247480D03*X546850Y119685D03*X536850Y109685D03*Y129685D03*X556850Y109685D03*Y129685D03*X499606Y119685D03*X489606Y109685D03*Y129685D03*X509606Y109685D03*Y129685D03*X452362Y119685D03*X442362Y109685D03*Y129685D03*X462362Y109685D03*Y129685D03*X405118Y119685D03*X395118Y109685D03*Y129685D03*X415118Y109685D03*Y129685D03*X357874Y119685D03*X347874Y109685D03*Y129685D03*X367874Y109685D03*Y129685D03*X310630Y119685D03*X300630Y109685D03*Y129685D03*X320630Y109685D03*Y129685D03*X263386Y119685D03*X253386Y109685D03*Y129685D03*X273386Y109685D03*Y129685D03*X216142Y119685D03*X206142Y109685D03*Y129685D03*X226142Y109685D03*Y129685D03*G54D30*X271260Y174683D03*Y202482D03*X267323Y174683D03*Y202482D03*X263386Y174683D03*Y202482D03*X259449Y174683D03*Y202482D03*X255512Y174683D03*Y202482D03*X251575Y174683D03*Y202482D03*X247638Y174683D03*Y202482D03*X243701Y174683D03*Y202482D03*X239764Y174683D03*Y202482D03*X235827Y174683D03*Y202482D03*X231890Y174683D03*Y202482D03*X227953Y174683D03*Y202482D03*X224016Y174683D03*Y202482D03*X220079Y174683D03*Y202482D03*X216142Y174683D03*Y202482D03*X208268Y174683D03*Y202482D03*X204331Y174683D03*Y202482D03*X200394Y174683D03*Y202482D03*X196457Y174683D03*Y202482D03*X192520Y174683D03*Y202482D03*X188583Y174683D03*Y202482D03*X184646Y174683D03*Y202482D03*X180709Y174683D03*Y202482D03*X176772Y174683D03*Y202482D03*X172835Y174683D03*Y202482D03*X168898Y174683D03*Y202482D03*X164961Y174683D03*Y202482D03*X161024Y174683D03*Y202482D03*X157087Y174683D03*Y202482D03*X153150Y174683D03*Y202482D03*X149213Y174683D03*Y202482D03*X145276Y174683D03*Y202482D03*X141339Y174683D03*Y202482D03*X137402Y174683D03*Y202482D03*X133465Y174683D03*Y202482D03*X129528Y174683D03*Y202482D03*X125591Y174683D03*Y202482D03*X121654Y174683D03*Y202482D03*X117717Y174683D03*Y202482D03*G54D11*X109941Y107776D02*G01Y102854D01*X107895*X104657Y107776D02*G01X106361Y104495D01*X103805*X104657Y107776D02*G01Y102854D01*X140000Y32224D02*G01Y12224D01*X180000Y32224D02*G01Y12224D01*X240000Y32224D02*G01Y12224D01*X100000Y47224D02*G01X280000D01*Y12224*X100000*Y47224*Y32224D02*G01X280000D01*X100000Y22224D02*G01X280000D01*X108491Y42662D02*G01Y36624D01*X106900Y42662D02*G01X110082D01*X112127D02*G01Y36624D01*Y42662D02*G01X115082D01*X112127Y39787D02*G01X113945D01*X112127Y36624D02*G01X115082D01*X120536Y41224D02*G01X120309Y41799D01*X119855Y42374*X119400Y42662*X118491*X118036Y42374*X117582Y41799*X117355Y41224*X117127Y40362*Y38924*X117355Y38062*X117582Y37487*X118036Y36912*X118491Y36624*X119400*X119855Y36912*X120309Y37487*X120536Y38062*X122582Y42662D02*G01Y36624D01*Y42662D02*G01X125764Y36624D01*Y42662D02*G01Y36624D01*X129173Y42662D02*G01X128718Y42374D01*X128264Y41799*X128036Y41224*X127809Y40362*Y38924*X128036Y38062*X128264Y37487*X128718Y36912*X129173Y36624*X130082*X130536Y36912*X130991Y37487*X131218Y38062*X131445Y38924*Y40362*X131218Y41224*X130991Y41799*X130536Y42374*X130082Y42662*X129173*X136673D02*G01X134400Y36624D01*X133491Y42662D02*G01X136673D01*X141900D02*G01X139627Y36624D01*X138718Y42662D02*G01X141900D01*G54D21*X586969Y115748D02*G01Y140157D01*X570472Y156654*Y167323*X616969Y115748D02*G01Y123661D01*X635433Y142126*Y174311*X629035Y180709*X569291*X631496Y107953D02*G01X614764D01*X606969Y115748*X631496Y107953D02*G01X633386Y109843D01*Y135433*X637402Y139449*Y175295*X630020Y182677*X568307*X665709Y115748D02*G01Y130020D01*X661516Y134213*Y150256*X655118Y156654*Y167323*X685709Y115748D02*G01X693504Y123543D01*Y139783*X721063Y167343*Y175787*X710236Y186614*X566339*X695709Y115748D02*G01Y138878D01*X723031Y166201*Y176772*X711220Y188583*X188583Y144094D02*G01Y174683D01*X115748Y161024D02*G01X145276D01*X149213Y164961*Y174683*X115748Y161024D02*G01X103937Y172835D01*Y264904*X108324Y269291*X121654*X145433*X117126Y163583D02*G01X143898D01*X145276Y164961*Y174683*X117126Y163583D02*G01X113780Y166929D01*Y251890*X123307Y261417*X151969Y167717D02*G01X155315D01*X157087Y169488*Y174683*X161024Y164173D02*G01Y174683D01*X172835Y161024D02*G01Y174683D01*X176772Y157087D02*G01Y174683D01*X180709Y153150D02*G01Y174683D01*X168898Y164961D02*G01Y174683D01*X192520Y148425D02*G01Y174683D01*X570472Y167323D02*G01X573425Y170276D01*X602362*X655118Y167323D02*G01X658071Y170276D01*X687008*X656496Y149606D02*G01X642913D01*X639370Y153150*Y176280*X631004Y184646*X567323*X137402Y174683D02*G01Y182480D01*X141339Y174683D02*G01Y182480D01*X196457Y174683D02*G01Y180512D01*X199606Y183661*X200394Y174683D02*G01X200591Y174880D01*Y179724*X202067Y181201*X278346Y177953D02*G01X563583D01*X568307Y182677*X278346Y177953D02*G01X272638Y183661D01*X199606*X280315Y181890D02*G01X561614D01*X566339Y186614*X280315Y181890D02*G01X273622Y188583D01*X182677*X176772Y194488*Y202482*X279331Y179921D02*G01X562598D01*X567323Y184646*X279331Y179921D02*G01X273130Y186122D01*X178642*X168898Y195866*Y202482*X277362Y175984D02*G01X564567D01*X569291Y180709*X277362Y175984D02*G01X272146Y181201D01*X202067*X298130Y185827D02*G01X559646D01*X564370Y190551*X642717*X648228Y196063*Y221575*X678740Y252087*Y254449*X685709Y261417*X298130Y185827D02*G01X287008Y196949D01*X276181*X560630Y183858D02*G01X296654D01*X286024Y194488*X560630Y183858D02*G01X565354Y188583D01*X711220*X602362Y170276D02*G01X612402D01*X612343Y170335*X612402Y170276D02*G01X622244D01*X632283*X687008D02*G01X697047D01*X707087*X717126D02*G01X707087D01*X137402Y202482D02*G01Y210039D01*X141339Y202482D02*G01Y210236D01*X147835Y216732*X153150*X155610Y219193*Y228681*X149370Y234921*X145276Y202482D02*G01Y209843D01*X150197Y214764*X154626*X157972Y218110*Y231398*X155512Y233858*Y249213*X143307Y261417*X149213Y202482D02*G01Y209744D01*X152165Y212697*X156594*X161024Y217126*Y232480*X158268Y235236*Y256378*X163307Y261417*X157087Y202482D02*G01Y209646D01*X161024Y202482D02*G01Y209646D01*X172835Y195866D02*G01Y202482D01*X188583D02*G01Y209055D01*X192520Y202482D02*G01Y216929D01*X200394Y202482D02*G01Y219882D01*X199409Y193996D02*G01X273228D01*X276181Y196949*X199409Y193996D02*G01X196457Y196949D01*Y202482*X274213Y191535D02*G01X184449D01*X180709Y195276*Y202482*X274213Y191535D02*G01X277165Y194488D01*X286024*X307677Y188583D02*G01X318209Y199114D01*X492421*X529331Y236024*X588780*X312598Y188583D02*G01X320177Y196161D01*X493406*X530512Y233268*X586220*X318504Y188583D02*G01X323130Y193209D01*X494390*X531693Y230512*X598819*X601969Y233661*X324409Y188583D02*G01X493701D01*X533661Y228543*X605118*X609843Y233268*X641535Y212992D02*G01Y217717D01*X675709Y251890*Y261417*X655118Y224409D02*G01X657677Y226969D01*X687008*X696949*X706791*X717126D02*G01X706791D01*X593898Y233465D02*G01Y245827D01*X586969Y252756*Y261417*X593898Y233465D02*G01X591339D01*X588780Y236024*X153307Y261417D02*G01X145433Y269291D01*X100003Y277165D02*G01X729924D01*Y100000*X100003*Y277165*G54D22*X347874Y129685D02*G01X348583D01*X117717Y174683D02*G01Y180709D01*X125591Y174683D02*G01Y180709D01*X133465Y169051D02*G01Y174683D01*X153150D02*G01Y180315D01*X164961Y174683D02*G01Y180315D01*X184646Y174683D02*G01Y180315D01*X204331Y169051D02*G01Y174683D01*X208268Y169051D02*G01Y174683D01*X231890Y169051D02*G01Y174683D01*X243701Y169051D02*G01Y174683D01*X255512Y169051D02*G01Y174683D01*X263386Y168898D02*G01Y174683D01*X271260Y169051D02*G01Y174683D01*X125591Y196457D02*G01Y202482D01*X117717Y196457D02*G01Y202482D01*X133465D02*G01Y208114D01*X164961Y196850D02*G01Y202482D01*X184646D02*G01Y208114D01*X204331Y202482D02*G01Y208114D01*X208268Y202482D02*G01Y208114D01*X231890Y202482D02*G01Y208114D01*X243701Y202482D02*G01Y208114D01*X255512Y202482D02*G01Y208114D01*X263386Y202482D02*G01Y208268D01*X271260Y202482D02*G01Y208114D01*X161024Y236417D02*G01Y246260D01*X164961Y250197*X177559*X169094Y234252D02*G01X168898Y234449D01*X145079Y251575D02*G01Y251772D01*G54D23*X125591Y184646D02*G01Y192520D01*X117717D02*G01Y184646D01*Y180709*X125591D02*G01Y184646D01*Y192520D02*G01Y196457D01*X117717Y192520D02*G01Y196457D01*G54D25*X151543Y41037D02*G01Y36574D01*X150350Y41037D02*G01X152736D01*X154270Y38274D02*G01X156316D01*Y38699*X156145Y39124*X155975Y39337*X155634Y39549*X155123*X154782Y39337*X154441Y38912*X154270Y38274*Y37849*X154441Y37212*X154782Y36787*X155123Y36574*X155634*X155975Y36787*X156316Y37212*X157850Y41037D02*G01Y36574D01*X159555Y39549D02*G01X159384Y39337D01*X159555Y39124*X159725Y39337*X159555Y39549*Y36999D02*G01X159384Y36787D01*X159555Y36574*X159725Y36787*X159555Y36999*X162793Y40399D02*G01Y36574D01*X161259Y38487D02*G01X164327D01*X166202Y41037D02*G01X168077D01*X167055Y39337*X167566*X167907Y39124*X168077Y38912*X168248Y38274*Y37849*X168077Y37212*X167736Y36787*X167225Y36574*X166714*X166202Y36787*X166032Y36999*X165861Y37424*X171998Y39549D02*G01X171827Y38912D01*X171486Y38487*X170975Y38274*X170805*X170293Y38487*X169952Y38912*X169782Y39549*Y39762*X169952Y40399*X170293Y40824*X170805Y41037*X170975*X171486Y40824*X171827Y40399*X171998Y39549*Y38487*X171827Y37424*X171486Y36787*X170975Y36574*X170634*X170123Y36787*X169952Y37212*X174555Y41037D02*G01X174043Y40824D01*X173702Y40187*X173532Y39124*Y38487*X173702Y37424*X174043Y36787*X174555Y36574*X174895*X175407Y36787*X175748Y37424*X175918Y38487*Y39124*X175748Y40187*X175407Y40824*X174895Y41037*X174555*X179157D02*G01X177452Y38062D01*X180009*X179157Y41037D02*G01Y36574D01*X183248Y41037D02*G01X181543Y38062D01*X184100*X183248Y41037D02*G01Y36574D01*X187339Y41037D02*G01X185634Y38062D01*X188191*X187339Y41037D02*G01Y36574D01*X191770Y40399D02*G01X191600Y40824D01*X191089Y41037*X190748*X190236Y40824*X189895Y40187*X189725Y39124*Y38062*X189895Y37212*X190236Y36787*X190748Y36574*X190918*X191430Y36787*X191770Y37212*X191941Y37849*Y38062*X191770Y38699*X191430Y39124*X190918Y39337*X190748*X190236Y39124*X189895Y38699*X189725Y38062*X194498Y41037D02*G01X193986Y40824D01*X193645Y40187*X193475Y39124*Y38487*X193645Y37424*X193986Y36787*X194498Y36574*X194839*X195350Y36787*X195691Y37424*X195861Y38487*Y39124*X195691Y40187*X195350Y40824*X194839Y41037*X194498*X197395Y40187D02*G01X197736Y40399D01*X198248Y41037*Y36574*X201998Y41037D02*G01X200293D01*X200123Y39124*X200293Y39337*X200805Y39549*X201316*X201827Y39337*X202168Y38912*X202339Y38274*X202168Y37849*X201998Y37212*X201657Y36787*X201145Y36574*X200634*X200123Y36787*X199952Y36999*X199782Y37424*X203873Y40187D02*G01X204214Y40399D01*X204725Y41037*Y36574*X206259Y40187D02*G01X206600Y40399D01*X207111Y41037*Y36574*X216486Y39549D02*G01Y37424D01*X216657Y36787*X216998Y36574*X217509*X217850Y36787*X218361Y37424*Y39549D02*G01Y36574D01*X220407Y41037D02*G01Y37424D01*X220577Y36787*X220918Y36574*X221259*X219895Y39549D02*G01X221089D01*X222793Y38274D02*G01X224839D01*Y38699*X224668Y39124*X224498Y39337*X224157Y39549*X223645*X223305Y39337*X222964Y38912*X222793Y38274*Y37849*X222964Y37212*X223305Y36787*X223645Y36574*X224157*X224498Y36787*X224839Y37212*X228418Y38912D02*G01X228077Y39337D01*X227736Y39549*X227225*X226884Y39337*X226543Y38912*X226373Y38274*Y37849*X226543Y37212*X226884Y36787*X227225Y36574*X227736*X228077Y36787*X228418Y37212*X232168Y36787D02*G01X231486D01*X230634Y36999*X230293Y37424*X229952Y38274*Y39337*X230293Y40399*X230634Y40824*X232168*X232680Y40399*X233020Y39762*X233191Y38699*X233020Y37849*X232850Y37637*X232168Y37424D02*G01X231998Y37637D01*Y39762*Y39337D02*G01X231657Y39549D01*X231316*X230975Y39337*X230805Y38912*Y38487*X230975Y38062*X231316Y37849*X231657*X231998Y38062*X232168Y37424D02*G01X232680D01*X232850Y37637*X235236Y41037D02*G01Y37424D01*X235407Y36787*X235748Y36574*X236089*X234725Y39549D02*G01X235918D01*X237623Y38274D02*G01X239668D01*Y38699*X239498Y39124*X239327Y39337*X238986Y39549*X238475*X238134Y39337*X237793Y38912*X237623Y38274*Y37849*X237793Y37212*X238134Y36787*X238475Y36574*X238986*X239327Y36787*X239668Y37212*X243248Y38912D02*G01X242907Y39337D01*X242566Y39549*X242055*X241714Y39337*X241373Y38912*X241202Y38274*Y37849*X241373Y37212*X241714Y36787*X242055Y36574*X242566*X242907Y36787*X243248Y37212*X244782Y39549D02*G01Y36574D01*Y38699D02*G01X245293Y39337D01*X245634Y39549*X246145*X246486Y39337*X246657Y38699*Y36574*X249043Y39549D02*G01X248702Y39337D01*X248361Y38912*X248191Y38274*Y37849*X248361Y37212*X248702Y36787*X249043Y36574*X249555*X249895Y36787*X250236Y37212*X250407Y37849*Y38274*X250236Y38912*X249895Y39337*X249555Y39549*X249043*X254327Y41037D02*G01X252623Y36574D01*X251941Y41037D02*G01X254327D01*X258248D02*G01X256543Y36574D01*X255861Y41037D02*G01X258248D01*X259952Y36999D02*G01X259782Y36787D01*X259952Y36574*X260123Y36787*X259952Y36999*X263702Y38912D02*G01X263361Y39337D01*X263020Y39549*X262509*X262168Y39337*X261827Y38912*X261657Y38274*Y37849*X261827Y37212*X262168Y36787*X262509Y36574*X263020*X263361Y36787*X263702Y37212*X266089Y39549D02*G01X265748Y39337D01*X265407Y38912*X265236Y38274*Y37849*X265407Y37212*X265748Y36787*X266089Y36574*X266600*X266941Y36787*X267282Y37212*X267452Y37849*Y38274*X267282Y38912*X266941Y39337*X266600Y39549*X266089*X268986D02*G01Y36574D01*Y38699D02*G01X269498Y39337D01*X269839Y39549*X270350*X270691Y39337*X270861Y38699*Y36574*Y38699D02*G01X271373Y39337D01*X271714Y39549*X272225*X272566Y39337*X272736Y38699*Y36574*X153452Y19209D02*G01Y15074D01*Y19209D02*G01X155520D01*X153452Y17240D02*G01X154725D01*X153452Y15074D02*G01X155520D01*X156952Y19209D02*G01Y15074D01*Y19209D02*G01X158066D01*X158543Y19012*X158861Y18618*X159020Y18224*X159180Y17634*Y16649*X159020Y16059*X158861Y15665*X158543Y15271*X158066Y15074*X156952*X160611Y19209D02*G01Y15074D01*Y19209D02*G01X161725D01*X162202Y19012*X162520Y18618*X162680Y18224*X162839Y17634*Y16649*X162680Y16059*X162520Y15665*X162202Y15271*X161725Y15074*X160611*X164270Y19209D02*G01X165543Y17240D01*Y15074*X166816Y19209D02*G01X165543Y17240D01*X106384Y19209D02*G01X105907Y19012D01*X105589Y18421*X105430Y17437*Y16846*X105589Y15862*X105907Y15271*X106384Y15074*X106702*X107180Y15271*X107498Y15862*X107657Y16846*Y17437*X107498Y18421*X107180Y19012*X106702Y19209*X106384*X110998Y18618D02*G01X110839Y19012D01*X110361Y19209*X110043*X109566Y19012*X109248Y18421*X109089Y17437*Y16453*X109248Y15665*X109566Y15271*X110043Y15074*X110202*X110680Y15271*X110998Y15665*X111157Y16256*Y16453*X110998Y17043*X110680Y17437*X110202Y17634*X110043*X109566Y17437*X109248Y17043*X109089Y16453*X115452Y19996D02*G01X112589Y13696D01*X117839Y19209D02*G01X117361Y19012D01*X117043Y18421*X116884Y17437*Y16846*X117043Y15862*X117361Y15271*X117839Y15074*X118157*X118634Y15271*X118952Y15862*X119111Y16846*Y17437*X118952Y18421*X118634Y19012*X118157Y19209*X117839*X122770D02*G01X121180Y15074D01*X120543Y19209D02*G01X122770D01*X127066Y19996D02*G01X124202Y13696D01*X128498Y18421D02*G01X128816Y18618D01*X129293Y19209*Y15074*X132952Y19209D02*G01X131361Y15074D01*X130725Y19209D02*G01X132952D01*X248248D02*G01Y15074D01*X249680Y19209D02*G01Y15074D01*Y19209D02*G01X251907Y15074D01*Y19209D02*G01Y15074D01*X253339Y19209D02*G01Y15074D01*X255566Y19209D02*G01Y15074D01*X253339Y17240D02*G01X255566D01*X256998Y18421D02*G01X257316Y18618D01*X257793Y19209*Y15074*X261452Y19209D02*G01X259861Y15074D01*X259225Y19209D02*G01X261452D01*X263839D02*G01X263361Y19012D01*X263043Y18421*X262884Y17437*Y16846*X263043Y15862*X263361Y15271*X263839Y15074*X264157*X264634Y15271*X264952Y15862*X265111Y16846*Y17437*X264952Y18421*X264634Y19012*X264157Y19209*X263839*X266702Y18224D02*G01Y18421D01*X266861Y18815*X267020Y19012*X267339Y19209*X267975*X268293Y19012*X268452Y18815*X268611Y18421*Y18028*X268452Y17634*X268134Y17043*X266543Y15074*X268770*X112850Y29209D02*G01Y25074D01*Y29209D02*G01X113964D01*X114441Y29012*X114759Y28618*X114918Y28224*X115077Y27634*Y26649*X114918Y26059*X114759Y25665*X114441Y25271*X113964Y25074*X112850*X117782Y29209D02*G01X116509Y25074D01*X117782Y29209D02*G01X119055Y25074D01*X116986Y26453D02*G01X118577D01*X121600Y29209D02*G01Y25074D01*X120486Y29209D02*G01X122714D01*X124145D02*G01Y25074D01*Y29209D02*G01X126214D01*X124145Y27240D02*G01X125418D01*X124145Y25074D02*G01X126214D01*X146305Y29209D02*G01X145986Y29012D01*X145668Y28618*X145509Y28224*X145350Y27634*Y26649*X145509Y26059*X145668Y25665*X145986Y25271*X146305Y25074*X146941*X147259Y25271*X147577Y25665*X147736Y26059*X147895Y26649*Y27634*X147736Y28224*X147577Y28618*X147259Y29012*X146941Y29209*X146305*X149327D02*G01Y25074D01*Y29209D02*G01X150759D01*X151236Y29012*X151395Y28815*X151555Y28421*Y27831*X151395Y27437*X151236Y27240*X150759Y27043*X149327*X152986Y29209D02*G01Y25074D01*Y29209D02*G01X155055D01*X152986Y27240D02*G01X154259D01*X152986Y25074D02*G01X155055D01*X156486Y29209D02*G01Y25074D01*Y29209D02*G01X157918D01*X158395Y29012*X158555Y28815*X158714Y28421*Y28028*X158555Y27634*X158395Y27437*X157918Y27240*X156486*X157600D02*G01X158714Y25074D01*X161418Y29209D02*G01X160145Y25074D01*X161418Y29209D02*G01X162691Y25074D01*X160623Y26453D02*G01X162214D01*X165236Y29209D02*G01Y25074D01*X164123Y29209D02*G01X166350D01*X168736D02*G01X168418Y29012D01*X168100Y28618*X167941Y28224*X167782Y27634*Y26649*X167941Y26059*X168100Y25665*X168418Y25271*X168736Y25074*X169373*X169691Y25271*X170009Y25665*X170168Y26059*X170327Y26649*Y27634*X170168Y28224*X170009Y28618*X169691Y29012*X169373Y29209*X168736*X171759D02*G01Y25074D01*Y29209D02*G01X173191D01*X173668Y29012*X173827Y28815*X173986Y28421*Y28028*X173827Y27634*X173668Y27437*X173191Y27240*X171759*X172873D02*G01X173986Y25074D01*X196736Y28224D02*G01X196577Y28618D01*X196259Y29012*X195941Y29209*X195305*X194986Y29012*X194668Y28618*X194509Y28224*X194350Y27634*Y26649*X194509Y26059*X194668Y25665*X194986Y25271*X195305Y25074*X195941*X196259Y25271*X196577Y25665*X196736Y26059*X198168Y29209D02*G01Y26256D01*X198327Y25665*X198645Y25271*X199123Y25074*X199441*X199918Y25271*X200236Y25665*X200395Y26256*Y29209*X204055Y28618D02*G01X203736Y29012D01*X203259Y29209*X202623*X202145Y29012*X201827Y28618*Y28224*X201986Y27831*X202145Y27634*X202464Y27437*X203418Y27043*X203736Y26846*X203895Y26649*X204055Y26256*Y25665*X203736Y25271*X203259Y25074*X202623*X202145Y25271*X201827Y25665*X206600Y29209D02*G01Y25074D01*X205486Y29209D02*G01X207714D01*X210100D02*G01X209782Y29012D01*X209464Y28618*X209305Y28224*X209145Y27634*Y26649*X209305Y26059*X209464Y25665*X209782Y25271*X210100Y25074*X210736*X211055Y25271*X211373Y25665*X211532Y26059*X211691Y26649*Y27634*X211532Y28224*X211373Y28618*X211055Y29012*X210736Y29209*X210100*X213123D02*G01Y25074D01*Y29209D02*G01X214395Y25074D01*X215668Y29209D02*G01X214395Y25074D01*X215668Y29209D02*G01Y25074D01*X217100Y29209D02*G01Y25074D01*Y29209D02*G01X219168D01*X217100Y27240D02*G01X218373D01*X217100Y25074D02*G01X219168D01*X220600Y29209D02*G01Y25074D01*Y29209D02*G01X222032D01*X222509Y29012*X222668Y28815*X222827Y28421*Y28028*X222668Y27634*X222509Y27437*X222032Y27240*X220600*X221714D02*G01X222827Y25074D01*X255236Y28224D02*G01X255077Y28618D01*X254759Y29012*X254441Y29209*X253805*X253486Y29012*X253168Y28618*X253009Y28224*X252850Y27634*Y26649*X253009Y26059*X253168Y25665*X253486Y25271*X253805Y25074*X254441*X254759Y25271*X255077Y25665*X255236Y26059*X257623Y29209D02*G01X257305Y29012D01*X256986Y28618*X256827Y28224*X256668Y27634*Y26649*X256827Y26059*X256986Y25665*X257305Y25271*X257623Y25074*X258259*X258577Y25271*X258895Y25665*X259055Y26059*X259214Y26649*Y27634*X259055Y28224*X258895Y28618*X258577Y29012*X258259Y29209*X257623*X260645D02*G01Y25074D01*Y29209D02*G01X261759D01*X262236Y29012*X262555Y28618*X262714Y28224*X262873Y27634*Y26649*X262714Y26059*X262555Y25665*X262236Y25271*X261759Y25074*X260645*X264305Y29209D02*G01Y25074D01*Y29209D02*G01X266373D01*X264305Y27240D02*G01X265577D01*X264305Y25074D02*G01X266373D01*X202191Y19209D02*G01Y15074D01*X203623Y17831D02*G01Y15074D01*Y17043D02*G01X204100Y17634D01*X204418Y17831*X204895*X205214Y17634*X205373Y17043*Y15074*X206964Y18224D02*G01Y18421D01*X207123Y18815*X207282Y19012*X207600Y19209*X208236*X208555Y19012*X208714Y18815*X208873Y18421*Y18028*X208714Y17634*X208395Y17043*X206805Y15074*X209032*X210464Y19209D02*G01Y15074D01*X212691Y19209D02*G01Y15074D01*X210464Y17240D02*G01X212691D01*X214282Y18224D02*G01Y18421D01*X214441Y18815*X214600Y19012*X214918Y19209*X215555*X215873Y19012*X216032Y18815*X216191Y18421*Y18028*X216032Y17634*X215714Y17043*X214123Y15074*X216350*X90516Y138373D02*G01X94650D01*X90516D02*G01Y136941D01*X90712Y136464*Y136464D02*G01X90909Y136305D01*X91303Y136145*X91697*X92091Y136305*X92287Y136464*Y136464D02*G01X92484Y136941D01*Y138373D02*G01Y136941D01*X92681Y136464*X92878Y136305*X93272Y136145*X93862*Y136145D02*G01X94256Y136305D01*X94453Y136464*X94650Y136941*Y138373*X90516Y133759D02*G01X90712Y134077D01*Y134077D02*G01X91106Y134395D01*X91500Y134555*X92091Y134714*X93075*X93666Y134555*X94059Y134395*X94453Y134077*X94650Y133759*Y133123*X94453Y132805*X94059Y132486*X93666Y132327*X93075Y132168*X92091*X91500Y132327*X91106Y132486*X90712Y132805*Y132805D02*G01X90516Y133123D01*Y133759*Y129623D02*G01X94650D01*X90516Y130736D02*G01Y128509D01*Y125964D02*G01X94650D01*X90516Y127077D02*G01Y124850D01*Y122464D02*G01X90712Y122782D01*Y122782D02*G01X91106Y123100D01*X91500Y123259*X92091Y123418*X93075*X93666Y123259*X94059Y123100*X94453Y122782*X94650Y122464*Y121827*X94453Y121509*X94059Y121191*X93666Y121032*X93075Y120873*X92091*X91500Y121032*X91106Y121191*X90712Y121509*Y121509D02*G01X90516Y121827D01*Y122464*Y119441D02*G01X94650D01*X90516D02*G01X94650Y118168D01*X90516Y116895D02*G01X94650Y118168D01*X90516Y116895D02*G01X94650D01*X91106Y109577D02*G01X90712Y109895D01*Y109895D02*G01X90516Y110373D01*Y111009*X90712Y111486*Y111486D02*G01X91106Y111805D01*X91500*X91894Y111645*X92091Y111486*X92287Y111168*Y111168D02*G01X92681Y110214D01*X92878Y109895*X93075Y109736*X93469Y109577*X94059*X94453Y109895*X94650Y110373*Y111009*X94453Y111486*X94059Y111805*X90516Y108145D02*G01X94650D01*X90516Y106714D02*G01X94650D01*X90516D02*G01Y105600D01*X90712Y105123*Y105123D02*G01X91106Y104805D01*X91500Y104645*X92091Y104486*X93075*X93666Y104645*X94059Y104805*X94453Y105123*X94650Y105600*Y106714*X90516Y103055D02*G01X94650D01*X90516D02*G01Y100986D01*X92484Y103055D02*G01Y101782D01*X94650Y103055D02*G01Y100986D01*G54D31*X216142Y119685D02*G01Y174683D01*X263386Y119685D02*G01X249606D01*X220079Y149213*Y174683*X310630Y119685D02*G01X296850D01*X276378Y140157*X239567*X224016Y155709*Y174683*X357874Y119685D02*G01X344094D01*X318898Y144882*X242717*X227953Y159646*Y174683*X405118Y119685D02*G01X391339D01*X361417Y149606*X245276*X235827Y159055*Y174683*X452362Y119685D02*G01X438583D01*X403937Y154331*X248228*X239764Y162795*Y174683*X499606Y119685D02*G01X485827D01*X446457Y159055*X251772*X247638Y163189*Y174683*X546850Y119685D02*G01X533071D01*X488976Y163780*X254724*X251575Y166929*Y174683*X216142Y202482D02*G01Y257480D01*X220079Y202482D02*G01Y226378D01*X251181Y257480*X263386*X224016Y202482D02*G01Y221457D01*X239567Y237008*X276378*X296850Y257480*X310630*X227953Y202482D02*G01Y217520D01*X242717Y232283*X318898*X344094Y257480*X357874*X235827Y202482D02*G01Y218110D01*X245276Y227559*X361417*X391339Y257480*X405118*X239764Y202482D02*G01Y214370D01*X248228Y222835*X403937*X438583Y257480*X452362*X247638Y202482D02*G01Y213976D01*X251772Y218110*X446457*X485827Y257480*X499606*X251575Y202482D02*G01Y210236D01*X254724Y213386*X488976*X533071Y257480*X546850*M02*