%FSLAX35Y35*%
%MOIN*%
%SFA1.000B1.000*%

G04 Copyright (c) 2015-2018 in2H2 inc.
G04 System developed for in2H2 inc. by Intermotion Technology, Inc.
G04 
G04 Full system RTL, C sources and board design files available at https://github.com/nearist
G04 
G04 in2H2 inc. Team Members:
G04 - Chris McCormick - Algorithm Research and Design
G04 - Matt McCormick - Board Production, System Q/A
G04 
G04 Intermotion Technology Inc. Team Members:
G04 - Mick Fandrich - Project Lead
G04 - Dr. Ludovico Minati - Board Architecture and Design, FPGA Technology Advisor
G04 - Vardan Movsisyan - RTL Team Lead
G04 - Khachatur Gyozalyan - RTL Design
G04 - Tigran Papazyan - RTL Design
G04 - Taron Harutyunyan - RTL Design
G04 - Hayk Ghaltaghchyan - System Software
G04 
G04 Tecno77 S.r.l. Team Members:
G04 - Stefano Aldrigo, Board Layout Design
G04 
G04 We dedicate this project to the memory of Bruce McCormick, an AI pioneer
G04 and advocate, a good friend and father.
G04 
G04 These materials are provided free of charge: you can redistribute them and/or modify  
G04 them under the terms of the GNU General Public License as published by  
G04 the Free Software Foundation, version 3.
G04 
G04 These materials are distributed in the hope that they will be useful, but 
G04 WITHOUT ANY WARRANTY; without even the implied warranty of 
G04 MERCHANTABILITY or FITNESS FOR A PARTICULAR PURPOSE. See the GNU 
G04 General Public License for more details.
G04 In particular, this design should be treated as UNVERIFIED and UNCERTIFIED
G04 
G04 You should have received a copy of the GNU General Public License 
G04 along with this design. If not, see <http://www.gnu.org/licenses/>.

%FSLAX35Y35*%
%MOIN*%
%SFA1.000B1.000*%

%MIA0B0*%
%IPPOS*%
%ADD10C,0.00100*%
%ADD11C,0.00800*%
%ADD21C,0.00984*%
%ADD25C,0.00700*%
%ADD26C,0.01000*%
%LNdrilldrawing.gb*%
%LPD*%
G54D10*X729921Y277165D02*G01X729924D01*X100000D02*G01X100003D01*X729921Y100000D02*G01X729924D01*X729921Y277165D02*G01X729924D01*X546850Y119685D02*G01X546853D01*X499606D02*G01X499609D01*G54D11*X140000Y32224D02*G01Y12224D01*X180000Y32224D02*G01Y12224D01*X240000Y32224D02*G01Y12224D01*X100000Y47224D02*G01X280000D01*Y12224*X100000*Y47224*Y32224D02*G01X280000D01*X100000Y22224D02*G01X280000D01*X108491Y42662D02*G01Y36624D01*X106900Y42662D02*G01X110082D01*X112127D02*G01Y36624D01*Y42662D02*G01X115082D01*X112127Y39787D02*G01X113945D01*X112127Y36624D02*G01X115082D01*X120536Y41224D02*G01X120309Y41799D01*X119855Y42374*X119400Y42662*X118491*X118036Y42374*X117582Y41799*X117355Y41224*X117127Y40362*Y38924*X117355Y38062*X117582Y37487*X118036Y36912*X118491Y36624*X119400*X119855Y36912*X120309Y37487*X120536Y38062*X122582Y42662D02*G01Y36624D01*Y42662D02*G01X125764Y36624D01*Y42662D02*G01Y36624D01*X129173Y42662D02*G01X128718Y42374D01*X128264Y41799*X128036Y41224*X127809Y40362*Y38924*X128036Y38062*X128264Y37487*X128718Y36912*X129173Y36624*X130082*X130536Y36912*X130991Y37487*X131218Y38062*X131445Y38924*Y40362*X131218Y41224*X130991Y41799*X130536Y42374*X130082Y42662*X129173*X136673D02*G01X134400Y36624D01*X133491Y42662D02*G01X136673D01*X141900D02*G01X139627Y36624D01*X138718Y42662D02*G01X141900D01*X100000Y12224D02*G01Y2224D01*X280000*Y12224*G54D21*X169370Y261417D02*G01X177244D01*X173307Y257480D02*G01Y265354D01*X159370Y261417D02*G01X167244D01*X163307Y257480D02*G01Y265354D01*X149370Y261417D02*G01X157244D01*X153307Y257480D02*G01Y265354D01*X139370Y261417D02*G01X147244D01*X143307Y257480D02*G01Y265354D01*X129370Y261417D02*G01X137244D01*X133307Y257480D02*G01Y265354D01*X119370Y261417D02*G01X127244D01*X123307Y257480D02*G01Y265354D01*X109370Y261417D02*G01X117244D01*X113307Y257480D02*G01Y265354D01*X169213Y130591D02*G01X177087D01*X173150Y126654D02*G01Y134528D01*X169213Y120591D02*G01X177087D01*X173150Y116654D02*G01Y124528D01*X159213Y130591D02*G01X167087D01*X163150Y126654D02*G01Y134528D01*X159213Y120591D02*G01X167087D01*X163150Y116654D02*G01Y124528D01*X149213Y130591D02*G01X157087D01*X153150Y126654D02*G01Y134528D01*X149213Y120591D02*G01X157087D01*X153150Y116654D02*G01Y124528D01*X139213Y130591D02*G01X147087D01*X143150Y126654D02*G01Y134528D01*X139213Y120591D02*G01X147087D01*X143150Y116654D02*G01Y124528D01*X129213Y130591D02*G01X137087D01*X133150Y126654D02*G01Y134528D01*X129213Y120591D02*G01X137087D01*X133150Y116654D02*G01Y124528D01*X582284Y212205D02*G01X586221Y216142D01*X582284Y220079*X578347Y216142*X582284Y212205*Y216142D02*G01Y220079D01*X621654Y212205D02*G01X625591Y216142D01*X621654Y220079*X617717Y216142*X621654Y212205*Y216142D02*G01Y220079D01*X145433Y234921D02*G01X153307D01*X149370Y230984D02*G01Y238858D01*X145433Y224921D02*G01X153307D01*X149370Y220984D02*G01Y228858D01*X135433Y234921D02*G01X143307D01*X139370Y230984D02*G01Y238858D01*X135433Y224921D02*G01X143307D01*X139370Y220984D02*G01Y228858D01*X125433Y234921D02*G01X133307D01*X129370Y230984D02*G01Y238858D01*X125433Y224921D02*G01X133307D01*X129370Y220984D02*G01Y228858D01*X623031Y261417D02*G01X630906D01*X626969Y257480D02*G01Y265354D01*X613031Y261417D02*G01X620906D01*X616969Y257480D02*G01Y265354D01*X603031Y261417D02*G01X610906D01*X606969Y257480D02*G01Y265354D01*X593031Y261417D02*G01X600906D01*X596969Y257480D02*G01Y265354D01*X583031Y261417D02*G01X590906D01*X586969Y257480D02*G01Y265354D01*X573031Y261417D02*G01X580906D01*X576969Y257480D02*G01Y265354D01*X701772Y261417D02*G01X709646D01*X705709Y257480D02*G01Y265354D01*X691772Y261417D02*G01X699646D01*X695709Y257480D02*G01Y265354D01*X681772Y261417D02*G01X689646D01*X685709Y257480D02*G01Y265354D01*X671772Y261417D02*G01X679646D01*X675709Y257480D02*G01Y265354D01*X661772Y261417D02*G01X669646D01*X665709Y257480D02*G01Y265354D01*X651772Y261417D02*G01X659646D01*X655709Y257480D02*G01Y265354D01*X623031Y115748D02*G01X630906D01*X626969Y111811D02*G01Y119685D01*X613031Y115748D02*G01X620906D01*X616969Y111811D02*G01Y119685D01*X603031Y115748D02*G01X610906D01*X606969Y111811D02*G01Y119685D01*X593031Y115748D02*G01X600906D01*X596969Y111811D02*G01Y119685D01*X583031Y115748D02*G01X590906D01*X586969Y111811D02*G01Y119685D01*X573031Y115748D02*G01X580906D01*X576969Y111811D02*G01Y119685D01*X701772Y115748D02*G01X709646D01*X705709Y111811D02*G01Y119685D01*X691772Y115748D02*G01X699646D01*X695709Y111811D02*G01Y119685D01*X681772Y115748D02*G01X689646D01*X685709Y111811D02*G01Y119685D01*X671772Y115748D02*G01X679646D01*X675709Y111811D02*G01Y119685D01*X661772Y115748D02*G01X669646D01*X665709Y111811D02*G01Y119685D01*X651772Y115748D02*G01X659646D01*X655709Y111811D02*G01Y119685D01*X353937Y253543D02*G01X361811Y261417D01*X353937D02*G01X361811Y253543D01*X363937Y263543D02*G01X371811Y271417D01*X363937D02*G01X371811Y263543D01*X363937Y243543D02*G01X371811Y251417D01*X363937D02*G01X371811Y243543D01*X343937Y263543D02*G01X351811Y271417D01*X343937D02*G01X351811Y263543D01*X343937Y243543D02*G01X351811Y251417D01*X343937D02*G01X351811Y243543D01*X306693Y253543D02*G01X314567Y261417D01*X306693D02*G01X314567Y253543D01*X316693Y263543D02*G01X324567Y271417D01*X316693D02*G01X324567Y263543D01*X316693Y243543D02*G01X324567Y251417D01*X316693D02*G01X324567Y243543D01*X296693Y263543D02*G01X304567Y271417D01*X296693D02*G01X304567Y263543D01*X296693Y243543D02*G01X304567Y251417D01*X296693D02*G01X304567Y243543D01*X259449Y253543D02*G01X267323Y261417D01*X259449D02*G01X267323Y253543D01*X269449Y263543D02*G01X277323Y271417D01*X269449D02*G01X277323Y263543D01*X269449Y243543D02*G01X277323Y251417D01*X269449D02*G01X277323Y243543D01*X249449Y263543D02*G01X257323Y271417D01*X249449D02*G01X257323Y263543D01*X249449Y243543D02*G01X257323Y251417D01*X249449D02*G01X257323Y243543D01*X212205Y253543D02*G01X220079Y261417D01*X212205D02*G01X220079Y253543D01*X222205Y263543D02*G01X230079Y271417D01*X222205D02*G01X230079Y263543D01*X222205Y243543D02*G01X230079Y251417D01*X222205D02*G01X230079Y243543D01*X202205Y263543D02*G01X210079Y271417D01*X202205D02*G01X210079Y263543D01*X202205Y243543D02*G01X210079Y251417D01*X202205D02*G01X210079Y243543D01*X542913Y253543D02*G01X550787Y261417D01*X542913D02*G01X550787Y253543D01*X552913Y263543D02*G01X560787Y271417D01*X552913D02*G01X560787Y263543D01*X552913Y243543D02*G01X560787Y251417D01*X552913D02*G01X560787Y243543D01*X532913Y263543D02*G01X540787Y271417D01*X532913D02*G01X540787Y263543D01*X532913Y243543D02*G01X540787Y251417D01*X532913D02*G01X540787Y243543D01*X495669Y253543D02*G01X503543Y261417D01*X495669D02*G01X503543Y253543D01*X505669Y263543D02*G01X513543Y271417D01*X505669D02*G01X513543Y263543D01*X505669Y243543D02*G01X513543Y251417D01*X505669D02*G01X513543Y243543D01*X485669Y263543D02*G01X493543Y271417D01*X485669D02*G01X493543Y263543D01*X485669Y243543D02*G01X493543Y251417D01*X485669D02*G01X493543Y243543D01*X448425Y253543D02*G01X456299Y261417D01*X448425D02*G01X456299Y253543D01*X458425Y263543D02*G01X466299Y271417D01*X458425D02*G01X466299Y263543D01*X458425Y243543D02*G01X466299Y251417D01*X458425D02*G01X466299Y243543D01*X438425Y263543D02*G01X446299Y271417D01*X438425D02*G01X446299Y263543D01*X438425Y243543D02*G01X446299Y251417D01*X438425D02*G01X446299Y243543D01*X401181Y253543D02*G01X409055Y261417D01*X401181D02*G01X409055Y253543D01*X411181Y263543D02*G01X419055Y271417D01*X411181D02*G01X419055Y263543D01*X411181Y243543D02*G01X419055Y251417D01*X411181D02*G01X419055Y243543D01*X391181Y263543D02*G01X399055Y271417D01*X391181D02*G01X399055Y263543D01*X391181Y243543D02*G01X399055Y251417D01*X391181D02*G01X399055Y243543D01*X542913Y115748D02*G01X550787Y123622D01*X542913D02*G01X550787Y115748D01*X532913Y105748D02*G01X540787Y113622D01*X532913D02*G01X540787Y105748D01*X532913Y125748D02*G01X540787Y133622D01*X532913D02*G01X540787Y125748D01*X552913Y105748D02*G01X560787Y113622D01*X552913D02*G01X560787Y105748D01*X552913Y125748D02*G01X560787Y133622D01*X552913D02*G01X560787Y125748D01*X495669Y115748D02*G01X503543Y123622D01*X495669D02*G01X503543Y115748D01*X485669Y105748D02*G01X493543Y113622D01*X485669D02*G01X493543Y105748D01*X485669Y125748D02*G01X493543Y133622D01*X485669D02*G01X493543Y125748D01*X505669Y105748D02*G01X513543Y113622D01*X505669D02*G01X513543Y105748D01*X505669Y125748D02*G01X513543Y133622D01*X505669D02*G01X513543Y125748D01*X448425Y115748D02*G01X456299Y123622D01*X448425D02*G01X456299Y115748D01*X438425Y105748D02*G01X446299Y113622D01*X438425D02*G01X446299Y105748D01*X438425Y125748D02*G01X446299Y133622D01*X438425D02*G01X446299Y125748D01*X458425Y105748D02*G01X466299Y113622D01*X458425D02*G01X466299Y105748D01*X458425Y125748D02*G01X466299Y133622D01*X458425D02*G01X466299Y125748D01*X401181Y115748D02*G01X409055Y123622D01*X401181D02*G01X409055Y115748D01*X391181Y105748D02*G01X399055Y113622D01*X391181D02*G01X399055Y105748D01*X391181Y125748D02*G01X399055Y133622D01*X391181D02*G01X399055Y125748D01*X411181Y105748D02*G01X419055Y113622D01*X411181D02*G01X419055Y105748D01*X411181Y125748D02*G01X419055Y133622D01*X411181D02*G01X419055Y125748D01*X353937Y115748D02*G01X361811Y123622D01*X353937D02*G01X361811Y115748D01*X343937Y105748D02*G01X351811Y113622D01*X343937D02*G01X351811Y105748D01*X343937Y125748D02*G01X351811Y133622D01*X343937D02*G01X351811Y125748D01*X363937Y105748D02*G01X371811Y113622D01*X363937D02*G01X371811Y105748D01*X363937Y125748D02*G01X371811Y133622D01*X363937D02*G01X371811Y125748D01*X306693Y115748D02*G01X314567Y123622D01*X306693D02*G01X314567Y115748D01*X296693Y105748D02*G01X304567Y113622D01*X296693D02*G01X304567Y105748D01*X296693Y125748D02*G01X304567Y133622D01*X296693D02*G01X304567Y125748D01*X316693Y105748D02*G01X324567Y113622D01*X316693D02*G01X324567Y105748D01*X316693Y125748D02*G01X324567Y133622D01*X316693D02*G01X324567Y125748D01*X259449Y115748D02*G01X267323Y123622D01*X259449D02*G01X267323Y115748D01*X249449Y105748D02*G01X257323Y113622D01*X249449D02*G01X257323Y105748D01*X249449Y125748D02*G01X257323Y133622D01*X249449D02*G01X257323Y125748D01*X269449Y105748D02*G01X277323Y113622D01*X269449D02*G01X277323Y105748D01*X269449Y125748D02*G01X277323Y133622D01*X269449D02*G01X277323Y125748D01*X212205Y115748D02*G01X220079Y123622D01*X212205D02*G01X220079Y115748D01*X202205Y105748D02*G01X210079Y113622D01*X202205D02*G01X210079Y105748D01*X202205Y125748D02*G01X210079Y133622D01*X202205D02*G01X210079Y125748D01*X222205Y105748D02*G01X230079Y113622D01*X222205D02*G01X230079Y105748D01*X222205Y125748D02*G01X230079Y133622D01*X222205D02*G01X230079Y125748D01*X279616Y184646D02*G01X283553Y188583D01*X279616Y192520*X275679Y188583*X279616Y184646*Y188583D02*G01Y192520D01*X109360Y190898D02*G01X113297Y194835D01*X109360Y198772*X105423Y194835*X109360Y190898*Y194835D02*G01Y198772D01*X641339Y120276D02*G01X649213D01*Y128150*X641339*Y120276*X645276Y124213D02*G01Y128150D01*X633465Y120276D02*G01X641339D01*Y128150*X633465*Y120276*X637402Y124213D02*G01Y128150D01*X720079Y120276D02*G01X727953D01*Y128150*X720079*Y120276*X724016Y124213D02*G01Y128150D01*X712205Y120276D02*G01X720079D01*Y128150*X712205*Y120276*X716142Y124213D02*G01Y128150D01*X184646Y140157D02*G01X192520D01*Y148031*X184646*Y140157*X188583Y144094D02*G01Y148031D01*X577362Y136024D02*G01X585236D01*Y143898*X577362*Y136024*X581299Y139961D02*G01Y143898D01*X628543Y142815D02*G01X636417D01*Y150689*X628543*Y142815*X632480Y146752D02*G01Y150689D01*X662008Y136024D02*G01X669882D01*Y143898*X662008*Y136024*X665945Y139961D02*G01Y143898D01*X713189Y142815D02*G01X721063D01*Y150689*X713189*Y142815*X717126Y146752D02*G01Y150689D01*X148031Y163780D02*G01X155906D01*Y171654*X148031*Y163780*X151969Y167717D02*G01Y171654D01*X157087Y160236D02*G01X164961D01*Y168110*X157087*Y160236*X161024Y164173D02*G01Y168110D01*X168898Y157087D02*G01X176772D01*Y164961*X168898*Y157087*X172835Y161024D02*G01Y164961D01*Y153150D02*G01X180709D01*Y161024*X172835*Y153150*X176772Y157087D02*G01Y161024D01*Y149213D02*G01X184646D01*Y157087*X176772*Y149213*X180709Y153150D02*G01Y157087D01*X164961Y161024D02*G01X172835D01*Y168898*X164961*Y161024*X168898Y164961D02*G01Y168898D01*X188583Y144488D02*G01X196457D01*Y152362*X188583*Y144488*X192520Y148425D02*G01Y152362D01*X566535Y163386D02*G01X574409D01*Y171260*X566535*Y163386*X570472Y167323D02*G01Y171260D01*X578296Y151918D02*G01X586170D01*Y159792*X578296*Y151918*X582233Y155855D02*G01Y159792D01*X578296Y158318D02*G01X586170D01*Y166192*X578296*Y158318*X582233Y162255D02*G01Y166192D01*X588406Y162618D02*G01X596280D01*Y170492*X588406*Y162618*X592343Y166555D02*G01Y170492D01*X651181Y163386D02*G01X659055D01*Y171260*X651181*Y163386*X655118Y167323D02*G01Y171260D01*X652559Y145669D02*G01X660433D01*Y153543*X652559*Y145669*X656496Y149606D02*G01Y153543D01*X662992Y152165D02*G01X670866D01*Y160039*X662992*Y152165*X666929Y156102D02*G01Y160039D01*X662942Y158465D02*G01X670816D01*Y166339*X662942*Y158465*X666879Y162402D02*G01Y166339D01*X673031Y162598D02*G01X680906D01*Y170472*X673031*Y162598*X676969Y166535D02*G01Y170472D01*X121654Y180709D02*G01X129528D01*Y188583*X121654*Y180709*X125591Y184646D02*G01Y188583D01*X113780Y180709D02*G01X121654D01*Y188583*X113780*Y180709*X117717Y184646D02*G01Y188583D01*X113780Y176772D02*G01X121654D01*Y184646*X113780*Y176772*X117717Y180709D02*G01Y184646D01*X121654Y176772D02*G01X129528D01*Y184646*X121654*Y176772*X125591Y180709D02*G01Y184646D01*X133465Y178543D02*G01X141339D01*Y186417*X133465*Y178543*X137402Y182480D02*G01Y186417D01*Y178543D02*G01X145276D01*Y186417*X137402*Y178543*X141339Y182480D02*G01Y186417D01*X129528Y165114D02*G01X137402D01*Y172988*X129528*Y165114*X133465Y169051D02*G01Y172988D01*X149213Y176378D02*G01X157087D01*Y184252*X149213*Y176378*X153150Y180315D02*G01Y184252D01*X161024Y176378D02*G01X168898D01*Y184252*X161024*Y176378*X164961Y180315D02*G01Y184252D01*X180709Y176378D02*G01X188583D01*Y184252*X180709*Y176378*X184646Y180315D02*G01Y184252D01*X200394Y165114D02*G01X208268D01*Y172988*X200394*Y165114*X204331Y169051D02*G01Y172988D01*Y165114D02*G01X212205D01*Y172988*X204331*Y165114*X208268Y169051D02*G01Y172988D01*X227953Y165114D02*G01X235827D01*Y172988*X227953*Y165114*X231890Y169051D02*G01Y172988D01*X239764Y165114D02*G01X247638D01*Y172988*X239764*Y165114*X243701Y169051D02*G01Y172988D01*X251575Y165114D02*G01X259449D01*Y172988*X251575*Y165114*X255512Y169051D02*G01Y172988D01*X259449Y164961D02*G01X267323D01*Y172835*X259449*Y164961*X263386Y168898D02*G01Y172835D01*X267323Y165114D02*G01X275197D01*Y172988*X267323*Y165114*X271260Y169051D02*G01Y172988D01*X598425Y166339D02*G01X606299D01*Y174213*X598425*Y166339*X602362Y170276D02*G01Y174213D01*X608406Y166398D02*G01X616280D01*Y174272*X608406*Y166398*X612343Y170335D02*G01Y174272D01*X618307Y166339D02*G01X626181D01*Y174213*X618307*Y166339*X622244Y170276D02*G01Y174213D01*X628346Y166339D02*G01X636220D01*Y174213*X628346*Y166339*X632283Y170276D02*G01Y174213D01*X683071Y166339D02*G01X690945D01*Y174213*X683071*Y166339*X687008Y170276D02*G01Y174213D01*X693110Y166339D02*G01X700984D01*Y174213*X693110*Y166339*X697047Y170276D02*G01Y174213D01*X703150Y166339D02*G01X711024D01*Y174213*X703150*Y166339*X707087Y170276D02*G01Y174213D01*X713189Y166339D02*G01X721063D01*Y174213*X713189*Y166339*X717126Y170276D02*G01Y174213D01*X121654Y188583D02*G01X129528D01*Y196457*X121654*Y188583*X125591Y192520D02*G01Y196457D01*X113780Y188583D02*G01X121654D01*Y196457*X113780*Y188583*X117717Y192520D02*G01Y196457D01*X121654Y192520D02*G01X129528D01*Y200394*X121654*Y192520*X125591Y196457D02*G01Y200394D01*X113780Y192520D02*G01X121654D01*Y200394*X113780*Y192520*X117717Y196457D02*G01Y200394D01*X161024Y192913D02*G01X168898D01*Y200787*X161024*Y192913*X164961Y196850D02*G01Y200787D01*X168898Y191929D02*G01X176772D01*Y199803*X168898*Y191929*X172835Y195866D02*G01Y199803D01*X303740Y184646D02*G01X311614D01*Y192520*X303740*Y184646*X307677Y188583D02*G01Y192520D01*X308661Y184646D02*G01X316535D01*Y192520*X308661*Y184646*X312598Y188583D02*G01Y192520D01*X314567Y184646D02*G01X322441D01*Y192520*X314567*Y184646*X318504Y188583D02*G01Y192520D01*X320472Y184646D02*G01X328346D01*Y192520*X320472*Y184646*X324409Y188583D02*G01Y192520D01*X551772Y203150D02*G01X559646D01*Y211024*X551772*Y203150*X555709Y207087D02*G01Y211024D01*X578445Y203839D02*G01X586319D01*Y211713*X578445*Y203839*X582382Y207776D02*G01Y211713D01*X570472Y203937D02*G01X578346D01*Y211811*X570472*Y203937*X574409Y207874D02*G01Y211811D01*X602067Y203839D02*G01X609941D01*Y211713*X602067*Y203839*X606004Y207776D02*G01Y211713D01*X594193Y203839D02*G01X602067D01*Y211713*X594193*Y203839*X598130Y207776D02*G01Y211713D01*X586319Y203839D02*G01X594193D01*Y211713*X586319*Y203839*X590256Y207776D02*G01Y211713D01*X617815Y203839D02*G01X625689D01*Y211713*X617815*Y203839*X621752Y207776D02*G01Y211713D01*X609941Y203839D02*G01X617815D01*Y211713*X609941*Y203839*X613878Y207776D02*G01Y211713D01*X664961Y193110D02*G01X672835D01*Y200984*X664961*Y193110*X668898Y197047D02*G01Y200984D01*X713189Y199902D02*G01X721063D01*Y207776*X713189*Y199902*X717126Y203839D02*G01Y207776D01*X133465Y206102D02*G01X141339D01*Y213976*X133465*Y206102*X137402Y210039D02*G01Y213976D01*X129528Y204177D02*G01X137402D01*Y212051*X129528*Y204177*X133465Y208114D02*G01Y212051D01*X157087Y205709D02*G01X164961D01*Y213583*X157087*Y205709*X161024Y209646D02*G01Y213583D01*X153150Y205709D02*G01X161024D01*Y213583*X153150*Y205709*X157087Y209646D02*G01Y213583D01*X180709Y204177D02*G01X188583D01*Y212051*X180709*Y204177*X184646Y208114D02*G01Y212051D01*X188583Y212992D02*G01X196457D01*Y220866*X188583*Y212992*X192520Y216929D02*G01Y220866D01*X196457Y215945D02*G01X204331D01*Y223819*X196457*Y215945*X200394Y219882D02*G01Y223819D01*X184646Y205118D02*G01X192520D01*Y212992*X184646*Y205118*X188583Y209055D02*G01Y212992D01*X200394Y204177D02*G01X208268D01*Y212051*X200394*Y204177*X204331Y208114D02*G01Y212051D01*Y204177D02*G01X212205D01*Y212051*X204331*Y204177*X208268Y208114D02*G01Y212051D01*X227953Y204177D02*G01X235827D01*Y212051*X227953*Y204177*X231890Y208114D02*G01Y212051D01*X239764Y204177D02*G01X247638D01*Y212051*X239764*Y204177*X243701Y208114D02*G01Y212051D01*X259449Y204331D02*G01X267323D01*Y212205*X259449*Y204331*X263386Y208268D02*G01Y212205D01*X251575Y204177D02*G01X259449D01*Y212051*X251575*Y204177*X255512Y208114D02*G01Y212051D01*X267323Y204177D02*G01X275197D01*Y212051*X267323*Y204177*X271260Y208114D02*G01Y212051D01*X551378Y221850D02*G01X559252D01*Y229724*X551378*Y221850*X555315Y225787D02*G01Y229724D01*X637598Y209055D02*G01X645472D01*Y216929*X637598*Y209055*X641535Y212992D02*G01Y216929D01*X651181Y220472D02*G01X659055D01*Y228346*X651181*Y220472*X655118Y224409D02*G01Y228346D01*X662942Y209005D02*G01X670816D01*Y216879*X662942*Y209005*X666879Y212942D02*G01Y216879D01*X662942Y215405D02*G01X670816D01*Y223279*X662942*Y215405*X666879Y219342D02*G01Y223279D01*X683071Y223031D02*G01X690945D01*Y230906*X683071*Y223031*X687008Y226969D02*G01Y230906D01*X673051Y219705D02*G01X680925D01*Y227579*X673051*Y219705*X676988Y223642D02*G01Y227579D01*X693012Y223031D02*G01X700886D01*Y230906*X693012*Y223031*X696949Y226969D02*G01Y230906D01*X702854Y223031D02*G01X710728D01*Y230906*X702854*Y223031*X706791Y226969D02*G01Y230906D01*X713189Y223031D02*G01X721063D01*Y230906*X713189*Y223031*X717126Y226969D02*G01Y230906D01*X157087Y232480D02*G01X164961D01*Y240354*X157087*Y232480*X161024Y236417D02*G01Y240354D01*X164961Y230512D02*G01X172835D01*Y238386*X164961*Y230512*X168898Y234449D02*G01Y238386D01*X582283Y229331D02*G01X590157D01*Y237205*X582283*Y229331*X586220Y233268D02*G01Y237205D01*X598031Y229724D02*G01X605906D01*Y237598*X598031*Y229724*X601969Y233661D02*G01Y237598D01*X589961Y229528D02*G01X597835D01*Y237402*X589961*Y229528*X593898Y233465D02*G01Y237402D01*X605906Y229331D02*G01X613780D01*Y237205*X605906*Y229331*X609843Y233268D02*G01Y237205D01*X105709Y247638D02*G01X113583D01*Y255512*X105709*Y247638*X109646Y251575D02*G01Y255512D01*X141142Y247638D02*G01X149016D01*Y255512*X141142*Y247638*X145079Y251575D02*G01Y255512D01*X173622Y246260D02*G01X181496D01*Y254134*X173622*Y246260*X177559Y250197D02*G01Y254134D01*X641339Y249016D02*G01X649213D01*Y256890*X641339*Y249016*X645276Y252953D02*G01Y256890D01*X633465Y249016D02*G01X641339D01*Y256890*X633465*Y249016*X637402Y252953D02*G01Y256890D01*X720079Y249016D02*G01X727953D01*Y256890*X720079*Y249016*X724016Y252953D02*G01Y256890D01*X712205Y249016D02*G01X720079D01*Y256890*X712205*Y249016*X716142Y252953D02*G01Y256890D01*X100003Y277165D02*G01X729924D01*Y100000*X100003*Y277165*X760000Y218110D02*G01X1037559D01*X760000Y194488D02*G01X1037559D01*X760000Y170866D02*G01X1037559D01*X760000Y147244D02*G01X1037559D01*X760000Y123622D02*G01X1037559D01*X760000Y100000D02*G01X1037559D01*X760000Y218110D02*G01Y100000D01*X842677Y218110D02*G01Y100000D01*X878110Y218110D02*G01Y100000D01*X913543Y218110D02*G01Y100000D01*X966693Y218110D02*G01Y100000D01*X1037559Y218110D02*G01Y100000D01*X794941Y207037D02*G01X794404Y207776D01*X793599Y208145*X792525*X791720Y207776*X791183Y207037*Y206299*X791451Y205561*X791720Y205192*X792257Y204823*X793867Y204085*X794404Y203716*X794673Y203346*X794941Y202608*Y201501*X794404Y200763*X793599Y200394*X792525*X791720Y200763*X791183Y201501*X797357Y208145D02*G01Y200394D01*X803531Y208145D02*G01X799773Y200394D01*Y208145D02*G01X803531D01*X799773Y200394D02*G01X803531D01*X805947Y208145D02*G01Y200394D01*Y208145D02*G01X809436D01*X805947Y204454D02*G01X808094D01*X805947Y200394D02*G01X809436D01*X852385Y208145D02*G01X851849Y207776D01*X851312Y207037*X851043Y206299*X850775Y205192*Y203346*X851043Y202239*X851312Y201501*X851849Y200763*X852385Y200394*X853459*X853996Y200763*X854533Y201501*X854801Y202239*X855070Y203346*Y205192*X854801Y206299*X854533Y207037*X853996Y207776*X853459Y208145*X852385*X853191Y201870D02*G01X854801Y199656D01*X859365Y208145D02*G01Y200394D01*X857486Y208145D02*G01X861244D01*X863660D02*G01X865807Y204454D01*Y200394*X867955Y208145D02*G01X865807Y204454D01*X889966Y207037D02*G01X889429Y207776D01*X888624Y208145*X887550*X886745Y207776*X886208Y207037*Y206299*X886476Y205561*X886745Y205192*X887282Y204823*X888892Y204085*X889429Y203716*X889698Y203346*X889966Y202608*Y201501*X889429Y200763*X888624Y200394*X887550*X886745Y200763*X886208Y201501*X892382Y208145D02*G01X894529Y204454D01*Y200394*X896677Y208145D02*G01X894529Y204454D01*X899093Y208145D02*G01Y200394D01*Y208145D02*G01X901240Y200394D01*X903388Y208145D02*G01X901240Y200394D01*X903388Y208145D02*G01Y200394D01*X924862Y208145D02*G01Y200394D01*Y208145D02*G01X927278D01*X928083Y207776*X928352Y207406*X928620Y206668*Y205561*X928352Y204823*X928083Y204454*X927278Y204085*X924862*X931036Y208145D02*G01Y200394D01*X934257*X938821Y208145D02*G01X936673Y200394D01*X938821Y208145D02*G01X940968Y200394D01*X937479Y202977D02*G01X940163D01*X945263Y208145D02*G01Y200394D01*X943384Y208145D02*G01X947142D01*X949558D02*G01Y200394D01*Y208145D02*G01X953048D01*X949558Y204454D02*G01X951705D01*X949558Y200394D02*G01X953048D01*X955463Y208145D02*G01Y200394D01*Y208145D02*G01X957343D01*X958148Y207776*X958685Y207037*X958953Y206299*X959222Y205192*Y203346*X958953Y202239*X958685Y201501*X958148Y200763*X957343Y200394*X955463*X994923Y208145D02*G01Y200394D01*X993044Y208145D02*G01X996802D01*X1000829D02*G01X1000292Y207776D01*X999755Y207037*X999486Y206299*X999218Y205192*Y203346*X999486Y202239*X999755Y201501*X1000292Y200763*X1000829Y200394*X1001902*X1002439Y200763*X1002976Y201501*X1003244Y202239*X1003513Y203346*Y205192*X1003244Y206299*X1002976Y207037*X1002439Y207776*X1001902Y208145*X1000829*X1005929D02*G01Y200394D01*X1009150*X765906Y183046D02*G01X766442Y183415D01*X767248Y184523*Y176772*X769664Y183046D02*G01X770200Y183415D01*X771006Y184523*Y176772*X773690Y177510D02*G01X773422Y177141D01*X773690Y176772*X773958Y177141*X773690Y177510*X777717Y184523D02*G01X776911Y184154D01*X776643Y183415*Y182677*X776911Y181939*X777448Y181570*X778522Y181201*X779327Y180832*X779864Y180094*X780132Y179355*Y178248*X779864Y177510*X779596Y177141*X778790Y176772*X777717*X776911Y177141*X776643Y177510*X776374Y178248*Y179355*X776643Y180094*X777180Y180832*X777985Y181201*X779059Y181570*X779596Y181939*X779864Y182677*Y183415*X779596Y184154*X778790Y184523*X777717*X782548Y183046D02*G01X783085Y183415D01*X783890Y184523*Y176772*X852520Y183046D02*G01X853057Y183415D01*X853862Y184523*Y176772*X857888Y184523D02*G01X857083Y184154D01*X856546Y183046*X856278Y181201*Y180094*X856546Y178248*X857083Y177141*X857888Y176772*X858425*X859230Y177141*X859767Y178248*X860036Y180094*Y181201*X859767Y183046*X859230Y184154*X858425Y184523*X857888*X863794D02*G01X862989Y184154D01*X862720Y183415*Y182677*X862989Y181939*X863525Y181570*X864599Y181201*X865404Y180832*X865941Y180094*X866210Y179355*Y178248*X865941Y177510*X865673Y177141*X864868Y176772*X863794*X862989Y177141*X862720Y177510*X862452Y178248*Y179355*X862720Y180094*X863257Y180832*X864062Y181201*X865136Y181570*X865673Y181939*X865941Y182677*Y183415*X865673Y184154*X864868Y184523*X863794*X889921Y176772D02*G01X901732D01*Y188583*X889921*Y176772*X895827Y182677D02*G01Y188583D01*X922044Y184523D02*G01X924191Y180832D01*Y176772*X926339Y184523D02*G01X924191Y180832D01*X928754Y184523D02*G01Y176772D01*Y184523D02*G01X932244D01*X928754Y180832D02*G01X930902D01*X928754Y176772D02*G01X932244D01*X938418Y183415D02*G01X937881Y184154D01*X937076Y184523*X936002*X935197Y184154*X934660Y183415*Y182677*X934928Y181939*X935197Y181570*X935734Y181201*X937344Y180463*X937881Y180094*X938150Y179724*X938418Y178986*Y177879*X937881Y177141*X937076Y176772*X936002*X935197Y177141*X934660Y177879*X976535Y183415D02*G01Y176772D01*X974120Y180094D02*G01X978951D01*X982978Y184523D02*G01X982173Y184154D01*X981636Y183046*X981367Y181201*Y180094*X981636Y178248*X982173Y177141*X982978Y176772*X983515*X984320Y177141*X984857Y178248*X985125Y180094*Y181201*X984857Y183046*X984320Y184154*X983515Y184523*X982978*X987810Y177510D02*G01X987541Y177141D01*X987810Y176772*X988078Y177141*X987810Y177510*X990494Y183046D02*G01X991031Y183415D01*X991836Y184523*Y176772*X999084Y185999D02*G01X994252Y174188D01*X1001500Y180094D02*G01X1006331D01*X1010358Y184523D02*G01X1009553Y184154D01*X1009016Y183046*X1008747Y181201*Y180094*X1009016Y178248*X1009553Y177141*X1010358Y176772*X1010895*X1011700Y177141*X1012237Y178248*X1012505Y180094*Y181201*X1012237Y183046*X1011700Y184154*X1010895Y184523*X1010358*X1015190Y177510D02*G01X1014921Y177141D01*X1015190Y176772*X1015458Y177141*X1015190Y177510*X1019485Y184523D02*G01X1018679Y184154D01*X1018142Y183046*X1017874Y181201*Y180094*X1018142Y178248*X1018679Y177141*X1019485Y176772*X1020021*X1020827Y177141*X1021364Y178248*X1021632Y180094*Y181201*X1021364Y183046*X1020827Y184154*X1020021Y184523*X1019485*X1027538D02*G01X1024853D01*X1024585Y181201*X1024853Y181570*X1025659Y181939*X1026464*X1027269Y181570*X1027806Y180832*X1028074Y179724*X1027806Y178986*X1027538Y177879*X1027001Y177141*X1026195Y176772*X1025390*X1024585Y177141*X1024316Y177510*X1024048Y178248*X766442Y160901D02*G01X769395D01*X767785Y157948*X768590*X769127Y157579*X769395Y157210*X769664Y156102*Y155364*X769395Y154257*X768858Y153519*X768053Y153150*X767248*X766442Y153519*X766174Y153888*X765906Y154626*X775569Y158317D02*G01X775301Y157210D01*X774764Y156471*X773958Y156102*X773690*X772885Y156471*X772348Y157210*X772079Y158317*Y158686*X772348Y159793*X772885Y160531*X773690Y160901*X773958*X774764Y160531*X775301Y159793*X775569Y158317*Y156471*X775301Y154626*X774764Y153519*X773958Y153150*X773422*X772616Y153519*X772348Y154257*X856949Y160901D02*G01X854264Y155733D01*X858291*X856949Y160901D02*G01Y153150D01*X864465Y160901D02*G01X861781Y153150D01*X860707Y160901D02*G01X864465D01*X889921Y159055D02*G01X901732D01*X895827Y153150D02*G01Y164961D01*X922044Y160901D02*G01X924191Y157210D01*Y153150*X926339Y160901D02*G01X924191Y157210D01*X928754Y160901D02*G01Y153150D01*Y160901D02*G01X932244D01*X928754Y157210D02*G01X930902D01*X928754Y153150D02*G01X932244D01*X938418Y159793D02*G01X937881Y160531D01*X937076Y160901*X936002*X935197Y160531*X934660Y159793*Y159055*X934928Y158317*X935197Y157948*X935734Y157579*X937344Y156841*X937881Y156471*X938150Y156102*X938418Y155364*Y154257*X937881Y153519*X937076Y153150*X936002*X935197Y153519*X934660Y154257*X986199Y159793D02*G01Y153150D01*X983783Y156471D02*G01X988615D01*X995863Y162377D02*G01X991031Y150566D01*X998278Y156471D02*G01X1003110D01*X1007137Y160901D02*G01X1006331Y160531D01*X1005795Y159424*X1005526Y157579*Y156471*X1005795Y154626*X1006331Y153519*X1007137Y153150*X1007674*X1008479Y153519*X1009016Y154626*X1009284Y156471*Y157579*X1009016Y159424*X1008479Y160531*X1007674Y160901*X1007137*X1011969Y153888D02*G01X1011700Y153519D01*X1011969Y153150*X1012237Y153519*X1011969Y153888*X1016263Y160901D02*G01X1015458Y160531D01*X1014921Y159424*X1014653Y157579*Y156471*X1014921Y154626*X1015458Y153519*X1016263Y153150*X1016800*X1017606Y153519*X1018142Y154626*X1018411Y156471*Y157579*X1018142Y159424*X1017606Y160531*X1016800Y160901*X1016263*X766442Y137279D02*G01X769395D01*X767785Y134326*X768590*X769127Y133957*X769395Y133588*X769664Y132480*Y131742*X769395Y130635*X768858Y129897*X768053Y129528*X767248*X766442Y129897*X766174Y130266*X765906Y131004*X775569Y134695D02*G01X775301Y133588D01*X774764Y132849*X773958Y132480*X773690*X772885Y132849*X772348Y133588*X772079Y134695*Y135064*X772348Y136171*X772885Y136909*X773690Y137279*X773958*X774764Y136909*X775301Y136171*X775569Y134695*Y132849*X775301Y131004*X774764Y129897*X773958Y129528*X773422*X772616Y129897*X772348Y130635*X860036Y137279D02*G01X857351Y132111D01*X861378*X860036Y137279D02*G01Y129528D01*X895827D02*G01X901732Y135433D01*X895827Y141339*X889921Y135433*X895827Y129528*Y135433D02*G01Y141339D01*X924996Y137279D02*G01Y129528D01*Y137279D02*G01X928754Y129528D01*Y137279D02*G01Y129528D01*X932781Y137279D02*G01X932244Y136909D01*X931707Y136171*X931439Y135433*X931170Y134326*Y132480*X931439Y131373*X931707Y130635*X932244Y129897*X932781Y129528*X933855*X934392Y129897*X934928Y130635*X935197Y131373*X935465Y132480*Y134326*X935197Y135433*X934928Y136171*X934392Y136909*X933855Y137279*X932781*X986199Y136171D02*G01Y129528D01*X983783Y132849D02*G01X988615D01*X995863Y138755D02*G01X991031Y126944D01*X998278Y132849D02*G01X1003110D01*X1007137Y137279D02*G01X1006331Y136909D01*X1005795Y135802*X1005526Y133957*Y132849*X1005795Y131004*X1006331Y129897*X1007137Y129528*X1007674*X1008479Y129897*X1009016Y131004*X1009284Y132849*Y133957*X1009016Y135802*X1008479Y136909*X1007674Y137279*X1007137*X1011969Y130266D02*G01X1011700Y129897D01*X1011969Y129528*X1012237Y129897*X1011969Y130266*X1016263Y137279D02*G01X1015458Y136909D01*X1014921Y135802*X1014653Y133957*Y132849*X1014921Y131004*X1015458Y129897*X1016263Y129528*X1016800*X1017606Y129897*X1018142Y131004*X1018411Y132849*Y133957*X1018142Y135802*X1017606Y136909*X1016800Y137279*X1016263*X769395Y113656D02*G01X766711D01*X766442Y110335*X766711Y110704*X767516Y111073*X768321*X769127Y110704*X769664Y109966*X769932Y108858*X769664Y108120*X769395Y107013*X768858Y106275*X768053Y105906*X767248*X766442Y106275*X766174Y106644*X765906Y107382*X775838Y111073D02*G01X775569Y109966D01*X775032Y109227*X774227Y108858*X773958*X773153Y109227*X772616Y109966*X772348Y111073*Y111442*X772616Y112549*X773153Y113287*X773958Y113656*X774227*X775032Y113287*X775569Y112549*X775838Y111073*Y109227*X775569Y107382*X775032Y106275*X774227Y105906*X773690*X772885Y106275*X772616Y107013*X855741Y113656D02*G01X854936Y113287D01*X854667Y112549*Y111811*X854936Y111073*X855472Y110704*X856546Y110335*X857351Y109966*X857888Y109227*X858157Y108489*Y107382*X857888Y106644*X857620Y106275*X856815Y105906*X855741*X854936Y106275*X854667Y106644*X854399Y107382*Y108489*X854667Y109227*X855204Y109966*X856009Y110335*X857083Y110704*X857620Y111073*X857888Y111811*Y112549*X857620Y113287*X856815Y113656*X855741*X862183D02*G01X861378Y113287D01*X860841Y112180*X860573Y110335*Y109227*X860841Y107382*X861378Y106275*X862183Y105906*X862720*X863525Y106275*X864062Y107382*X864331Y109227*Y110335*X864062Y112180*X863525Y113287*X862720Y113656*X862183*X889921Y105906D02*G01X901732Y117717D01*X889921D02*G01X901732Y105906D01*X922044Y113656D02*G01X924191Y109966D01*Y105906*X926339Y113656D02*G01X924191Y109966D01*X928754Y113656D02*G01Y105906D01*Y113656D02*G01X932244D01*X928754Y109966D02*G01X930902D01*X928754Y105906D02*G01X932244D01*X938418Y112549D02*G01X937881Y113287D01*X937076Y113656*X936002*X935197Y113287*X934660Y112549*Y111811*X934928Y111073*X935197Y110704*X935734Y110335*X937344Y109596*X937881Y109227*X938150Y108858*X938418Y108120*Y107013*X937881Y106275*X937076Y105906*X936002*X935197Y106275*X934660Y107013*X986199Y112549D02*G01Y105906D01*X983783Y109227D02*G01X988615D01*X995863Y115133D02*G01X991031Y103322D01*X998278Y109227D02*G01X1003110D01*X1007137Y113656D02*G01X1006331Y113287D01*X1005795Y112180*X1005526Y110335*Y109227*X1005795Y107382*X1006331Y106275*X1007137Y105906*X1007674*X1008479Y106275*X1009016Y107382*X1009284Y109227*Y110335*X1009016Y112180*X1008479Y113287*X1007674Y113656*X1007137*X1011969Y106644D02*G01X1011700Y106275D01*X1011969Y105906*X1012237Y106275*X1011969Y106644*X1016263Y113656D02*G01X1015458Y113287D01*X1014921Y112180*X1014653Y110335*Y109227*X1014921Y107382*X1015458Y106275*X1016263Y105906*X1016800*X1017606Y106275*X1018142Y107382*X1018411Y109227*Y110335*X1018142Y112180*X1017606Y113287*X1016800Y113656*X1016263*G54D25*X202191Y19209D02*G01Y15074D01*X203623Y17831D02*G01Y15074D01*Y17043D02*G01X204100Y17634D01*X204418Y17831*X204895*X205214Y17634*X205373Y17043*Y15074*X206964Y18224D02*G01Y18421D01*X207123Y18815*X207282Y19012*X207600Y19209*X208236*X208555Y19012*X208714Y18815*X208873Y18421*Y18028*X208714Y17634*X208395Y17043*X206805Y15074*X209032*X210464Y19209D02*G01Y15074D01*X212691Y19209D02*G01Y15074D01*X210464Y17240D02*G01X212691D01*X214282Y18224D02*G01Y18421D01*X214441Y18815*X214600Y19012*X214918Y19209*X215555*X215873Y19012*X216032Y18815*X216191Y18421*Y18028*X216032Y17634*X215714Y17043*X214123Y15074*X216350*X255236Y28224D02*G01X255077Y28618D01*X254759Y29012*X254441Y29209*X253805*X253486Y29012*X253168Y28618*X253009Y28224*X252850Y27634*Y26649*X253009Y26059*X253168Y25665*X253486Y25271*X253805Y25074*X254441*X254759Y25271*X255077Y25665*X255236Y26059*X257623Y29209D02*G01X257305Y29012D01*X256986Y28618*X256827Y28224*X256668Y27634*Y26649*X256827Y26059*X256986Y25665*X257305Y25271*X257623Y25074*X258259*X258577Y25271*X258895Y25665*X259055Y26059*X259214Y26649*Y27634*X259055Y28224*X258895Y28618*X258577Y29012*X258259Y29209*X257623*X260645D02*G01Y25074D01*Y29209D02*G01X261759D01*X262236Y29012*X262555Y28618*X262714Y28224*X262873Y27634*Y26649*X262714Y26059*X262555Y25665*X262236Y25271*X261759Y25074*X260645*X264305Y29209D02*G01Y25074D01*Y29209D02*G01X266373D01*X264305Y27240D02*G01X265577D01*X264305Y25074D02*G01X266373D01*X196736Y28224D02*G01X196577Y28618D01*X196259Y29012*X195941Y29209*X195305*X194986Y29012*X194668Y28618*X194509Y28224*X194350Y27634*Y26649*X194509Y26059*X194668Y25665*X194986Y25271*X195305Y25074*X195941*X196259Y25271*X196577Y25665*X196736Y26059*X198168Y29209D02*G01Y26256D01*X198327Y25665*X198645Y25271*X199123Y25074*X199441*X199918Y25271*X200236Y25665*X200395Y26256*Y29209*X204055Y28618D02*G01X203736Y29012D01*X203259Y29209*X202623*X202145Y29012*X201827Y28618*Y28224*X201986Y27831*X202145Y27634*X202464Y27437*X203418Y27043*X203736Y26846*X203895Y26649*X204055Y26256*Y25665*X203736Y25271*X203259Y25074*X202623*X202145Y25271*X201827Y25665*X206600Y29209D02*G01Y25074D01*X205486Y29209D02*G01X207714D01*X210100D02*G01X209782Y29012D01*X209464Y28618*X209305Y28224*X209145Y27634*Y26649*X209305Y26059*X209464Y25665*X209782Y25271*X210100Y25074*X210736*X211055Y25271*X211373Y25665*X211532Y26059*X211691Y26649*Y27634*X211532Y28224*X211373Y28618*X211055Y29012*X210736Y29209*X210100*X213123D02*G01Y25074D01*Y29209D02*G01X214395Y25074D01*X215668Y29209D02*G01X214395Y25074D01*X215668Y29209D02*G01Y25074D01*X217100Y29209D02*G01Y25074D01*Y29209D02*G01X219168D01*X217100Y27240D02*G01X218373D01*X217100Y25074D02*G01X219168D01*X220600Y29209D02*G01Y25074D01*Y29209D02*G01X222032D01*X222509Y29012*X222668Y28815*X222827Y28421*Y28028*X222668Y27634*X222509Y27437*X222032Y27240*X220600*X221714D02*G01X222827Y25074D01*X146305Y29209D02*G01X145986Y29012D01*X145668Y28618*X145509Y28224*X145350Y27634*Y26649*X145509Y26059*X145668Y25665*X145986Y25271*X146305Y25074*X146941*X147259Y25271*X147577Y25665*X147736Y26059*X147895Y26649*Y27634*X147736Y28224*X147577Y28618*X147259Y29012*X146941Y29209*X146305*X149327D02*G01Y25074D01*Y29209D02*G01X150759D01*X151236Y29012*X151395Y28815*X151555Y28421*Y27831*X151395Y27437*X151236Y27240*X150759Y27043*X149327*X152986Y29209D02*G01Y25074D01*Y29209D02*G01X155055D01*X152986Y27240D02*G01X154259D01*X152986Y25074D02*G01X155055D01*X156486Y29209D02*G01Y25074D01*Y29209D02*G01X157918D01*X158395Y29012*X158555Y28815*X158714Y28421*Y28028*X158555Y27634*X158395Y27437*X157918Y27240*X156486*X157600D02*G01X158714Y25074D01*X161418Y29209D02*G01X160145Y25074D01*X161418Y29209D02*G01X162691Y25074D01*X160623Y26453D02*G01X162214D01*X165236Y29209D02*G01Y25074D01*X164123Y29209D02*G01X166350D01*X168736D02*G01X168418Y29012D01*X168100Y28618*X167941Y28224*X167782Y27634*Y26649*X167941Y26059*X168100Y25665*X168418Y25271*X168736Y25074*X169373*X169691Y25271*X170009Y25665*X170168Y26059*X170327Y26649*Y27634*X170168Y28224*X170009Y28618*X169691Y29012*X169373Y29209*X168736*X171759D02*G01Y25074D01*Y29209D02*G01X173191D01*X173668Y29012*X173827Y28815*X173986Y28421*Y28028*X173827Y27634*X173668Y27437*X173191Y27240*X171759*X172873D02*G01X173986Y25074D01*X112850Y29209D02*G01Y25074D01*Y29209D02*G01X113964D01*X114441Y29012*X114759Y28618*X114918Y28224*X115077Y27634*Y26649*X114918Y26059*X114759Y25665*X114441Y25271*X113964Y25074*X112850*X117782Y29209D02*G01X116509Y25074D01*X117782Y29209D02*G01X119055Y25074D01*X116986Y26453D02*G01X118577D01*X121600Y29209D02*G01Y25074D01*X120486Y29209D02*G01X122714D01*X124145D02*G01Y25074D01*Y29209D02*G01X126214D01*X124145Y27240D02*G01X125418D01*X124145Y25074D02*G01X126214D01*X248248Y19209D02*G01Y15074D01*X249680Y19209D02*G01Y15074D01*Y19209D02*G01X251907Y15074D01*Y19209D02*G01Y15074D01*X253339Y19209D02*G01Y15074D01*X255566Y19209D02*G01Y15074D01*X253339Y17240D02*G01X255566D01*X256998Y18421D02*G01X257316Y18618D01*X257793Y19209*Y15074*X261452Y19209D02*G01X259861Y15074D01*X259225Y19209D02*G01X261452D01*X263839D02*G01X263361Y19012D01*X263043Y18421*X262884Y17437*Y16846*X263043Y15862*X263361Y15271*X263839Y15074*X264157*X264634Y15271*X264952Y15862*X265111Y16846*Y17437*X264952Y18421*X264634Y19012*X264157Y19209*X263839*X266702Y18224D02*G01Y18421D01*X266861Y18815*X267020Y19012*X267339Y19209*X267975*X268293Y19012*X268452Y18815*X268611Y18421*Y18028*X268452Y17634*X268134Y17043*X266543Y15074*X268770*X106384Y19209D02*G01X105907Y19012D01*X105589Y18421*X105430Y17437*Y16846*X105589Y15862*X105907Y15271*X106384Y15074*X106702*X107180Y15271*X107498Y15862*X107657Y16846*Y17437*X107498Y18421*X107180Y19012*X106702Y19209*X106384*X110998Y18618D02*G01X110839Y19012D01*X110361Y19209*X110043*X109566Y19012*X109248Y18421*X109089Y17437*Y16453*X109248Y15665*X109566Y15271*X110043Y15074*X110202*X110680Y15271*X110998Y15665*X111157Y16256*Y16453*X110998Y17043*X110680Y17437*X110202Y17634*X110043*X109566Y17437*X109248Y17043*X109089Y16453*X115452Y19996D02*G01X112589Y13696D01*X117839Y19209D02*G01X117361Y19012D01*X117043Y18421*X116884Y17437*Y16846*X117043Y15862*X117361Y15271*X117839Y15074*X118157*X118634Y15271*X118952Y15862*X119111Y16846*Y17437*X118952Y18421*X118634Y19012*X118157Y19209*X117839*X122770D02*G01X121180Y15074D01*X120543Y19209D02*G01X122770D01*X127066Y19996D02*G01X124202Y13696D01*X128498Y18421D02*G01X128816Y18618D01*X129293Y19209*Y15074*X132952Y19209D02*G01X131361Y15074D01*X130725Y19209D02*G01X132952D01*X153452D02*G01Y15074D01*Y19209D02*G01X155520D01*X153452Y17240D02*G01X154725D01*X153452Y15074D02*G01X155520D01*X156952Y19209D02*G01Y15074D01*Y19209D02*G01X158066D01*X158543Y19012*X158861Y18618*X159020Y18224*X159180Y17634*Y16649*X159020Y16059*X158861Y15665*X158543Y15271*X158066Y15074*X156952*X160611Y19209D02*G01Y15074D01*Y19209D02*G01X161725D01*X162202Y19012*X162520Y18618*X162680Y18224*X162839Y17634*Y16649*X162680Y16059*X162520Y15665*X162202Y15271*X161725Y15074*X160611*X164270Y19209D02*G01X165543Y17240D01*Y15074*X166816Y19209D02*G01X165543Y17240D01*X151543Y41037D02*G01Y36574D01*X150350Y41037D02*G01X152736D01*X154270Y38274D02*G01X156316D01*Y38699*X156145Y39124*X155975Y39337*X155634Y39549*X155123*X154782Y39337*X154441Y38912*X154270Y38274*Y37849*X154441Y37212*X154782Y36787*X155123Y36574*X155634*X155975Y36787*X156316Y37212*X157850Y41037D02*G01Y36574D01*X159555Y39549D02*G01X159384Y39337D01*X159555Y39124*X159725Y39337*X159555Y39549*Y36999D02*G01X159384Y36787D01*X159555Y36574*X159725Y36787*X159555Y36999*X162793Y40399D02*G01Y36574D01*X161259Y38487D02*G01X164327D01*X166202Y41037D02*G01X168077D01*X167055Y39337*X167566*X167907Y39124*X168077Y38912*X168248Y38274*Y37849*X168077Y37212*X167736Y36787*X167225Y36574*X166714*X166202Y36787*X166032Y36999*X165861Y37424*X171998Y39549D02*G01X171827Y38912D01*X171486Y38487*X170975Y38274*X170805*X170293Y38487*X169952Y38912*X169782Y39549*Y39762*X169952Y40399*X170293Y40824*X170805Y41037*X170975*X171486Y40824*X171827Y40399*X171998Y39549*Y38487*X171827Y37424*X171486Y36787*X170975Y36574*X170634*X170123Y36787*X169952Y37212*X174555Y41037D02*G01X174043Y40824D01*X173702Y40187*X173532Y39124*Y38487*X173702Y37424*X174043Y36787*X174555Y36574*X174895*X175407Y36787*X175748Y37424*X175918Y38487*Y39124*X175748Y40187*X175407Y40824*X174895Y41037*X174555*X179157D02*G01X177452Y38062D01*X180009*X179157Y41037D02*G01Y36574D01*X183248Y41037D02*G01X181543Y38062D01*X184100*X183248Y41037D02*G01Y36574D01*X187339Y41037D02*G01X185634Y38062D01*X188191*X187339Y41037D02*G01Y36574D01*X191770Y40399D02*G01X191600Y40824D01*X191089Y41037*X190748*X190236Y40824*X189895Y40187*X189725Y39124*Y38062*X189895Y37212*X190236Y36787*X190748Y36574*X190918*X191430Y36787*X191770Y37212*X191941Y37849*Y38062*X191770Y38699*X191430Y39124*X190918Y39337*X190748*X190236Y39124*X189895Y38699*X189725Y38062*X194498Y41037D02*G01X193986Y40824D01*X193645Y40187*X193475Y39124*Y38487*X193645Y37424*X193986Y36787*X194498Y36574*X194839*X195350Y36787*X195691Y37424*X195861Y38487*Y39124*X195691Y40187*X195350Y40824*X194839Y41037*X194498*X197395Y40187D02*G01X197736Y40399D01*X198248Y41037*Y36574*X201998Y41037D02*G01X200293D01*X200123Y39124*X200293Y39337*X200805Y39549*X201316*X201827Y39337*X202168Y38912*X202339Y38274*X202168Y37849*X201998Y37212*X201657Y36787*X201145Y36574*X200634*X200123Y36787*X199952Y36999*X199782Y37424*X203873Y40187D02*G01X204214Y40399D01*X204725Y41037*Y36574*X206259Y40187D02*G01X206600Y40399D01*X207111Y41037*Y36574*X216486Y39549D02*G01Y37424D01*X216657Y36787*X216998Y36574*X217509*X217850Y36787*X218361Y37424*Y39549D02*G01Y36574D01*X220407Y41037D02*G01Y37424D01*X220577Y36787*X220918Y36574*X221259*X219895Y39549D02*G01X221089D01*X222793Y38274D02*G01X224839D01*Y38699*X224668Y39124*X224498Y39337*X224157Y39549*X223645*X223305Y39337*X222964Y38912*X222793Y38274*Y37849*X222964Y37212*X223305Y36787*X223645Y36574*X224157*X224498Y36787*X224839Y37212*X228418Y38912D02*G01X228077Y39337D01*X227736Y39549*X227225*X226884Y39337*X226543Y38912*X226373Y38274*Y37849*X226543Y37212*X226884Y36787*X227225Y36574*X227736*X228077Y36787*X228418Y37212*X232168Y36787D02*G01X231486D01*X230634Y36999*X230293Y37424*X229952Y38274*Y39337*X230293Y40399*X230634Y40824*X232168*X232680Y40399*X233020Y39762*X233191Y38699*X233020Y37849*X232850Y37637*X232168Y37424D02*G01X231998Y37637D01*Y39762*Y39337D02*G01X231657Y39549D01*X231316*X230975Y39337*X230805Y38912*Y38487*X230975Y38062*X231316Y37849*X231657*X231998Y38062*X232168Y37424D02*G01X232680D01*X232850Y37637*X235236Y41037D02*G01Y37424D01*X235407Y36787*X235748Y36574*X236089*X234725Y39549D02*G01X235918D01*X237623Y38274D02*G01X239668D01*Y38699*X239498Y39124*X239327Y39337*X238986Y39549*X238475*X238134Y39337*X237793Y38912*X237623Y38274*Y37849*X237793Y37212*X238134Y36787*X238475Y36574*X238986*X239327Y36787*X239668Y37212*X243248Y38912D02*G01X242907Y39337D01*X242566Y39549*X242055*X241714Y39337*X241373Y38912*X241202Y38274*Y37849*X241373Y37212*X241714Y36787*X242055Y36574*X242566*X242907Y36787*X243248Y37212*X244782Y39549D02*G01Y36574D01*Y38699D02*G01X245293Y39337D01*X245634Y39549*X246145*X246486Y39337*X246657Y38699*Y36574*X249043Y39549D02*G01X248702Y39337D01*X248361Y38912*X248191Y38274*Y37849*X248361Y37212*X248702Y36787*X249043Y36574*X249555*X249895Y36787*X250236Y37212*X250407Y37849*Y38274*X250236Y38912*X249895Y39337*X249555Y39549*X249043*X254327Y41037D02*G01X252623Y36574D01*X251941Y41037D02*G01X254327D01*X258248D02*G01X256543Y36574D01*X255861Y41037D02*G01X258248D01*X259952Y36999D02*G01X259782Y36787D01*X259952Y36574*X260123Y36787*X259952Y36999*X263702Y38912D02*G01X263361Y39337D01*X263020Y39549*X262509*X262168Y39337*X261827Y38912*X261657Y38274*Y37849*X261827Y37212*X262168Y36787*X262509Y36574*X263020*X263361Y36787*X263702Y37212*X266089Y39549D02*G01X265748Y39337D01*X265407Y38912*X265236Y38274*Y37849*X265407Y37212*X265748Y36787*X266089Y36574*X266600*X266941Y36787*X267282Y37212*X267452Y37849*Y38274*X267282Y38912*X266941Y39337*X266600Y39549*X266089*X268986D02*G01Y36574D01*Y38699D02*G01X269498Y39337D01*X269839Y39549*X270350*X270691Y39337*X270861Y38699*Y36574*Y38699D02*G01X271373Y39337D01*X271714Y39549*X272225*X272566Y39337*X272736Y38699*Y36574*X90516Y100350D02*G01X94650D01*X90516D02*G01Y101464D01*X90712Y101941*Y101941D02*G01X91106Y102259D01*X91500Y102418*X92091Y102577*X93075*X93666Y102418*X94059Y102259*X94453Y101941*X94650Y101464*Y100350*X90516Y104009D02*G01X94650D01*X90516D02*G01Y105441D01*X90712Y105918*Y105918D02*G01X90909Y106077D01*X91303Y106236*X91697*X92091Y106077*X92287Y105918*Y105918D02*G01X92484Y105441D01*Y104009*Y105123D02*G01X94650Y106236D01*X90516Y107668D02*G01X94650D01*X90516Y109100D02*G01X94650D01*Y111009*X90516Y112441D02*G01X94650D01*Y114350*X90516Y119441D02*G01X94650D01*X90516D02*G01Y120555D01*X90712Y121032*Y121032D02*G01X91106Y121350D01*X91500Y121509*X92091Y121668*X93075*X93666Y121509*X94059Y121350*X94453Y121032*X94650Y120555*Y119441*X90516Y123100D02*G01X94650D01*X90516D02*G01Y124532D01*X90712Y125009*Y125009D02*G01X90909Y125168D01*X91303Y125327*X91697*X92091Y125168*X92287Y125009*Y125009D02*G01X92484Y124532D01*Y123100*Y124214D02*G01X94650Y125327D01*X90516Y128032D02*G01X94650Y126759D01*X90516Y128032D02*G01X94650Y129305D01*X93272Y127236D02*G01Y128827D01*X90516Y130736D02*G01X94650Y131532D01*X90516Y132327D02*G01X94650Y131532D01*X90516Y132327D02*G01X94650Y133123D01*X90516Y133918D02*G01X94650Y133123D01*X90516Y135350D02*G01X94650D01*X90516Y136782D02*G01X94650D01*X90516D02*G01X94650Y139009D01*X90516D02*G01X94650D01*X91500Y142827D02*G01X91106Y142668D01*X90712Y142350*Y142350D02*G01X90516Y142032D01*Y141395*X90712Y141077*Y141077D02*G01X91106Y140759D01*X91500Y140600*X92091Y140441*X93075*X93666Y140600*X94059Y140759*X94453Y141077*X94650Y141395*Y142032*X94453Y142350*X94059Y142668*X93666Y142827*X93075*Y142032D02*G01Y142827D01*X104735Y9208D02*G01Y5074D01*Y9208D02*G01X106167D01*X106644Y9012*Y9012D02*G01X106803Y8815D01*X106962Y8421*Y7830*X106803Y7437*Y7437D02*G01X106644Y7240D01*X106167Y7043*X104735*X110780Y8224D02*G01X110621Y8618D01*X110303Y9012*Y9012D02*G01X109985Y9208D01*X109349*X109030Y9012*Y9012D02*G01X108712Y8618D01*X108553Y8224*X108394Y7633*Y6649*X108553Y6058*X108712Y5665*X109030Y5271*X109349Y5074*X109985*X110303Y5271*X110621Y5665*X110780Y6058*X112212Y9208D02*G01Y5074D01*Y9208D02*G01X113644D01*X114121Y9012*Y9012D02*G01X114280Y8815D01*X114440Y8421*Y8027*X114280Y7633*X114121Y7437*Y7437D02*G01X113644Y7240D01*X112212D02*G01X113644D01*X114121Y7043*X114280Y6846*X114440Y6452*Y5862*Y5862D02*G01X114280Y5468D01*X114121Y5271*X113644Y5074*X112212*X120644Y9208D02*G01Y5074D01*X119530Y9208D02*G01X121758D01*X123190D02*G01Y5074D01*X125417Y9208D02*G01Y5074D01*X123190Y7240D02*G01X125417D01*X126849Y9208D02*G01Y5074D01*X130667Y8224D02*G01X130508Y8618D01*X130190Y9012*Y9012D02*G01X129871Y9208D01*X129235*X128917Y9012*Y9012D02*G01X128599Y8618D01*X128440Y8224*X128280Y7633*Y6649*X128440Y6058*X128599Y5665*X128917Y5271*X129235Y5074*X129871*X130190Y5271*X130508Y5665*X130667Y6058*X132099Y9208D02*G01Y5074D01*X134326Y9208D02*G01X132099Y6452D01*X132894Y7437D02*G01X134326Y5074D01*X135758Y9208D02*G01Y5074D01*Y9208D02*G01X137985Y5074D01*Y9208D02*G01Y5074D01*X139417Y9208D02*G01Y5074D01*Y9208D02*G01X141485D01*X139417Y7240D02*G01X140690D01*X139417Y5074D02*G01X141485D01*X145144Y8618D02*G01X144826Y9012D01*Y9012D02*G01X144349Y9208D01*X143712*X143235Y9012*Y9012D02*G01X142917Y8618D01*Y8224*X143076Y7830*X143235Y7633*X143553Y7437*Y7437D02*G01X144508Y7043D01*X144826Y6846*X144985Y6649*X145144Y6255*Y5665*X144826Y5271*X144349Y5074*X143712*X143235Y5271*X142917Y5665*X148803Y8618D02*G01X148485Y9012D01*Y9012D02*G01X148008Y9208D01*X147371*X146894Y9012*Y9012D02*G01X146576Y8618D01*Y8224*X146735Y7830*X146894Y7633*X147212Y7437*Y7437D02*G01X148167Y7043D01*X148485Y6846*X148644Y6649*X148803Y6255*Y5665*X148485Y5271*X148008Y5074*X147371*X146894Y5271*X146576Y5665*X153894Y8421D02*G01X154212Y8618D01*X154690Y9208*Y5074*X156440Y5271D02*G01X156280Y5074D01*X156121Y5271*X156280Y5468*X156440Y5271*Y4877*X156280Y4483*X156121Y4286*X159780Y8618D02*G01X159621Y9012D01*Y9012D02*G01X159144Y9208D01*X158826*X158349Y9012*Y9012D02*G01X158030Y8421D01*X157871Y7437*Y7437D02*G01Y6452D01*X158030Y5665*X158349Y5271*X158826Y5074*X158985*X159462Y5271*X159780Y5665*X159940Y6255*Y6452*X159780Y7043*X159462Y7437*Y7437D02*G01X158985Y7633D01*X158826*X158349Y7437*Y7437D02*G01X158030Y7043D01*X157871Y6452*X165030Y7830D02*G01Y5074D01*Y7043D02*G01X165508Y7633D01*X165826Y7830*X166303*X166621Y7633*X166780Y7043*Y5074*Y7043D02*G01X167258Y7633D01*X167576Y7830*X168053*X168371Y7633*X168530Y7043*Y5074*X169962Y7830D02*G01Y5074D01*Y7043D02*G01X170440Y7633D01*X170758Y7830*X171235*X171553Y7633*X171712Y7043*Y5074*Y7043D02*G01X172190Y7633D01*X172508Y7830*X172985*X173303Y7633*X173462Y7043*Y5074*X180940Y8224D02*G01X180780Y8618D01*X180462Y9012*Y9012D02*G01X180144Y9208D01*X179508*X179190Y9012*Y9012D02*G01X178871Y8618D01*X178712Y8224*X178553Y7633*Y6649*X178712Y6058*X178871Y5665*X179190Y5271*X179508Y5074*X180144*X180462Y5271*X180780Y5665*X180940Y6058*X183326Y9208D02*G01X183008Y9012D01*Y9012D02*G01X182690Y8618D01*X182530Y8224*X182371Y7633*Y6649*X182530Y6058*X182690Y5665*X183008Y5271*X183326Y5074*X183962*X184280Y5271*X184599Y5665*X184758Y6058*X184917Y6649*Y7633*X184758Y8224*X184599Y8618*X184280Y9012*Y9012D02*G01X183962Y9208D01*X183326*X186349D02*G01Y5074D01*Y9208D02*G01X187780D01*X188258Y9012*Y9012D02*G01X188417Y8815D01*X188576Y8421*Y7830*X188417Y7437*Y7437D02*G01X188258Y7240D01*X187780Y7043*X186349*X190008Y9208D02*G01Y5074D01*Y9208D02*G01X191440D01*X191917Y9012*Y9012D02*G01X192076Y8815D01*X192235Y8421*Y7830*X192076Y7437*Y7437D02*G01X191917Y7240D01*X191440Y7043*X190008*X193667Y9208D02*G01Y5074D01*Y9208D02*G01X195735D01*X193667Y7240D02*G01X194940D01*X193667Y5074D02*G01X195735D01*X197167Y9208D02*G01Y5074D01*Y9208D02*G01X198599D01*X199076Y9012*Y9012D02*G01X199235Y8815D01*X199394Y8421*Y8027*X199235Y7633*X199076Y7437*Y7437D02*G01X198599Y7240D01*X197167*X198280D02*G01X199394Y5074D01*X204485Y9208D02*G01Y5074D01*Y9208D02*G01X206553D01*X204485Y7240D02*G01X205758D01*X204485Y5074D02*G01X206553D01*X210212Y8618D02*G01X209894Y9012D01*Y9012D02*G01X209417Y9208D01*X208780*X208303Y9012*Y9012D02*G01X207985Y8618D01*Y8224*X208144Y7830*X208303Y7633*X208621Y7437*Y7437D02*G01X209576Y7043D01*X209894Y6846*X210053Y6649*X210212Y6255*Y5665*X209894Y5271*X209417Y5074*X208780*X208303Y5271*X207985Y5665*X212758Y9208D02*G01Y5074D01*X211644Y9208D02*G01X213871D01*X215462Y5468D02*G01X215303Y5271D01*X215462Y5074*X215621Y5271*X215462Y5468*X221030Y9208D02*G01X222780D01*X221826Y7633*X222303*X222621Y7437*Y7437D02*G01X222780Y7240D01*X222940Y6649*Y6255*X222780Y5665*X222462Y5271*X221985Y5074*X221508*X221030Y5271*X220871Y5468*X220712Y5862*X226440Y9208D02*G01X224849D01*X224690Y7437*Y7437D02*G01X224849Y7633D01*X225326Y7830*X225803*X226280Y7633*X226599Y7240*X226758Y6649*X226599Y6255*X226440Y5665*X226121Y5271*X225644Y5074*X225167*X224690Y5271*X224530Y5468*X224371Y5862*X228190Y7830D02*G01Y5862D01*Y5862D02*G01X228349Y5271D01*X228667Y5074*X229144*X229462Y5271*X229940Y5862*Y7830D02*G01Y5074D01*X231371Y7830D02*G01Y5074D01*Y7043D02*G01X231849Y7633D01*X232167Y7830*X232644*X232962Y7633*X233121Y7043*Y5074*Y7043D02*G01X233599Y7633D01*X233917Y7830*X234394*X234712Y7633*X234871Y7043*Y5074*X242826Y9996D02*G01X239962Y3696D01*X247917Y9208D02*G01Y5074D01*X249349Y9208D02*G01Y5074D01*Y9208D02*G01X251576Y5074D01*Y9208D02*G01Y5074D01*X254121Y9208D02*G01Y5074D01*X253008Y9208D02*G01X255235D01*X256826Y5468D02*G01X256667Y5271D01*X256826Y5074*X256985Y5271*X256826Y5468*X262394Y9208D02*G01X264144D01*X263190Y7633*X263667*X263985Y7437*Y7437D02*G01X264144Y7240D01*X264303Y6649*Y6255*X264144Y5665*X263826Y5271*X263349Y5074*X262871*X262394Y5271*X262235Y5468*X262076Y5862*X267803Y9208D02*G01X266212D01*X266053Y7437*Y7437D02*G01X266212Y7633D01*X266690Y7830*X267167*X267644Y7633*X267962Y7240*X268121Y6649*X267962Y6255*X267803Y5665*X267485Y5271*X267008Y5074*X266530*X266053Y5271*X265894Y5468*X265735Y5862*X269553Y7830D02*G01Y5862D01*Y5862D02*G01X269712Y5271D01*X270030Y5074*X270508*X270826Y5271*X271303Y5862*Y7830D02*G01Y5074D01*X272735Y7830D02*G01Y5074D01*Y7043D02*G01X273212Y7633D01*X273530Y7830*X274008*X274326Y7633*X274485Y7043*Y5074*Y7043D02*G01X274962Y7633D01*X275280Y7830*X275758*X276076Y7633*X276235Y7043*Y5074*G54D26*X729921Y328346D02*G01X437620D01*X729921D02*G01X719921Y325846D01*Y330846*X729921Y328346*X100000D02*G01X392302D01*X100000D02*G01X110000Y330846D01*Y325846*X100000Y328346*X729921Y282165D02*G01Y333346D01*X100000Y282165D02*G01Y333346D01*X395802Y329878D02*G01X396256Y330159D01*X396938Y331003*Y325096*X401711Y330159D02*G01X401483Y330721D01*X400802Y331003*X400347*X399665Y330721*X399211Y329878*X398983Y328471*Y327065*X399211Y325940*X399665Y325378*X400347Y325096*X400574*X401256Y325378*X401711Y325940*X401938Y326784*Y327065*X401711Y327909*X401256Y328471*X400574Y328753*X400347*X399665Y328471*X399211Y327909*X398983Y327065*X405347Y331003D02*G01X404665Y330721D01*X404211Y329878*X403983Y328471*Y327628*X404211Y326221*X404665Y325378*X405347Y325096*X405802*X406483Y325378*X406938Y326221*X407165Y327628*Y328471*X406938Y329878*X406483Y330721*X405802Y331003*X405347*X409438Y325659D02*G01X409211Y325378D01*X409438Y325096*X409665Y325378*X409438Y325659*X413074Y331003D02*G01X412392Y330721D01*X411938Y329878*X411711Y328471*Y327628*X411938Y326221*X412392Y325378*X413074Y325096*X413529*X414211Y325378*X414665Y326221*X414892Y327628*Y328471*X414665Y329878*X414211Y330721*X413529Y331003*X413074*X418302D02*G01X417620Y330721D01*X417165Y329878*X416938Y328471*Y327628*X417165Y326221*X417620Y325378*X418302Y325096*X418756*X419438Y325378*X419892Y326221*X420120Y327628*Y328471*X419892Y329878*X419438Y330721*X418756Y331003*X418302*X422165Y329034D02*G01Y325096D01*Y327909D02*G01X422847Y328753D01*X423302Y329034*X423983*X424438Y328753*X424665Y327909*Y325096*Y327909D02*G01X425347Y328753D01*X425802Y329034*X426483*X426938Y328753*X427165Y327909*Y325096*X429211Y329034D02*G01Y325096D01*Y327909D02*G01X429892Y328753D01*X430347Y329034*X431029*X431483Y328753*X431711Y327909*Y325096*Y327909D02*G01X432392Y328753D01*X432847Y329034*X433529*X433983Y328753*X434211Y327909*Y325096*X745669Y100000D02*G01Y167174D01*Y100000D02*G01X743169Y110000D01*X748169*X745669Y100000*Y277165D02*G01Y209992D01*Y277165D02*G01X748169Y267165D01*X743169*X745669Y277165*X734921Y100000D02*G01X750669D01*X734921Y277165D02*G01X750669D01*X743013Y172946D02*G01X746951Y170674D01*Y174083*X743013Y172946D02*G01X748919D01*X743013Y179083D02*G01Y176810D01*X745544Y176583*X745263Y176810*X744982Y177492*Y178174*X745263Y178855*X745826Y179310*X746669Y179537*X747232Y179310*X748076Y179083*X748638Y178628*X748919Y177946*Y177264*X748638Y176583*X748357Y176355*X747794Y176128*X748357Y181810D02*G01X748638Y181583D01*X748919Y181810*X748638Y182037*X748357Y181810*X743013Y185446D02*G01X743294Y184764D01*X744138Y184310*X745544Y184083*X746388*X747794Y184310*X748638Y184764*X748919Y185446*Y185901*X748638Y186583*X747794Y187037*X746388Y187264*X745544*X744138Y187037*X743294Y186583*X743013Y185901*Y185446*Y190674D02*G01X743294Y189992D01*X744138Y189537*X745544Y189310*X746388*X747794Y189537*X748638Y189992*X748919Y190674*Y191128*X748638Y191810*X747794Y192264*X746388Y192492*X745544*X744138Y192264*X743294Y191810*X743013Y191128*Y190674*X744982Y194537D02*G01X748919D01*X746107D02*G01X745263Y195219D01*X744982Y195674*Y196355*X745263Y196810*X746107Y197037*X748919*X746107D02*G01X745263Y197719D01*X744982Y198174*Y198855*X745263Y199310*X746107Y199537*X748919*X744982Y201583D02*G01X748919D01*X746107D02*G01X745263Y202264D01*X744982Y202719*Y203401*X745263Y203855*X746107Y204083*X748919*X746107D02*G01X745263Y204764D01*X744982Y205219*Y205901*X745263Y206355*X746107Y206583*X748919*M02*