%FSLAX35Y35*%
%MOIN*%
%SFA1.000B1.000*%

G04 Copyright (c) 2015-2018 in2H2 inc.
G04 System developed for in2H2 inc. by Intermotion Technology, Inc.
G04 
G04 Full system RTL, C sources and board design files available at https://github.com/nearist
G04 
G04 in2H2 inc. Team Members:
G04 - Chris McCormick - Algorithm Research and Design
G04 - Matt McCormick - Board Production, System Q/A
G04 
G04 Intermotion Technology Inc. Team Members:
G04 - Mick Fandrich - Project Lead
G04 - Dr. Ludovico Minati - Board Architecture and Design, FPGA Technology Advisor
G04 - Vardan Movsisyan - RTL Team Lead
G04 - Khachatur Gyozalyan - RTL Design
G04 - Tigran Papazyan - RTL Design
G04 - Taron Harutyunyan - RTL Design
G04 - Hayk Ghaltaghchyan - System Software
G04 
G04 Tecno77 S.r.l. Team Members:
G04 - Stefano Aldrigo, Board Layout Design
G04 
G04 We dedicate this project to the memory of Bruce McCormick, an AI pioneer
G04 and advocate, a good friend and father.
G04 
G04 These materials are provided free of charge: you can redistribute them and/or modify  
G04 them under the terms of the GNU General Public License as published by  
G04 the Free Software Foundation, version 3.
G04 
G04 These materials are distributed in the hope that they will be useful, but 
G04 WITHOUT ANY WARRANTY; without even the implied warranty of 
G04 MERCHANTABILITY or FITNESS FOR A PARTICULAR PURPOSE. See the GNU 
G04 General Public License for more details.
G04 In particular, this design should be treated as UNVERIFIED and UNCERTIFIED
G04 
G04 You should have received a copy of the GNU General Public License 
G04 along with this design. If not, see <http://www.gnu.org/licenses/>.

%FSLAX35Y35*%
%MOIN*%
%SFA1.000B1.000*%

%MIA0B0*%
%IPPOS*%
%ADD11C,0.00800*%
%ADD15C,0.06500*%
%ADD19C,0.11000*%
%ADD21C,0.00984*%
%ADD23C,0.02362*%
%ADD25C,0.00700*%
%ADD44C,0.01378*%
%LNlayer3.gbr*%
%LPD*%
G54D15*X113307Y261417D03*X153150Y120591D03*X129370Y224921D03*X576969Y261417D03*X655709D03*X576969Y115748D03*X655709D03*G54D19*X367874Y267480D03*Y247480D03*X347874Y267480D03*Y247480D03*X320630Y267480D03*Y247480D03*X300630Y267480D03*Y247480D03*X273386Y267480D03*Y247480D03*X253386Y267480D03*Y247480D03*X226142Y267480D03*Y247480D03*X206142Y267480D03*Y247480D03*X556850Y267480D03*Y247480D03*X536850Y267480D03*Y247480D03*X509606Y267480D03*Y247480D03*X489606Y267480D03*Y247480D03*X462362Y267480D03*Y247480D03*X442362Y267480D03*Y247480D03*X415118Y267480D03*Y247480D03*X395118Y267480D03*Y247480D03*X536850Y109685D03*Y129685D03*X556850Y109685D03*Y129685D03*X489606Y109685D03*Y129685D03*X509606Y109685D03*Y129685D03*X442362Y109685D03*Y129685D03*X462362Y109685D03*Y129685D03*X395118Y109685D03*Y129685D03*X415118Y109685D03*Y129685D03*X347874Y109685D03*Y129685D03*X367874Y109685D03*Y129685D03*X300630Y109685D03*Y129685D03*X320630Y109685D03*Y129685D03*X253386Y109685D03*Y129685D03*X273386Y109685D03*Y129685D03*X206142Y109685D03*Y129685D03*X226142Y109685D03*Y129685D03*G54D21*X144370Y223818D03*X134370D03*G54D23*X637402Y124213D03*X716142D03*X581299Y139961D03*X632480Y146752D03*X665945Y139961D03*X717126Y146752D03*X582233Y155855D03*X592343Y166555D03*X666929Y156102D03*X676969Y166535D03*X133465Y169051D03*X153150Y180315D03*X164961D03*X184646D03*X204331Y169051D03*X208268D03*X231890D03*X243701D03*X255512D03*X271260D03*X164961Y196850D03*X555709Y207087D03*X582382Y207776D03*X574409Y207874D03*X606004Y207776D03*X598130D03*X590256D03*X621752D03*X613878D03*X668898Y197047D03*X717126Y203839D03*X133465Y208114D03*X184646D03*X204331D03*X208268D03*X231890D03*X243701D03*X255512D03*X271260D03*X666879Y212942D03*X676988Y223642D03*X168898Y234449D03*X109646Y251575D03*X145079D03*X637402Y252953D03*X716142D03*G54D11*X109941Y113682D02*G01Y108760D01*X107895*X106020Y113682D02*G01X104145D01*X105168Y111807*X104657*X104316Y111572*X104145Y111338*X103975Y110635*Y110166*X104145Y109463*X104486Y108994*X104998Y108760*X105509*X106020Y108994*X106191Y109229*X106361Y109697*X140000Y32224D02*G01Y12224D01*X180000Y32224D02*G01Y12224D01*X240000Y32224D02*G01Y12224D01*X100000Y47224D02*G01X280000D01*Y12224*X100000*Y47224*Y32224D02*G01X280000D01*X100000Y22224D02*G01X280000D01*X108491Y42662D02*G01Y36624D01*X106900Y42662D02*G01X110082D01*X112127D02*G01Y36624D01*Y42662D02*G01X115082D01*X112127Y39787D02*G01X113945D01*X112127Y36624D02*G01X115082D01*X120536Y41224D02*G01X120309Y41799D01*X119855Y42374*X119400Y42662*X118491*X118036Y42374*X117582Y41799*X117355Y41224*X117127Y40362*Y38924*X117355Y38062*X117582Y37487*X118036Y36912*X118491Y36624*X119400*X119855Y36912*X120309Y37487*X120536Y38062*X122582Y42662D02*G01Y36624D01*Y42662D02*G01X125764Y36624D01*Y42662D02*G01Y36624D01*X129173Y42662D02*G01X128718Y42374D01*X128264Y41799*X128036Y41224*X127809Y40362*Y38924*X128036Y38062*X128264Y37487*X128718Y36912*X129173Y36624*X130082*X130536Y36912*X130991Y37487*X131218Y38062*X131445Y38924*Y40362*X131218Y41224*X130991Y41799*X130536Y42374*X130082Y42662*X129173*X136673D02*G01X134400Y36624D01*X133491Y42662D02*G01X136673D01*X141900D02*G01X139627Y36624D01*X138718Y42662D02*G01X141900D01*G54D21*X726673Y124213D02*G75*G03X726673Y124213I-2657D01*Y252953D02*G03X726673Y252953I-2657D01*X719783Y170276D02*G03X719783Y170276I-2657D01*Y226969D02*G03X719783Y226969I-2657D01*X709744Y170276D02*G03X709744Y170276I-2657D01*X709449Y226969D02*G03X709449Y226969I-2658D01*X699705Y170276D02*G03X699705Y170276I-2658D01*X699606Y226969D02*G03X699606Y226969I-2657D01*X689665Y170276D02*G03X689665Y170276I-2657D01*Y226969D02*G03X689665Y226969I-2657D01*X669536Y162402D02*G03X669536Y162402I-2657D01*Y219342D02*G03X669536Y219342I-2657D01*X659154Y149606D02*G03X659154Y149606I-2658D01*X657776Y167323D02*G03X657776Y167323I-2658D01*Y224409D02*G03X657776Y224409I-2658D01*X647933Y124213D02*G03X647933Y124213I-2657D01*X644193Y212992D02*G03X644193Y212992I-2658D01*X647933Y252953D02*G03X647933Y252953I-2657D01*X634941Y170276D02*G03X634941Y170276I-2658D01*X624902D02*G03X624902Y170276I-2658D01*X625474Y216142D02*G03X625474Y216142I-3820D01*X615000Y170335D02*G03X615000Y170335I-2657D01*X612500Y233268D02*G03X612500Y233268I-2657D01*X605020Y170276D02*G03X605020Y170276I-2658D01*X604626Y233661D02*G03X604626Y233661I-2657D01*X596555Y233465D02*G03X596555Y233465I-2657D01*X584891Y162255D02*G03X584891Y162255I-2658D01*X586104Y216142D02*G03X586104Y216142I-3820D01*X588878Y233268D02*G03X588878Y233268I-2658D01*X573130Y167323D02*G03X573130Y167323I-2658D01*X557972Y225787D02*G03X557972Y225787I-2657D01*X327067Y188583D02*G03X327067Y188583I-2658D01*X321161D02*G03X321161Y188583I-2657D01*X283436D02*G03X283436Y188583I-3820D01*X266043Y168898D02*G03X266043Y168898I-2657D01*Y208268D02*G03X266043Y208268I-2657D01*X203051Y219882D02*G03X203051Y219882I-2657D01*X191240Y144094D02*G03X191240Y144094I-2657D01*X195177Y148425D02*G03X195177Y148425I-2657D01*X191240Y209055D02*G03X191240Y209055I-2657D01*X195177Y216929D02*G03X195177Y216929I-2657D01*X183366Y153150D02*G03X183366Y153150I-2657D01*X179429Y157087D02*G03X179429Y157087I-2657D01*X175492Y161024D02*G03X175492Y161024I-2657D01*X171555Y164961D02*G03X171555Y164961I-2657D01*X175492Y195866D02*G03X175492Y195866I-2657D01*X180217Y250197D02*G03X180217Y250197I-2658D01*X163681Y164173D02*G03X163681Y164173I-2657D01*X154626Y167717D02*G03X154626Y167717I-2657D01*X163681Y236417D02*G03X163681Y236417I-2657D01*X140059Y210039D02*G03X140059Y210039I-2657D01*X113180Y194835D02*G03X113180Y194835I-3820D01*X727461Y274705D02*G01X558309D01*X564220Y267480D02*G03X558309Y274705I-7370J1D01*X553320Y261011D02*G03X564220Y267480I3530J6469D01*X554220Y257480D02*G03X553319Y261011I-7370D01*X553320Y253950D02*G03X554220Y257480I-6470J3530D01*X564220Y247480D02*G03X553320Y253950I-7370J0D01*X549480Y247480D02*G03X564220Y247480I7370D01*X550381Y251011D02*G03X549480Y247480I6469J-3531D01*X543320Y251011D02*G03X550381Y251011I3530J6469D01*X544220Y247480D02*G03X543319Y251011I-7370D01*X529480Y247480D02*G03X544220Y247480I7370D01*X540381Y253950D02*G03X529480Y247480I-3531J-6470D01*X539480Y257480D02*G03X540381Y253950I7370D01*Y261011D02*G03X539480Y257480I6469J-3531D01*X529480Y267480D02*G03X540381Y261011I7370J0D01*X535392Y274705D02*G03X529480Y267480I1458J-7225D01*X535392Y274705D02*G01X511065D01*X516976Y267480D02*G03X511065Y274705I-7370J1D01*X506076Y261011D02*G03X516976Y267480I3530J6469D01*X506976Y257480D02*G03X506075Y261011I-7370D01*X506076Y253950D02*G03X506976Y257480I-6470J3530D01*X516976Y247480D02*G03X506076Y253950I-7370J0D01*X502236Y247480D02*G03X516976Y247480I7370D01*X503137Y251011D02*G03X502236Y247480I6469J-3531D01*X496076Y251011D02*G03X503137Y251011I3530J6469D01*X496976Y247480D02*G03X496075Y251011I-7370D01*X482236Y247480D02*G03X496976Y247480I7370D01*X493137Y253950D02*G03X482236Y247480I-3531J-6470D01*X492236Y257480D02*G03X493137Y253950I7370D01*Y261011D02*G03X492236Y257480I6469J-3531D01*X482236Y267480D02*G03X493137Y261011I7370J0D01*X488148Y274705D02*G03X482236Y267480I1458J-7225D01*X488148Y274705D02*G01X463820D01*X469732Y267480D02*G03X463820Y274705I-7370J0D01*X458832Y261011D02*G03X469732Y267480I3530J6469D01*X459732Y257480D02*G03X458831Y261011I-7370D01*X458832Y253950D02*G03X459732Y257480I-6470J3530D01*X469732Y247480D02*G03X458832Y253950I-7370J0D01*X454992Y247480D02*G03X469732Y247480I7370D01*X455893Y251011D02*G03X454992Y247480I6469J-3531D01*X448832Y251011D02*G03X455893Y251011I3530J6469D01*X449732Y247480D02*G03X448831Y251011I-7370D01*X434992Y247480D02*G03X449732Y247480I7370D01*X445893Y253950D02*G03X434992Y247480I-3531J-6470D01*X444992Y257480D02*G03X445893Y253950I7370D01*Y261011D02*G03X444992Y257480I6469J-3531D01*X434992Y267480D02*G03X445893Y261011I7370J0D01*X440904Y274705D02*G03X434992Y267480I1458J-7225D01*X440904Y274705D02*G01X416576D01*X422488Y267480D02*G03X416576Y274705I-7370J0D01*X411588Y261011D02*G03X422488Y267480I3530J6469D01*X412488Y257480D02*G03X411587Y261011I-7370D01*X411588Y253950D02*G03X412488Y257480I-6470J3530D01*X422488Y247480D02*G03X411588Y253950I-7370J0D01*X407748Y247480D02*G03X422488Y247480I7370D01*X408649Y251011D02*G03X407748Y247480I6469J-3531D01*X401588Y251011D02*G03X408649Y251011I3530J6469D01*X402488Y247480D02*G03X401587Y251011I-7370D01*X387748Y247480D02*G03X402488Y247480I7370D01*X398649Y253950D02*G03X387748Y247480I-3531J-6470D01*X397748Y257480D02*G03X398649Y253950I7370D01*Y261011D02*G03X397748Y257480I6469J-3531D01*X387748Y267480D02*G03X398649Y261011I7370J0D01*X393660Y274705D02*G03X387748Y267480I1458J-7225D01*X393660Y274705D02*G01X369332D01*X375244Y267480D02*G03X369332Y274705I-7370J0D01*X364343Y261011D02*G03X375244Y267480I3531J6469D01*X365244Y257480D02*G03X364343Y261011I-7370D01*Y253950D02*G03X365243Y257480I-6469J3530D01*X375244Y247480D02*G03X364343Y253950I-7370J0D01*X360504Y247480D02*G03X375244Y247480I7370D01*X361405Y251011D02*G03X360504Y247480I6469J-3531D01*X354343Y251011D02*G03X361405Y251011I3531J6469D01*X355244Y247480D02*G03X354343Y251011I-7370D01*X340504Y247480D02*G03X355244Y247480I7370D01*X351405Y253950D02*G03X340504Y247480I-3531J-6470D01*X350504Y257480D02*G03X351405Y253950I7370D01*Y261011D02*G03X350504Y257480I6469J-3531D01*X340504Y267480D02*G03X351405Y261011I7370J0D01*X346416Y274705D02*G03X340504Y267480I1458J-7225D01*X346416Y274705D02*G01X322088D01*X328000Y267480D02*G03X322088Y274705I-7370J0D01*X317099Y261011D02*G03X328000Y267480I3531J6469D01*X318000Y257480D02*G03X317099Y261011I-7370D01*Y253950D02*G03X317999Y257480I-6469J3530D01*X328000Y247480D02*G03X317099Y253950I-7370J0D01*X313260Y247480D02*G03X328000Y247480I7370D01*X314161Y251011D02*G03X313260Y247480I6469J-3531D01*X307099Y251011D02*G03X314161Y251011I3531J6469D01*X308000Y247480D02*G03X307099Y251011I-7370D01*X293260Y247480D02*G03X308000Y247480I7370D01*X304161Y253950D02*G03X293260Y247480I-3531J-6470D01*X303260Y257480D02*G03X304161Y253950I7370D01*Y261011D02*G03X303260Y257480I6469J-3531D01*X293260Y267480D02*G03X304161Y261011I7370J0D01*X299172Y274705D02*G03X293260Y267480I1458J-7225D01*X299172Y274705D02*G01X274844D01*X280756Y267480D02*G03X274844Y274705I-7370J0D01*X269855Y261011D02*G03X280756Y267480I3531J6469D01*X270756Y257480D02*G03X269855Y261011I-7370D01*Y253950D02*G03X270755Y257480I-6469J3530D01*X280756Y247480D02*G03X269855Y253950I-7370J0D01*X266016Y247480D02*G03X280756Y247480I7370D01*X266916Y251011D02*G03X266015Y247480I6470J-3531D01*X259855Y251011D02*G03X266916Y251011I3531J6469D01*X260756Y247480D02*G03X259855Y251011I-7370D01*X246016Y247480D02*G03X260756Y247480I7370D01*X256916Y253950D02*G03X246016Y247480I-3530J-6470D01*X256016Y257480D02*G03X256916Y253950I7370D01*Y261011D02*G03X256015Y257480I6470J-3531D01*X246016Y267480D02*G03X256916Y261011I7370J0D01*X251928Y274705D02*G03X246016Y267480I1458J-7225D01*X251928Y274705D02*G01X227600D01*X233512Y267480D02*G03X227600Y274705I-7370J0D01*X222611Y261011D02*G03X233512Y267480I3531J6469D01*X223512Y257480D02*G03X222611Y261011I-7370D01*Y253950D02*G03X223511Y257480I-6469J3530D01*X233512Y247480D02*G03X222611Y253950I-7370J0D01*X218772Y247480D02*G03X233512Y247480I7370D01*X219672Y251011D02*G03X218771Y247480I6470J-3531D01*X212611Y251011D02*G03X219672Y251011I3531J6469D01*X213512Y247480D02*G03X212611Y251011I-7370D01*X198772Y247480D02*G03X213512Y247480I7370D01*X209672Y253950D02*G03X198772Y247480I-3530J-6470D01*X208772Y257480D02*G03X209672Y253950I7370D01*Y261011D02*G03X208771Y257480I6470J-3531D01*X198772Y267480D02*G03X209672Y261011I7370J0D01*X204683Y274705D02*G03X198772Y267480I1459J-7224D01*X204683Y274705D02*G01X102463D01*Y127953*X112402*X112894Y127461D02*G03X112402Y127953I-492D01*X112894Y127461D02*G01Y102461D01*X204683*X198772Y109685D02*G03X204683Y102461I7370J0D01*X209672Y116154D02*G03X198772Y109685I-3530J-6469D01*X208772Y119685D02*G03X209673Y116154I7370D01*X209672Y123216D02*G03X208771Y119685I6470J-3531D01*X198772Y129685D02*G03X209672Y123216I7370J0D01*X213512Y129685D02*G03X198772Y129685I-7370D01*X212611Y126154D02*G03X213512Y129685I-6469J3531D01*X219672Y126154D02*G03X212611Y126154I-3530J-6469D01*X218772Y129685D02*G03X219673Y126154I7370D01*X233512Y129685D02*G03X218772Y129685I-7370D01*X222611Y123216D02*G03X233512Y129685I3531J6469D01*X223512Y119685D02*G03X222611Y123216I-7370D01*Y116154D02*G03X223512Y119685I-6469J3531D01*X233512Y109685D02*G03X222611Y116154I-7370J0D01*X227600Y102461D02*G03X233512Y109685I-1458J7224D01*X227600Y102461D02*G01X251928D01*X246016Y109685D02*G03X251928Y102461I7370J0D01*X256916Y116154D02*G03X246016Y109685I-3530J-6469D01*X256016Y119685D02*G03X256917Y116154I7370D01*X256916Y123216D02*G03X256015Y119685I6470J-3531D01*X246016Y129685D02*G03X256916Y123216I7370J0D01*X260756Y129685D02*G03X246016Y129685I-7370D01*X259855Y126154D02*G03X260756Y129685I-6469J3531D01*X266916Y126154D02*G03X259855Y126154I-3530J-6469D01*X266016Y129685D02*G03X266917Y126154I7370D01*X280756Y129685D02*G03X266016Y129685I-7370D01*X269855Y123216D02*G03X280756Y129685I3531J6469D01*X270756Y119685D02*G03X269855Y123216I-7370D01*Y116154D02*G03X270756Y119685I-6469J3531D01*X280756Y109685D02*G03X269855Y116154I-7370J0D01*X274844Y102461D02*G03X280756Y109685I-1458J7224D01*X274844Y102461D02*G01X299172D01*X293260Y109685D02*G03X299172Y102461I7370J0D01*X304161Y116154D02*G03X293260Y109685I-3531J-6469D01*X303260Y119685D02*G03X304161Y116154I7370D01*Y123216D02*G03X303260Y119685I6469J-3531D01*X293260Y129685D02*G03X304161Y123216I7370J0D01*X308000Y129685D02*G03X293260Y129685I-7370D01*X307099Y126154D02*G03X308000Y129685I-6469J3531D01*X314161Y126154D02*G03X307099Y126154I-3531J-6469D01*X313260Y129685D02*G03X314161Y126154I7370D01*X328000Y129685D02*G03X313260Y129685I-7370D01*X317099Y123216D02*G03X328000Y129685I3531J6469D01*X318000Y119685D02*G03X317099Y123216I-7370D01*Y116154D02*G03X318000Y119685I-6469J3531D01*X328000Y109685D02*G03X317099Y116154I-7370J0D01*X322088Y102461D02*G03X328000Y109685I-1458J7224D01*X322088Y102461D02*G01X346416D01*X340504Y109685D02*G03X346416Y102461I7370J0D01*X351405Y116154D02*G03X340504Y109685I-3531J-6469D01*X350504Y119685D02*G03X351405Y116154I7370D01*Y123216D02*G03X350504Y119685I6469J-3531D01*X340504Y129685D02*G03X351405Y123216I7370J0D01*X355244Y129685D02*G03X340504Y129685I-7370D01*X354343Y126154D02*G03X355244Y129685I-6469J3531D01*X361405Y126154D02*G03X354343Y126154I-3531J-6469D01*X360504Y129685D02*G03X361405Y126154I7370D01*X375244Y129685D02*G03X360504Y129685I-7370D01*X364343Y123216D02*G03X375244Y129685I3531J6469D01*X365244Y119685D02*G03X364343Y123216I-7370D01*Y116154D02*G03X365244Y119685I-6469J3531D01*X375244Y109685D02*G03X364343Y116154I-7370J0D01*X369332Y102461D02*G03X375244Y109685I-1458J7224D01*X369332Y102461D02*G01X393660D01*X387748Y109685D02*G03X393660Y102461I7370J0D01*X398649Y116154D02*G03X387748Y109685I-3531J-6469D01*X397748Y119685D02*G03X398649Y116154I7370D01*Y123216D02*G03X397748Y119685I6469J-3531D01*X387748Y129685D02*G03X398649Y123216I7370J0D01*X402488Y129685D02*G03X387748Y129685I-7370D01*X401588Y126154D02*G03X402489Y129685I-6470J3531D01*X408649Y126154D02*G03X401588Y126154I-3531J-6469D01*X407748Y129685D02*G03X408649Y126154I7370D01*X422488Y129685D02*G03X407748Y129685I-7370D01*X411588Y123216D02*G03X422488Y129685I3530J6469D01*X412488Y119685D02*G03X411587Y123216I-7370D01*X411588Y116154D02*G03X412489Y119685I-6470J3531D01*X422488Y109685D02*G03X411588Y116154I-7370J0D01*X416576Y102461D02*G03X422488Y109685I-1458J7224D01*X416576Y102461D02*G01X440904D01*X434992Y109685D02*G03X440904Y102461I7370J0D01*X445893Y116154D02*G03X434992Y109685I-3531J-6469D01*X444992Y119685D02*G03X445893Y116154I7370D01*Y123216D02*G03X444992Y119685I6469J-3531D01*X434992Y129685D02*G03X445893Y123216I7370J0D01*X449732Y129685D02*G03X434992Y129685I-7370D01*X448832Y126154D02*G03X449733Y129685I-6470J3531D01*X455893Y126154D02*G03X448832Y126154I-3531J-6469D01*X454992Y129685D02*G03X455893Y126154I7370D01*X469732Y129685D02*G03X454992Y129685I-7370D01*X458832Y123216D02*G03X469732Y129685I3530J6469D01*X459732Y119685D02*G03X458831Y123216I-7370D01*X458832Y116154D02*G03X459733Y119685I-6470J3531D01*X469732Y109685D02*G03X458832Y116154I-7370J0D01*X463820Y102461D02*G03X469732Y109685I-1458J7224D01*X463820Y102461D02*G01X488148D01*X482236Y109685D02*G03X488148Y102461I7370J0D01*X493137Y116154D02*G03X482236Y109685I-3531J-6469D01*X492236Y119685D02*G03X493137Y116154I7370D01*Y123216D02*G03X492236Y119685I6469J-3531D01*X482236Y129685D02*G03X493137Y123216I7370J0D01*X496976Y129685D02*G03X482236Y129685I-7370D01*X496076Y126154D02*G03X496977Y129685I-6470J3531D01*X503137Y126154D02*G03X496076Y126154I-3531J-6469D01*X502236Y129685D02*G03X503137Y126154I7370D01*X516976Y129685D02*G03X502236Y129685I-7370D01*X506076Y123216D02*G03X516976Y129685I3530J6469D01*X506976Y119685D02*G03X506075Y123216I-7370D01*X506076Y116154D02*G03X506977Y119685I-6470J3531D01*X516976Y109685D02*G03X506076Y116154I-7370J0D01*X511065Y102461D02*G03X516976Y109685I-1459J7224D01*X511065Y102461D02*G01X535392D01*X529480Y109685D02*G03X535392Y102461I7370J0D01*X540381Y116154D02*G03X529480Y109685I-3531J-6469D01*X539480Y119685D02*G03X540381Y116154I7370D01*Y123216D02*G03X539480Y119685I6469J-3531D01*X529480Y129685D02*G03X540381Y123216I7370J0D01*X544220Y129685D02*G03X529480Y129685I-7370D01*X543320Y126154D02*G03X544221Y129685I-6470J3531D01*X550381Y126154D02*G03X543320Y126154I-3531J-6469D01*X549480Y129685D02*G03X550381Y126154I7370D01*X564220Y129685D02*G03X549480Y129685I-7370D01*X553320Y123216D02*G03X564220Y129685I3530J6469D01*X554220Y119685D02*G03X553319Y123216I-7370D01*X553320Y116154D02*G03X554221Y119685I-6470J3531D01*X564220Y109685D02*G03X553320Y116154I-7370J0D01*X558309Y102461D02*G03X564220Y109685I-1459J7224D01*X558309Y102461D02*G01X727461D01*Y274705*X726673Y124213D02*G03X726673Y124213I-2657D01*Y252953D02*G03X726673Y252953I-2657D01*X719783Y170276D02*G03X719783Y170276I-2657D01*Y226969D02*G03X719783Y226969I-2657D01*X700709Y114646D02*G03X710829Y115748I5000J1102D01*X690709Y114646D02*G03X700709Y114646I5000J1102D01*X680709D02*G03X690709Y114646I5000J1102D01*X670709D02*G03X680709Y114646I5000J1102D01*X660709D02*G03X670709Y114646I5000J1102D01*X650589Y115748D02*G03X660709Y114646I5120D01*Y116850D02*G03X650589Y115748I-5000J-1102D01*X670709Y116850D02*G03X660709Y116850I-5000J-1102D01*X680709D02*G03X670709Y116850I-5000J-1102D01*X690709D02*G03X680709Y116850I-5000J-1102D01*X700709D02*G03X690709Y116850I-5000J-1102D01*X710829Y115748D02*G03X700709Y116850I-5120D01*X709744Y170276D02*G03X709744Y170276I-2657D01*X709449Y226969D02*G03X709449Y226969I-2658D01*X699705Y170276D02*G03X699705Y170276I-2658D01*X699606Y226969D02*G03X699606Y226969I-2657D01*X689665Y170276D02*G03X689665Y170276I-2657D01*Y226969D02*G03X689665Y226969I-2657D01*X669536Y162402D02*G03X669536Y162402I-2657D01*Y219342D02*G03X669536Y219342I-2657D01*X659154Y149606D02*G03X659154Y149606I-2658D01*X657776Y167323D02*G03X657776Y167323I-2658D01*Y224409D02*G03X657776Y224409I-2658D01*X700709Y260315D02*G03X710829Y261417I5000J1102D01*X690709Y260315D02*G03X700709Y260315I5000J1102D01*X680709D02*G03X690709Y260315I5000J1102D01*X670709D02*G03X680709Y260315I5000J1102D01*X660709D02*G03X670709Y260315I5000J1102D01*X650589Y261417D02*G03X660709Y260315I5120D01*Y262520D02*G03X650589Y261417I-5000J-1103D01*X670709Y262520D02*G03X660709Y262520I-5000J-1103D01*X680709D02*G03X670709Y262520I-5000J-1103D01*X690709D02*G03X680709Y262520I-5000J-1103D01*X700709D02*G03X690709Y262520I-5000J-1103D01*X710829Y261417D02*G03X700709Y262520I-5120J0D01*X647933Y124213D02*G03X647933Y124213I-2657D01*X644193Y212992D02*G03X644193Y212992I-2658D01*X647933Y252953D02*G03X647933Y252953I-2657D01*X621969Y114646D02*G03X632089Y115748I5000J1102D01*X611969Y114646D02*G03X621969Y114646I5000J1102D01*X601969D02*G03X611969Y114646I5000J1102D01*X591969D02*G03X601969Y114646I5000J1102D01*X581969D02*G03X591969Y114646I5000J1102D01*X571848Y115748D02*G03X581969Y114646I5120J0D01*Y116850D02*G03X571848Y115748I-5000J-1102D01*X591969Y116850D02*G03X581969Y116850I-5000J-1102D01*X601969D02*G03X591969Y116850I-5000J-1102D01*X611969D02*G03X601969Y116850I-5000J-1102D01*X621969D02*G03X611969Y116850I-5000J-1102D01*X632089Y115748D02*G03X621969Y116850I-5120D01*X634941Y170276D02*G03X634941Y170276I-2658D01*X624902D02*G03X624902Y170276I-2658D01*X625474Y216142D02*G03X625474Y216142I-3820D01*X615000Y170335D02*G03X615000Y170335I-2657D01*X612500Y233268D02*G03X612500Y233268I-2657D01*X605020Y170276D02*G03X605020Y170276I-2658D01*X604626Y233661D02*G03X604626Y233661I-2657D01*X596555Y233465D02*G03X596555Y233465I-2657D01*X584891Y162255D02*G03X584891Y162255I-2658D01*X586104Y216142D02*G03X586104Y216142I-3820D01*X588878Y233268D02*G03X588878Y233268I-2658D01*X573130Y167323D02*G03X573130Y167323I-2658D01*X621969Y260315D02*G03X632089Y261417I5000J1102D01*X611969Y260315D02*G03X621969Y260315I5000J1102D01*X601969D02*G03X611969Y260315I5000J1102D01*X591969D02*G03X601969Y260315I5000J1102D01*X581969D02*G03X591969Y260315I5000J1102D01*X571848Y261417D02*G03X581969Y260315I5120J0D01*Y262520D02*G03X571848Y261417I-5000J-1103D01*X591969Y262520D02*G03X581969Y262520I-5000J-1103D01*X601969D02*G03X591969Y262520I-5000J-1103D01*X611969D02*G03X601969Y262520I-5000J-1103D01*X621969D02*G03X611969Y262520I-5000J-1103D01*X632089Y261417D02*G03X621969Y262520I-5120J0D01*X557972Y225787D02*G03X557972Y225787I-2657D01*X327067Y188583D02*G03X327067Y188583I-2658D01*X321161D02*G03X321161Y188583I-2657D01*X310138Y187579D02*G03X315256Y188583I2460J1004D01*X305020D02*G03X310138Y187579I2657J0D01*Y189586D02*G03X305020Y188583I-2461J-1003D01*X315256D02*G03X310138Y189586I-2657J0D01*X283436Y188583D02*G03X283436Y188583I-3820D01*X266043Y168898D02*G03X266043Y168898I-2657D01*Y208268D02*G03X266043Y208268I-2657D01*X203051Y219882D02*G03X203051Y219882I-2657D01*X191240Y144094D02*G03X191240Y144094I-2657D01*X195177Y148425D02*G03X195177Y148425I-2657D01*X191240Y209055D02*G03X191240Y209055I-2657D01*X195177Y216929D02*G03X195177Y216929I-2657D01*X174252Y125591D02*G03X178270Y130591I-1102J5000D01*Y120591D02*G03X174252Y125591I-5120D01*X168150Y119488D02*G03X178270Y120591I5000J1103D01*X158150Y119488D02*G03X168150Y119488I5000J1103D01*X148150D02*G03X158150Y119488I5000J1103D01*X138150D02*G03X148150Y119488I5000J1103D01*X128030Y120591D02*G03X138150Y119488I5120J0D01*X132047Y125591D02*G03X128030Y120591I1103J-5000D01*Y130591D02*G03X132047Y125591I5120J0D01*X138150Y131693D02*G03X128030Y130591I-5000J-1102D01*X148150Y131693D02*G03X138150Y131693I-5000J-1102D01*X158150D02*G03X148150Y131693I-5000J-1102D01*X168150D02*G03X158150Y131693I-5000J-1102D01*X178270Y130591D02*G03X168150Y131693I-5120D01*X183366Y153150D02*G03X183366Y153150I-2657D01*X179429Y157087D02*G03X179429Y157087I-2657D01*X175492Y161024D02*G03X175492Y161024I-2657D01*X171555Y164961D02*G03X171555Y164961I-2657D01*X175492Y195866D02*G03X175492Y195866I-2657D01*X180217Y250197D02*G03X180217Y250197I-2658D01*X163681Y164173D02*G03X163681Y164173I-2657D01*X154626Y167717D02*G03X154626Y167717I-2657D01*X159055Y207860D02*G03X163681Y209646I1968J1786D01*X154429D02*G03X159055Y207860I2658J0D01*Y211431D02*G03X154429Y209646I-1969J-1785D01*X163681D02*G03X159055Y211431I-2657J0D01*X163681Y236417D02*G03X163681Y236417I-2657D01*X139370Y180695D02*G03X143996Y182480I1969J1785D01*X134744D02*G03X139370Y180695I2657J0D01*Y184266D02*G03X134744Y182480I-1968J-1786D01*X143996D02*G03X139370Y184266I-2658J0D01*X140059Y210039D02*G03X140059Y210039I-2657D01*X127376Y182677D02*G03X128249Y184646I-1785J1969D01*X128248Y180709D02*G03X127376Y182677I-2657D01*X122933Y180709D02*G03X128249Y180709I2658D01*X123805Y182677D02*G03X122933Y180709I1786J-1968D01*Y184646D02*G03X123805Y182677I2658D01*X128248Y184646D02*G03X122934Y184646I-2657D01*X127376Y194488D02*G03X128249Y196457I-1785J1969D01*X128248Y192520D02*G03X127376Y194488I-2657D01*X122933Y192520D02*G03X128249Y192520I2658D01*X123805Y194488D02*G03X122933Y192520I1786J-1968D01*Y196457D02*G03X123805Y194488I2658D01*X128248Y196457D02*G03X122934Y196457I-2657D01*X150473Y229921D02*G03X154490Y234921I-1103J5000D01*Y224921D02*G03X150473Y229921I-5120J0D01*X144370Y223819D02*G03X154490Y224921I5000J1102D01*X134370Y223819D02*G03X144370Y223819I5000J1102D01*X124250Y224921D02*G03X134370Y223819I5120D01*X128268Y229921D02*G03X124250Y224921I1102J-5000D01*Y234921D02*G03X128268Y229921I5120D01*X134370Y236024D02*G03X124250Y234921I-5000J-1103D01*X144370Y236024D02*G03X134370Y236024I-5000J-1103D01*X154490Y234921D02*G03X144370Y236024I-5120J0D01*X119502Y182677D02*G03X120375Y184646I-1785J1969D01*X120374Y180709D02*G03X119502Y182677I-2657D01*X115059Y180709D02*G03X120375Y180709I2658D01*X115931Y182677D02*G03X115059Y180709I1786J-1968D01*Y184646D02*G03X115931Y182677I2658D01*X120374Y184646D02*G03X115060Y184646I-2657D01*X119502Y194488D02*G03X120375Y196457I-1785J1969D01*X120374Y192520D02*G03X119502Y194488I-2657D01*X115059Y192520D02*G03X120375Y192520I2658D01*X115931Y194488D02*G03X115059Y192520I1786J-1968D01*Y196457D02*G03X115931Y194488I2658D01*X120374Y196457D02*G03X115060Y196457I-2657D01*X113180Y194835D02*G03X113180Y194835I-3820D01*X168307Y260315D02*G03X178427Y261417I5000J1102D01*X158307Y260315D02*G03X168307Y260315I5000J1102D01*X148307D02*G03X158307Y260315I5000J1102D01*X138307D02*G03X148307Y260315I5000J1102D01*X128307D02*G03X138307Y260315I5000J1102D01*X118307D02*G03X128307Y260315I5000J1102D01*X108187Y261417D02*G03X118307Y260315I5120D01*Y262520D02*G03X108187Y261417I-5000J-1103D01*X128307Y262520D02*G03X118307Y262520I-5000J-1103D01*X138307D02*G03X128307Y262520I-5000J-1103D01*X148307D02*G03X138307Y262520I-5000J-1103D01*X158307D02*G03X148307Y262520I-5000J-1103D01*X168307D02*G03X158307Y262520I-5000J-1103D01*X178427Y261417D02*G03X168307Y262520I-5120J0D01*X559621Y274310D02*G01X727461D01*X561208Y273424D02*G01X727461D01*X562211Y272538D02*G01X727461D01*X562926Y271652D02*G01X727461D01*X563447Y270766D02*G01X727461D01*X563819Y269881D02*G01X727461D01*X564063Y268995D02*G01X727461D01*X564194Y268109D02*G01X727461D01*X564216Y267223D02*G01X727461D01*X707126Y266337D02*G01X727461D01*X708862Y265451D02*G01X727461D01*X709746Y264566D02*G01X727461D01*X710302Y263680D02*G01X727461D01*X710640Y262794D02*G01X727461D01*X710805Y261908D02*G01X727461D01*X710814Y261022D02*G01X727461D01*X710666Y260137D02*G01X727461D01*X710348Y259251D02*G01X727461D01*X709819Y258365D02*G01X727461D01*X708981Y257479D02*G01X727461D01*X707424Y256593D02*G01X727461D01*X554004Y255707D02*G01X727461D01*X725905Y254822D02*G01X727461D01*X726485Y253936D02*G01X727461D01*X726671Y253050D02*G01X727461D01*X726554Y252164D02*G01X727461D01*X726079Y251278D02*G01X727461D01*X724728Y250392D02*G01X727461D01*X563936Y249507D02*G01X727461D01*X564132Y248621D02*G01X727461D01*X564216Y247735D02*G01X727461D01*X564193Y246849D02*G01X727461D01*X564063Y245963D02*G01X727461D01*X563818Y245077D02*G01X727461D01*X563446Y244192D02*G01X727461D01*X562924Y243306D02*G01X727461D01*X562209Y242420D02*G01X727461D01*X561205Y241534D02*G01X727461D01*X559615Y240648D02*G01X727461D01*X151037Y239762D02*G01X727461D01*X162031Y238877D02*G01X727461D01*X163165Y237991D02*G01X727461D01*X163591Y237105D02*G01X727461D01*X602690Y236219D02*G01X727461D01*X611514Y235333D02*G01X727461D01*X612224Y234448D02*G01X727461D01*X612484Y233562D02*G01X727461D01*X612433Y232676D02*G01X727461D01*X612051Y231790D02*G01X727461D01*X611058Y230904D02*G01X727461D01*X150846Y230018D02*G01X727461D01*X718668Y229133D02*G01X727461D01*X719456Y228247D02*G01X727461D01*X719754Y227361D02*G01X727461D01*X719737Y226475D02*G01X727461D01*X719398Y225589D02*G01X727461D01*X718516Y224703D02*G01X727461D01*X657709Y223818D02*G01X727461D01*X657327Y222932D02*G01X727461D01*X656333Y222046D02*G01X727461D01*X668817Y221160D02*G01X727461D01*X669367Y220274D02*G01X727461D01*X669536Y219388D02*G01X727461D01*X669400Y218503D02*G01X727461D01*X668900Y217617D02*G01X727461D01*X667375Y216731D02*G01X727461D01*X625463Y215845D02*G01X727461D01*X643322Y214959D02*G01X727461D01*X643963Y214074D02*G01X727461D01*X644186Y213188D02*G01X727461D01*X644102Y212302D02*G01X727461D01*X643675Y211416D02*G01X727461D01*X642536Y210530D02*G01X727461D01*X265659Y209644D02*G01X727461D01*X265998Y208759D02*G01X727461D01*X266014Y207873D02*G01X727461D01*X265714Y206987D02*G01X727461D01*X264925Y206101D02*G01X727461D01*X102463Y205215D02*G01X727461D01*X102463Y204329D02*G01X727461D01*X102463Y203444D02*G01X727461D01*X102463Y202558D02*G01X727461D01*X102463Y201672D02*G01X727461D01*X102463Y200786D02*G01X727461D01*X102463Y199900D02*G01X727461D01*X126312Y199014D02*G01X727461D01*X174229Y198129D02*G01X727461D01*X175108Y197243D02*G01X727461D01*X175446Y196357D02*G01X727461D01*X175463Y195471D02*G01X727461D01*X175163Y194585D02*G01X727461D01*X174373Y193699D02*G01X727461D01*X128232Y192814D02*G01X727461D01*X281461Y191928D02*G01X727461D01*X325416Y191042D02*G01X727461D01*X326551Y190156D02*G01X727461D01*X326976Y189270D02*G01X727461D01*X327060Y188385D02*G01X727461D01*X326836Y187499D02*G01X727461D01*X326193Y186613D02*G01X727461D01*X282154Y185727D02*G01X727461D01*X280387Y184841D02*G01X727461D01*X143549Y183955D02*G01X727461D01*X143930Y183070D02*G01X727461D01*X143979Y182184D02*G01X727461D01*X143719Y181298D02*G01X727461D01*X143007Y180412D02*G01X727461D01*X127971Y179526D02*G01X727461D01*X127259Y178640D02*G01X727461D01*X102463Y177755D02*G01X727461D01*X102463Y176869D02*G01X727461D01*X102463Y175983D02*G01X727461D01*X102463Y175097D02*G01X727461D01*X102463Y174211D02*G01X727461D01*X102463Y173325D02*G01X727461D01*X718668Y172440D02*G01X727461D01*X719456Y171554D02*G01X727461D01*X719754Y170668D02*G01X727461D01*X719737Y169782D02*G01X727461D01*X719398Y168896D02*G01X727461D01*X718516Y168011D02*G01X727461D01*X657768Y167125D02*G01X727461D01*X657544Y166239D02*G01X727461D01*X656902Y165353D02*G01X727461D01*X668551Y164467D02*G01X727461D01*X669260Y163581D02*G01X727461D01*X669520Y162696D02*G01X727461D01*X669469Y161810D02*G01X727461D01*X669088Y160924D02*G01X727461D01*X668094Y160038D02*G01X727461D01*X178444Y159152D02*G01X727461D01*X179153Y158266D02*G01X727461D01*X179413Y157381D02*G01X727461D01*X179362Y156495D02*G01X727461D01*X181716Y155609D02*G01X727461D01*X182850Y154723D02*G01X727461D01*X183276Y153837D02*G01X727461D01*X183359Y152951D02*G01X727461D01*X657503Y152066D02*G01X727461D01*X658638Y151180D02*G01X727461D01*X659063Y150294D02*G01X727461D01*X659146Y149408D02*G01X727461D01*X658922Y148522D02*G01X727461D01*X658280Y147637D02*G01X727461D01*X194583Y146751D02*G01X727461D01*X193232Y145865D02*G01X727461D01*X191089Y144979D02*G01X727461D01*X191240Y144093D02*G01X727461D01*X191088Y143207D02*G01X727461D01*X190562Y142322D02*G01X727461D01*X102463Y141436D02*G01X727461D01*X102463Y140550D02*G01X727461D01*X102463Y139664D02*G01X727461D01*X102463Y138778D02*G01X727461D01*X102463Y137892D02*G01X727461D01*X557695Y137007D02*G01X727461D01*X560442Y136121D02*G01X727461D01*X561700Y135235D02*G01X727461D01*X562557Y134349D02*G01X727461D01*X563178Y133463D02*G01X727461D01*X563629Y132577D02*G01X727461D01*X563942Y131692D02*G01X727461D01*X564135Y130806D02*G01X727461D01*X564217Y129920D02*G01X727461D01*X564192Y129034D02*G01X727461D01*X564059Y128148D02*G01X727461D01*X563811Y127262D02*G01X727461D01*X725558Y126377D02*G01X727461D01*X726346Y125491D02*G01X727461D01*X726644Y124605D02*G01X727461D01*X726627Y123719D02*G01X727461D01*X726287Y122833D02*G01X727461D01*X725406Y121948D02*G01X727461D01*X554091Y121062D02*G01X727461D01*X708280Y120176D02*G01X727461D01*X709406Y119290D02*G01X727461D01*X710086Y118404D02*G01X727461D01*X710513Y117518D02*G01X727461D01*X710752Y116633D02*G01X727461D01*X710829Y115747D02*G01X727461D01*X710751Y114861D02*G01X727461D01*X710512Y113975D02*G01X727461D01*X710084Y113089D02*G01X727461D01*X709403Y112203D02*G01X727461D01*X708275Y111318D02*G01X727461D01*X564183Y110432D02*G01X727461D01*X564219Y109546D02*G01X727461D01*X564149Y108660D02*G01X727461D01*X563969Y107774D02*G01X727461D01*X563669Y106888D02*G01X727461D01*X563235Y106003D02*G01X727461D01*X562634Y105117D02*G01X727461D01*X561807Y104231D02*G01X727461D01*X560609Y103345D02*G01X727461D01*X645988Y250392D02*G01X723304D01*X646665Y121948D02*G01X722626D01*X646818Y126377D02*G01X722473D01*X647165Y254822D02*G01X722126D01*X647339Y251278D02*G01X721952D01*X647547Y122833D02*G01X721744D01*X647605Y125491D02*G01X721686D01*X647745Y253936D02*G01X721547D01*X647813Y252164D02*G01X721478D01*X647887Y123719D02*G01X721404D01*X647904Y124605D02*G01X721387D01*X647931Y253050D02*G01X721360D01*X708181Y224703D02*G01X715736D01*X708476Y168011D02*G01X715736D01*X708334Y229133D02*G01X715584D01*X708629Y172440D02*G01X715584D01*X709063Y225589D02*G01X714854D01*X709358Y168896D02*G01X714854D01*X709121Y228247D02*G01X714796D01*X709417Y171554D02*G01X714796D01*X709403Y226475D02*G01X714515D01*X709698Y169782D02*G01X714515D01*X709420Y227361D02*G01X714498D01*X709715Y170668D02*G01X714498D01*X698437Y168011D02*G01X705697D01*X698590Y172440D02*G01X705544D01*X698339Y224703D02*G01X705401D01*X698491Y229133D02*G01X705249D01*X699319Y168896D02*G01X704815D01*X699377Y171554D02*G01X704757D01*X699220Y225589D02*G01X704520D01*X699659Y169782D02*G01X704475D01*X699279Y228247D02*G01X704461D01*X699676Y170668D02*G01X704458D01*X697126Y266337D02*G01X704291D01*X699560Y226475D02*G01X704180D01*X699577Y227361D02*G01X704163D01*X697424Y256593D02*G01X703993D01*X698275Y111318D02*G01X703142D01*X698280Y120176D02*G01X703138D01*X698862Y265451D02*G01X702556D01*X698981Y257479D02*G01X702437D01*X699403Y112203D02*G01X702014D01*X699406Y119290D02*G01X702011D01*X699746Y264566D02*G01X701671D01*X699819Y258365D02*G01X701598D01*X700084Y113089D02*G01X701333D01*X700086Y118404D02*G01X701331D01*X700302Y263680D02*G01X701116D01*X700348Y259251D02*G01X701070D01*X700512Y113975D02*G01X700905D01*X700513Y117518D02*G01X700904D01*X700640Y262794D02*G01X700777D01*X700666Y260137D02*G01X700751D01*X688398Y168011D02*G01X695657D01*X688398Y224703D02*G01X695559D01*X688550Y172440D02*G01X695505D01*X688550Y229133D02*G01X695406D01*X689279Y168896D02*G01X694776D01*X689338Y171554D02*G01X694717D01*X689279Y225589D02*G01X694677D01*X689338Y228247D02*G01X694619D01*X689619Y169782D02*G01X694436D01*X689636Y170668D02*G01X694419D01*X689619Y226475D02*G01X694338D01*X689636Y227361D02*G01X694320D01*X687126Y266337D02*G01X694291D01*X687424Y256593D02*G01X693993D01*X688275Y111318D02*G01X693142D01*X688280Y120176D02*G01X693138D01*X688862Y265451D02*G01X692556D01*X688981Y257479D02*G01X692437D01*X689403Y112203D02*G01X692014D01*X689406Y119290D02*G01X692011D01*X689746Y264566D02*G01X691671D01*X689819Y258365D02*G01X691598D01*X690084Y113089D02*G01X691333D01*X690086Y118404D02*G01X691331D01*X690302Y263680D02*G01X691116D01*X690348Y259251D02*G01X691070D01*X690512Y113975D02*G01X690905D01*X690513Y117518D02*G01X690904D01*X690640Y262794D02*G01X690777D01*X690666Y260137D02*G01X690751D01*X657759Y224703D02*G01X685618D01*X657685Y168011D02*G01X685618D01*X152282Y229133D02*G01X685465D01*X633826Y172440D02*G01X685465D01*X657499Y225589D02*G01X684736D01*X657260Y168896D02*G01X684736D01*X556322Y228247D02*G01X684678D01*X634613Y171554D02*G01X684678D01*X656790Y226475D02*G01X684397D01*X656125Y169782D02*G01X684397D01*X557457Y227361D02*G01X684380D01*X634912Y170668D02*G01X684380D01*X677126Y266337D02*G01X684291D01*X677424Y256593D02*G01X683993D01*X678275Y111318D02*G01X683142D01*X678280Y120176D02*G01X683138D01*X678862Y265451D02*G01X682556D01*X678981Y257479D02*G01X682437D01*X679403Y112203D02*G01X682014D01*X679406Y119290D02*G01X682011D01*X679746Y264566D02*G01X681671D01*X679819Y258365D02*G01X681598D01*X680084Y113089D02*G01X681333D01*X680086Y118404D02*G01X681331D01*X680302Y263680D02*G01X681116D01*X680348Y259251D02*G01X681070D01*X680512Y113975D02*G01X680905D01*X680513Y117518D02*G01X680904D01*X680640Y262794D02*G01X680777D01*X680666Y260137D02*G01X680751D01*X667126Y266337D02*G01X674291D01*X667424Y256593D02*G01X673993D01*X668275Y111318D02*G01X673142D01*X668280Y120176D02*G01X673138D01*X668862Y265451D02*G01X672556D01*X668981Y257479D02*G01X672437D01*X669403Y112203D02*G01X672014D01*X669406Y119290D02*G01X672011D01*X669746Y264566D02*G01X671671D01*X669819Y258365D02*G01X671598D01*X670084Y113089D02*G01X671333D01*X670086Y118404D02*G01X671331D01*X670302Y263680D02*G01X671116D01*X670348Y259251D02*G01X671070D01*X670512Y113975D02*G01X670905D01*X670513Y117518D02*G01X670904D01*X670640Y262794D02*G01X670777D01*X670666Y260137D02*G01X670751D01*X625428Y216731D02*G01X666382D01*X583698Y160038D02*G01X665664D01*X583706Y164467D02*G01X665207D01*X202724Y221160D02*G01X664941D01*X625178Y217617D02*G01X664857D01*X584533Y160924D02*G01X664670D01*X584536Y163581D02*G01X664497D01*X203022Y220274D02*G01X664390D01*X624657Y218503D02*G01X664357D01*X657126Y266337D02*G01X664291D01*X584853Y161810D02*G01X664288D01*X584854Y162696D02*G01X664238D01*X623667Y219388D02*G01X664222D01*X657424Y256593D02*G01X663993D01*X658275Y111318D02*G01X663142D01*X658280Y120176D02*G01X663138D01*X658862Y265451D02*G01X662556D01*X658981Y257479D02*G01X662437D01*X659403Y112203D02*G01X662014D01*X659406Y119290D02*G01X662011D01*X659746Y264566D02*G01X661671D01*X659819Y258365D02*G01X661598D01*X660084Y113089D02*G01X661333D01*X660086Y118404D02*G01X661331D01*X660302Y263680D02*G01X661116D01*X660348Y259251D02*G01X661070D01*X660512Y113975D02*G01X660905D01*X660513Y117518D02*G01X660904D01*X660640Y262794D02*G01X660777D01*X660666Y260137D02*G01X660751D01*X183135Y152066D02*G01X655489D01*X195057Y147637D02*G01X654712D01*X182493Y151180D02*G01X654354D01*X628386Y266337D02*G01X654291D01*X634895Y169782D02*G01X654111D01*X195175Y148522D02*G01X654070D01*X628684Y256593D02*G01X653993D01*X194409Y150294D02*G01X653929D01*X201936Y222046D02*G01X653903D01*X194989Y149408D02*G01X653846D01*X557882Y226475D02*G01X653446D01*X572256Y165353D02*G01X653334D01*X629535Y111318D02*G01X653142D01*X629539Y120176D02*G01X653138D01*X634555Y168896D02*G01X652977D01*X154088Y222932D02*G01X652909D01*X557965Y225589D02*G01X652737D01*X572899Y166239D02*G01X652692D01*X630121Y265451D02*G01X652556D01*X633673Y168011D02*G01X652551D01*X557099Y223818D02*G01X652527D01*X557741Y224703D02*G01X652477D01*X573123Y167125D02*G01X652468D01*X630240Y257479D02*G01X652437D01*X630663Y112203D02*G01X652014D01*X630666Y119290D02*G01X652011D01*X631006Y264566D02*G01X651671D01*X631079Y258365D02*G01X651598D01*X631344Y113089D02*G01X651333D01*X631346Y118404D02*G01X651331D01*X631562Y263680D02*G01X651116D01*X631608Y259251D02*G01X651070D01*X631772Y113975D02*G01X650905D01*X631773Y117518D02*G01X650904D01*X631900Y262794D02*G01X650777D01*X631926Y260137D02*G01X650751D01*X632011Y114861D02*G01X650666D01*X632012Y116633D02*G01X650666D01*X632065Y261908D02*G01X650612D01*X632073Y261022D02*G01X650604D01*X632089Y115747D02*G01X650589D01*X563621Y250392D02*G01X644564D01*X553865Y121948D02*G01X643886D01*X563436Y126377D02*G01X643733D01*X557502Y254822D02*G01X643386D01*X563167Y251278D02*G01X643212D01*X559566Y122833D02*G01X643004D01*X562911Y125491D02*G01X642946D01*X560407Y253936D02*G01X642807D01*X562541Y252164D02*G01X642738D01*X561178Y123719D02*G01X642664D01*X562190Y124605D02*G01X642647D01*X561677Y253050D02*G01X642620D01*X264780Y210530D02*G01X640535D01*X625286Y214959D02*G01X639749D01*X189803Y211416D02*G01X639396D01*X624866Y214074D02*G01X639108D01*X161107Y212302D02*G01X638969D01*X624076Y213188D02*G01X638885D01*X623634Y168011D02*G01X630894D01*X623787Y172440D02*G01X630741D01*X624516Y168896D02*G01X630012D01*X624574Y171554D02*G01X629954D01*X624855Y169782D02*G01X629672D01*X624872Y170668D02*G01X629655D01*X618386Y266337D02*G01X625551D01*X618684Y256593D02*G01X625253D01*X619535Y111318D02*G01X624402D01*X619539Y120176D02*G01X624398D01*X620121Y265451D02*G01X623816D01*X620240Y257479D02*G01X623697D01*X620663Y112203D02*G01X623274D01*X620666Y119290D02*G01X623271D01*X621006Y264566D02*G01X622931D01*X621079Y258365D02*G01X622858D01*X621344Y113089D02*G01X622593D01*X621346Y118404D02*G01X622591D01*X621562Y263680D02*G01X622375D01*X621608Y259251D02*G01X622329D01*X621772Y113975D02*G01X622165D01*X621773Y117518D02*G01X622164D01*X621900Y262794D02*G01X622037D01*X621926Y260137D02*G01X622011D01*X613631Y168011D02*G01X620854D01*X613965Y172440D02*G01X620702D01*X614577Y168896D02*G01X619973D01*X614704Y171554D02*G01X619914D01*X584297Y219388D02*G01X619641D01*X614942Y169782D02*G01X619633D01*X614979Y170668D02*G01X619616D01*X584706Y213188D02*G01X619232D01*X585287Y218503D02*G01X618651D01*X585496Y214074D02*G01X618442D01*X585808Y217617D02*G01X618130D01*X585916Y214959D02*G01X618022D01*X586058Y216731D02*G01X617880D01*X586093Y215845D02*G01X617845D01*X608386Y266337D02*G01X615551D01*X608684Y256593D02*G01X615253D01*X609535Y111318D02*G01X614402D01*X609539Y120176D02*G01X614398D01*X610121Y265451D02*G01X613816D01*X610240Y257479D02*G01X613697D01*X610663Y112203D02*G01X613274D01*X610666Y119290D02*G01X613271D01*X611006Y264566D02*G01X612931D01*X611079Y258365D02*G01X612858D01*X611344Y113089D02*G01X612593D01*X611346Y118404D02*G01X612591D01*X611562Y263680D02*G01X612375D01*X611608Y259251D02*G01X612329D01*X611772Y113975D02*G01X612165D01*X611773Y117518D02*G01X612164D01*X611900Y262794D02*G01X612037D01*X611926Y260137D02*G01X612011D01*X603752Y168011D02*G01X611054D01*X603905Y172440D02*G01X610720D01*X604634Y168896D02*G01X610108D01*X604692Y171554D02*G01X609981D01*X604973Y169782D02*G01X609743D01*X604991Y170668D02*G01X609706D01*X594610Y230904D02*G01X608628D01*X604034Y235333D02*G01X608171D01*X603855Y231790D02*G01X607634D01*X604507Y234448D02*G01X607461D01*X604437Y232676D02*G01X607252D01*X604624Y233562D02*G01X607201D01*X598386Y266337D02*G01X605551D01*X598684Y256593D02*G01X605253D01*X599535Y111318D02*G01X604402D01*X599539Y120176D02*G01X604398D01*X600121Y265451D02*G01X603816D01*X600240Y257479D02*G01X603697D01*X600663Y112203D02*G01X603274D01*X600666Y119290D02*G01X603271D01*X601006Y264566D02*G01X602931D01*X601079Y258365D02*G01X602858D01*X601344Y113089D02*G01X602593D01*X601346Y118404D02*G01X602591D01*X601562Y263680D02*G01X602375D01*X601608Y259251D02*G01X602329D01*X601772Y113975D02*G01X602165D01*X601773Y117518D02*G01X602164D01*X601900Y262794D02*G01X602037D01*X601926Y260137D02*G01X602011D01*X163674Y236219D02*G01X601247D01*X573039Y168011D02*G01X600972D01*X102463Y172440D02*G01X600820D01*X572614Y168896D02*G01X600091D01*X595961Y231790D02*G01X600082D01*X263469Y171554D02*G01X600032D01*X595787Y235333D02*G01X599903D01*X571479Y169782D02*G01X599751D01*X265368Y170668D02*G01X599734D01*X596435Y232676D02*G01X599501D01*X596367Y234448D02*G01X599430D01*X596553Y233562D02*G01X599313D01*X588386Y266337D02*G01X595551D01*X588684Y256593D02*G01X595253D01*X589535Y111318D02*G01X594402D01*X589539Y120176D02*G01X594398D01*X590121Y265451D02*G01X593816D01*X590240Y257479D02*G01X593697D01*X590663Y112203D02*G01X593274D01*X590666Y119290D02*G01X593271D01*X587435Y230904D02*G01X593186D01*X591006Y264566D02*G01X592931D01*X591079Y258365D02*G01X592858D01*X591344Y113089D02*G01X592593D01*X591346Y118404D02*G01X592591D01*X591562Y263680D02*G01X592375D01*X591608Y259251D02*G01X592329D01*X591772Y113975D02*G01X592165D01*X591773Y117518D02*G01X592164D01*X591900Y262794D02*G01X592037D01*X591926Y260137D02*G01X592011D01*X587892Y235333D02*G01X592008D01*X588429Y231790D02*G01X591834D01*X588602Y234448D02*G01X591429D01*X588811Y232676D02*G01X591360D01*X588862Y233562D02*G01X591242D01*X578386Y266337D02*G01X585551D01*X578684Y256593D02*G01X585253D01*X152545Y230904D02*G01X585005D01*X163450Y235333D02*G01X584549D01*X579535Y111318D02*G01X584402D01*X579539Y120176D02*G01X584398D01*X153421Y231790D02*G01X584012D01*X162807Y234448D02*G01X583839D01*X580121Y265451D02*G01X583816D01*X580240Y257479D02*G01X583697D01*X153972Y232676D02*G01X583630D01*X154306Y233562D02*G01X583579D01*X580663Y112203D02*G01X583274D01*X580666Y119290D02*G01X583271D01*X581006Y264566D02*G01X582931D01*X581079Y258365D02*G01X582858D01*X581344Y113089D02*G01X582593D01*X581346Y118404D02*G01X582591D01*X581562Y263680D02*G01X582375D01*X581608Y259251D02*G01X582329D01*X581772Y113975D02*G01X582165D01*X581773Y117518D02*G01X582164D01*X581900Y262794D02*G01X582037D01*X581926Y260137D02*G01X582011D01*X175303Y160038D02*G01X580768D01*X171509Y164467D02*G01X580760D01*X203005Y219388D02*G01X580271D01*X175490Y160924D02*G01X579933D01*X173556Y163581D02*G01X579930D01*X102463Y213188D02*G01X579862D01*X175373Y161810D02*G01X579613D01*X174900Y162696D02*G01X579612D01*X202665Y218503D02*G01X579281D01*X102463Y214074D02*G01X579072D01*X201784Y217617D02*G01X578760D01*X194304Y214959D02*G01X578652D01*X195170Y216731D02*G01X578510D01*X194946Y215845D02*G01X578475D01*X564131Y266337D02*G01X575551D01*X554167Y256593D02*G01X575253D01*X564037Y111318D02*G01X574402D01*X554204Y120176D02*G01X574398D01*X563936Y265451D02*G01X573816D01*X554220Y257479D02*G01X573697D01*X563777Y112203D02*G01X573274D01*X554210Y119290D02*G01X573271D01*X563620Y264566D02*G01X572931D01*X554167Y258365D02*G01X572858D01*X563387Y113089D02*G01X572593D01*X554108Y118404D02*G01X572591D01*X563165Y263680D02*G01X572375D01*X554005Y259251D02*G01X572329D01*X562843Y113975D02*G01X572165D01*X553895Y117518D02*G01X572164D01*X562539Y262794D02*G01X572037D01*X557472Y260137D02*G01X572011D01*X562097Y114861D02*G01X571926D01*X559310Y116633D02*G01X571925D01*X561674Y261908D02*G01X571872D01*X560402Y261022D02*G01X571864D01*X561043Y115747D02*G01X571848D01*X265892Y169782D02*G01X569465D01*X171526Y165353D02*G01X568689D01*X266043Y168896D02*G01X568331D01*X171228Y166239D02*G01X568046D01*X265891Y168011D02*G01X567905D01*X265365Y167125D02*G01X567822D01*X553725Y260137D02*G01X556228D01*X553724Y254822D02*G01X556199D01*X537695Y137007D02*G01X556006D01*X553559Y116633D02*G01X554391D01*X153263Y228247D02*G01X554308D01*X553514Y122833D02*G01X554135D01*X539615Y240648D02*G01X554086D01*X154370Y223818D02*G01X553531D01*X540442Y136121D02*G01X553259D01*X153872Y227361D02*G01X553173D01*X154486Y224703D02*G01X552889D01*X154249Y226475D02*G01X552748D01*X154446Y225589D02*G01X552665D01*X541205Y241534D02*G01X552496D01*X541700Y135235D02*G01X552001D01*X542209Y242420D02*G01X551492D01*X542557Y134349D02*G01X551144D01*X542924Y243306D02*G01X550777D01*X543178Y133463D02*G01X550522D01*X549939Y126377D02*G01X550265D01*X543446Y244192D02*G01X550255D01*X548870Y250392D02*G01X550080D01*X543629Y132577D02*G01X550072D01*X543811Y127262D02*G01X549890D01*X543818Y245077D02*G01X549883D01*X543936Y249507D02*G01X549764D01*X543942Y131692D02*G01X549759D01*X544059Y128148D02*G01X549642D01*X544063Y245963D02*G01X549638D01*X544132Y248621D02*G01X549569D01*X544135Y130806D02*G01X549566D01*X544192Y129034D02*G01X549509D01*X544193Y246849D02*G01X549507D01*X544216Y247735D02*G01X549485D01*X544217Y129920D02*G01X549484D01*X543621Y250392D02*G01X544831D01*X543436Y126377D02*G01X543762D01*X539566Y122833D02*G01X540187D01*X539310Y116633D02*G01X540142D01*X537502Y254822D02*G01X539977D01*X537472Y260137D02*G01X539976D01*X506621Y121948D02*G01X539836D01*X506651Y117518D02*G01X539806D01*X506760Y255707D02*G01X539697D01*X506761Y259251D02*G01X539696D01*X506847Y121062D02*G01X539610D01*X506864Y118404D02*G01X539592D01*X506923Y256593D02*G01X539534D01*X506923Y258365D02*G01X539534D01*X506960Y120176D02*G01X539497D01*X506966Y119290D02*G01X539491D01*X506976Y257479D02*G01X539480D01*X510228Y260137D02*G01X536228D01*X510258Y254822D02*G01X536199D01*X510451Y137007D02*G01X536006D01*X512066Y116633D02*G01X534391D01*X512322Y122833D02*G01X534135D01*X512371Y240648D02*G01X534086D01*X512377Y274310D02*G01X534080D01*X513158Y261022D02*G01X533299D01*X513162Y253936D02*G01X533294D01*X513198Y136121D02*G01X533259D01*X513365Y103345D02*G01X533092D01*X513798Y115747D02*G01X532658D01*X513934Y123719D02*G01X532523D01*X513961Y241534D02*G01X532496D01*X513964Y273424D02*G01X532492D01*X514430Y261908D02*G01X532027D01*X514433Y253050D02*G01X532024D01*X514456Y135235D02*G01X532001D01*X514563Y104231D02*G01X531893D01*X514853Y114861D02*G01X531604D01*X514946Y124605D02*G01X531511D01*X514965Y242420D02*G01X531492D01*X514967Y272538D02*G01X531490D01*X515295Y262794D02*G01X531162D01*X515297Y252164D02*G01X531160D01*X515313Y134349D02*G01X531144D01*X515390Y105117D02*G01X531067D01*X515599Y113975D02*G01X530858D01*X515667Y125491D02*G01X530790D01*X515680Y243306D02*G01X530777D01*X515682Y271652D02*G01X530775D01*X515921Y263680D02*G01X530536D01*X515922Y251278D02*G01X530534D01*X515934Y133463D02*G01X530522D01*X515991Y106003D02*G01X530466D01*X516143Y113089D02*G01X530314D01*X516192Y126377D02*G01X530265D01*X516202Y244192D02*G01X530255D01*X516203Y270766D02*G01X530253D01*X516376Y264566D02*G01X530081D01*X516377Y250392D02*G01X530080D01*X516385Y132577D02*G01X530072D01*X516425Y106888D02*G01X530031D01*X516533Y112203D02*G01X529924D01*X516567Y127262D02*G01X529890D01*X516574Y245077D02*G01X529883D01*X516575Y269881D02*G01X529882D01*X516692Y265451D02*G01X529765D01*X516692Y249507D02*G01X529764D01*X516698Y131692D02*G01X529759D01*X516724Y107774D02*G01X529732D01*X516793Y111318D02*G01X529663D01*X516814Y128148D02*G01X529642D01*X516819Y245963D02*G01X529638D01*X516819Y268995D02*G01X529638D01*X516887Y266337D02*G01X529569D01*X516888Y248621D02*G01X529569D01*X516891Y130806D02*G01X529566D01*X516905Y108660D02*G01X529552D01*X516938Y110432D02*G01X529518D01*X516948Y129034D02*G01X529509D01*X516949Y246849D02*G01X529507D01*X516950Y268109D02*G01X529507D01*X516972Y267223D02*G01X529485D01*X516972Y247735D02*G01X529485D01*X516973Y129920D02*G01X529484D01*X516975Y109546D02*G01X529482D01*X506481Y260137D02*G01X508984D01*X506480Y254822D02*G01X508955D01*X490451Y137007D02*G01X508762D01*X506315Y116633D02*G01X507147D01*X506270Y122833D02*G01X506891D01*X492371Y240648D02*G01X506842D01*X493198Y136121D02*G01X506015D01*X493961Y241534D02*G01X505252D01*X494456Y135235D02*G01X504757D01*X494965Y242420D02*G01X504248D01*X495313Y134349D02*G01X503900D01*X495680Y243306D02*G01X503532D01*X495934Y133463D02*G01X503278D01*X502695Y126377D02*G01X503020D01*X496202Y244192D02*G01X503011D01*X501626Y250392D02*G01X502836D01*X496385Y132577D02*G01X502827D01*X496567Y127262D02*G01X502646D01*X496574Y245077D02*G01X502639D01*X496692Y249507D02*G01X502520D01*X496698Y131692D02*G01X502515D01*X496814Y128148D02*G01X502398D01*X496819Y245963D02*G01X502394D01*X496888Y248621D02*G01X502325D01*X496891Y130806D02*G01X502322D01*X496948Y129034D02*G01X502265D01*X496949Y246849D02*G01X502263D01*X496972Y247735D02*G01X502241D01*X496973Y129920D02*G01X502240D01*X496377Y250392D02*G01X497586D01*X496192Y126377D02*G01X496518D01*X492322Y122833D02*G01X492942D01*X492066Y116633D02*G01X492898D01*X490258Y254822D02*G01X492732D01*X490228Y260137D02*G01X492731D01*X459376Y121948D02*G01X492592D01*X459407Y117518D02*G01X492562D01*X459516Y255707D02*G01X492453D01*X459517Y259251D02*G01X492452D01*X459603Y121062D02*G01X492366D01*X459620Y118404D02*G01X492348D01*X459679Y256593D02*G01X492290D01*X459679Y258365D02*G01X492289D01*X459716Y120176D02*G01X492253D01*X459722Y119290D02*G01X492247D01*X459732Y257479D02*G01X492236D01*X462984Y260137D02*G01X488984D01*X463014Y254822D02*G01X488955D01*X463207Y137007D02*G01X488762D01*X464822Y116633D02*G01X487147D01*X465077Y122833D02*G01X486891D01*X465127Y240648D02*G01X486842D01*X465133Y274310D02*G01X486835D01*X465914Y261022D02*G01X486055D01*X465918Y253936D02*G01X486050D01*X465954Y136121D02*G01X486015D01*X466120Y103345D02*G01X485848D01*X466554Y115747D02*G01X485414D01*X466690Y123719D02*G01X485279D01*X466717Y241534D02*G01X485252D01*X466720Y273424D02*G01X485248D01*X467186Y261908D02*G01X484782D01*X467189Y253050D02*G01X484779D01*X467212Y135235D02*G01X484757D01*X467319Y104231D02*G01X484649D01*X467609Y114861D02*G01X484360D01*X467702Y124605D02*G01X484267D01*X467720Y242420D02*G01X484248D01*X467723Y272538D02*G01X484246D01*X468050Y262794D02*G01X483918D01*X468053Y252164D02*G01X483916D01*X468069Y134349D02*G01X483900D01*X468146Y105117D02*G01X483823D01*X468355Y113975D02*G01X483613D01*X468422Y125491D02*G01X483546D01*X468436Y243306D02*G01X483532D01*X468438Y271652D02*G01X483531D01*X468677Y263680D02*G01X483292D01*X468678Y251278D02*G01X483290D01*X468690Y133463D02*G01X483278D01*X468746Y106003D02*G01X483222D01*X468899Y113089D02*G01X483070D01*X468948Y126377D02*G01X483020D01*X468958Y244192D02*G01X483011D01*X468959Y270766D02*G01X483009D01*X469131Y264566D02*G01X482837D01*X469133Y250392D02*G01X482836D01*X469141Y132577D02*G01X482827D01*X469181Y106888D02*G01X482787D01*X469289Y112203D02*G01X482680D01*X469323Y127262D02*G01X482646D01*X469330Y245077D02*G01X482639D01*X469330Y269881D02*G01X482638D01*X469448Y265451D02*G01X482521D01*X469448Y249507D02*G01X482520D01*X469454Y131692D02*G01X482515D01*X469480Y107774D02*G01X482488D01*X469549Y111318D02*G01X482419D01*X469570Y128148D02*G01X482398D01*X469574Y245963D02*G01X482394D01*X469575Y268995D02*G01X482393D01*X469643Y266337D02*G01X482325D01*X469644Y248621D02*G01X482325D01*X469647Y130806D02*G01X482322D01*X469661Y108660D02*G01X482308D01*X469694Y110432D02*G01X482274D01*X469704Y129034D02*G01X482265D01*X469705Y246849D02*G01X482263D01*X469705Y268109D02*G01X482263D01*X469728Y267223D02*G01X482241D01*X469728Y247735D02*G01X482241D01*X469729Y129920D02*G01X482240D01*X469731Y109546D02*G01X482238D01*X459237Y260137D02*G01X461740D01*X459236Y254822D02*G01X461710D01*X443207Y137007D02*G01X461518D01*X459070Y116633D02*G01X459902D01*X459026Y122833D02*G01X459647D01*X445127Y240648D02*G01X459598D01*X445954Y136121D02*G01X458771D01*X446717Y241534D02*G01X458008D01*X447212Y135235D02*G01X457513D01*X447720Y242420D02*G01X457004D01*X448069Y134349D02*G01X456656D01*X448436Y243306D02*G01X456288D01*X448690Y133463D02*G01X456034D01*X455451Y126377D02*G01X455776D01*X448958Y244192D02*G01X455767D01*X454382Y250392D02*G01X455592D01*X449141Y132577D02*G01X455583D01*X449323Y127262D02*G01X455402D01*X449330Y245077D02*G01X455395D01*X449448Y249507D02*G01X455276D01*X449454Y131692D02*G01X455271D01*X449570Y128148D02*G01X455154D01*X449574Y245963D02*G01X455150D01*X449644Y248621D02*G01X455081D01*X449647Y130806D02*G01X455078D01*X449704Y129034D02*G01X455021D01*X449705Y246849D02*G01X455019D01*X449728Y247735D02*G01X454997D01*X449729Y129920D02*G01X454996D01*X449133Y250392D02*G01X450342D01*X448948Y126377D02*G01X449273D01*X445077Y122833D02*G01X445698D01*X444822Y116633D02*G01X445654D01*X443014Y254822D02*G01X445488D01*X442984Y260137D02*G01X445487D01*X412132Y121948D02*G01X445348D01*X412163Y117518D02*G01X445318D01*X412272Y255707D02*G01X445209D01*X412272Y259251D02*G01X445208D01*X412358Y121062D02*G01X445122D01*X412376Y118404D02*G01X445104D01*X412435Y256593D02*G01X445046D01*X412435Y258365D02*G01X445045D01*X412472Y120176D02*G01X445008D01*X412478Y119290D02*G01X445003D01*X412488Y257479D02*G01X444992D01*X415740Y260137D02*G01X441740D01*X415770Y254822D02*G01X441710D01*X415963Y137007D02*G01X441518D01*X417578Y116633D02*G01X439902D01*X417833Y122833D02*G01X439647D01*X417883Y240648D02*G01X439598D01*X417889Y274310D02*G01X439591D01*X418670Y261022D02*G01X438811D01*X418674Y253936D02*G01X438806D01*X418710Y136121D02*G01X438771D01*X418876Y103345D02*G01X438604D01*X419310Y115747D02*G01X438170D01*X419446Y123719D02*G01X438035D01*X419473Y241534D02*G01X438008D01*X419476Y273424D02*G01X438004D01*X419942Y261908D02*G01X437538D01*X419945Y253050D02*G01X437535D01*X419968Y135235D02*G01X437513D01*X420075Y104231D02*G01X437405D01*X420365Y114861D02*G01X437115D01*X420458Y124605D02*G01X437023D01*X420476Y242420D02*G01X437004D01*X420479Y272538D02*G01X437001D01*X420806Y262794D02*G01X436674D01*X420809Y252164D02*G01X436672D01*X420825Y134349D02*G01X436656D01*X420902Y105117D02*G01X436579D01*X421111Y113975D02*G01X436369D01*X421178Y125491D02*G01X436302D01*X421192Y243306D02*G01X436288D01*X421194Y271652D02*G01X436287D01*X421433Y263680D02*G01X436048D01*X421434Y251278D02*G01X436046D01*X421446Y133463D02*G01X436034D01*X421502Y106003D02*G01X435978D01*X421655Y113089D02*G01X435825D01*X421704Y126377D02*G01X435776D01*X421714Y244192D02*G01X435767D01*X421715Y270766D02*G01X435765D01*X421887Y264566D02*G01X435593D01*X421888Y250392D02*G01X435592D01*X421897Y132577D02*G01X435583D01*X421937Y106888D02*G01X435543D01*X422045Y112203D02*G01X435436D01*X422079Y127262D02*G01X435402D01*X422086Y245077D02*G01X435395D01*X422086Y269881D02*G01X435394D01*X422203Y265451D02*G01X435277D01*X422204Y249507D02*G01X435276D01*X422210Y131692D02*G01X435271D01*X422236Y107774D02*G01X435244D01*X422305Y111318D02*G01X435175D01*X422326Y128148D02*G01X435154D01*X422330Y245963D02*G01X435150D01*X422331Y268995D02*G01X435149D01*X422399Y266337D02*G01X435081D01*X422399Y248621D02*G01X435081D01*X422402Y130806D02*G01X435078D01*X422417Y108660D02*G01X435064D01*X422450Y110432D02*G01X435030D01*X422459Y129034D02*G01X435021D01*X422461Y246849D02*G01X435019D01*X422461Y268109D02*G01X435019D01*X422484Y267223D02*G01X434997D01*X422484Y247735D02*G01X434997D01*X422484Y129920D02*G01X434996D01*X422487Y109546D02*G01X434993D01*X411993Y260137D02*G01X414496D01*X411992Y254822D02*G01X414466D01*X395963Y137007D02*G01X414273D01*X411826Y116633D02*G01X412658D01*X411782Y122833D02*G01X412403D01*X397883Y240648D02*G01X412354D01*X398710Y136121D02*G01X411526D01*X399473Y241534D02*G01X410764D01*X399968Y135235D02*G01X410269D01*X400476Y242420D02*G01X409760D01*X400825Y134349D02*G01X409412D01*X401192Y243306D02*G01X409044D01*X401446Y133463D02*G01X408790D01*X408207Y126377D02*G01X408532D01*X401714Y244192D02*G01X408522D01*X407138Y250392D02*G01X408348D01*X401897Y132577D02*G01X408339D01*X402079Y127262D02*G01X408158D01*X402086Y245077D02*G01X408151D01*X402204Y249507D02*G01X408032D01*X402210Y131692D02*G01X408026D01*X402326Y128148D02*G01X407910D01*X402330Y245963D02*G01X407906D01*X402399Y248621D02*G01X407837D01*X402402Y130806D02*G01X407834D01*X402459Y129034D02*G01X407777D01*X402461Y246849D02*G01X407775D01*X402484Y247735D02*G01X407752D01*X402484Y129920D02*G01X407752D01*X401888Y250392D02*G01X403098D01*X401704Y126377D02*G01X402029D01*X397833Y122833D02*G01X398454D01*X397578Y116633D02*G01X398410D01*X395770Y254822D02*G01X398244D01*X395740Y260137D02*G01X398243D01*X364888Y121948D02*G01X398104D01*X364918Y117518D02*G01X398074D01*X365028Y255707D02*G01X397964D01*X365028Y259251D02*G01X397964D01*X365114Y121062D02*G01X397878D01*X365132Y118404D02*G01X397860D01*X365191Y256593D02*G01X397802D01*X365191Y258365D02*G01X397801D01*X365228Y120176D02*G01X397764D01*X365234Y119290D02*G01X397759D01*X365244Y257479D02*G01X397748D01*X368496Y260137D02*G01X394496D01*X368526Y254822D02*G01X394466D01*X368719Y137007D02*G01X394273D01*X370334Y116633D02*G01X392658D01*X370589Y122833D02*G01X392403D01*X370638Y240648D02*G01X392354D01*X370645Y274310D02*G01X392347D01*X371425Y261022D02*G01X391567D01*X371430Y253936D02*G01X391562D01*X371466Y136121D02*G01X391526D01*X371632Y103345D02*G01X391360D01*X372066Y115747D02*G01X390926D01*X372201Y123719D02*G01X390791D01*X372228Y241534D02*G01X390764D01*X372232Y273424D02*G01X390760D01*X372698Y261908D02*G01X390294D01*X372701Y253050D02*G01X390291D01*X372723Y135235D02*G01X390269D01*X372831Y104231D02*G01X390161D01*X373121Y114861D02*G01X389871D01*X373214Y124605D02*G01X389778D01*X373232Y242420D02*G01X389760D01*X373235Y272538D02*G01X389757D01*X373562Y262794D02*G01X389430D01*X373564Y252164D02*G01X389428D01*X373581Y134349D02*G01X389412D01*X373658Y105117D02*G01X389335D01*X373867Y113975D02*G01X389125D01*X373934Y125491D02*G01X389058D01*X373948Y243306D02*G01X389044D01*X373950Y271652D02*G01X389042D01*X374189Y263680D02*G01X388803D01*X374190Y251278D02*G01X388802D01*X374202Y133463D02*G01X388790D01*X374258Y106003D02*G01X388734D01*X374411Y113089D02*G01X388581D01*X374460Y126377D02*G01X388532D01*X374470Y244192D02*G01X388522D01*X374471Y270766D02*G01X388521D01*X374643Y264566D02*G01X388349D01*X374644Y250392D02*G01X388348D01*X374653Y132577D02*G01X388339D01*X374693Y106888D02*G01X388299D01*X374800Y112203D02*G01X388192D01*X374835Y127262D02*G01X388158D01*X374841Y245077D02*G01X388151D01*X374842Y269881D02*G01X388150D01*X374959Y265451D02*G01X388033D01*X374960Y249507D02*G01X388032D01*X374966Y131692D02*G01X388026D01*X374992Y107774D02*G01X388000D01*X375061Y111318D02*G01X387931D01*X375082Y128148D02*G01X387910D01*X375086Y245963D02*G01X387906D01*X375087Y268995D02*G01X387905D01*X375155Y266337D02*G01X387837D01*X375155Y248621D02*G01X387837D01*X375158Y130806D02*G01X387834D01*X375173Y108660D02*G01X387820D01*X375206Y110432D02*G01X387786D01*X375215Y129034D02*G01X387777D01*X375217Y246849D02*G01X387775D01*X375217Y268109D02*G01X387775D01*X375240Y267223D02*G01X387752D01*X375240Y247735D02*G01X387752D01*X375240Y129920D02*G01X387752D01*X375243Y109546D02*G01X387749D01*X364749Y260137D02*G01X367252D01*X364748Y254822D02*G01X367222D01*X348719Y137007D02*G01X367029D01*X364582Y116633D02*G01X365414D01*X364538Y122833D02*G01X365159D01*X350638Y240648D02*G01X365110D01*X351466Y136121D02*G01X364282D01*X352228Y241534D02*G01X363520D01*X352723Y135235D02*G01X363025D01*X353232Y242420D02*G01X362516D01*X353581Y134349D02*G01X362167D01*X353948Y243306D02*G01X361800D01*X354202Y133463D02*G01X361546D01*X360963Y126377D02*G01X361288D01*X354470Y244192D02*G01X361278D01*X359894Y250392D02*G01X361104D01*X354653Y132577D02*G01X361095D01*X354835Y127262D02*G01X360913D01*X354841Y245077D02*G01X360907D01*X354960Y249507D02*G01X360788D01*X354966Y131692D02*G01X360782D01*X355082Y128148D02*G01X360666D01*X355086Y245963D02*G01X360662D01*X355155Y248621D02*G01X360593D01*X355158Y130806D02*G01X360590D01*X355215Y129034D02*G01X360533D01*X355217Y246849D02*G01X360531D01*X355240Y247735D02*G01X360508D01*X355240Y129920D02*G01X360508D01*X354644Y250392D02*G01X355854D01*X354460Y126377D02*G01X354785D01*X350589Y122833D02*G01X351210D01*X350334Y116633D02*G01X351166D01*X348526Y254822D02*G01X351000D01*X348496Y260137D02*G01X350999D01*X317644Y121948D02*G01X350860D01*X317674Y117518D02*G01X350830D01*X317784Y255707D02*G01X350720D01*X317784Y259251D02*G01X350720D01*X317870Y121062D02*G01X350634D01*X317888Y118404D02*G01X350616D01*X317946Y256593D02*G01X350558D01*X317947Y258365D02*G01X350557D01*X317984Y120176D02*G01X350520D01*X317989Y119290D02*G01X350515D01*X318000Y257479D02*G01X350504D01*X321252Y260137D02*G01X347252D01*X321282Y254822D02*G01X347222D01*X321475Y137007D02*G01X347029D01*X323090Y116633D02*G01X345414D01*X323345Y122833D02*G01X345159D01*X323394Y240648D02*G01X345110D01*X323401Y274310D02*G01X345103D01*X324181Y261022D02*G01X344323D01*X324186Y253936D02*G01X344318D01*X324222Y136121D02*G01X344282D01*X324388Y103345D02*G01X344116D01*X324822Y115747D02*G01X343682D01*X324957Y123719D02*G01X343547D01*X324984Y241534D02*G01X343520D01*X324988Y273424D02*G01X343516D01*X325454Y261908D02*G01X343050D01*X325457Y253050D02*G01X343047D01*X325479Y135235D02*G01X343025D01*X325587Y104231D02*G01X342917D01*X325877Y114861D02*G01X342627D01*X325970Y124605D02*G01X342534D01*X325988Y242420D02*G01X342516D01*X325991Y272538D02*G01X342513D01*X326318Y262794D02*G01X342186D01*X326320Y252164D02*G01X342184D01*X326336Y134349D02*G01X342167D01*X326413Y105117D02*G01X342090D01*X326623Y113975D02*G01X341881D01*X326690Y125491D02*G01X341814D01*X326704Y243306D02*G01X341800D01*X326706Y271652D02*G01X341798D01*X326945Y263680D02*G01X341559D01*X326946Y251278D02*G01X341558D01*X326958Y133463D02*G01X341546D01*X327014Y106003D02*G01X341490D01*X327167Y113089D02*G01X341337D01*X327216Y126377D02*G01X341288D01*X327226Y244192D02*G01X341278D01*X327227Y270766D02*G01X341277D01*X327399Y264566D02*G01X341105D01*X327400Y250392D02*G01X341104D01*X327409Y132577D02*G01X341095D01*X327449Y106888D02*G01X341055D01*X327556Y112203D02*G01X340948D01*X327590Y127262D02*G01X340913D01*X327597Y245077D02*G01X340907D01*X327598Y269881D02*G01X340906D01*X327715Y265451D02*G01X340789D01*X327716Y249507D02*G01X340788D01*X327722Y131692D02*G01X340782D01*X327748Y107774D02*G01X340756D01*X327817Y111318D02*G01X340687D01*X327838Y128148D02*G01X340666D01*X327842Y245963D02*G01X340662D01*X327843Y268995D02*G01X340661D01*X327911Y266337D02*G01X340593D01*X327911Y248621D02*G01X340593D01*X327914Y130806D02*G01X340590D01*X327928Y108660D02*G01X340576D01*X327962Y110432D02*G01X340542D01*X327971Y129034D02*G01X340533D01*X327973Y246849D02*G01X340531D01*X327973Y268109D02*G01X340531D01*X327996Y267223D02*G01X340508D01*X327996Y247735D02*G01X340508D01*X327996Y129920D02*G01X340508D01*X327999Y109546D02*G01X340505D01*X319511Y191042D02*G01X323402D01*X320288Y186613D02*G01X322626D01*X320646Y190156D02*G01X322268D01*X320930Y187499D02*G01X321983D01*X321071Y189270D02*G01X321842D01*X321154Y188385D02*G01X321759D01*X317505Y260137D02*G01X320008D01*X317504Y254822D02*G01X319978D01*X301475Y137007D02*G01X319785D01*X317338Y116633D02*G01X318170D01*X317294Y122833D02*G01X317915D01*X303394Y240648D02*G01X317865D01*X313605Y191042D02*G01X317497D01*X304222Y136121D02*G01X317038D01*X314382Y186613D02*G01X316720D01*X314740Y190156D02*G01X316362D01*X304984Y241534D02*G01X316275D01*X315025Y187499D02*G01X316078D01*X315165Y189270D02*G01X315937D01*X315249Y188385D02*G01X315854D01*X305479Y135235D02*G01X315780D01*X305988Y242420D02*G01X315272D01*X306336Y134349D02*G01X314923D01*X306704Y243306D02*G01X314556D01*X306958Y133463D02*G01X314302D01*X313719Y126377D02*G01X314044D01*X307226Y244192D02*G01X314034D01*X312650Y250392D02*G01X313860D01*X307409Y132577D02*G01X313851D01*X307590Y127262D02*G01X313669D01*X307597Y245077D02*G01X313663D01*X307716Y249507D02*G01X313544D01*X307722Y131692D02*G01X313538D01*X307838Y128148D02*G01X313422D01*X307842Y245963D02*G01X313418D01*X307911Y248621D02*G01X313349D01*X307914Y130806D02*G01X313346D01*X307971Y129034D02*G01X313289D01*X307973Y246849D02*G01X313287D01*X307996Y247735D02*G01X313264D01*X307996Y129920D02*G01X313264D01*X308684Y191042D02*G01X311591D01*X309461Y186613D02*G01X310815D01*X309819Y190156D02*G01X310457D01*X310104Y187499D02*G01X310172D01*X307400Y250392D02*G01X308610D01*X307216Y126377D02*G01X307541D01*X282539Y191042D02*G01X306670D01*X282889Y186613D02*G01X305893D01*X283097Y190156D02*G01X305536D01*X283279Y187499D02*G01X305251D01*X283374Y189270D02*G01X305110D01*X283431Y188385D02*G01X305027D01*X303345Y122833D02*G01X303966D01*X303090Y116633D02*G01X303922D01*X301282Y254822D02*G01X303756D01*X301252Y260137D02*G01X303755D01*X270400Y121948D02*G01X303616D01*X270430Y117518D02*G01X303585D01*X270539Y255707D02*G01X303476D01*X270540Y259251D02*G01X303476D01*X270626Y121062D02*G01X303390D01*X270644Y118404D02*G01X303372D01*X270702Y256593D02*G01X303313D01*X270703Y258365D02*G01X303313D01*X270740Y120176D02*G01X303276D01*X270745Y119290D02*G01X303270D01*X270756Y257479D02*G01X303260D01*X274008Y260137D02*G01X300008D01*X274038Y254822D02*G01X299978D01*X274230Y137007D02*G01X299785D01*X275846Y116633D02*G01X298170D01*X276101Y122833D02*G01X297915D01*X276150Y240648D02*G01X297865D01*X276157Y274310D02*G01X297859D01*X276937Y261022D02*G01X297078D01*X276942Y253936D02*G01X297074D01*X276977Y136121D02*G01X297038D01*X277144Y103345D02*G01X296872D01*X277578Y115747D02*G01X296438D01*X277713Y123719D02*G01X296302D01*X277740Y241534D02*G01X296275D01*X277744Y273424D02*G01X296272D01*X278210Y261908D02*G01X295806D01*X278213Y253050D02*G01X295803D01*X278235Y135235D02*G01X295780D01*X278343Y104231D02*G01X295673D01*X278633Y114861D02*G01X295383D01*X278725Y124605D02*G01X295290D01*X278744Y242420D02*G01X295272D01*X278747Y272538D02*G01X295269D01*X279074Y262794D02*G01X294942D01*X279076Y252164D02*G01X294940D01*X279092Y134349D02*G01X294923D01*X279169Y105117D02*G01X294846D01*X279379Y113975D02*G01X294637D01*X279446Y125491D02*G01X294570D01*X279460Y243306D02*G01X294556D01*X279461Y271652D02*G01X294554D01*X279700Y263680D02*G01X294315D01*X279702Y251278D02*G01X294314D01*X279714Y133463D02*G01X294302D01*X279770Y106003D02*G01X294246D01*X279923Y113089D02*G01X294093D01*X279972Y126377D02*G01X294044D01*X279981Y244192D02*G01X294034D01*X279983Y270766D02*G01X294033D01*X280155Y264566D02*G01X293861D01*X280156Y250392D02*G01X293860D01*X280165Y132577D02*G01X293851D01*X280205Y106888D02*G01X293811D01*X280312Y112203D02*G01X293703D01*X280346Y127262D02*G01X293669D01*X280353Y245077D02*G01X293663D01*X280354Y269881D02*G01X293662D01*X280471Y265451D02*G01X293545D01*X280472Y249507D02*G01X293544D01*X280478Y131692D02*G01X293538D01*X280504Y107774D02*G01X293512D01*X280573Y111318D02*G01X293443D01*X280594Y128148D02*G01X293422D01*X280598Y245963D02*G01X293418D01*X280599Y268995D02*G01X293417D01*X280667Y266337D02*G01X293349D01*X280667Y248621D02*G01X293349D01*X280670Y130806D02*G01X293346D01*X280684Y108660D02*G01X293331D01*X280718Y110432D02*G01X293298D01*X280727Y129034D02*G01X293289D01*X280729Y246849D02*G01X293287D01*X280729Y268109D02*G01X293287D01*X280751Y267223D02*G01X293264D01*X280752Y247735D02*G01X293264D01*X280752Y129920D02*G01X293264D01*X280755Y109546D02*G01X293261D01*X142559Y184841D02*G01X278845D01*X128181Y191928D02*G01X277771D01*X128018Y185727D02*G01X277079D01*X127799Y191042D02*G01X276693D01*X127377Y186613D02*G01X276343D01*X126806Y190156D02*G01X276135D01*X102463Y187499D02*G01X275953D01*X102463Y189270D02*G01X275858D01*X102463Y188385D02*G01X275801D01*X270261Y260137D02*G01X272764D01*X270260Y254822D02*G01X272734D01*X254230Y137007D02*G01X272541D01*X270094Y116633D02*G01X270926D01*X270050Y122833D02*G01X270671D01*X256150Y240648D02*G01X270621D01*X256977Y136121D02*G01X269794D01*X257740Y241534D02*G01X269031D01*X258235Y135235D02*G01X268536D01*X258744Y242420D02*G01X268028D01*X259092Y134349D02*G01X267679D01*X259460Y243306D02*G01X267312D01*X259714Y133463D02*G01X267058D01*X266475Y126377D02*G01X266800D01*X259981Y244192D02*G01X266790D01*X265406Y250392D02*G01X266615D01*X260165Y132577D02*G01X266607D01*X260346Y127262D02*G01X266425D01*X260353Y245077D02*G01X266418D01*X260472Y249507D02*G01X266300D01*X260478Y131692D02*G01X266294D01*X260594Y128148D02*G01X266178D01*X260598Y245963D02*G01X266174D01*X260667Y248621D02*G01X266104D01*X260670Y130806D02*G01X266101D01*X260727Y129034D02*G01X266045D01*X260729Y246849D02*G01X266043D01*X260752Y247735D02*G01X266020D01*X260752Y129920D02*G01X266019D01*X102463Y171554D02*G01X263302D01*X190793Y210530D02*G01X261992D01*X102463Y206101D02*G01X261847D01*X170440Y167125D02*G01X261406D01*X102463Y170668D02*G01X261404D01*X260156Y250392D02*G01X261366D01*X191174Y209644D02*G01X261113D01*X190251Y206987D02*G01X261057D01*X154610Y168011D02*G01X260881D01*X153640Y169782D02*G01X260880D01*X191224Y208759D02*G01X260774D01*X190963Y207873D02*G01X260758D01*X154350Y168896D02*G01X260728D01*X259972Y126377D02*G01X260297D01*X256101Y122833D02*G01X256722D01*X255846Y116633D02*G01X256678D01*X254038Y254822D02*G01X256512D01*X254008Y260137D02*G01X256511D01*X223156Y121948D02*G01X256372D01*X223186Y117518D02*G01X256341D01*X223295Y255707D02*G01X256232D01*X223296Y259251D02*G01X256232D01*X223382Y121062D02*G01X256145D01*X223400Y118404D02*G01X256128D01*X223458Y256593D02*G01X256069D01*X223459Y258365D02*G01X256069D01*X223495Y120176D02*G01X256032D01*X223501Y119290D02*G01X256026D01*X223512Y257479D02*G01X256016D01*X226764Y260137D02*G01X252764D01*X226793Y254822D02*G01X252734D01*X226986Y137007D02*G01X252541D01*X228601Y116633D02*G01X250926D01*X228857Y122833D02*G01X250671D01*X228906Y240648D02*G01X250621D01*X228913Y274310D02*G01X250615D01*X229693Y261022D02*G01X249834D01*X229698Y253936D02*G01X249830D01*X229733Y136121D02*G01X249794D01*X229900Y103345D02*G01X249628D01*X230334Y115747D02*G01X249194D01*X230469Y123719D02*G01X249058D01*X230496Y241534D02*G01X249031D01*X230500Y273424D02*G01X249028D01*X230966Y261908D02*G01X248562D01*X230969Y253050D02*G01X248559D01*X230991Y135235D02*G01X248536D01*X231099Y104231D02*G01X248429D01*X231389Y114861D02*G01X248139D01*X231481Y124605D02*G01X248046D01*X231500Y242420D02*G01X248028D01*X231502Y272538D02*G01X248025D01*X231830Y262794D02*G01X247698D01*X231832Y252164D02*G01X247695D01*X231848Y134349D02*G01X247679D01*X231925Y105117D02*G01X247602D01*X232135Y113975D02*G01X247393D01*X232202Y125491D02*G01X247326D01*X232216Y243306D02*G01X247312D01*X232217Y271652D02*G01X247310D01*X232456Y263680D02*G01X247071D01*X232458Y251278D02*G01X247070D01*X232470Y133463D02*G01X247058D01*X232526Y106003D02*G01X247002D01*X232679Y113089D02*G01X246849D01*X232728Y126377D02*G01X246800D01*X232737Y244192D02*G01X246790D01*X232739Y270766D02*G01X246789D01*X232911Y264566D02*G01X246617D01*X232912Y250392D02*G01X246615D01*X232921Y132577D02*G01X246607D01*X232961Y106888D02*G01X246567D01*X233068Y112203D02*G01X246459D01*X233102Y127262D02*G01X246425D01*X233109Y245077D02*G01X246418D01*X233110Y269881D02*G01X246418D01*X233227Y265451D02*G01X246300D01*X233228Y249507D02*G01X246300D01*X233233Y131692D02*G01X246294D01*X233260Y107774D02*G01X246268D01*X233329Y111318D02*G01X246199D01*X233350Y128148D02*G01X246178D01*X233354Y245963D02*G01X246174D01*X233355Y268995D02*G01X246173D01*X233423Y266337D02*G01X246105D01*X233423Y248621D02*G01X246104D01*X233426Y130806D02*G01X246101D01*X233440Y108660D02*G01X246087D01*X233474Y110432D02*G01X246054D01*X233483Y129034D02*G01X246045D01*X233485Y246849D02*G01X246043D01*X233485Y268109D02*G01X246043D01*X233507Y267223D02*G01X246020D01*X233507Y247735D02*G01X246020D01*X233508Y129920D02*G01X246019D01*X233511Y109546D02*G01X246017D01*X223017Y260137D02*G01X225520D01*X223016Y254822D02*G01X225490D01*X206986Y137007D02*G01X225297D01*X222850Y116633D02*G01X223682D01*X222806Y122833D02*G01X223426D01*X208906Y240648D02*G01X223377D01*X209733Y136121D02*G01X222550D01*X210496Y241534D02*G01X221787D01*X210991Y135235D02*G01X221292D01*X211500Y242420D02*G01X220783D01*X211848Y134349D02*G01X220435D01*X212216Y243306D02*G01X220068D01*X212470Y133463D02*G01X219814D01*X219231Y126377D02*G01X219556D01*X212737Y244192D02*G01X219546D01*X218162Y250392D02*G01X219371D01*X212921Y132577D02*G01X219363D01*X213102Y127262D02*G01X219181D01*X213109Y245077D02*G01X219174D01*X213228Y249507D02*G01X219056D01*X213233Y131692D02*G01X219050D01*X213350Y128148D02*G01X218934D01*X213354Y245963D02*G01X218929D01*X213423Y248621D02*G01X218860D01*X213426Y130806D02*G01X218857D01*X213483Y129034D02*G01X218800D01*X213485Y246849D02*G01X218799D01*X213507Y247735D02*G01X218776D01*X213508Y129920D02*G01X218775D01*X212912Y250392D02*G01X214122D01*X212728Y126377D02*G01X213053D01*X208857Y122833D02*G01X209478D01*X208601Y116633D02*G01X209433D01*X206793Y254822D02*G01X209268D01*X206764Y260137D02*G01X209267D01*X178087Y121948D02*G01X209127D01*X177246Y117518D02*G01X209097D01*X102463Y255707D02*G01X208988D01*X177946Y259251D02*G01X208987D01*X178248Y121062D02*G01X208901D01*X177779Y118404D02*G01X208884D01*X175023Y256593D02*G01X208825D01*X177418Y258365D02*G01X208825D01*X178253Y120176D02*G01X208788D01*X178102Y119290D02*G01X208782D01*X176579Y257479D02*G01X208772D01*X178264Y260137D02*G01X205520D01*X102463Y254822D02*G01X205490D01*X102463Y137007D02*G01X205297D01*X176398Y116633D02*G01X203682D01*X177752Y122833D02*G01X203426D01*X102463Y240648D02*G01X203377D01*X102463Y274310D02*G01X203371D01*X178412Y261022D02*G01X202590D01*X102463Y253936D02*G01X202586D01*X102463Y136121D02*G01X202550D01*X112894Y103345D02*G01X202383D01*X174809Y115747D02*G01X201950D01*X177203Y123719D02*G01X201814D01*X102463Y241534D02*G01X201787D01*X102463Y273424D02*G01X201784D01*X178404Y261908D02*G01X201318D01*X102463Y253050D02*G01X201315D01*X175305Y135235D02*G01X201292D01*X112894Y104231D02*G01X201185D01*X112894Y114861D02*G01X200895D01*X176328Y124605D02*G01X200802D01*X102463Y242420D02*G01X200783D01*X102463Y272538D02*G01X200781D01*X178239Y262794D02*G01X200453D01*X179346Y252164D02*G01X200451D01*X176626Y134349D02*G01X200435D01*X112894Y105117D02*G01X200358D01*X112894Y113975D02*G01X200149D01*X174634Y125491D02*G01X200081D01*X102463Y243306D02*G01X200068D01*X102463Y271652D02*G01X200066D01*X177900Y263680D02*G01X199827D01*X179987Y251278D02*G01X199826D01*X177388Y133463D02*G01X199814D01*X112894Y106003D02*G01X199758D01*X112894Y113089D02*G01X199605D01*X176058Y126377D02*G01X199556D01*X102463Y244192D02*G01X199546D01*X102463Y270766D02*G01X199545D01*X177345Y264566D02*G01X199372D01*X180209Y250392D02*G01X199371D01*X177868Y132577D02*G01X199363D01*X112894Y106888D02*G01X199323D01*X112894Y112203D02*G01X199215D01*X177041Y127262D02*G01X199181D01*X102463Y245077D02*G01X199174D01*X102463Y269881D02*G01X199173D01*X176460Y265451D02*G01X199056D01*X180125Y249507D02*G01X199056D01*X178150Y131692D02*G01X199050D01*X112894Y107774D02*G01X199024D01*X195087Y217617D02*G01X199004D01*X112894Y111318D02*G01X198955D01*X177650Y128148D02*G01X198934D01*X102463Y245963D02*G01X198929D01*X102463Y268995D02*G01X198929D01*X174725Y266337D02*G01X198861D01*X179699Y248621D02*G01X198860D01*X178265Y130806D02*G01X198857D01*X153607Y222046D02*G01X198851D01*X112894Y108660D02*G01X198843D01*X112894Y110432D02*G01X198810D01*X178027Y129034D02*G01X198800D01*X102463Y246849D02*G01X198799D01*X102463Y268109D02*G01X198798D01*X102463Y267223D02*G01X198776D01*X178560Y247735D02*G01X198776D01*X178226Y129920D02*G01X198775D01*X112894Y109546D02*G01X198773D01*X194661Y218503D02*G01X198122D01*X152844Y221160D02*G01X198064D01*X193527Y219388D02*G01X197782D01*X151520Y220274D02*G01X197765D01*X190565Y145865D02*G01X191808D01*X102463Y219388D02*G01X191513D01*X102463Y214959D02*G01X190736D01*X102463Y150294D02*G01X190630D01*X188666Y146751D02*G01X190456D01*X102463Y218503D02*G01X190378D01*X102463Y215845D02*G01X190093D01*X102463Y149408D02*G01X190051D01*X102463Y147637D02*G01X189982D01*X102463Y217617D02*G01X189953D01*X102463Y216731D02*G01X189870D01*X102463Y148522D02*G01X189864D01*X102463Y146751D02*G01X188499D01*X163006Y211416D02*G01X187363D01*X102463Y206987D02*G01X186914D01*X102463Y142322D02*G01X186603D01*X102463Y145865D02*G01X186601D01*X163530Y210530D02*G01X186372D01*X163003Y207873D02*G01X186203D01*X102463Y143207D02*G01X186078D01*X102463Y144979D02*G01X186077D01*X163681Y209644D02*G01X185991D01*X163529Y208759D02*G01X185942D01*X102463Y144093D02*G01X185925D01*X178980Y155609D02*G01X179702D01*X102463Y151180D02*G01X178925D01*X177987Y154723D02*G01X178567D01*X102463Y152066D02*G01X178282D01*X102463Y153837D02*G01X178142D01*X102463Y152951D02*G01X178059D01*X102463Y247735D02*G01X176558D01*X102463Y252164D02*G01X175772D01*X102463Y154723D02*G01X175557D01*X102463Y248621D02*G01X175419D01*X102463Y251278D02*G01X175132D01*X174722Y159152D02*G01X175100D01*X102463Y249507D02*G01X174993D01*X102463Y250392D02*G01X174909D01*X102463Y155609D02*G01X174563D01*X102463Y158266D02*G01X174390D01*X102463Y156495D02*G01X174181D01*X102463Y157381D02*G01X174130D01*X171169Y163581D02*G01X172113D01*X164725Y266337D02*G01X171890D01*X165023Y256593D02*G01X171592D01*X164809Y115747D02*G01X171490D01*X127656Y198129D02*G01X171441D01*X127972Y193699D02*G01X171296D01*X165305Y135235D02*G01X170994D01*X102463Y159152D02*G01X170948D01*X170288Y162696D02*G01X170769D01*X128129Y197243D02*G01X170562D01*X127477Y194585D02*G01X170506D01*X102463Y160038D02*G01X170367D01*X162239Y161810D02*G01X170296D01*X128246Y196357D02*G01X170223D01*X128059Y195471D02*G01X170207D01*X102463Y160924D02*G01X170179D01*X166460Y265451D02*G01X170154D01*X166579Y257479D02*G01X170035D01*X166398Y116633D02*G01X169902D01*X166626Y134349D02*G01X169673D01*X167345Y264566D02*G01X169269D01*X167418Y258365D02*G01X169196D01*X167246Y117518D02*G01X169054D01*X167388Y133463D02*G01X168911D01*X167900Y263680D02*G01X168714D01*X167946Y259251D02*G01X168668D01*X167779Y118404D02*G01X168520D01*X167868Y132577D02*G01X168431D01*X168239Y262794D02*G01X168376D01*X168264Y260137D02*G01X168350D01*X168102Y119290D02*G01X168197D01*X163232Y162696D02*G01X167508D01*X154559Y167125D02*G01X167355D01*X163614Y163581D02*G01X166626D01*X162696Y166239D02*G01X166568D01*X163665Y164467D02*G01X166286D01*X163405Y165353D02*G01X166269D01*X154725Y266337D02*G01X161890D01*X155023Y256593D02*G01X161592D01*X154809Y115747D02*G01X161490D01*X155305Y135235D02*G01X160994D01*X157170Y212302D02*G01X160940D01*X156460Y265451D02*G01X160154D01*X156579Y257479D02*G01X160035D01*X152621Y238877D02*G01X160017D01*X156398Y116633D02*G01X159902D01*X102463Y161810D02*G01X159809D01*X156626Y134349D02*G01X159673D01*X154177Y166239D02*G01X159352D01*X157345Y264566D02*G01X159269D01*X154468Y234448D02*G01X159240D01*X157418Y258365D02*G01X159196D01*X157246Y117518D02*G01X159054D01*X157388Y133463D02*G01X158911D01*X153468Y237991D02*G01X158882D01*X102463Y162696D02*G01X158815D01*X157900Y263680D02*G01X158714D01*X157946Y259251D02*G01X158668D01*X153183Y165353D02*G01X158642D01*X154474Y235333D02*G01X158597D01*X157779Y118404D02*G01X158520D01*X154001Y237105D02*G01X158457D01*X102463Y163581D02*G01X158433D01*X157868Y132577D02*G01X158431D01*X102463Y164467D02*G01X158382D01*X158239Y262794D02*G01X158376D01*X154323Y236219D02*G01X158374D01*X158264Y260137D02*G01X158350D01*X158102Y119290D02*G01X158197D01*X138796Y212302D02*G01X157003D01*X138940Y207873D02*G01X155107D01*X139675Y211416D02*G01X155105D01*X139730Y208759D02*G01X154582D01*X140013Y210530D02*G01X154581D01*X140030Y209644D02*G01X154429D01*X144725Y266337D02*G01X151890D01*X145023Y256593D02*G01X151592D01*X144809Y115747D02*G01X151490D01*X145305Y135235D02*G01X150994D01*X102463Y165353D02*G01X150754D01*X102463Y169782D02*G01X150297D01*X146460Y265451D02*G01X150154D01*X146579Y257479D02*G01X150035D01*X146398Y116633D02*G01X149902D01*X102463Y166239D02*G01X149760D01*X146626Y134349D02*G01X149673D01*X102463Y168896D02*G01X149587D01*X102463Y167125D02*G01X149378D01*X102463Y168011D02*G01X149327D01*X147345Y264566D02*G01X149269D01*X147418Y258365D02*G01X149196D01*X147246Y117518D02*G01X149054D01*X147388Y133463D02*G01X148911D01*X147900Y263680D02*G01X148714D01*X147946Y259251D02*G01X148668D01*X147779Y118404D02*G01X148520D01*X147868Y132577D02*G01X148431D01*X148239Y262794D02*G01X148376D01*X148264Y260137D02*G01X148350D01*X148102Y119290D02*G01X148197D01*X141037Y239762D02*G01X147703D01*X141520Y220274D02*G01X147220D01*X142621Y238877D02*G01X146119D01*X142844Y221160D02*G01X145896D01*X143468Y237991D02*G01X145272D01*X143607Y222046D02*G01X145134D01*X144001Y237105D02*G01X144739D01*X144088Y222932D02*G01X144652D01*X144323Y236219D02*G01X144417D01*X134725Y266337D02*G01X141890D01*X135023Y256593D02*G01X141592D01*X134809Y115747D02*G01X141490D01*X135305Y135235D02*G01X140994D01*X136460Y265451D02*G01X140154D01*X138622Y184841D02*G01X140119D01*X136579Y257479D02*G01X140035D01*X136398Y116633D02*G01X139902D01*X136626Y134349D02*G01X139673D01*X139070Y180412D02*G01X139670D01*X137345Y264566D02*G01X139269D01*X137418Y258365D02*G01X139196D01*X137246Y117518D02*G01X139054D01*X137388Y133463D02*G01X138911D01*X137900Y263680D02*G01X138714D01*X137946Y259251D02*G01X138668D01*X137779Y118404D02*G01X138520D01*X137868Y132577D02*G01X138431D01*X138239Y262794D02*G01X138376D01*X138264Y260137D02*G01X138350D01*X138102Y119290D02*G01X138197D01*X131037Y239762D02*G01X137703D01*X131520Y220274D02*G01X137220D01*X128241Y184841D02*G01X136182D01*X132621Y238877D02*G01X136119D01*X102463Y212302D02*G01X136007D01*X132844Y221160D02*G01X135896D01*X102463Y207873D02*G01X135863D01*X128231Y180412D02*G01X135733D01*X133468Y237991D02*G01X135272D01*X128157Y183955D02*G01X135191D01*X133607Y222046D02*G01X135134D01*X102463Y211416D02*G01X135128D01*X102463Y208759D02*G01X135073D01*X128182Y181298D02*G01X135022D01*X127730Y183070D02*G01X134810D01*X102463Y210530D02*G01X134790D01*X102463Y209644D02*G01X134774D01*X127801Y182184D02*G01X134761D01*X134001Y237105D02*G01X134739D01*X134088Y222932D02*G01X134652D01*X134323Y236219D02*G01X134417D01*X124725Y266337D02*G01X131890D01*X112894Y125491D02*G01X131665D01*X125023Y256593D02*G01X131592D01*X112894Y115747D02*G01X131490D01*X102463Y135235D02*G01X130994D01*X112894Y126377D02*G01X130241D01*X126460Y265451D02*G01X130154D01*X126579Y257479D02*G01X130035D01*X112894Y124605D02*G01X129972D01*X112894Y116633D02*G01X129902D01*X102463Y134349D02*G01X129673D01*X127345Y264566D02*G01X129269D01*X112894Y127262D02*G01X129259D01*X127418Y258365D02*G01X129196D01*X112894Y123719D02*G01X129097D01*X112894Y117518D02*G01X129054D01*X102463Y133463D02*G01X128911D01*X127900Y263680D02*G01X128714D01*X127946Y259251D02*G01X128668D01*X102463Y128148D02*G01X128650D01*X112894Y122833D02*G01X128547D01*X112894Y118404D02*G01X128520D01*X102463Y132577D02*G01X128431D01*X128239Y262794D02*G01X128376D01*X128264Y260137D02*G01X128350D01*X102463Y129034D02*G01X128272D01*X112894Y121948D02*G01X128213D01*X112894Y119290D02*G01X128197D01*X102463Y131692D02*G01X128149D01*X102463Y129920D02*G01X128074D01*X112894Y121062D02*G01X128051D01*X112894Y120176D02*G01X128046D01*X102463Y130806D02*G01X128034D01*X102463Y230018D02*G01X127895D01*X102463Y239762D02*G01X127703D01*X102463Y220274D02*G01X127220D01*X102463Y229133D02*G01X126458D01*X102463Y230904D02*G01X126195D01*X102463Y238877D02*G01X126119D01*X102463Y221160D02*G01X125896D01*X102463Y228247D02*G01X125477D01*X102463Y231790D02*G01X125319D01*X102463Y237991D02*G01X125272D01*X102463Y222046D02*G01X125134D01*X118438Y199014D02*G01X124869D01*X102463Y227361D02*G01X124869D01*X102463Y232676D02*G01X124769D01*X102463Y237105D02*G01X124739D01*X102463Y222932D02*G01X124652D01*X102463Y226475D02*G01X124491D01*X102463Y233562D02*G01X124434D01*X102463Y236219D02*G01X124417D01*X118932Y190156D02*G01X124376D01*X102463Y223818D02*G01X124370D01*X102463Y225589D02*G01X124294D01*X102463Y234448D02*G01X124272D01*X102463Y235333D02*G01X124267D01*X102463Y224703D02*G01X124255D01*X119385Y178640D02*G01X123922D01*X119503Y186613D02*G01X123804D01*X119603Y194585D02*G01X123704D01*X119782Y198129D02*G01X123525D01*X119856Y183070D02*G01X123451D01*X119925Y191042D02*G01X123382D01*X119927Y182184D02*G01X123380D01*X120097Y179526D02*G01X123211D01*X120098Y193699D02*G01X123209D01*X120144Y185727D02*G01X123163D01*X120185Y195471D02*G01X123123D01*X120255Y197243D02*G01X123052D01*X120283Y183955D02*G01X123024D01*X120307Y191928D02*G01X123000D01*X120308Y181298D02*G01X122999D01*X120357Y180412D02*G01X122950D01*X120358Y192814D02*G01X122949D01*X120367Y184841D02*G01X122940D01*X120372Y196357D02*G01X122935D01*X114725Y266337D02*G01X121890D01*X115023Y256593D02*G01X121592D01*X116460Y265451D02*G01X120154D01*X116579Y257479D02*G01X120035D01*X117345Y264566D02*G01X119269D01*X117418Y258365D02*G01X119196D01*X117900Y263680D02*G01X118714D01*X117946Y259251D02*G01X118668D01*X118239Y262794D02*G01X118376D01*X118264Y260137D02*G01X118350D01*X102463Y199014D02*G01X116995D01*X102463Y190156D02*G01X116502D01*X102463Y178640D02*G01X116048D01*X102463Y186613D02*G01X115930D01*X113172Y194585D02*G01X115830D01*X111295Y198129D02*G01X115651D01*X102463Y183070D02*G01X115577D01*X109818Y191042D02*G01X115508D01*X102463Y182184D02*G01X115506D01*X102463Y179526D02*G01X115337D01*X113008Y193699D02*G01X115335D01*X102463Y185727D02*G01X115289D01*X113127Y195471D02*G01X115249D01*X112326Y197243D02*G01X115178D01*X102463Y183955D02*G01X115150D01*X111839Y191928D02*G01X115126D01*X102463Y181298D02*G01X115125D01*X102463Y180412D02*G01X115076D01*X112602Y192814D02*G01X115075D01*X102463Y184841D02*G01X115066D01*X112864Y196357D02*G01X115061D01*X102463Y266337D02*G01X111890D01*X102463Y256593D02*G01X111592D01*X102463Y265451D02*G01X110154D01*X102463Y257479D02*G01X110035D01*X102463Y264566D02*G01X109269D01*X102463Y258365D02*G01X109196D01*X102463Y191042D02*G01X108903D01*X102463Y263680D02*G01X108714D01*X102463Y259251D02*G01X108668D01*X102463Y262794D02*G01X108376D01*X102463Y260137D02*G01X108350D01*X102463Y261908D02*G01X108211D01*X102463Y261022D02*G01X108202D01*X102463Y198129D02*G01X107426D01*X102463Y191928D02*G01X106882D01*X102463Y197243D02*G01X106395D01*X102463Y192814D02*G01X106119D01*X102463Y196357D02*G01X105857D01*X102463Y193699D02*G01X105713D01*X102463Y195471D02*G01X105594D01*X102463Y194585D02*G01X105548D01*X100003Y277165D02*G01X729924D01*Y100000*X100003*Y277165*G54D25*X202191Y19209D02*G01Y15074D01*X203623Y17831D02*G01Y15074D01*Y17043D02*G01X204100Y17634D01*X204418Y17831*X204895*X205214Y17634*X205373Y17043*Y15074*X206964Y18224D02*G01Y18421D01*X207123Y18815*X207282Y19012*X207600Y19209*X208236*X208555Y19012*X208714Y18815*X208873Y18421*Y18028*X208714Y17634*X208395Y17043*X206805Y15074*X209032*X210464Y19209D02*G01Y15074D01*X212691Y19209D02*G01Y15074D01*X210464Y17240D02*G01X212691D01*X214282Y18224D02*G01Y18421D01*X214441Y18815*X214600Y19012*X214918Y19209*X215555*X215873Y19012*X216032Y18815*X216191Y18421*Y18028*X216032Y17634*X215714Y17043*X214123Y15074*X216350*X255236Y28224D02*G01X255077Y28618D01*X254759Y29012*X254441Y29209*X253805*X253486Y29012*X253168Y28618*X253009Y28224*X252850Y27634*Y26649*X253009Y26059*X253168Y25665*X253486Y25271*X253805Y25074*X254441*X254759Y25271*X255077Y25665*X255236Y26059*X257623Y29209D02*G01X257305Y29012D01*X256986Y28618*X256827Y28224*X256668Y27634*Y26649*X256827Y26059*X256986Y25665*X257305Y25271*X257623Y25074*X258259*X258577Y25271*X258895Y25665*X259055Y26059*X259214Y26649*Y27634*X259055Y28224*X258895Y28618*X258577Y29012*X258259Y29209*X257623*X260645D02*G01Y25074D01*Y29209D02*G01X261759D01*X262236Y29012*X262555Y28618*X262714Y28224*X262873Y27634*Y26649*X262714Y26059*X262555Y25665*X262236Y25271*X261759Y25074*X260645*X264305Y29209D02*G01Y25074D01*Y29209D02*G01X266373D01*X264305Y27240D02*G01X265577D01*X264305Y25074D02*G01X266373D01*X196736Y28224D02*G01X196577Y28618D01*X196259Y29012*X195941Y29209*X195305*X194986Y29012*X194668Y28618*X194509Y28224*X194350Y27634*Y26649*X194509Y26059*X194668Y25665*X194986Y25271*X195305Y25074*X195941*X196259Y25271*X196577Y25665*X196736Y26059*X198168Y29209D02*G01Y26256D01*X198327Y25665*X198645Y25271*X199123Y25074*X199441*X199918Y25271*X200236Y25665*X200395Y26256*Y29209*X204055Y28618D02*G01X203736Y29012D01*X203259Y29209*X202623*X202145Y29012*X201827Y28618*Y28224*X201986Y27831*X202145Y27634*X202464Y27437*X203418Y27043*X203736Y26846*X203895Y26649*X204055Y26256*Y25665*X203736Y25271*X203259Y25074*X202623*X202145Y25271*X201827Y25665*X206600Y29209D02*G01Y25074D01*X205486Y29209D02*G01X207714D01*X210100D02*G01X209782Y29012D01*X209464Y28618*X209305Y28224*X209145Y27634*Y26649*X209305Y26059*X209464Y25665*X209782Y25271*X210100Y25074*X210736*X211055Y25271*X211373Y25665*X211532Y26059*X211691Y26649*Y27634*X211532Y28224*X211373Y28618*X211055Y29012*X210736Y29209*X210100*X213123D02*G01Y25074D01*Y29209D02*G01X214395Y25074D01*X215668Y29209D02*G01X214395Y25074D01*X215668Y29209D02*G01Y25074D01*X217100Y29209D02*G01Y25074D01*Y29209D02*G01X219168D01*X217100Y27240D02*G01X218373D01*X217100Y25074D02*G01X219168D01*X220600Y29209D02*G01Y25074D01*Y29209D02*G01X222032D01*X222509Y29012*X222668Y28815*X222827Y28421*Y28028*X222668Y27634*X222509Y27437*X222032Y27240*X220600*X221714D02*G01X222827Y25074D01*X146305Y29209D02*G01X145986Y29012D01*X145668Y28618*X145509Y28224*X145350Y27634*Y26649*X145509Y26059*X145668Y25665*X145986Y25271*X146305Y25074*X146941*X147259Y25271*X147577Y25665*X147736Y26059*X147895Y26649*Y27634*X147736Y28224*X147577Y28618*X147259Y29012*X146941Y29209*X146305*X149327D02*G01Y25074D01*Y29209D02*G01X150759D01*X151236Y29012*X151395Y28815*X151555Y28421*Y27831*X151395Y27437*X151236Y27240*X150759Y27043*X149327*X152986Y29209D02*G01Y25074D01*Y29209D02*G01X155055D01*X152986Y27240D02*G01X154259D01*X152986Y25074D02*G01X155055D01*X156486Y29209D02*G01Y25074D01*Y29209D02*G01X157918D01*X158395Y29012*X158555Y28815*X158714Y28421*Y28028*X158555Y27634*X158395Y27437*X157918Y27240*X156486*X157600D02*G01X158714Y25074D01*X161418Y29209D02*G01X160145Y25074D01*X161418Y29209D02*G01X162691Y25074D01*X160623Y26453D02*G01X162214D01*X165236Y29209D02*G01Y25074D01*X164123Y29209D02*G01X166350D01*X168736D02*G01X168418Y29012D01*X168100Y28618*X167941Y28224*X167782Y27634*Y26649*X167941Y26059*X168100Y25665*X168418Y25271*X168736Y25074*X169373*X169691Y25271*X170009Y25665*X170168Y26059*X170327Y26649*Y27634*X170168Y28224*X170009Y28618*X169691Y29012*X169373Y29209*X168736*X171759D02*G01Y25074D01*Y29209D02*G01X173191D01*X173668Y29012*X173827Y28815*X173986Y28421*Y28028*X173827Y27634*X173668Y27437*X173191Y27240*X171759*X172873D02*G01X173986Y25074D01*X112850Y29209D02*G01Y25074D01*Y29209D02*G01X113964D01*X114441Y29012*X114759Y28618*X114918Y28224*X115077Y27634*Y26649*X114918Y26059*X114759Y25665*X114441Y25271*X113964Y25074*X112850*X117782Y29209D02*G01X116509Y25074D01*X117782Y29209D02*G01X119055Y25074D01*X116986Y26453D02*G01X118577D01*X121600Y29209D02*G01Y25074D01*X120486Y29209D02*G01X122714D01*X124145D02*G01Y25074D01*Y29209D02*G01X126214D01*X124145Y27240D02*G01X125418D01*X124145Y25074D02*G01X126214D01*X248248Y19209D02*G01Y15074D01*X249680Y19209D02*G01Y15074D01*Y19209D02*G01X251907Y15074D01*Y19209D02*G01Y15074D01*X253339Y19209D02*G01Y15074D01*X255566Y19209D02*G01Y15074D01*X253339Y17240D02*G01X255566D01*X256998Y18421D02*G01X257316Y18618D01*X257793Y19209*Y15074*X261452Y19209D02*G01X259861Y15074D01*X259225Y19209D02*G01X261452D01*X263839D02*G01X263361Y19012D01*X263043Y18421*X262884Y17437*Y16846*X263043Y15862*X263361Y15271*X263839Y15074*X264157*X264634Y15271*X264952Y15862*X265111Y16846*Y17437*X264952Y18421*X264634Y19012*X264157Y19209*X263839*X266702Y18224D02*G01Y18421D01*X266861Y18815*X267020Y19012*X267339Y19209*X267975*X268293Y19012*X268452Y18815*X268611Y18421*Y18028*X268452Y17634*X268134Y17043*X266543Y15074*X268770*X106384Y19209D02*G01X105907Y19012D01*X105589Y18421*X105430Y17437*Y16846*X105589Y15862*X105907Y15271*X106384Y15074*X106702*X107180Y15271*X107498Y15862*X107657Y16846*Y17437*X107498Y18421*X107180Y19012*X106702Y19209*X106384*X110998Y18618D02*G01X110839Y19012D01*X110361Y19209*X110043*X109566Y19012*X109248Y18421*X109089Y17437*Y16453*X109248Y15665*X109566Y15271*X110043Y15074*X110202*X110680Y15271*X110998Y15665*X111157Y16256*Y16453*X110998Y17043*X110680Y17437*X110202Y17634*X110043*X109566Y17437*X109248Y17043*X109089Y16453*X115452Y19996D02*G01X112589Y13696D01*X117839Y19209D02*G01X117361Y19012D01*X117043Y18421*X116884Y17437*Y16846*X117043Y15862*X117361Y15271*X117839Y15074*X118157*X118634Y15271*X118952Y15862*X119111Y16846*Y17437*X118952Y18421*X118634Y19012*X118157Y19209*X117839*X122770D02*G01X121180Y15074D01*X120543Y19209D02*G01X122770D01*X127066Y19996D02*G01X124202Y13696D01*X128498Y18421D02*G01X128816Y18618D01*X129293Y19209*Y15074*X132952Y19209D02*G01X131361Y15074D01*X130725Y19209D02*G01X132952D01*X153452D02*G01Y15074D01*Y19209D02*G01X155520D01*X153452Y17240D02*G01X154725D01*X153452Y15074D02*G01X155520D01*X156952Y19209D02*G01Y15074D01*Y19209D02*G01X158066D01*X158543Y19012*X158861Y18618*X159020Y18224*X159180Y17634*Y16649*X159020Y16059*X158861Y15665*X158543Y15271*X158066Y15074*X156952*X160611Y19209D02*G01Y15074D01*Y19209D02*G01X161725D01*X162202Y19012*X162520Y18618*X162680Y18224*X162839Y17634*Y16649*X162680Y16059*X162520Y15665*X162202Y15271*X161725Y15074*X160611*X164270Y19209D02*G01X165543Y17240D01*Y15074*X166816Y19209D02*G01X165543Y17240D01*X151543Y41037D02*G01Y36574D01*X150350Y41037D02*G01X152736D01*X154270Y38274D02*G01X156316D01*Y38699*X156145Y39124*X155975Y39337*X155634Y39549*X155123*X154782Y39337*X154441Y38912*X154270Y38274*Y37849*X154441Y37212*X154782Y36787*X155123Y36574*X155634*X155975Y36787*X156316Y37212*X157850Y41037D02*G01Y36574D01*X159555Y39549D02*G01X159384Y39337D01*X159555Y39124*X159725Y39337*X159555Y39549*Y36999D02*G01X159384Y36787D01*X159555Y36574*X159725Y36787*X159555Y36999*X162793Y40399D02*G01Y36574D01*X161259Y38487D02*G01X164327D01*X166202Y41037D02*G01X168077D01*X167055Y39337*X167566*X167907Y39124*X168077Y38912*X168248Y38274*Y37849*X168077Y37212*X167736Y36787*X167225Y36574*X166714*X166202Y36787*X166032Y36999*X165861Y37424*X171998Y39549D02*G01X171827Y38912D01*X171486Y38487*X170975Y38274*X170805*X170293Y38487*X169952Y38912*X169782Y39549*Y39762*X169952Y40399*X170293Y40824*X170805Y41037*X170975*X171486Y40824*X171827Y40399*X171998Y39549*Y38487*X171827Y37424*X171486Y36787*X170975Y36574*X170634*X170123Y36787*X169952Y37212*X174555Y41037D02*G01X174043Y40824D01*X173702Y40187*X173532Y39124*Y38487*X173702Y37424*X174043Y36787*X174555Y36574*X174895*X175407Y36787*X175748Y37424*X175918Y38487*Y39124*X175748Y40187*X175407Y40824*X174895Y41037*X174555*X179157D02*G01X177452Y38062D01*X180009*X179157Y41037D02*G01Y36574D01*X183248Y41037D02*G01X181543Y38062D01*X184100*X183248Y41037D02*G01Y36574D01*X187339Y41037D02*G01X185634Y38062D01*X188191*X187339Y41037D02*G01Y36574D01*X191770Y40399D02*G01X191600Y40824D01*X191089Y41037*X190748*X190236Y40824*X189895Y40187*X189725Y39124*Y38062*X189895Y37212*X190236Y36787*X190748Y36574*X190918*X191430Y36787*X191770Y37212*X191941Y37849*Y38062*X191770Y38699*X191430Y39124*X190918Y39337*X190748*X190236Y39124*X189895Y38699*X189725Y38062*X194498Y41037D02*G01X193986Y40824D01*X193645Y40187*X193475Y39124*Y38487*X193645Y37424*X193986Y36787*X194498Y36574*X194839*X195350Y36787*X195691Y37424*X195861Y38487*Y39124*X195691Y40187*X195350Y40824*X194839Y41037*X194498*X197395Y40187D02*G01X197736Y40399D01*X198248Y41037*Y36574*X201998Y41037D02*G01X200293D01*X200123Y39124*X200293Y39337*X200805Y39549*X201316*X201827Y39337*X202168Y38912*X202339Y38274*X202168Y37849*X201998Y37212*X201657Y36787*X201145Y36574*X200634*X200123Y36787*X199952Y36999*X199782Y37424*X203873Y40187D02*G01X204214Y40399D01*X204725Y41037*Y36574*X206259Y40187D02*G01X206600Y40399D01*X207111Y41037*Y36574*X216486Y39549D02*G01Y37424D01*X216657Y36787*X216998Y36574*X217509*X217850Y36787*X218361Y37424*Y39549D02*G01Y36574D01*X220407Y41037D02*G01Y37424D01*X220577Y36787*X220918Y36574*X221259*X219895Y39549D02*G01X221089D01*X222793Y38274D02*G01X224839D01*Y38699*X224668Y39124*X224498Y39337*X224157Y39549*X223645*X223305Y39337*X222964Y38912*X222793Y38274*Y37849*X222964Y37212*X223305Y36787*X223645Y36574*X224157*X224498Y36787*X224839Y37212*X228418Y38912D02*G01X228077Y39337D01*X227736Y39549*X227225*X226884Y39337*X226543Y38912*X226373Y38274*Y37849*X226543Y37212*X226884Y36787*X227225Y36574*X227736*X228077Y36787*X228418Y37212*X232168Y36787D02*G01X231486D01*X230634Y36999*X230293Y37424*X229952Y38274*Y39337*X230293Y40399*X230634Y40824*X232168*X232680Y40399*X233020Y39762*X233191Y38699*X233020Y37849*X232850Y37637*X232168Y37424D02*G01X231998Y37637D01*Y39762*Y39337D02*G01X231657Y39549D01*X231316*X230975Y39337*X230805Y38912*Y38487*X230975Y38062*X231316Y37849*X231657*X231998Y38062*X232168Y37424D02*G01X232680D01*X232850Y37637*X235236Y41037D02*G01Y37424D01*X235407Y36787*X235748Y36574*X236089*X234725Y39549D02*G01X235918D01*X237623Y38274D02*G01X239668D01*Y38699*X239498Y39124*X239327Y39337*X238986Y39549*X238475*X238134Y39337*X237793Y38912*X237623Y38274*Y37849*X237793Y37212*X238134Y36787*X238475Y36574*X238986*X239327Y36787*X239668Y37212*X243248Y38912D02*G01X242907Y39337D01*X242566Y39549*X242055*X241714Y39337*X241373Y38912*X241202Y38274*Y37849*X241373Y37212*X241714Y36787*X242055Y36574*X242566*X242907Y36787*X243248Y37212*X244782Y39549D02*G01Y36574D01*Y38699D02*G01X245293Y39337D01*X245634Y39549*X246145*X246486Y39337*X246657Y38699*Y36574*X249043Y39549D02*G01X248702Y39337D01*X248361Y38912*X248191Y38274*Y37849*X248361Y37212*X248702Y36787*X249043Y36574*X249555*X249895Y36787*X250236Y37212*X250407Y37849*Y38274*X250236Y38912*X249895Y39337*X249555Y39549*X249043*X254327Y41037D02*G01X252623Y36574D01*X251941Y41037D02*G01X254327D01*X258248D02*G01X256543Y36574D01*X255861Y41037D02*G01X258248D01*X259952Y36999D02*G01X259782Y36787D01*X259952Y36574*X260123Y36787*X259952Y36999*X263702Y38912D02*G01X263361Y39337D01*X263020Y39549*X262509*X262168Y39337*X261827Y38912*X261657Y38274*Y37849*X261827Y37212*X262168Y36787*X262509Y36574*X263020*X263361Y36787*X263702Y37212*X266089Y39549D02*G01X265748Y39337D01*X265407Y38912*X265236Y38274*Y37849*X265407Y37212*X265748Y36787*X266089Y36574*X266600*X266941Y36787*X267282Y37212*X267452Y37849*Y38274*X267282Y38912*X266941Y39337*X266600Y39549*X266089*X268986D02*G01Y36574D01*Y38699D02*G01X269498Y39337D01*X269839Y39549*X270350*X270691Y39337*X270861Y38699*Y36574*Y38699D02*G01X271373Y39337D01*X271714Y39549*X272225*X272566Y39337*X272736Y38699*Y36574*X90406Y100000D02*G01X95000D01*Y101909*X90406Y104614D02*G01X95000Y103341D01*X90406Y104614D02*G01X95000Y105886D01*X93469Y103818D02*G01Y105409D01*X90406Y107318D02*G01X92594Y108591D01*X95000*X90406Y109864D02*G01X92594Y108591D01*X90406Y111295D02*G01X95000D01*X90406D02*G01Y113364D01*X92594Y111295D02*G01Y112568D01*X95000Y111295D02*G01Y113364D01*X90406Y114795D02*G01X95000D01*X90406D02*G01Y116227D01*X90625Y116705*X90844Y116864*X91281Y117023*X91719*X92156Y116864*X92375Y116705*X92594Y116227*Y114795*Y115909D02*G01X95000Y117023D01*X90406Y122432D02*G01Y124182D01*X92156Y123227*Y123705*X92375Y124023*X92594Y124182*X93250Y124341*X93687*Y124341D02*G01X94344Y124182D01*X94781Y123864*X95000Y123386*Y122909*X94781Y122432*X94562Y122273*Y122273D02*G01X94125Y122114D01*G54D44*X116928Y257797D02*G01X115605Y259119D01*X116928Y265038D02*G01X115605Y263715D01*X109687Y265038D02*G01X111009Y263715D01*X109687Y257797D02*G01X111009Y259119D01*X125750Y221301D02*G01X127072Y222623D01*X132991Y221301D02*G01X131668Y222623D01*X125750Y228542D02*G01X127072Y227219D01*X580589Y112128D02*G01X579267Y113450D01*X580589Y119368D02*G01X579267Y118046D01*X573348Y119368D02*G01X574670Y118046D01*X573348Y112128D02*G01X574670Y113450D01*X580589Y257797D02*G01X579267Y259119D01*X580589Y265038D02*G01X579267Y263715D01*X573348Y265038D02*G01X574670Y263715D01*X573348Y257797D02*G01X574670Y259119D01*X562062Y104474D02*G01X560739Y105796D01*X562062Y114896D02*G01X560739Y113574D01*X562062Y262269D02*G01X560739Y263591D01*X562062Y272692D02*G01X560739Y271369D01*X659329Y257797D02*G01X658007Y259119D01*X659329Y265038D02*G01X658007Y263715D01*X652088Y265038D02*G01X653411Y263715D01*X652088Y257797D02*G01X653411Y259119D01*X149529Y116970D02*G01X150852Y118292D01*X156770Y116970D02*G01X155448Y118292D01*X231353Y104474D02*G01X230031Y105796D01*X231353Y114896D02*G01X230031Y113574D01*X200930Y134896D02*G01X202253Y133574D01*X200930Y124474D02*G01X202253Y125796D01*X211353Y134896D02*G01X210031Y133574D01*X220930Y134896D02*G01X222253Y133574D01*X231353Y124474D02*G01X230031Y125796D01*X231353Y134896D02*G01X230031Y133574D01*X200930Y114896D02*G01X202253Y113574D01*X200930Y104474D02*G01X202253Y105796D01*X268174Y134896D02*G01X269497Y133574D01*X278597Y124474D02*G01X277275Y125796D01*X278597Y134896D02*G01X277275Y133574D01*X278597Y104474D02*G01X277275Y105796D01*X278597Y114896D02*G01X277275Y113574D01*X248174Y134896D02*G01X249497Y133574D01*X248174Y124474D02*G01X249497Y125796D01*X258597Y134896D02*G01X257275Y133574D01*X248174Y114896D02*G01X249497Y113574D01*X248174Y104474D02*G01X249497Y105796D01*X315418Y134896D02*G01X316741Y133574D01*X325841Y124474D02*G01X324519Y125796D01*X325841Y134896D02*G01X324519Y133574D01*X325841Y104474D02*G01X324519Y105796D01*X325841Y114896D02*G01X324519Y113574D01*X295418Y134896D02*G01X296741Y133574D01*X295418Y124474D02*G01X296741Y125796D01*X305841Y134896D02*G01X304519Y133574D01*X295418Y114896D02*G01X296741Y113574D01*X295418Y104474D02*G01X296741Y105796D01*X362663Y134896D02*G01X363985Y133574D01*X373085Y124474D02*G01X371763Y125796D01*X373085Y134896D02*G01X371763Y133574D01*X373085Y104474D02*G01X371763Y105796D01*X373085Y114896D02*G01X371763Y113574D01*X342663Y114896D02*G01X343985Y113574D01*X342663Y104474D02*G01X343985Y105796D01*X409907Y134896D02*G01X411229Y133574D01*X420330Y124474D02*G01X419007Y125796D01*X420330Y134896D02*G01X419007Y133574D01*X420330Y104474D02*G01X419007Y105796D01*X420330Y114896D02*G01X419007Y113574D01*X389907Y134896D02*G01X391229Y133574D01*X389907Y124474D02*G01X391229Y125796D01*X400330Y134896D02*G01X399007Y133574D01*X389907Y114896D02*G01X391229Y113574D01*X389907Y104474D02*G01X391229Y105796D01*X457151Y134896D02*G01X458473Y133574D01*X467574Y124474D02*G01X466251Y125796D01*X467574Y134896D02*G01X466251Y133574D01*X467574Y104474D02*G01X466251Y105796D01*X467574Y114896D02*G01X466251Y113574D01*X437151Y134896D02*G01X438473Y133574D01*X437151Y124474D02*G01X438473Y125796D01*X447574Y134896D02*G01X446251Y133574D01*X437151Y114896D02*G01X438473Y113574D01*X437151Y104474D02*G01X438473Y105796D01*X504395Y134896D02*G01X505717Y133574D01*X514818Y124474D02*G01X513495Y125796D01*X514818Y134896D02*G01X513495Y133574D01*X514818Y104474D02*G01X513495Y105796D01*X514818Y114896D02*G01X513495Y113574D01*X484395Y134896D02*G01X485717Y133574D01*X484395Y124474D02*G01X485717Y125796D01*X494818Y134896D02*G01X493495Y133574D01*X484395Y114896D02*G01X485717Y113574D01*X484395Y104474D02*G01X485717Y105796D01*X551639Y134896D02*G01X552961Y133574D01*X562062Y124474D02*G01X560739Y125796D01*X562062Y134896D02*G01X560739Y133574D01*X531639Y134896D02*G01X532961Y133574D01*X531639Y124474D02*G01X532961Y125796D01*X542062Y134896D02*G01X540739Y133574D01*X531639Y114896D02*G01X532961Y113574D01*X531639Y104474D02*G01X532961Y105796D01*X400330Y242269D02*G01X399007Y243591D01*X389907Y252692D02*G01X391229Y251369D01*X389907Y242269D02*G01X391229Y243591D01*X389907Y272692D02*G01X391229Y271369D01*X389907Y262269D02*G01X391229Y263591D01*X420330Y242269D02*G01X419007Y243591D01*X420330Y252692D02*G01X419007Y251369D01*X409907Y242269D02*G01X411229Y243591D01*X420330Y262269D02*G01X419007Y263591D01*X420330Y272692D02*G01X419007Y271369D01*X447574Y242269D02*G01X446251Y243591D01*X437151Y252692D02*G01X438473Y251369D01*X437151Y242269D02*G01X438473Y243591D01*X437151Y272692D02*G01X438473Y271369D01*X437151Y262269D02*G01X438473Y263591D01*X467574Y242269D02*G01X466251Y243591D01*X467574Y252692D02*G01X466251Y251369D01*X457151Y242269D02*G01X458473Y243591D01*X467574Y262269D02*G01X466251Y263591D01*X467574Y272692D02*G01X466251Y271369D01*X494818Y242269D02*G01X493495Y243591D01*X484395Y252692D02*G01X485717Y251369D01*X484395Y242269D02*G01X485717Y243591D01*X484395Y272692D02*G01X485717Y271369D01*X484395Y262269D02*G01X485717Y263591D01*X514818Y242269D02*G01X513495Y243591D01*X514818Y252692D02*G01X513495Y251369D01*X504395Y242269D02*G01X505717Y243591D01*X514818Y262269D02*G01X513495Y263591D01*X514818Y272692D02*G01X513495Y271369D01*X542062Y242269D02*G01X540739Y243591D01*X531639Y252692D02*G01X532961Y251369D01*X531639Y242269D02*G01X532961Y243591D01*X531639Y272692D02*G01X532961Y271369D01*X531639Y262269D02*G01X532961Y263591D01*X562062Y242269D02*G01X560739Y243591D01*X562062Y252692D02*G01X560739Y251369D01*X551639Y242269D02*G01X552961Y243591D01*X211353Y242269D02*G01X210031Y243591D01*X200930Y252692D02*G01X202253Y251369D01*X200930Y242269D02*G01X202253Y243591D01*X200930Y272692D02*G01X202253Y271369D01*X200930Y262269D02*G01X202253Y263591D01*X231353Y242269D02*G01X230031Y243591D01*X231353Y252692D02*G01X230031Y251369D01*X220930Y242269D02*G01X222253Y243591D01*X231353Y262269D02*G01X230031Y263591D01*X231353Y272692D02*G01X230031Y271369D01*X258597Y242269D02*G01X257275Y243591D01*X248174Y252692D02*G01X249497Y251369D01*X248174Y242269D02*G01X249497Y243591D01*X248174Y272692D02*G01X249497Y271369D01*X248174Y262269D02*G01X249497Y263591D01*X278597Y242269D02*G01X277275Y243591D01*X278597Y252692D02*G01X277275Y251369D01*X268174Y242269D02*G01X269497Y243591D01*X278597Y262269D02*G01X277275Y263591D01*X278597Y272692D02*G01X277275Y271369D01*X305841Y242269D02*G01X304519Y243591D01*X295418Y252692D02*G01X296741Y251369D01*X295418Y242269D02*G01X296741Y243591D01*X295418Y272692D02*G01X296741Y271369D01*X295418Y262269D02*G01X296741Y263591D01*X325841Y242269D02*G01X324519Y243591D01*X325841Y252692D02*G01X324519Y251369D01*X315418Y242269D02*G01X316741Y243591D01*X325841Y262269D02*G01X324519Y263591D01*X325841Y272692D02*G01X324519Y271369D01*X353085Y242269D02*G01X351763Y243591D01*X342663Y252692D02*G01X343985Y251369D01*X342663Y242269D02*G01X343985Y243591D01*X342663Y272692D02*G01X343985Y271369D01*X342663Y262269D02*G01X343985Y263591D01*X373085Y242269D02*G01X371763Y243591D01*X373085Y252692D02*G01X371763Y251369D01*X362663Y242269D02*G01X363985Y243591D01*X373085Y262269D02*G01X371763Y263591D01*X373085Y272692D02*G01X371763Y271369D01*X342663Y134896D02*G01X343985Y133574D01*X342663Y124474D02*G01X343985Y125796D01*X353085Y134896D02*G01X351763Y133574D01*X659329Y112128D02*G01X658007Y113450D01*X659329Y119368D02*G01X658007Y118046D01*X652088Y119368D02*G01X653411Y118046D01*X652088Y112128D02*G01X653411Y113450D01*M02*