%FSLAX35Y35*%
%MOIN*%
%SFA1.000B1.000*%

G04 Copyright (c) 2015-2018 in2H2 inc.
G04 System developed for in2H2 inc. by Intermotion Technology, Inc.
G04 
G04 Full system RTL, C sources and board design files available at https://github.com/nearist
G04 
G04 in2H2 inc. Team Members:
G04 - Chris McCormick - Algorithm Research and Design
G04 - Matt McCormick - Board Production, System Q/A
G04 
G04 Intermotion Technology Inc. Team Members:
G04 - Mick Fandrich - Project Lead
G04 - Dr. Ludovico Minati - Board Architecture and Design, FPGA Technology Advisor
G04 - Vardan Movsisyan - RTL Team Lead
G04 - Khachatur Gyozalyan - RTL Design
G04 - Tigran Papazyan - RTL Design
G04 - Taron Harutyunyan - RTL Design
G04 - Hayk Ghaltaghchyan - System Software
G04 
G04 Tecno77 S.r.l. Team Members:
G04 - Stefano Aldrigo, Board Layout Design
G04 
G04 We dedicate this project to the memory of Bruce McCormick, an AI pioneer
G04 and advocate, a good friend and father.
G04 
G04 These materials are provided free of charge: you can redistribute them and/or modify  
G04 them under the terms of the GNU General Public License as published by  
G04 the Free Software Foundation, version 3.
G04 
G04 These materials are distributed in the hope that they will be useful, but 
G04 WITHOUT ANY WARRANTY; without even the implied warranty of 
G04 MERCHANTABILITY or FITNESS FOR A PARTICULAR PURPOSE. See the GNU 
G04 General Public License for more details.
G04 In particular, this design should be treated as UNVERIFIED and UNCERTIFIED
G04 
G04 You should have received a copy of the GNU General Public License 
G04 along with this design. If not, see <http://www.gnu.org/licenses/>.

%FSLAX35Y35*%
%MOIN*%
%SFA1.000B1.000*%

%MIA0B0*%
%IPPOS*%
%ADD11C,0.00800*%
%ADD12R,0.04000X0.03000*%
%ADD13R,0.03000X0.04000*%
%ADD16R,0.03937X0.10827*%
%ADD18R,0.02500X0.07500*%
%ADD20C,0.04000*%
%ADD21C,0.00984*%
%ADD25C,0.00700*%
%LNpastemasktop.gb*%
%LPD*%
G54D12*X637402Y262649D03*Y256249D03*X168898Y224753D03*Y231153D03*X662992Y162255D03*Y155855D03*X716142Y262649D03*Y256249D03*X637402Y114517D03*Y120917D03*X716142Y114517D03*Y120917D03*X662992Y219342D03*Y212942D03*X578346Y162255D03*Y155855D03*X560630Y213436D03*Y207036D03*X645276Y256249D03*Y262649D03*X562598Y155855D03*Y162255D03*X570472D03*Y155855D03*X161024Y231153D03*Y224753D03*X647244Y155855D03*Y162255D03*X655118D03*Y155855D03*X724016Y256249D03*Y262649D03*X645276Y120917D03*Y114517D03*X724016Y120917D03*Y114517D03*X647244Y212942D03*Y219342D03*X655118D03*Y212942D03*X560630Y227216D03*Y220816D03*G54D13*X120917Y251575D03*X114517D03*X156350D03*X149950D03*X136665D03*X130265D03*X172098D03*X165698D03*G54D16*X578347Y207776D03*Y224508D03*X586221Y207776D03*Y224508D03*X594095Y207776D03*Y224508D03*X601969Y207776D03*Y224508D03*X609843Y207776D03*Y224508D03*X617717Y207776D03*Y224508D03*X625591Y207776D03*Y224508D03*G54D18*X671988Y197142D03*X676988D03*X681988D03*X686988D03*X691988D03*X696988D03*X701988D03*X706988D03*X711988D03*X716988D03*Y235142D03*X711988D03*X706988D03*X701988D03*X696988D03*X691988D03*X686988D03*X681988D03*X676988D03*X671988D03*X587343Y140055D03*X592343D03*X597343D03*X602343D03*X607343D03*X612343D03*X617343D03*X622343D03*X627343D03*X632343D03*Y178055D03*X627343D03*X622343D03*X617343D03*X612343D03*X607343D03*X602343D03*X597343D03*X592343D03*X587343D03*X671988Y140055D03*X676988D03*X681988D03*X686988D03*X691988D03*X696988D03*X701988D03*X706988D03*X711988D03*X716988D03*Y178055D03*X711988D03*X706988D03*X701988D03*X696988D03*X691988D03*X686988D03*X681988D03*X676988D03*X671988D03*G54D20*X124606Y153150D03*X657087Y237795D03*G54D11*X140000Y32224D02*G01Y12224D01*X180000Y32224D02*G01Y12224D01*X240000Y32224D02*G01Y12224D01*X100000Y47224D02*G01X280000D01*Y12224*X100000*Y47224*Y32224D02*G01X280000D01*X100000Y22224D02*G01X280000D01*X108491Y42662D02*G01Y36624D01*X106900Y42662D02*G01X110082D01*X112127D02*G01Y36624D01*Y42662D02*G01X115082D01*X112127Y39787D02*G01X113945D01*X112127Y36624D02*G01X115082D01*X120536Y41224D02*G01X120309Y41799D01*X119855Y42374*X119400Y42662*X118491*X118036Y42374*X117582Y41799*X117355Y41224*X117127Y40362*Y38924*X117355Y38062*X117582Y37487*X118036Y36912*X118491Y36624*X119400*X119855Y36912*X120309Y37487*X120536Y38062*X122582Y42662D02*G01Y36624D01*Y42662D02*G01X125764Y36624D01*Y42662D02*G01Y36624D01*X129173Y42662D02*G01X128718Y42374D01*X128264Y41799*X128036Y41224*X127809Y40362*Y38924*X128036Y38062*X128264Y37487*X128718Y36912*X129173Y36624*X130082*X130536Y36912*X130991Y37487*X131218Y38062*X131445Y38924*Y40362*X131218Y41224*X130991Y41799*X130536Y42374*X130082Y42662*X129173*X136673D02*G01X134400Y36624D01*X133491Y42662D02*G01X136673D01*X141900D02*G01X139627Y36624D01*X138718Y42662D02*G01X141900D01*G54D21*X100003Y277165D02*G01X729924D01*Y100000*X100003*Y277165*G54D25*X151543Y41037D02*G01Y36574D01*X150350Y41037D02*G01X152736D01*X154270Y38274D02*G01X156316D01*Y38699*X156145Y39124*X155975Y39337*X155634Y39549*X155123*X154782Y39337*X154441Y38912*X154270Y38274*Y37849*X154441Y37212*X154782Y36787*X155123Y36574*X155634*X155975Y36787*X156316Y37212*X157850Y41037D02*G01Y36574D01*X159555Y39549D02*G01X159384Y39337D01*X159555Y39124*X159725Y39337*X159555Y39549*Y36999D02*G01X159384Y36787D01*X159555Y36574*X159725Y36787*X159555Y36999*X162793Y40399D02*G01Y36574D01*X161259Y38487D02*G01X164327D01*X166202Y41037D02*G01X168077D01*X167055Y39337*X167566*X167907Y39124*X168077Y38912*X168248Y38274*Y37849*X168077Y37212*X167736Y36787*X167225Y36574*X166714*X166202Y36787*X166032Y36999*X165861Y37424*X171998Y39549D02*G01X171827Y38912D01*X171486Y38487*X170975Y38274*X170805*X170293Y38487*X169952Y38912*X169782Y39549*Y39762*X169952Y40399*X170293Y40824*X170805Y41037*X170975*X171486Y40824*X171827Y40399*X171998Y39549*Y38487*X171827Y37424*X171486Y36787*X170975Y36574*X170634*X170123Y36787*X169952Y37212*X174555Y41037D02*G01X174043Y40824D01*X173702Y40187*X173532Y39124*Y38487*X173702Y37424*X174043Y36787*X174555Y36574*X174895*X175407Y36787*X175748Y37424*X175918Y38487*Y39124*X175748Y40187*X175407Y40824*X174895Y41037*X174555*X179157D02*G01X177452Y38062D01*X180009*X179157Y41037D02*G01Y36574D01*X183248Y41037D02*G01X181543Y38062D01*X184100*X183248Y41037D02*G01Y36574D01*X187339Y41037D02*G01X185634Y38062D01*X188191*X187339Y41037D02*G01Y36574D01*X191770Y40399D02*G01X191600Y40824D01*X191089Y41037*X190748*X190236Y40824*X189895Y40187*X189725Y39124*Y38062*X189895Y37212*X190236Y36787*X190748Y36574*X190918*X191430Y36787*X191770Y37212*X191941Y37849*Y38062*X191770Y38699*X191430Y39124*X190918Y39337*X190748*X190236Y39124*X189895Y38699*X189725Y38062*X194498Y41037D02*G01X193986Y40824D01*X193645Y40187*X193475Y39124*Y38487*X193645Y37424*X193986Y36787*X194498Y36574*X194839*X195350Y36787*X195691Y37424*X195861Y38487*Y39124*X195691Y40187*X195350Y40824*X194839Y41037*X194498*X197395Y40187D02*G01X197736Y40399D01*X198248Y41037*Y36574*X201998Y41037D02*G01X200293D01*X200123Y39124*X200293Y39337*X200805Y39549*X201316*X201827Y39337*X202168Y38912*X202339Y38274*X202168Y37849*X201998Y37212*X201657Y36787*X201145Y36574*X200634*X200123Y36787*X199952Y36999*X199782Y37424*X203873Y40187D02*G01X204214Y40399D01*X204725Y41037*Y36574*X206259Y40187D02*G01X206600Y40399D01*X207111Y41037*Y36574*X216486Y39549D02*G01Y37424D01*X216657Y36787*X216998Y36574*X217509*X217850Y36787*X218361Y37424*Y39549D02*G01Y36574D01*X220407Y41037D02*G01Y37424D01*X220577Y36787*X220918Y36574*X221259*X219895Y39549D02*G01X221089D01*X222793Y38274D02*G01X224839D01*Y38699*X224668Y39124*X224498Y39337*X224157Y39549*X223645*X223305Y39337*X222964Y38912*X222793Y38274*Y37849*X222964Y37212*X223305Y36787*X223645Y36574*X224157*X224498Y36787*X224839Y37212*X228418Y38912D02*G01X228077Y39337D01*X227736Y39549*X227225*X226884Y39337*X226543Y38912*X226373Y38274*Y37849*X226543Y37212*X226884Y36787*X227225Y36574*X227736*X228077Y36787*X228418Y37212*X232168Y36787D02*G01X231486D01*X230634Y36999*X230293Y37424*X229952Y38274*Y39337*X230293Y40399*X230634Y40824*X232168*X232680Y40399*X233020Y39762*X233191Y38699*X233020Y37849*X232850Y37637*X232168Y37424D02*G01X231998Y37637D01*Y39762*Y39337D02*G01X231657Y39549D01*X231316*X230975Y39337*X230805Y38912*Y38487*X230975Y38062*X231316Y37849*X231657*X231998Y38062*X232168Y37424D02*G01X232680D01*X232850Y37637*X235236Y41037D02*G01Y37424D01*X235407Y36787*X235748Y36574*X236089*X234725Y39549D02*G01X235918D01*X237623Y38274D02*G01X239668D01*Y38699*X239498Y39124*X239327Y39337*X238986Y39549*X238475*X238134Y39337*X237793Y38912*X237623Y38274*Y37849*X237793Y37212*X238134Y36787*X238475Y36574*X238986*X239327Y36787*X239668Y37212*X243248Y38912D02*G01X242907Y39337D01*X242566Y39549*X242055*X241714Y39337*X241373Y38912*X241202Y38274*Y37849*X241373Y37212*X241714Y36787*X242055Y36574*X242566*X242907Y36787*X243248Y37212*X244782Y39549D02*G01Y36574D01*Y38699D02*G01X245293Y39337D01*X245634Y39549*X246145*X246486Y39337*X246657Y38699*Y36574*X249043Y39549D02*G01X248702Y39337D01*X248361Y38912*X248191Y38274*Y37849*X248361Y37212*X248702Y36787*X249043Y36574*X249555*X249895Y36787*X250236Y37212*X250407Y37849*Y38274*X250236Y38912*X249895Y39337*X249555Y39549*X249043*X254327Y41037D02*G01X252623Y36574D01*X251941Y41037D02*G01X254327D01*X258248D02*G01X256543Y36574D01*X255861Y41037D02*G01X258248D01*X259952Y36999D02*G01X259782Y36787D01*X259952Y36574*X260123Y36787*X259952Y36999*X263702Y38912D02*G01X263361Y39337D01*X263020Y39549*X262509*X262168Y39337*X261827Y38912*X261657Y38274*Y37849*X261827Y37212*X262168Y36787*X262509Y36574*X263020*X263361Y36787*X263702Y37212*X266089Y39549D02*G01X265748Y39337D01*X265407Y38912*X265236Y38274*Y37849*X265407Y37212*X265748Y36787*X266089Y36574*X266600*X266941Y36787*X267282Y37212*X267452Y37849*Y38274*X267282Y38912*X266941Y39337*X266600Y39549*X266089*X268986D02*G01Y36574D01*Y38699D02*G01X269498Y39337D01*X269839Y39549*X270350*X270691Y39337*X270861Y38699*Y36574*Y38699D02*G01X271373Y39337D01*X271714Y39549*X272225*X272566Y39337*X272736Y38699*Y36574*X153452Y19209D02*G01Y15074D01*Y19209D02*G01X155520D01*X153452Y17240D02*G01X154725D01*X153452Y15074D02*G01X155520D01*X156952Y19209D02*G01Y15074D01*Y19209D02*G01X158066D01*X158543Y19012*X158861Y18618*X159020Y18224*X159180Y17634*Y16649*X159020Y16059*X158861Y15665*X158543Y15271*X158066Y15074*X156952*X160611Y19209D02*G01Y15074D01*Y19209D02*G01X161725D01*X162202Y19012*X162520Y18618*X162680Y18224*X162839Y17634*Y16649*X162680Y16059*X162520Y15665*X162202Y15271*X161725Y15074*X160611*X164270Y19209D02*G01X165543Y17240D01*Y15074*X166816Y19209D02*G01X165543Y17240D01*X106384Y19209D02*G01X105907Y19012D01*X105589Y18421*X105430Y17437*Y16846*X105589Y15862*X105907Y15271*X106384Y15074*X106702*X107180Y15271*X107498Y15862*X107657Y16846*Y17437*X107498Y18421*X107180Y19012*X106702Y19209*X106384*X110998Y18618D02*G01X110839Y19012D01*X110361Y19209*X110043*X109566Y19012*X109248Y18421*X109089Y17437*Y16453*X109248Y15665*X109566Y15271*X110043Y15074*X110202*X110680Y15271*X110998Y15665*X111157Y16256*Y16453*X110998Y17043*X110680Y17437*X110202Y17634*X110043*X109566Y17437*X109248Y17043*X109089Y16453*X115452Y19996D02*G01X112589Y13696D01*X117839Y19209D02*G01X117361Y19012D01*X117043Y18421*X116884Y17437*Y16846*X117043Y15862*X117361Y15271*X117839Y15074*X118157*X118634Y15271*X118952Y15862*X119111Y16846*Y17437*X118952Y18421*X118634Y19012*X118157Y19209*X117839*X122770D02*G01X121180Y15074D01*X120543Y19209D02*G01X122770D01*X127066Y19996D02*G01X124202Y13696D01*X128498Y18421D02*G01X128816Y18618D01*X129293Y19209*Y15074*X132952Y19209D02*G01X131361Y15074D01*X130725Y19209D02*G01X132952D01*X248248D02*G01Y15074D01*X249680Y19209D02*G01Y15074D01*Y19209D02*G01X251907Y15074D01*Y19209D02*G01Y15074D01*X253339Y19209D02*G01Y15074D01*X255566Y19209D02*G01Y15074D01*X253339Y17240D02*G01X255566D01*X256998Y18421D02*G01X257316Y18618D01*X257793Y19209*Y15074*X261452Y19209D02*G01X259861Y15074D01*X259225Y19209D02*G01X261452D01*X263839D02*G01X263361Y19012D01*X263043Y18421*X262884Y17437*Y16846*X263043Y15862*X263361Y15271*X263839Y15074*X264157*X264634Y15271*X264952Y15862*X265111Y16846*Y17437*X264952Y18421*X264634Y19012*X264157Y19209*X263839*X266702Y18224D02*G01Y18421D01*X266861Y18815*X267020Y19012*X267339Y19209*X267975*X268293Y19012*X268452Y18815*X268611Y18421*Y18028*X268452Y17634*X268134Y17043*X266543Y15074*X268770*X112850Y29209D02*G01Y25074D01*Y29209D02*G01X113964D01*X114441Y29012*X114759Y28618*X114918Y28224*X115077Y27634*Y26649*X114918Y26059*X114759Y25665*X114441Y25271*X113964Y25074*X112850*X117782Y29209D02*G01X116509Y25074D01*X117782Y29209D02*G01X119055Y25074D01*X116986Y26453D02*G01X118577D01*X121600Y29209D02*G01Y25074D01*X120486Y29209D02*G01X122714D01*X124145D02*G01Y25074D01*Y29209D02*G01X126214D01*X124145Y27240D02*G01X125418D01*X124145Y25074D02*G01X126214D01*X146305Y29209D02*G01X145986Y29012D01*X145668Y28618*X145509Y28224*X145350Y27634*Y26649*X145509Y26059*X145668Y25665*X145986Y25271*X146305Y25074*X146941*X147259Y25271*X147577Y25665*X147736Y26059*X147895Y26649*Y27634*X147736Y28224*X147577Y28618*X147259Y29012*X146941Y29209*X146305*X149327D02*G01Y25074D01*Y29209D02*G01X150759D01*X151236Y29012*X151395Y28815*X151555Y28421*Y27831*X151395Y27437*X151236Y27240*X150759Y27043*X149327*X152986Y29209D02*G01Y25074D01*Y29209D02*G01X155055D01*X152986Y27240D02*G01X154259D01*X152986Y25074D02*G01X155055D01*X156486Y29209D02*G01Y25074D01*Y29209D02*G01X157918D01*X158395Y29012*X158555Y28815*X158714Y28421*Y28028*X158555Y27634*X158395Y27437*X157918Y27240*X156486*X157600D02*G01X158714Y25074D01*X161418Y29209D02*G01X160145Y25074D01*X161418Y29209D02*G01X162691Y25074D01*X160623Y26453D02*G01X162214D01*X165236Y29209D02*G01Y25074D01*X164123Y29209D02*G01X166350D01*X168736D02*G01X168418Y29012D01*X168100Y28618*X167941Y28224*X167782Y27634*Y26649*X167941Y26059*X168100Y25665*X168418Y25271*X168736Y25074*X169373*X169691Y25271*X170009Y25665*X170168Y26059*X170327Y26649*Y27634*X170168Y28224*X170009Y28618*X169691Y29012*X169373Y29209*X168736*X171759D02*G01Y25074D01*Y29209D02*G01X173191D01*X173668Y29012*X173827Y28815*X173986Y28421*Y28028*X173827Y27634*X173668Y27437*X173191Y27240*X171759*X172873D02*G01X173986Y25074D01*X196736Y28224D02*G01X196577Y28618D01*X196259Y29012*X195941Y29209*X195305*X194986Y29012*X194668Y28618*X194509Y28224*X194350Y27634*Y26649*X194509Y26059*X194668Y25665*X194986Y25271*X195305Y25074*X195941*X196259Y25271*X196577Y25665*X196736Y26059*X198168Y29209D02*G01Y26256D01*X198327Y25665*X198645Y25271*X199123Y25074*X199441*X199918Y25271*X200236Y25665*X200395Y26256*Y29209*X204055Y28618D02*G01X203736Y29012D01*X203259Y29209*X202623*X202145Y29012*X201827Y28618*Y28224*X201986Y27831*X202145Y27634*X202464Y27437*X203418Y27043*X203736Y26846*X203895Y26649*X204055Y26256*Y25665*X203736Y25271*X203259Y25074*X202623*X202145Y25271*X201827Y25665*X206600Y29209D02*G01Y25074D01*X205486Y29209D02*G01X207714D01*X210100D02*G01X209782Y29012D01*X209464Y28618*X209305Y28224*X209145Y27634*Y26649*X209305Y26059*X209464Y25665*X209782Y25271*X210100Y25074*X210736*X211055Y25271*X211373Y25665*X211532Y26059*X211691Y26649*Y27634*X211532Y28224*X211373Y28618*X211055Y29012*X210736Y29209*X210100*X213123D02*G01Y25074D01*Y29209D02*G01X214395Y25074D01*X215668Y29209D02*G01X214395Y25074D01*X215668Y29209D02*G01Y25074D01*X217100Y29209D02*G01Y25074D01*Y29209D02*G01X219168D01*X217100Y27240D02*G01X218373D01*X217100Y25074D02*G01X219168D01*X220600Y29209D02*G01Y25074D01*Y29209D02*G01X222032D01*X222509Y29012*X222668Y28815*X222827Y28421*Y28028*X222668Y27634*X222509Y27437*X222032Y27240*X220600*X221714D02*G01X222827Y25074D01*X255236Y28224D02*G01X255077Y28618D01*X254759Y29012*X254441Y29209*X253805*X253486Y29012*X253168Y28618*X253009Y28224*X252850Y27634*Y26649*X253009Y26059*X253168Y25665*X253486Y25271*X253805Y25074*X254441*X254759Y25271*X255077Y25665*X255236Y26059*X257623Y29209D02*G01X257305Y29012D01*X256986Y28618*X256827Y28224*X256668Y27634*Y26649*X256827Y26059*X256986Y25665*X257305Y25271*X257623Y25074*X258259*X258577Y25271*X258895Y25665*X259055Y26059*X259214Y26649*Y27634*X259055Y28224*X258895Y28618*X258577Y29012*X258259Y29209*X257623*X260645D02*G01Y25074D01*Y29209D02*G01X261759D01*X262236Y29012*X262555Y28618*X262714Y28224*X262873Y27634*Y26649*X262714Y26059*X262555Y25665*X262236Y25271*X261759Y25074*X260645*X264305Y29209D02*G01Y25074D01*Y29209D02*G01X266373D01*X264305Y27240D02*G01X265577D01*X264305Y25074D02*G01X266373D01*X202191Y19209D02*G01Y15074D01*X203623Y17831D02*G01Y15074D01*Y17043D02*G01X204100Y17634D01*X204418Y17831*X204895*X205214Y17634*X205373Y17043*Y15074*X206964Y18224D02*G01Y18421D01*X207123Y18815*X207282Y19012*X207600Y19209*X208236*X208555Y19012*X208714Y18815*X208873Y18421*Y18028*X208714Y17634*X208395Y17043*X206805Y15074*X209032*X210464Y19209D02*G01Y15074D01*X212691Y19209D02*G01Y15074D01*X210464Y17240D02*G01X212691D01*X214282Y18224D02*G01Y18421D01*X214441Y18815*X214600Y19012*X214918Y19209*X215555*X215873Y19012*X216032Y18815*X216191Y18421*Y18028*X216032Y17634*X215714Y17043*X214123Y15074*X216350*X90516Y100350D02*G01X94650D01*X90516D02*G01Y101782D01*X90712Y102259*Y102259D02*G01X90909Y102418D01*X91303Y102577*X91894*X92287Y102418*Y102418D02*G01X92484Y102259D01*X92681Y101782*Y100350*X90516Y105282D02*G01X94650Y104009D01*X90516Y105282D02*G01X94650Y106555D01*X93272Y104486D02*G01Y106077D01*X91106Y110214D02*G01X90712Y109895D01*Y109895D02*G01X90516Y109418D01*Y108782*X90712Y108305*Y108305D02*G01X91106Y107986D01*X91500*X91894Y108145*X92091Y108305*X92287Y108623*Y108623D02*G01X92681Y109577D01*X92878Y109895*X93075Y110055*X93469Y110214*X94059*X94453Y109895*X94650Y109418*Y108782*X94453Y108305*X94059Y107986*X90516Y112759D02*G01X94650D01*X90516Y111645D02*G01Y113873D01*Y115305D02*G01X94650D01*X90516D02*G01Y117373D01*X92484Y115305D02*G01Y116577D01*X94650Y115305D02*G01Y117373D01*X90516Y122464D02*G01X94650D01*X90516D02*G01X94650Y123736D01*X90516Y125009D02*G01X94650Y123736D01*X90516Y125009D02*G01X94650D01*X90516Y127714D02*G01X94650Y126441D01*X90516Y127714D02*G01X94650Y128986D01*X93272Y126918D02*G01Y128509D01*X91106Y132645D02*G01X90712Y132327D01*Y132327D02*G01X90516Y131850D01*Y131214*X90712Y130736*Y130736D02*G01X91106Y130418D01*X91500*X91894Y130577*X92091Y130736*X92287Y131055*Y131055D02*G01X92681Y132009D01*X92878Y132327*X93075Y132486*X93469Y132645*X94059*X94453Y132327*X94650Y131850*Y131214*X94453Y130736*X94059Y130418*X90516Y134077D02*G01X94650D01*X90516Y136305D02*G01X93272Y134077D01*X92287Y134873D02*G01X94650Y136305D01*X90516Y142509D02*G01X94650D01*X90516Y141395D02*G01Y143623D01*Y146009D02*G01X90712Y145691D01*Y145691D02*G01X91106Y145373D01*X91500Y145214*X92091Y145055*X93075*X93666Y145214*X94059Y145373*X94453Y145691*X94650Y146009*Y146645*X94453Y146964*X94059Y147282*X93666Y147441*X93075Y147600*X92091*X91500Y147441*X91106Y147282*X90712Y146964*Y146964D02*G01X90516Y146645D01*Y146009*Y149032D02*G01X94650D01*X90516D02*G01Y150464D01*X90712Y150941*Y150941D02*G01X90909Y151100D01*X91303Y151259*X91894*X92287Y151100*Y151100D02*G01X92484Y150941D01*X92681Y150464*Y149032*M02*