%FSLAX35Y35*%
%MOIN*%
%SFA1.000B1.000*%

G04 Copyright (c) 2015-2018 in2H2 inc.
G04 System developed for in2H2 inc. by Intermotion Technology, Inc.
G04 
G04 Full system RTL, C sources and board design files available at https://github.com/nearist
G04 
G04 in2H2 inc. Team Members:
G04 - Chris McCormick - Algorithm Research and Design
G04 - Matt McCormick - Board Production, System Q/A
G04 
G04 Intermotion Technology Inc. Team Members:
G04 - Mick Fandrich - Project Lead
G04 - Dr. Ludovico Minati - Board Architecture and Design, FPGA Technology Advisor
G04 - Vardan Movsisyan - RTL Team Lead
G04 - Khachatur Gyozalyan - RTL Design
G04 - Tigran Papazyan - RTL Design
G04 - Taron Harutyunyan - RTL Design
G04 - Hayk Ghaltaghchyan - System Software
G04 
G04 Tecno77 S.r.l. Team Members:
G04 - Stefano Aldrigo, Board Layout Design
G04 
G04 We dedicate this project to the memory of Bruce McCormick, an AI pioneer
G04 and advocate, a good friend and father.
G04 
G04 These materials are provided free of charge: you can redistribute them and/or modify  
G04 them under the terms of the GNU General Public License as published by  
G04 the Free Software Foundation, version 3.
G04 
G04 These materials are distributed in the hope that they will be useful, but 
G04 WITHOUT ANY WARRANTY; without even the implied warranty of 
G04 MERCHANTABILITY or FITNESS FOR A PARTICULAR PURPOSE. See the GNU 
G04 General Public License for more details.
G04 In particular, this design should be treated as UNVERIFIED and UNCERTIFIED
G04 
G04 You should have received a copy of the GNU General Public License 
G04 along with this design. If not, see <http://www.gnu.org/licenses/>.

%FSLAX35Y35*%
%MOIN*%
%SFA1.000B1.000*%

%MIA0B0*%
%IPPOS*%
%ADD11C,0.00800*%
%ADD21C,0.00984*%
%ADD25C,0.00700*%
%ADD26C,0.01000*%
%ADD34C,0.00600*%
%ADD35C,0.00591*%
%ADD36C,0.00591*%
%ADD37C,0.00400*%
%ADD38C,0.03000*%
%ADD39C,0.00300*%
%ADD40C,0.00200*%
%ADD41C,0.00551*%
%ADD42C,0.03937*%
%LNsilkscreentop.g*%
%LPD*%
G54D11*X640402Y265249D02*G01Y253649D01*X634402*Y265249*X640402*X165898Y222153D02*G01Y233753D01*X171898*Y222153*X165898*X665992Y164855D02*G01Y153255D01*X659992*Y164855*X665992*X719142Y265249D02*G01Y253649D01*X713142*Y265249*X719142*X634402Y111917D02*G01Y123517D01*X640402*Y111917*X634402*X713142D02*G01Y123517D01*X719142*Y111917*X713142*X123517Y248575D02*G01X111917D01*Y254575*X123517*Y248575*X158950D02*G01X147350D01*Y254575*X158950*Y248575*X665992Y221942D02*G01Y210342D01*X659992*Y221942*X665992*X581346Y164855D02*G01Y153255D01*X575346*Y164855*X581346*X563630Y216036D02*G01Y204436D01*X557630*Y216036*X563630*X108057Y266667D02*G01Y256167D01*X178557*Y266667*X108057*X181150Y135591D02*G75*G03X181150Y135591I-1500D01*X190650Y141091D02*G01Y110091D01*X115650*Y141091*X190650*X193400Y106841D02*G01Y144341D01*X112900*Y106841*X193400*X145650Y144091D02*G01Y141091D01*X160650D02*G01Y144091D01*X572737Y210236D02*G01X569193D01*X572737Y216142D02*G01X569193D01*X575375Y206299D02*G01X572737D01*Y225985*X575394Y203740D02*G01X569193D01*Y228544*X572737Y225985D02*G01X575394D01*X569193Y228544D02*G01X575394D01*X631201Y222048D02*G01X634745D01*X631201Y216142D02*G01X634745D01*X628563Y206299D02*G01X631201D01*Y225985*X628544Y203740D02*G01X634745D01*Y228544*X631201Y225985D02*G01X628544D01*X634745Y228544D02*G01X628544D01*X124370Y239921D02*G01Y219921D01*X154370*Y239921*X124370*X571719Y266667D02*G01Y256167D01*X632219*Y266667*X571719*X650459D02*G01Y256167D01*X710959*Y266667*X650459*X571719Y120998D02*G01Y110498D01*X632219*Y120998*X571719*X650459D02*G01Y110498D01*X710959*Y120998*X650459*X642276Y253649D02*G01Y265249D01*X648276*Y253649*X642276*X559598Y153255D02*G01Y164855D01*X565598*Y153255*X559598*X573472Y164855D02*G01Y153255D01*X567472*Y164855*X573472*X164024Y233753D02*G01Y222153D01*X158024*Y233753*X164024*X644244Y153255D02*G01Y164855D01*X650244*Y153255*X644244*X658118Y164855D02*G01Y153255D01*X652118*Y164855*X658118*X721016Y253649D02*G01Y265249D01*X727016*Y253649*X721016*X648276Y123517D02*G01Y111917D01*X642276*Y123517*X648276*X727016D02*G01Y111917D01*X721016*Y123517*X727016*X139265Y248575D02*G01X127665D01*Y254575*X139265*Y248575*X174698D02*G01X163098D01*Y254575*X174698*Y248575*X644244Y210342D02*G01Y221942D01*X650244*Y210342*X644244*X658118Y221942D02*G01Y210342D01*X652118*Y221942*X658118*X563630Y229816D02*G01Y218216D01*X557630*Y229816*X563630*X668988Y193542D02*G01Y239942D01*X719988*Y192442*X670088*X668988Y193542*Y213642D02*G01X673988D01*Y213642D02*G03X673988Y218642J2500D01*Y218642D02*G01X668988D01*X584343Y136455D02*G01Y182855D01*X635343*Y135355*X585443*X584343Y136455*Y156555D02*G01X589343D01*Y156555D02*G03X589343Y161555J2500D01*Y161555D02*G01X584343D01*X668988Y136455D02*G01Y182855D01*X719988*Y135355*X670088*X668988Y136455*Y156555D02*G01X673988D01*Y156555D02*G03X673988Y161555J2500D01*Y161555D02*G01X668988D01*X347374Y273980D02*G01Y280480D01*X368374Y273980D02*G01Y280480D01*X344094Y261480D02*G01Y253480D01*X371654Y261480D02*G01Y253480D01*X353874Y243701D02*G01X361874D01*X353874Y271260D02*G01X361874D01*X300130Y273980D02*G01Y280480D01*X321130Y273980D02*G01Y280480D01*X296850Y261480D02*G01Y253480D01*X324409Y261480D02*G01Y253480D01*X306630Y243701D02*G01X314630D01*X306630Y271260D02*G01X314630D01*X252886Y273980D02*G01Y280480D01*X273886Y273980D02*G01Y280480D01*X249606Y261480D02*G01Y253480D01*X277165Y261480D02*G01Y253480D01*X259386Y243701D02*G01X267386D01*X259386Y271260D02*G01X267386D01*X205642Y273980D02*G01Y280480D01*X226642Y273980D02*G01Y280480D01*X202362Y261480D02*G01Y253480D01*X229921Y261480D02*G01Y253480D01*X212142Y243701D02*G01X220142D01*X212142Y271260D02*G01X220142D01*X536350Y273980D02*G01Y280480D01*X557350Y273980D02*G01Y280480D01*X533071Y261480D02*G01Y253480D01*X560630Y261480D02*G01Y253480D01*X542850Y243701D02*G01X550850D01*X542850Y271260D02*G01X550850D01*X489106Y273980D02*G01Y280480D01*X510106Y273980D02*G01Y280480D01*X485827Y261480D02*G01Y253480D01*X513386Y261480D02*G01Y253480D01*X495606Y243701D02*G01X503606D01*X495606Y271260D02*G01X503606D01*X441862Y273980D02*G01Y280480D01*X462862Y273980D02*G01Y280480D01*X438583Y261480D02*G01Y253480D01*X466142Y261480D02*G01Y253480D01*X448362Y243701D02*G01X456362D01*X448362Y271260D02*G01X456362D01*X394618Y273980D02*G01Y280480D01*X415618Y273980D02*G01Y280480D01*X391339Y261480D02*G01Y253480D01*X418898Y261480D02*G01Y253480D01*X401118Y243701D02*G01X409118D01*X401118Y271260D02*G01X409118D01*X557350Y103185D02*G01Y96685D01*X536350Y103185D02*G01Y96685D01*X560630Y115685D02*G01Y123685D01*X533071Y115685D02*G01Y123685D01*X550850Y133465D02*G01X542850D01*X550850Y105906D02*G01X542850D01*X510106Y103185D02*G01Y96685D01*X489106Y103185D02*G01Y96685D01*X513386Y115685D02*G01Y123685D01*X485827Y115685D02*G01Y123685D01*X503606Y133465D02*G01X495606D01*X503606Y105906D02*G01X495606D01*X462862Y103185D02*G01Y96685D01*X441862Y103185D02*G01Y96685D01*X466142Y115685D02*G01Y123685D01*X438583Y115685D02*G01Y123685D01*X456362Y133465D02*G01X448362D01*X456362Y105906D02*G01X448362D01*X415618Y103185D02*G01Y96685D01*X394618Y103185D02*G01Y96685D01*X418898Y115685D02*G01Y123685D01*X391339Y115685D02*G01Y123685D01*X409118Y133465D02*G01X401118D01*X409118Y105906D02*G01X401118D01*X368374Y103185D02*G01Y96685D01*X347374Y103185D02*G01Y96685D01*X371654Y115685D02*G01Y123685D01*X344094Y115685D02*G01Y123685D01*X361874Y133465D02*G01X353874D01*X361874Y105906D02*G01X353874D01*X321130Y103185D02*G01Y96685D01*X300130Y103185D02*G01Y96685D01*X324409Y115685D02*G01Y123685D01*X296850Y115685D02*G01Y123685D01*X314630Y133465D02*G01X306630D01*X314630Y105906D02*G01X306630D01*X273886Y103185D02*G01Y96685D01*X252886Y103185D02*G01Y96685D01*X277165Y115685D02*G01Y123685D01*X249606Y115685D02*G01Y123685D01*X267386Y133465D02*G01X259386D01*X267386Y105906D02*G01X259386D01*X226642Y103185D02*G01Y96685D01*X205642Y103185D02*G01Y96685D01*X229921Y115685D02*G01Y123685D01*X202362Y115685D02*G01Y123685D01*X220142Y133465D02*G01X212142D01*X220142Y105906D02*G01X212142D01*X636914Y249911D02*G01X636743Y250330D01*X636402Y250749*X636061Y250958*X635379*X635039Y250749*X634698Y250330*X634527Y249911*X634357Y249283*Y248236*X634527Y247608*X634698Y247190*X635039Y246771*X635379Y246561*X636061*X636402Y246771*X636743Y247190*X636914Y247608*X638448Y250121D02*G01X638789Y250330D01*X639300Y250958*Y246561*X168165Y214326D02*G01X167746Y214155D01*X167327Y213814*X167118Y213474*Y212792*X167327Y212451*X167746Y212110*X168165Y211939*X168793Y211769*X169840*X170468Y211939*X170887Y212110*X171305Y212451*X171515Y212792*Y213474*X171305Y213814*X170887Y214155*X170468Y214326*X167955Y215860D02*G01X167746Y216201D01*X167118Y216712*X171515*X167118Y219269D02*G01X167327Y218758D01*X167955Y218417*X169002Y218246*X169630*X170677Y218417*X171305Y218758*X171515Y219269*Y219610*X171305Y220121*X170677Y220462*X169630Y220633*X169002*X167955Y220462*X167327Y220121*X167118Y219610*Y219269*X662259Y146379D02*G01X661841Y146209D01*X661422Y145868*X661212Y145527*Y144845*X661422Y144504*X661841Y144164*X662259Y143993*X662887Y143823*X663934*X664562Y143993*X664981Y144164*X665400Y144504*X665609Y144845*Y145527*X665400Y145868*X664981Y146209*X664562Y146379*X662050Y147914D02*G01X661841Y148254D01*X661212Y148766*X665609*X662050Y150300D02*G01X661841Y150641D01*X661212Y151152*X665609*X715654Y249911D02*G01X715483Y250330D01*X715142Y250749*X714801Y250958*X714120*X713779Y250749*X713438Y250330*X713267Y249911*X713097Y249283*Y248236*X713267Y247608*X713438Y247190*X713779Y246771*X714120Y246561*X714801*X715142Y246771*X715483Y247190*X715654Y247608*X717358Y249911D02*G01Y250121D01*X717529Y250540*X717699Y250749*X718040Y250958*X718722*X719063Y250749*X719233Y250540*X719404Y250121*Y249702*X719233Y249283*X718892Y248655*X717188Y246561*X719574*X636669Y128905D02*G01X636250Y128734D01*X635831Y128393*X635622Y128053*Y127371*X635831Y127030*X636250Y126689*X636669Y126518*X637297Y126348*X638344*X638972Y126518*X639391Y126689*X639809Y127030*X640019Y127371*Y128053*X639809Y128393*X639391Y128734*X638972Y128905*X635622Y130780D02*G01Y132655D01*X637297Y131632*Y132143*X637506Y132484*X637716Y132655*X638344Y132825*X638763*X639391Y132655*X639809Y132314*X640019Y131803*Y131291*X639809Y130780*X639600Y130609*X639181Y130439*X714425Y128820D02*G01X714006Y128649D01*X713587Y128308*X713378Y127967*Y127286*X713587Y126945*X714006Y126604*X714425Y126433*X715053Y126263*X716100*X716728Y126433*X717147Y126604*X717565Y126945*X717775Y127286*Y127967*X717565Y128308*X717147Y128649*X716728Y128820*X713378Y132058D02*G01X716309Y130354D01*Y132911*X713378Y132058D02*G01X717775D01*X117228Y245482D02*G01X117058Y245901D01*X116717Y246320*X116376Y246529*X115694*X115353Y246320*X115013Y245901*X114842Y245482*X114672Y244854*Y243807*X114842Y243179*X115013Y242760*X115353Y242342*X115694Y242132*X116376*X116717Y242342*X117058Y242760*X117228Y243179*X120978Y246529D02*G01X119274D01*X119103Y244645*X119274Y244854*X119785Y245064*X120297*X120808Y244854*X121149Y244435*X121319Y243807*X121149Y243389*X120978Y242760*X120638Y242342*X120126Y242132*X119615*X119103Y242342*X118933Y242551*X118763Y242970*X152662Y245974D02*G01X152491Y246393D01*X152150Y246812*X151809Y247021*X151127*X150787Y246812*X150446Y246393*X150275Y245974*X150105Y245346*Y244299*X150275Y243671*X150446Y243253*X150787Y242834*X151127Y242624*X151809*X152150Y242834*X152491Y243253*X152662Y243671*X156241Y246393D02*G01X156071Y246812D01*X155559Y247021*X155218*X154707Y246812*X154366Y246184*X154196Y245137*Y244090*X154366Y243253*X154707Y242834*X155218Y242624*X155389*X155900Y242834*X156241Y243253*X156412Y243881*Y244090*X156241Y244718*X155900Y245137*X155389Y245346*X155218*X154707Y245137*X154366Y244718*X154196Y244090*X662259Y203892D02*G01X661841Y203722D01*X661422Y203381*X661212Y203040*Y202358*X661422Y202017*X661841Y201676*X662259Y201506*X662887Y201335*X663934*X664562Y201506*X664981Y201676*X665400Y202017*X665609Y202358*Y203040*X665400Y203381*X664981Y203722*X664562Y203892*X661212Y207813D02*G01X665609Y206108D01*X661212Y205426D02*G01Y207813D01*X577614Y146806D02*G01X577195Y146635D01*X576776Y146294*X576567Y145953*Y145272*X576776Y144931*X577195Y144590*X577614Y144419*X578242Y144249*X579289*X579917Y144419*X580336Y144590*X580754Y144931*X580964Y145272*Y145953*X580754Y146294*X580336Y146635*X579917Y146806*X576567Y149192D02*G01X576776Y148681D01*X577195Y148510*X577614*X578032Y148681*X578242Y149022*X578451Y149703*X578661Y150215*X579079Y150556*X579498Y150726*X580126*X580545Y150556*X580754Y150385*X580964Y149874*Y149192*X580754Y148681*X580545Y148510*X580126Y148340*X579498*X579079Y148510*X578661Y148851*X578451Y149362*X578242Y150044*X578032Y150385*X577614Y150556*X577195*X576776Y150385*X576567Y149874*Y149192*X551818Y212538D02*G01X551648Y212956D01*X551307Y213375*X550966Y213584*X550284*X549943Y213375*X549602Y212956*X549432Y212538*X549262Y211909*Y210863*X549432Y210234*X549602Y209816*X549943Y209397*X550284Y209188*X550966*X551307Y209397*X551648Y209816*X551818Y210234*X555568Y212119D02*G01X555398Y211491D01*X555057Y211072*X554546Y210863*X554375*X553864Y211072*X553523Y211491*X553352Y212119*Y212328*X553523Y212956*X553864Y213375*X554375Y213584*X554546*X555057Y213375*X555398Y212956*X555568Y212119*Y211072*X555398Y210025*X555057Y209397*X554546Y209188*X554205*X553693Y209397*X553523Y209816*X180897Y258375D02*G01X184247D01*X184876Y258205*X185085Y258034*X185294Y257693*Y257353*X185085Y257012*X184876Y256841*X184247Y256671*X183829*X181735Y259909D02*G01X181526Y260250D01*X180897Y260762*X185294*X180897Y263318D02*G01X181107Y262807D01*X181735Y262466*X182782Y262296*X183410*X184457Y262466*X185085Y262807*X185294Y263318*Y263659*X185085Y264171*X184457Y264512*X183410Y264682*X182782*X181735Y264512*X181107Y264171*X180897Y263659*Y263318*X136243Y152961D02*G01Y149611D01*X136072Y148983*X135902Y148773*X135561Y148564*X135220*X134879Y148773*X134709Y148983*X134538Y149611*Y150030*X137777Y152123D02*G01X138118Y152333D01*X138629Y152961*Y148564*X142379Y152961D02*G01X140675D01*X140504Y151076*X140675Y151286*X141186Y151495*X141697*X142209Y151286*X142550Y150867*X142720Y150239*X142550Y149820*X142379Y149192*X142038Y148773*X141527Y148564*X141016*X140504Y148773*X140334Y148983*X140163Y149401*X599812Y240559D02*G01Y237209D01*X599642Y236581*X599471Y236372*X599130Y236163*X598789*X598449Y236372*X598278Y236581*X598108Y237209*Y237628*X601346Y239722D02*G01X601687Y239931D01*X602199Y240559*Y236163*X605778Y239931D02*G01X605608Y240350D01*X605096Y240559*X604755*X604244Y240350*X603903Y239722*X603733Y238675*Y237628*X603903Y236791*X604244Y236372*X604755Y236163*X604926*X605437Y236372*X605778Y236791*X605949Y237419*Y237628*X605778Y238256*X605437Y238675*X604926Y238884*X604755*X604244Y238675*X603903Y238256*X603733Y237628*X126486Y215953D02*G01Y212603D01*X126315Y211975*X126145Y211765*X125804Y211556*X125463*X125122Y211765*X124951Y211975*X124781Y212603*Y213022*X128020Y215115D02*G01X128361Y215325D01*X128872Y215953*Y211556*X132792Y215953D02*G01X131088Y211556D01*X130406Y215953D02*G01X132792D01*X573945Y273624D02*G01Y270274D01*X573774Y269646*X573604Y269436*X573263Y269227*X572922*X572581Y269436*X572411Y269646*X572240Y270274*Y270693*X575649Y272577D02*G01Y272786D01*X575820Y273205*X575990Y273414*X576331Y273624*X577013*X577354Y273414*X577524Y273205*X577695Y272786*Y272368*X577524Y271949*X577183Y271321*X575479Y269227*X577865*X652685Y273624D02*G01Y270274D01*X652515Y269646*X652344Y269436*X652003Y269227*X651662*X651321Y269436*X651151Y269646*X650980Y270274*Y270693*X654560Y273624D02*G01X656435D01*X655412Y271949*X655924*X656265Y271739*X656435Y271530*X656605Y270902*Y270483*X656435Y269855*X656094Y269436*X655583Y269227*X655071*X654560Y269436*X654390Y269646*X654219Y270064*X573860Y107285D02*G01Y103935D01*X573689Y103307*X573519Y103098*X573178Y102888*X572837*X572496Y103098*X572326Y103307*X572155Y103935*Y104354*X577098Y107285D02*G01X575394Y104354D01*X577951*X577098Y107285D02*G01Y102888D01*X652600Y107285D02*G01Y103935D01*X652429Y103307*X652259Y103098*X651918Y102888*X651577*X651236Y103098*X651066Y103307*X650895Y103935*Y104354*X656350Y107285D02*G01X654645D01*X654475Y105401*X654645Y105610*X655157Y105820*X655668*X656179Y105610*X656520Y105191*X656691Y104563*X656520Y104145*X656350Y103516*X656009Y103098*X655497Y102888*X654986*X654475Y103098*X654304Y103307*X654134Y103726*X643215Y250466D02*G01Y246069D01*Y250466D02*G01X644749D01*X645260Y250257*X645431Y250047*X645601Y249629*Y249210*X645431Y248791*X645260Y248582*X644749Y248372*X643215*X644408D02*G01X645601Y246069D01*X647135Y249629D02*G01X647476Y249838D01*X647988Y250466*Y246069*X560819Y142957D02*G01X565216D01*X560819D02*G01Y144491D01*X561028Y145002*X561237Y145173*X561656Y145343*X562075*X562494Y145173*X562703Y145002*X562912Y144491*Y142957*Y144150D02*G01X565216Y145343D01*X561656Y146877D02*G01X561447Y147218D01*X560819Y147729*X565216*X560819Y150286D02*G01X561028Y149775D01*X561656Y149434*X562703Y149263*X563331*X564378Y149434*X565006Y149775*X565216Y150286*Y150627*X565006Y151138*X564378Y151479*X563331Y151650*X562703*X561656Y151479*X561028Y151138*X560819Y150627*Y150286*X568693Y143908D02*G01X573090D01*X568693D02*G01Y145442D01*X568902Y145953*X569112Y146124*X569530Y146294*X569949*X570368Y146124*X570577Y145953*X570787Y145442*Y143908*Y145101D02*G01X573090Y146294D01*X569530Y147828D02*G01X569321Y148169D01*X568693Y148681*X573090*X569530Y150215D02*G01X569321Y150556D01*X568693Y151067*X573090*X159244Y211054D02*G01X163641D01*X159244D02*G01Y212588D01*X159453Y213100*X159663Y213270*X160081Y213441*X160500*X160919Y213270*X161128Y213100*X161338Y212588*Y211054*Y212247D02*G01X163641Y213441D01*X160081Y214975D02*G01X159872Y215316D01*X159244Y215827*X163641*X160291Y217532D02*G01X160081D01*X159663Y217702*X159453Y217872*X159244Y218213*Y218895*X159453Y219236*X159663Y219407*X160081Y219577*X160500*X160919Y219407*X161547Y219066*X163641Y217361*Y219747*X645464Y142957D02*G01X649861D01*X645464D02*G01Y144491D01*X645674Y145002*X645883Y145173*X646302Y145343*X646721*X647139Y145173*X647349Y145002*X647558Y144491*Y142957*Y144150D02*G01X649861Y145343D01*X646302Y146877D02*G01X646093Y147218D01*X645464Y147729*X649861*X645464Y149604D02*G01Y151479D01*X647139Y150457*Y150968*X647349Y151309*X647558Y151479*X648186Y151650*X648605*X649233Y151479*X649652Y151138*X649861Y150627*Y150116*X649652Y149604*X649443Y149434*X649024Y149263*X653338Y143056D02*G01X657735D01*X653338D02*G01Y144590D01*X653548Y145101*X653757Y145272*X654176Y145442*X654595*X655013Y145272*X655223Y145101*X655432Y144590*Y143056*Y144249D02*G01X657735Y145442D01*X654176Y146976D02*G01X653967Y147317D01*X653338Y147828*X657735*X653338Y151067D02*G01X656270Y149362D01*Y151919*X653338Y151067D02*G01X657735D01*X721463Y250958D02*G01Y246561D01*Y250958D02*G01X722997D01*X723508Y250749*X723679Y250540*X723849Y250121*Y249702*X723679Y249283*X723508Y249074*X722997Y248865*X721463*X722656D02*G01X723849Y246561D01*X725554Y249911D02*G01Y250121D01*X725724Y250540*X725895Y250749*X726236Y250958*X726918*X727258Y250749*X727429Y250540*X727599Y250121*Y249702*X727429Y249283*X727088Y248655*X725383Y246561*X727770*X643496Y126617D02*G01X647893D01*X643496D02*G01Y128152D01*X643705Y128663*X643915Y128833*X644333Y129004*X644752*X645171Y128833*X645380Y128663*X645590Y128152*Y126617*Y127811D02*G01X647893Y129004D01*X643496Y130879D02*G01Y132754D01*X645171Y131731*Y132242*X645380Y132583*X645590Y132754*X646218Y132924*X646637*X647265Y132754*X647683Y132413*X647893Y131902*Y131390*X647683Y130879*X647474Y130708*X647055Y130538*X721252Y126532D02*G01X725649D01*X721252D02*G01Y128066D01*X721461Y128578*X721671Y128748*X722089Y128919*X722508*X722927Y128748*X723136Y128578*X723346Y128066*Y126532*Y127725D02*G01X725649Y128919D01*X721252Y132157D02*G01X724183Y130453D01*Y133010*X721252Y132157D02*G01X725649D01*X130420Y247021D02*G01Y242624D01*Y247021D02*G01X131954D01*X132465Y246812*X132636Y246603*X132806Y246184*Y245765*X132636Y245346*X132465Y245137*X131954Y244928*X130420*X131613D02*G01X132806Y242624D01*X136556Y247021D02*G01X134852D01*X134681Y245137*X134852Y245346*X135363Y245556*X135874*X136386Y245346*X136727Y244928*X136897Y244299*X136727Y243881*X136556Y243253*X136215Y242834*X135704Y242624*X135192*X134681Y242834*X134511Y243043*X134340Y243462*X165361Y247021D02*G01Y242624D01*Y247021D02*G01X166895D01*X167406Y246812*X167577Y246603*X167747Y246184*Y245765*X167577Y245346*X167406Y245137*X166895Y244928*X165361*X166554D02*G01X167747Y242624D01*X171327Y246393D02*G01X171156Y246812D01*X170645Y247021*X170304*X169792Y246812*X169452Y246184*X169281Y245137*Y244090*X169452Y243253*X169792Y242834*X170304Y242624*X170474*X170986Y242834*X171327Y243253*X171497Y243881*Y244090*X171327Y244718*X170986Y245137*X170474Y245346*X170304*X169792Y245137*X169452Y244718*X169281Y244090*X645464Y202221D02*G01X649861D01*X645464D02*G01Y203755D01*X645674Y204266*X645883Y204437*X646302Y204607*X646721*X647139Y204437*X647349Y204266*X647558Y203755*Y202221*Y203414D02*G01X649861Y204607D01*X645464Y208527D02*G01X649861Y206823D01*X645464Y206141D02*G01Y208527D01*X653338Y201421D02*G01X657735D01*X653338D02*G01Y202955D01*X653548Y203466*X653757Y203637*X654176Y203807*X654595*X655013Y203637*X655223Y203466*X655432Y202955*Y201421*Y202614D02*G01X657735Y203807D01*X653338Y206193D02*G01X653548Y205682D01*X653967Y205512*X654385*X654804Y205682*X655013Y206023*X655223Y206705*X655432Y207216*X655851Y207557*X656270Y207727*X656898*X657317Y207557*X657526Y207387*X657735Y206875*Y206193*X657526Y205682*X657317Y205512*X656898Y205341*X656270*X655851Y205512*X655432Y205852*X655223Y206364*X655013Y207046*X654804Y207387*X654385Y207557*X653967*X653548Y207387*X653338Y206875*Y206193*X549347Y223427D02*G01Y219030D01*Y223427D02*G01X550881D01*X551392Y223218*X551563Y223008*X551733Y222589*Y222171*X551563Y221752*X551392Y221543*X550881Y221333*X549347*X550540D02*G01X551733Y219030D01*X555483Y221961D02*G01X555313Y221333D01*X554972Y220914*X554460Y220705*X554290*X553779Y220914*X553438Y221333*X553267Y221961*Y222171*X553438Y222799*X553779Y223218*X554290Y223427*X554460*X554972Y223218*X555313Y222799*X555483Y221961*Y220914*X555313Y219868*X554972Y219239*X554460Y219030*X554120*X553608Y219239*X553438Y219658*X660265Y231117D02*G01Y227976D01*X660435Y227348*X660776Y226929*X661288Y226720*X661628*X662140Y226929*X662481Y227348*X662651Y227976*Y231117*X664185Y230279D02*G01X664526Y230489D01*X665038Y231117*Y226720*X574852Y178951D02*G01Y175811D01*X575023Y175183*X575364Y174764*X575875Y174554*X576216*X576727Y174764*X577068Y175183*X577239Y175811*Y178951*X578943Y177904D02*G01Y178114D01*X579114Y178533*X579284Y178742*X579625Y178951*X580307*X580648Y178742*X580818Y178533*X580989Y178114*Y177695*X580818Y177276*X580477Y176648*X578773Y174554*X581159*X659498Y178951D02*G01Y175811D01*X659668Y175183*X660009Y174764*X660521Y174554*X660861*X661373Y174764*X661714Y175183*X661884Y175811*Y178951*X663759D02*G01X665634D01*X664611Y177276*X665123*X665464Y177067*X665634Y176858*X665805Y176229*Y175811*X665634Y175183*X665293Y174764*X664782Y174554*X664271*X663759Y174764*X663589Y174973*X663418Y175392*X356042Y241116D02*G01Y237766D01*X355871Y237138*X355701Y236928*X355360Y236719*X355019*X354678Y236928*X354507Y237138*X354337Y237766*Y238185*X357576Y240278D02*G01X357917Y240488D01*X358428Y241116*Y236719*X359962Y240278D02*G01X360303Y240488D01*X360814Y241116*Y236719*X308797Y241116D02*G01Y237766D01*X308627Y237138*X308457Y236928*X308116Y236719*X307775*X307434Y236928*X307263Y237138*X307093Y237766*Y238185*X310332Y240278D02*G01X310672Y240488D01*X311184Y241116*Y236719*X312888Y240069D02*G01Y240278D01*X313059Y240697*X313229Y240906*X313570Y241116*X314252*X314593Y240906*X314763Y240697*X314934Y240278*Y239860*X314763Y239441*X314422Y238813*X312718Y236719*X315104*X261553Y241116D02*G01Y237766D01*X261383Y237138*X261212Y236928*X260872Y236719*X260531*X260190Y236928*X260019Y237138*X259849Y237766*Y238185*X263087Y240278D02*G01X263428Y240488D01*X263940Y241116*Y236719*X265815Y241116D02*G01X267690D01*X266667Y239441*X267178*X267519Y239231*X267690Y239022*X267860Y238394*Y237975*X267690Y237347*X267349Y236928*X266837Y236719*X266326*X265815Y236928*X265644Y237138*X265474Y237556*X214309Y241116D02*G01Y237766D01*X214139Y237138*X213968Y236928*X213627Y236719*X213287*X212946Y236928*X212775Y237138*X212605Y237766*Y238185*X215843Y240278D02*G01X216184Y240488D01*X216696Y241116*Y236719*X219934Y241116D02*G01X218230Y238185D01*X220787*X219934Y241116D02*G01Y236719D01*X545018Y241116D02*G01Y237766D01*X544847Y237138*X544677Y236928*X544336Y236719*X543995*X543654Y236928*X543484Y237138*X543313Y237766*Y238185*X548597Y240488D02*G01X548427Y240906D01*X547916Y241116*X547575*X547063Y240906*X546722Y240278*X546552Y239231*Y238185*X546722Y237347*X547063Y236928*X547575Y236719*X547745*X548257Y236928*X548597Y237347*X548768Y237975*Y238185*X548597Y238813*X548257Y239231*X547745Y239441*X547575*X547063Y239231*X546722Y238813*X546552Y238185*X497774Y241116D02*G01Y237766D01*X497603Y237138*X497433Y236928*X497092Y236719*X496751*X496410Y236928*X496240Y237138*X496069Y237766*Y238185*X501694Y241116D02*G01X499990Y236719D01*X499308Y241116D02*G01X501694D01*X450530D02*G01Y237766D01*X450359Y237138*X450189Y236928*X449848Y236719*X449507*X449166Y236928*X448996Y237138*X448825Y237766*Y238185*X452916Y241116D02*G01X452405Y240906D01*X452234Y240488*Y240069*X452405Y239650*X452746Y239441*X453427Y239231*X453939Y239022*X454280Y238603*X454450Y238185*Y237556*X454280Y237138*X454109Y236928*X453598Y236719*X452916*X452405Y236928*X452234Y237138*X452064Y237556*Y238185*X452234Y238603*X452575Y239022*X453087Y239231*X453768Y239441*X454109Y239650*X454280Y240069*Y240488*X454109Y240906*X453598Y241116*X452916*X403286D02*G01Y237766D01*X403115Y237138*X402945Y236928*X402604Y236719*X402263*X401922Y236928*X401752Y237138*X401581Y237766*Y238185*X407036Y239650D02*G01X406865Y239022D01*X406524Y238603*X406013Y238394*X405842*X405331Y238603*X404990Y239022*X404820Y239650*Y239860*X404990Y240488*X405331Y240906*X405842Y241116*X406013*X406524Y240906*X406865Y240488*X407036Y239650*Y238603*X406865Y237556*X406524Y236928*X406013Y236719*X405672*X405161Y236928*X404990Y237347*X544034Y148596D02*G01Y145246D01*X543863Y144618*X543693Y144409*X543352Y144199*X543011*X542670Y144409*X542500Y144618*X542329Y145246*Y145665*X545568Y147759D02*G01X545909Y147968D01*X546420Y148596*Y144199*X548806Y148596D02*G01X548295Y148387D01*X548125Y147968*Y147549*X548295Y147130*X548636Y146921*X549318Y146712*X549829Y146502*X550170Y146084*X550340Y145665*Y145665D02*G01Y145037D01*Y145037D02*G01X550170Y144618D01*X550000Y144409*X549488Y144199*X548806*X548295Y144409*X548125Y144618*X547954Y145037*Y145665*X548125Y146084*X548465Y146502*Y146502D02*G01X548977Y146712D01*X549659Y146921*X550000Y147130*X550170Y147549*Y147968*X550000Y148387*X549488Y148596*X548806*X496790D02*G01Y145246D01*X496619Y144618*X496449Y144409*X496108Y144199*X495767*X495426Y144409*X495255Y144618*X495085Y145246*Y145665*X498324Y147759D02*G01X498665Y147968D01*X499176Y148596*Y144199*X502926Y147130D02*G01X502755Y146502D01*X502415Y146084*X501903Y145874*X501733*X501221Y146084*X500880Y146502*X500710Y147130*Y147340*X500880Y147968*X501221Y148387*X501733Y148596*X501903*X502415Y148387*X502755Y147968*X502926Y147130*Y146084*X502755Y145037*X502415Y144409*X501903Y144199*X501562*X501051Y144409*X500880Y144827*X449545Y148596D02*G01Y145246D01*X449375Y144618*X449205Y144409*X448864Y144199*X448523*X448182Y144409*X448011Y144618*X447841Y145246*Y145665*X451250Y147549D02*G01Y147759D01*X451420Y148177*X451591Y148387*X451932Y148596*X452614*X452955Y148387*X453125Y148177*X453295Y147759*Y147340*X453125Y146921*X452784Y146293*X451080Y144199*X453466*X456023Y148596D02*G01X455511Y148387D01*X455170Y147759*X455000Y146712*Y146084*X455170Y145037*X455511Y144409*X456023Y144199*X456364*X456875Y144409*X457216Y145037*X457386Y146084*Y146712*X457216Y147759*X456875Y148387*X456364Y148596*X456023*X402301D02*G01Y145246D01*X402131Y144618*X401960Y144409*X401620Y144199*X401279*X400938Y144409*X400767Y144618*X400597Y145246*Y145665*X404006Y147549D02*G01Y147759D01*X404176Y148177*X404347Y148387*X404688Y148596*X405370*X405710Y148387*X405881Y148177*X406051Y147759*Y147340*X405881Y146921*X405540Y146293*X403835Y144199*X406222*X407756Y147759D02*G01X408097Y147968D01*X408608Y148596*Y144199*X355057Y148596D02*G01Y145246D01*X354887Y144618*X354716Y144409*X354375Y144199*X354035*X353694Y144409*X353523Y144618*X353353Y145246*Y145665*X356762Y147549D02*G01Y147759D01*X356932Y148177*X357103Y148387*X357444Y148596*X358125*X358466Y148387*X358637Y148177*X358807Y147759*Y147340*X358637Y146921*X358296Y146293*X356591Y144199*X358978*X360682Y147549D02*G01Y147759D01*X360853Y148177*X361023Y148387*X361364Y148596*X362046*X362387Y148387*X362557Y148177*X362728Y147759*Y147340*X362557Y146921*X362216Y146293*X360512Y144199*X362898*X307813Y148596D02*G01Y145246D01*X307643Y144618*X307472Y144409*X307131Y144199*X306790*X306450Y144409*X306279Y144618*X306109Y145246*Y145665*X309518Y147549D02*G01Y147759D01*X309688Y148177*X309859Y148387*X310200Y148596*X310881*X311222Y148387*X311393Y148177*X311563Y147759*Y147340*X311393Y146921*X311052Y146293*X309347Y144199*X311734*X313609Y148596D02*G01X315484D01*X314461Y146921*X314972*X315313Y146712*X315484Y146502*X315654Y145874*Y145455*X315484Y144827*X315143Y144409*X314631Y144199*X314120*X313609Y144409*X313438Y144618*X313268Y145037*X260569Y148596D02*G01Y145246D01*X260399Y144618*X260228Y144409*X259887Y144199*X259546*X259205Y144409*X259035Y144618*X258865Y145246*Y145665*X262274Y147549D02*G01Y147759D01*X262444Y148177*X262615Y148387*X262955Y148596*X263637*X263978Y148387*X264149Y148177*X264319Y147759*Y147340*X264149Y146921*X263808Y146293*X262103Y144199*X264490*X267728Y148596D02*G01X266024Y145665D01*X268580*X267728Y148596D02*G01Y144199D01*X213325Y148596D02*G01Y145246D01*X213155Y144618*X212984Y144409*X212643Y144199*X212302*X211961Y144409*X211791Y144618*X211620Y145246*Y145665*X215030Y147549D02*G01Y147759D01*X215200Y148177*X215370Y148387*X215711Y148596*X216393*X216734Y148387*X216905Y148177*X217075Y147759*Y147340*X216905Y146921*X216564Y146293*X214859Y144199*X217245*X220995Y148596D02*G01X219291D01*X219120Y146712*X219291Y146921*X219802Y147130*X220314*X220825Y146921*X221166Y146502*X221336Y145874*X221166Y145455*X220995Y144827*X220655Y144409*X220143Y144199*X219632*X219120Y144409*X218950Y144618*X218780Y145037*X159035Y238947D02*G01X156307Y237272D01*X159035Y235387*X140000Y32224D02*G01Y12224D01*X180000Y32224D02*G01Y12224D01*X240000Y32224D02*G01Y12224D01*X100000Y47224D02*G01X280000D01*Y12224*X100000*Y47224*Y32224D02*G01X280000D01*X100000Y22224D02*G01X280000D01*X108491Y42662D02*G01Y36624D01*X106900Y42662D02*G01X110082D01*X112127D02*G01Y36624D01*Y42662D02*G01X115082D01*X112127Y39787D02*G01X113945D01*X112127Y36624D02*G01X115082D01*X120536Y41224D02*G01X120309Y41799D01*X119855Y42374*X119400Y42662*X118491*X118036Y42374*X117582Y41799*X117355Y41224*X117127Y40362*Y38924*X117355Y38062*X117582Y37487*X118036Y36912*X118491Y36624*X119400*X119855Y36912*X120309Y37487*X120536Y38062*X122582Y42662D02*G01Y36624D01*Y42662D02*G01X125764Y36624D01*Y42662D02*G01Y36624D01*X129173Y42662D02*G01X128718Y42374D01*X128264Y41799*X128036Y41224*X127809Y40362*Y38924*X128036Y38062*X128264Y37487*X128718Y36912*X129173Y36624*X130082*X130536Y36912*X130991Y37487*X131218Y38062*X131445Y38924*Y40362*X131218Y41224*X130991Y41799*X130536Y42374*X130082Y42662*X129173*X136673D02*G01X134400Y36624D01*X133491Y42662D02*G01X136673D01*X141900D02*G01X139627Y36624D01*X138718Y42662D02*G01X141900D01*G54D21*X368209Y173234D02*G01Y167421D01*X370222Y173234D02*G01Y167421D01*Y173234D02*G01X373130D01*X370222Y170466D02*G01X372011D01*X375143Y173234D02*G01Y167421D01*X377827*X379841Y173234D02*G01Y167421D01*Y173234D02*G01X382749D01*X379841Y170466D02*G01X381630D01*X379841Y167421D02*G01X382749D01*X384762Y173234D02*G01X387894Y167421D01*Y173234D02*G01X384762Y167421D01*X398184Y172404D02*G01X397736Y172958D01*X397065Y173234*Y173234D02*G01X396170D01*Y173234D02*G01X395499Y172958D01*X395052Y172404*Y171850*X395276Y171297*X395499Y171020*X395947Y170743*X397289Y170189*X397736Y169913*X397960Y169636*X398184Y169082*Y168252*X397736Y167698*X397065Y167421*X396170*X395499Y167698*X395052Y168252*X400197Y173234D02*G01Y167421D01*Y173234D02*G01X403105D01*X400197Y170466D02*G01X401986D01*X400197Y167421D02*G01X403105D01*X405118Y173234D02*G01Y167421D01*Y173234D02*G01X407131D01*Y173234D02*G01X407802Y172958D01*X408026Y172681*X408250Y172127*Y171574*X408026Y171020*X407802Y170743*X407131Y170466*X405118*X406684D02*G01X408250Y167421D01*X410263Y173234D02*G01X412053Y167421D01*X413842Y173234D02*G01X412053Y167421D01*X415855Y173234D02*G01Y167421D01*X421224Y171850D02*G01X421000Y172404D01*X420553Y172958*X420106Y173234*Y173234D02*G01X419211D01*Y173234D02*G01X418763Y172958D01*X418316Y172404*X418092Y171850*X417869Y171020*Y169636*X418092Y168805*X418316Y168252*X418763Y167698*X419211Y167421*X420106*X420553Y167698*X421000Y168252*X421224Y168805*X423237Y173234D02*G01Y167421D01*Y173234D02*G01X426145D01*X423237Y170466D02*G01X425027D01*X423237Y167421D02*G01X426145D01*X433304Y173234D02*G01Y167421D01*Y173234D02*G01X435317D01*Y173234D02*G01X435988Y172958D01*X436212Y172681*X436435Y172127*Y171574*X436212Y171020*X435988Y170743*X435317Y170466*X433304D02*G01X435317D01*X435988Y170189*X436212Y169913*X436435Y169359*Y168529*X436212Y167975*X435988Y167698*X435317Y167421*X433304*X439791Y173234D02*G01X439343Y172958D01*X438896Y172404*X438672Y171850*X438448Y171020*Y169636*X438672Y168805*X438896Y168252*X439343Y167698*X439791Y167421*X440685*X441133Y167698*X441580Y168252*X441804Y168805*X442028Y169636*Y171020*X441804Y171850*X441580Y172404*X441133Y172958*X440685Y173234*Y173234D02*G01X439791D01*X445830D02*G01X444041Y167421D01*X445830Y173234D02*G01X447620Y167421D01*X444712Y169359D02*G01X446949D01*X449633Y173234D02*G01Y167421D01*Y173234D02*G01X451646D01*Y173234D02*G01X452317Y172958D01*X452541Y172681*X452765Y172127*Y171574*X452541Y171020*X452317Y170743*X451646Y170466*X449633*X451199D02*G01X452765Y167421D01*X454778Y173234D02*G01Y167421D01*Y173234D02*G01X456344D01*Y173234D02*G01X457015Y172958D01*X457462Y172404*X457686Y171850*X457910Y171020*Y169636*X457686Y168805*X457462Y168252*X457015Y167698*X456344Y167421*X454778*X100003Y277165D02*G01X729924D01*Y100000*X100003*Y277165*G54D25*X151543Y41037D02*G01Y36574D01*X150350Y41037D02*G01X152736D01*X154270Y38274D02*G01X156316D01*Y38699*X156145Y39124*X155975Y39337*X155634Y39549*X155123*X154782Y39337*X154441Y38912*X154270Y38274*Y37849*X154441Y37212*X154782Y36787*X155123Y36574*X155634*X155975Y36787*X156316Y37212*X157850Y41037D02*G01Y36574D01*X159555Y39549D02*G01X159384Y39337D01*X159555Y39124*X159725Y39337*X159555Y39549*Y36999D02*G01X159384Y36787D01*X159555Y36574*X159725Y36787*X159555Y36999*X162793Y40399D02*G01Y36574D01*X161259Y38487D02*G01X164327D01*X166202Y41037D02*G01X168077D01*X167055Y39337*X167566*X167907Y39124*X168077Y38912*X168248Y38274*Y37849*X168077Y37212*X167736Y36787*X167225Y36574*X166714*X166202Y36787*X166032Y36999*X165861Y37424*X171998Y39549D02*G01X171827Y38912D01*X171486Y38487*X170975Y38274*X170805*X170293Y38487*X169952Y38912*X169782Y39549*Y39762*X169952Y40399*X170293Y40824*X170805Y41037*X170975*X171486Y40824*X171827Y40399*X171998Y39549*Y38487*X171827Y37424*X171486Y36787*X170975Y36574*X170634*X170123Y36787*X169952Y37212*X174555Y41037D02*G01X174043Y40824D01*X173702Y40187*X173532Y39124*Y38487*X173702Y37424*X174043Y36787*X174555Y36574*X174895*X175407Y36787*X175748Y37424*X175918Y38487*Y39124*X175748Y40187*X175407Y40824*X174895Y41037*X174555*X179157D02*G01X177452Y38062D01*X180009*X179157Y41037D02*G01Y36574D01*X183248Y41037D02*G01X181543Y38062D01*X184100*X183248Y41037D02*G01Y36574D01*X187339Y41037D02*G01X185634Y38062D01*X188191*X187339Y41037D02*G01Y36574D01*X191770Y40399D02*G01X191600Y40824D01*X191089Y41037*X190748*X190236Y40824*X189895Y40187*X189725Y39124*Y38062*X189895Y37212*X190236Y36787*X190748Y36574*X190918*X191430Y36787*X191770Y37212*X191941Y37849*Y38062*X191770Y38699*X191430Y39124*X190918Y39337*X190748*X190236Y39124*X189895Y38699*X189725Y38062*X194498Y41037D02*G01X193986Y40824D01*X193645Y40187*X193475Y39124*Y38487*X193645Y37424*X193986Y36787*X194498Y36574*X194839*X195350Y36787*X195691Y37424*X195861Y38487*Y39124*X195691Y40187*X195350Y40824*X194839Y41037*X194498*X197395Y40187D02*G01X197736Y40399D01*X198248Y41037*Y36574*X201998Y41037D02*G01X200293D01*X200123Y39124*X200293Y39337*X200805Y39549*X201316*X201827Y39337*X202168Y38912*X202339Y38274*X202168Y37849*X201998Y37212*X201657Y36787*X201145Y36574*X200634*X200123Y36787*X199952Y36999*X199782Y37424*X203873Y40187D02*G01X204214Y40399D01*X204725Y41037*Y36574*X206259Y40187D02*G01X206600Y40399D01*X207111Y41037*Y36574*X216486Y39549D02*G01Y37424D01*X216657Y36787*X216998Y36574*X217509*X217850Y36787*X218361Y37424*Y39549D02*G01Y36574D01*X220407Y41037D02*G01Y37424D01*X220577Y36787*X220918Y36574*X221259*X219895Y39549D02*G01X221089D01*X222793Y38274D02*G01X224839D01*Y38699*X224668Y39124*X224498Y39337*X224157Y39549*X223645*X223305Y39337*X222964Y38912*X222793Y38274*Y37849*X222964Y37212*X223305Y36787*X223645Y36574*X224157*X224498Y36787*X224839Y37212*X228418Y38912D02*G01X228077Y39337D01*X227736Y39549*X227225*X226884Y39337*X226543Y38912*X226373Y38274*Y37849*X226543Y37212*X226884Y36787*X227225Y36574*X227736*X228077Y36787*X228418Y37212*X232168Y36787D02*G01X231486D01*X230634Y36999*X230293Y37424*X229952Y38274*Y39337*X230293Y40399*X230634Y40824*X232168*X232680Y40399*X233020Y39762*X233191Y38699*X233020Y37849*X232850Y37637*X232168Y37424D02*G01X231998Y37637D01*Y39762*Y39337D02*G01X231657Y39549D01*X231316*X230975Y39337*X230805Y38912*Y38487*X230975Y38062*X231316Y37849*X231657*X231998Y38062*X232168Y37424D02*G01X232680D01*X232850Y37637*X235236Y41037D02*G01Y37424D01*X235407Y36787*X235748Y36574*X236089*X234725Y39549D02*G01X235918D01*X237623Y38274D02*G01X239668D01*Y38699*X239498Y39124*X239327Y39337*X238986Y39549*X238475*X238134Y39337*X237793Y38912*X237623Y38274*Y37849*X237793Y37212*X238134Y36787*X238475Y36574*X238986*X239327Y36787*X239668Y37212*X243248Y38912D02*G01X242907Y39337D01*X242566Y39549*X242055*X241714Y39337*X241373Y38912*X241202Y38274*Y37849*X241373Y37212*X241714Y36787*X242055Y36574*X242566*X242907Y36787*X243248Y37212*X244782Y39549D02*G01Y36574D01*Y38699D02*G01X245293Y39337D01*X245634Y39549*X246145*X246486Y39337*X246657Y38699*Y36574*X249043Y39549D02*G01X248702Y39337D01*X248361Y38912*X248191Y38274*Y37849*X248361Y37212*X248702Y36787*X249043Y36574*X249555*X249895Y36787*X250236Y37212*X250407Y37849*Y38274*X250236Y38912*X249895Y39337*X249555Y39549*X249043*X254327Y41037D02*G01X252623Y36574D01*X251941Y41037D02*G01X254327D01*X258248D02*G01X256543Y36574D01*X255861Y41037D02*G01X258248D01*X259952Y36999D02*G01X259782Y36787D01*X259952Y36574*X260123Y36787*X259952Y36999*X263702Y38912D02*G01X263361Y39337D01*X263020Y39549*X262509*X262168Y39337*X261827Y38912*X261657Y38274*Y37849*X261827Y37212*X262168Y36787*X262509Y36574*X263020*X263361Y36787*X263702Y37212*X266089Y39549D02*G01X265748Y39337D01*X265407Y38912*X265236Y38274*Y37849*X265407Y37212*X265748Y36787*X266089Y36574*X266600*X266941Y36787*X267282Y37212*X267452Y37849*Y38274*X267282Y38912*X266941Y39337*X266600Y39549*X266089*X268986D02*G01Y36574D01*Y38699D02*G01X269498Y39337D01*X269839Y39549*X270350*X270691Y39337*X270861Y38699*Y36574*Y38699D02*G01X271373Y39337D01*X271714Y39549*X272225*X272566Y39337*X272736Y38699*Y36574*X153452Y19209D02*G01Y15074D01*Y19209D02*G01X155520D01*X153452Y17240D02*G01X154725D01*X153452Y15074D02*G01X155520D01*X156952Y19209D02*G01Y15074D01*Y19209D02*G01X158066D01*X158543Y19012*X158861Y18618*X159020Y18224*X159180Y17634*Y16649*X159020Y16059*X158861Y15665*X158543Y15271*X158066Y15074*X156952*X160611Y19209D02*G01Y15074D01*Y19209D02*G01X161725D01*X162202Y19012*X162520Y18618*X162680Y18224*X162839Y17634*Y16649*X162680Y16059*X162520Y15665*X162202Y15271*X161725Y15074*X160611*X164270Y19209D02*G01X165543Y17240D01*Y15074*X166816Y19209D02*G01X165543Y17240D01*X106384Y19209D02*G01X105907Y19012D01*X105589Y18421*X105430Y17437*Y16846*X105589Y15862*X105907Y15271*X106384Y15074*X106702*X107180Y15271*X107498Y15862*X107657Y16846*Y17437*X107498Y18421*X107180Y19012*X106702Y19209*X106384*X110998Y18618D02*G01X110839Y19012D01*X110361Y19209*X110043*X109566Y19012*X109248Y18421*X109089Y17437*Y16453*X109248Y15665*X109566Y15271*X110043Y15074*X110202*X110680Y15271*X110998Y15665*X111157Y16256*Y16453*X110998Y17043*X110680Y17437*X110202Y17634*X110043*X109566Y17437*X109248Y17043*X109089Y16453*X115452Y19996D02*G01X112589Y13696D01*X117839Y19209D02*G01X117361Y19012D01*X117043Y18421*X116884Y17437*Y16846*X117043Y15862*X117361Y15271*X117839Y15074*X118157*X118634Y15271*X118952Y15862*X119111Y16846*Y17437*X118952Y18421*X118634Y19012*X118157Y19209*X117839*X122770D02*G01X121180Y15074D01*X120543Y19209D02*G01X122770D01*X127066Y19996D02*G01X124202Y13696D01*X128498Y18421D02*G01X128816Y18618D01*X129293Y19209*Y15074*X132952Y19209D02*G01X131361Y15074D01*X130725Y19209D02*G01X132952D01*X248248D02*G01Y15074D01*X249680Y19209D02*G01Y15074D01*Y19209D02*G01X251907Y15074D01*Y19209D02*G01Y15074D01*X253339Y19209D02*G01Y15074D01*X255566Y19209D02*G01Y15074D01*X253339Y17240D02*G01X255566D01*X256998Y18421D02*G01X257316Y18618D01*X257793Y19209*Y15074*X261452Y19209D02*G01X259861Y15074D01*X259225Y19209D02*G01X261452D01*X263839D02*G01X263361Y19012D01*X263043Y18421*X262884Y17437*Y16846*X263043Y15862*X263361Y15271*X263839Y15074*X264157*X264634Y15271*X264952Y15862*X265111Y16846*Y17437*X264952Y18421*X264634Y19012*X264157Y19209*X263839*X266702Y18224D02*G01Y18421D01*X266861Y18815*X267020Y19012*X267339Y19209*X267975*X268293Y19012*X268452Y18815*X268611Y18421*Y18028*X268452Y17634*X268134Y17043*X266543Y15074*X268770*X112850Y29209D02*G01Y25074D01*Y29209D02*G01X113964D01*X114441Y29012*X114759Y28618*X114918Y28224*X115077Y27634*Y26649*X114918Y26059*X114759Y25665*X114441Y25271*X113964Y25074*X112850*X117782Y29209D02*G01X116509Y25074D01*X117782Y29209D02*G01X119055Y25074D01*X116986Y26453D02*G01X118577D01*X121600Y29209D02*G01Y25074D01*X120486Y29209D02*G01X122714D01*X124145D02*G01Y25074D01*Y29209D02*G01X126214D01*X124145Y27240D02*G01X125418D01*X124145Y25074D02*G01X126214D01*X146305Y29209D02*G01X145986Y29012D01*X145668Y28618*X145509Y28224*X145350Y27634*Y26649*X145509Y26059*X145668Y25665*X145986Y25271*X146305Y25074*X146941*X147259Y25271*X147577Y25665*X147736Y26059*X147895Y26649*Y27634*X147736Y28224*X147577Y28618*X147259Y29012*X146941Y29209*X146305*X149327D02*G01Y25074D01*Y29209D02*G01X150759D01*X151236Y29012*X151395Y28815*X151555Y28421*Y27831*X151395Y27437*X151236Y27240*X150759Y27043*X149327*X152986Y29209D02*G01Y25074D01*Y29209D02*G01X155055D01*X152986Y27240D02*G01X154259D01*X152986Y25074D02*G01X155055D01*X156486Y29209D02*G01Y25074D01*Y29209D02*G01X157918D01*X158395Y29012*X158555Y28815*X158714Y28421*Y28028*X158555Y27634*X158395Y27437*X157918Y27240*X156486*X157600D02*G01X158714Y25074D01*X161418Y29209D02*G01X160145Y25074D01*X161418Y29209D02*G01X162691Y25074D01*X160623Y26453D02*G01X162214D01*X165236Y29209D02*G01Y25074D01*X164123Y29209D02*G01X166350D01*X168736D02*G01X168418Y29012D01*X168100Y28618*X167941Y28224*X167782Y27634*Y26649*X167941Y26059*X168100Y25665*X168418Y25271*X168736Y25074*X169373*X169691Y25271*X170009Y25665*X170168Y26059*X170327Y26649*Y27634*X170168Y28224*X170009Y28618*X169691Y29012*X169373Y29209*X168736*X171759D02*G01Y25074D01*Y29209D02*G01X173191D01*X173668Y29012*X173827Y28815*X173986Y28421*Y28028*X173827Y27634*X173668Y27437*X173191Y27240*X171759*X172873D02*G01X173986Y25074D01*X196736Y28224D02*G01X196577Y28618D01*X196259Y29012*X195941Y29209*X195305*X194986Y29012*X194668Y28618*X194509Y28224*X194350Y27634*Y26649*X194509Y26059*X194668Y25665*X194986Y25271*X195305Y25074*X195941*X196259Y25271*X196577Y25665*X196736Y26059*X198168Y29209D02*G01Y26256D01*X198327Y25665*X198645Y25271*X199123Y25074*X199441*X199918Y25271*X200236Y25665*X200395Y26256*Y29209*X204055Y28618D02*G01X203736Y29012D01*X203259Y29209*X202623*X202145Y29012*X201827Y28618*Y28224*X201986Y27831*X202145Y27634*X202464Y27437*X203418Y27043*X203736Y26846*X203895Y26649*X204055Y26256*Y25665*X203736Y25271*X203259Y25074*X202623*X202145Y25271*X201827Y25665*X206600Y29209D02*G01Y25074D01*X205486Y29209D02*G01X207714D01*X210100D02*G01X209782Y29012D01*X209464Y28618*X209305Y28224*X209145Y27634*Y26649*X209305Y26059*X209464Y25665*X209782Y25271*X210100Y25074*X210736*X211055Y25271*X211373Y25665*X211532Y26059*X211691Y26649*Y27634*X211532Y28224*X211373Y28618*X211055Y29012*X210736Y29209*X210100*X213123D02*G01Y25074D01*Y29209D02*G01X214395Y25074D01*X215668Y29209D02*G01X214395Y25074D01*X215668Y29209D02*G01Y25074D01*X217100Y29209D02*G01Y25074D01*Y29209D02*G01X219168D01*X217100Y27240D02*G01X218373D01*X217100Y25074D02*G01X219168D01*X220600Y29209D02*G01Y25074D01*Y29209D02*G01X222032D01*X222509Y29012*X222668Y28815*X222827Y28421*Y28028*X222668Y27634*X222509Y27437*X222032Y27240*X220600*X221714D02*G01X222827Y25074D01*X255236Y28224D02*G01X255077Y28618D01*X254759Y29012*X254441Y29209*X253805*X253486Y29012*X253168Y28618*X253009Y28224*X252850Y27634*Y26649*X253009Y26059*X253168Y25665*X253486Y25271*X253805Y25074*X254441*X254759Y25271*X255077Y25665*X255236Y26059*X257623Y29209D02*G01X257305Y29012D01*X256986Y28618*X256827Y28224*X256668Y27634*Y26649*X256827Y26059*X256986Y25665*X257305Y25271*X257623Y25074*X258259*X258577Y25271*X258895Y25665*X259055Y26059*X259214Y26649*Y27634*X259055Y28224*X258895Y28618*X258577Y29012*X258259Y29209*X257623*X260645D02*G01Y25074D01*Y29209D02*G01X261759D01*X262236Y29012*X262555Y28618*X262714Y28224*X262873Y27634*Y26649*X262714Y26059*X262555Y25665*X262236Y25271*X261759Y25074*X260645*X264305Y29209D02*G01Y25074D01*Y29209D02*G01X266373D01*X264305Y27240D02*G01X265577D01*X264305Y25074D02*G01X266373D01*X202191Y19209D02*G01Y15074D01*X203623Y17831D02*G01Y15074D01*Y17043D02*G01X204100Y17634D01*X204418Y17831*X204895*X205214Y17634*X205373Y17043*Y15074*X206964Y18224D02*G01Y18421D01*X207123Y18815*X207282Y19012*X207600Y19209*X208236*X208555Y19012*X208714Y18815*X208873Y18421*Y18028*X208714Y17634*X208395Y17043*X206805Y15074*X209032*X210464Y19209D02*G01Y15074D01*X212691Y19209D02*G01Y15074D01*X210464Y17240D02*G01X212691D01*X214282Y18224D02*G01Y18421D01*X214441Y18815*X214600Y19012*X214918Y19209*X215555*X215873Y19012*X216032Y18815*X216191Y18421*Y18028*X216032Y17634*X215714Y17043*X214123Y15074*X216350*X91106Y102577D02*G01X90712Y102259D01*Y102259D02*G01X90516Y101782D01*Y101145*X90712Y100668*Y100668D02*G01X91106Y100350D01*X91500*X91894Y100509*X92091Y100668*X92287Y100986*Y100986D02*G01X92681Y101941D01*X92878Y102259*X93075Y102418*X93469Y102577*X94059*X94453Y102259*X94650Y101782*Y101145*X94453Y100668*X94059Y100350*X90516Y104009D02*G01X94650D01*X90516Y105441D02*G01X94650D01*Y107350*X90516Y108782D02*G01X94650D01*X90516Y111009D02*G01X93272Y108782D01*X92287Y109577D02*G01X94650Y111009D01*X91106Y114668D02*G01X90712Y114350D01*Y114350D02*G01X90516Y113873D01*Y113236*X90712Y112759*Y112759D02*G01X91106Y112441D01*X91500*X91894Y112600*X92091Y112759*X92287Y113077*Y113077D02*G01X92681Y114032D01*X92878Y114350*X93075Y114509*X93469Y114668*X94059*X94453Y114350*X94650Y113873*Y113236*X94453Y112759*X94059Y112441*X91500Y118486D02*G01X91106Y118327D01*X90712Y118009*Y118009D02*G01X90516Y117691D01*Y117055*X90712Y116736*Y116736D02*G01X91106Y116418D01*X91500Y116259*X92091Y116100*X93075*X93666Y116259*X94059Y116418*X94453Y116736*X94650Y117055*Y117691*X94453Y118009*X94059Y118327*X93666Y118486*X90516Y119918D02*G01X94650D01*X90516D02*G01Y121350D01*X90712Y121827*Y121827D02*G01X90909Y121986D01*X91303Y122145*X91697*X92091Y121986*X92287Y121827*Y121827D02*G01X92484Y121350D01*Y119918*Y121032D02*G01X94650Y122145D01*X90516Y123577D02*G01X94650D01*X90516D02*G01Y125645D01*X92484Y123577D02*G01Y124850D01*X94650Y123577D02*G01Y125645D01*X90516Y127077D02*G01X94650D01*X90516D02*G01Y129145D01*X92484Y127077D02*G01Y128350D01*X94650Y127077D02*G01Y129145D01*X90516Y130577D02*G01X94650D01*X90516D02*G01X94650Y132805D01*X90516D02*G01X94650D01*X90516Y139009D02*G01X94650D01*X90516Y137895D02*G01Y140123D01*Y142509D02*G01X90712Y142191D01*Y142191D02*G01X91106Y141873D01*X91500Y141714*X92091Y141555*X93075*X93666Y141714*X94059Y141873*X94453Y142191*X94650Y142509*Y143145*X94453Y143464*X94059Y143782*X93666Y143941*X93075Y144100*X92091*X91500Y143941*X91106Y143782*X90712Y143464*Y143464D02*G01X90516Y143145D01*Y142509*Y145532D02*G01X94650D01*X90516D02*G01Y146964D01*X90712Y147441*Y147441D02*G01X90909Y147600D01*X91303Y147759*X91894*X92287Y147600*Y147600D02*G01X92484Y147441D01*X92681Y146964*Y145532*G54D26*X546656Y184609D02*G01X552156Y194309D01*X555856Y187409*X555156Y186709*X554556Y186509*X553156Y186209*X550556Y185909*X548056Y185509*X547456Y185109*X546956Y184509*X558756Y180609D02*G01X560156Y179509D01*X558056Y179909D02*G01X561056Y178009D01*X561556Y176709D02*G01X557456Y179209D01*X562956Y174909D02*G01X556356Y178809D01*X557256Y179509*X558556Y181409*X559156Y181709*X562856Y175009*X543956Y176209D02*G01X543556Y177909D01*X542756Y176109*X543956Y176209*X541756Y175609D02*G01X544756D01*X545156Y174709D02*G01X541356D01*X540756Y173709D02*G01X545456D01*X545356Y172809D02*G01X540256D01*X544956Y181709D02*G01X539556Y172009D01*X546256Y172409D02*G01X545856Y172809D01*X545256Y174609*X545056Y175009*X544156Y178609*Y179709*X545256Y181609*X549156Y172209D02*G01X548356Y172809D01*X548256Y173409*X547356Y172409*X546456Y172109*X550356Y172509D02*G01X553156Y172609D01*X552856D02*G01X554456Y175409D01*X553456Y176709D02*G01X561456Y172009D01*X553956Y176209D02*G01X553456D01*X555156Y175509D02*G01X553956D01*Y174609D02*G01X556956D01*X553056Y173709D02*G01X558556D01*X559756Y172909D02*G01X552556D01*X539556Y172009D02*G01X561456D01*G54D34*X180095Y271619D02*G01X180368Y271788D01*X180777Y272294*Y268750*X187669Y150956D02*G01X187942Y151125D01*X188351Y151631*Y148087*X574096Y199185D02*G01X574369Y199354D01*X574778Y199860*Y196316*X633835Y271619D02*G01X634108Y271788D01*X634517Y272294*Y268750*X712575Y271619D02*G01X712848Y271788D01*X713257Y272294*Y268750*X633835Y107249D02*G01X634108Y107418D01*X634517Y107924*Y104380*X711591Y106265D02*G01X711864Y106434D01*X712273Y106940*Y103396*X157620Y152615D02*G01Y149072D01*Y152615D02*G01X158847D01*X159256Y152447*X159392Y152278*X159529Y151940*Y151434*X159392Y151097*X159256Y150928*X158847Y150759*X157620*X160756Y152615D02*G01Y149072D01*Y152615D02*G01X161847Y149072D01*X162938Y152615D02*G01X161847Y149072D01*X162938Y152615D02*G01Y149072D01*X164165Y152615D02*G01Y149072D01*Y152615D02*G01X165392D01*X165802Y152447*X165938Y152278*X166074Y151940*Y151603*X165938Y151265*X165802Y151097*X165392Y150928*X164165D02*G01X165392D01*X165802Y150759*X165938Y150590*X166074Y150253*Y149747*X165938Y149409*X165802Y149240*X165392Y149072*X164165*X167302Y152615D02*G01Y150084D01*X167438Y149578*X167711Y149240*X168120Y149072*X168392*X168802Y149240*X169074Y149578*X169211Y150084*Y152615*X172347Y152109D02*G01X172074Y152447D01*X171665Y152615*X171120*X170711Y152447*X170438Y152109*Y151772*X170574Y151434*X170711Y151265*X170983Y151097*X171802Y150759*X172074Y150590*X172211Y150422*X172347Y150084*Y149578*X172074Y149240*X171665Y149072*X171120*X170711Y149240*X170438Y149578*X142494Y215608D02*G01Y212064D01*X145767Y214764D02*G01X145631Y215101D01*X145358Y215439*X145085Y215608*X144540*X144267Y215439*X143994Y215101*X143858Y214764*X143721Y214258*Y213414*X143858Y212908*X143994Y212570*X144267Y212233*X144540Y212064*X145085*X145358Y212233*X145631Y212570*X145767Y212908*X148903Y215101D02*G01X148631Y215439D01*X148221Y215608*X147676*X147267Y215439*X146994Y215101*Y214764*X147131Y214426*X147267Y214258*X147540Y214089*X148358Y213751*X148631Y213583*X148767Y213414*X148903Y213076*Y212570*X148631Y212233*X148221Y212064*X147676*X147267Y212233*X146994Y212570*X150131Y215608D02*G01Y212064D01*Y215608D02*G01X151358D01*X151767Y215439*X151903Y215270*X152040Y214933*Y214426*X151903Y214089*X151767Y213920*X151358Y213751*X150131*X140193Y272694D02*G01X139103Y269150D01*X140193Y272694D02*G01X141284Y269150D01*X139512Y270332D02*G01X140875D01*X142512Y272694D02*G01Y270163D01*X142648Y269657*X142921Y269319*X143330Y269150*X143603*X144012Y269319*X144284Y269657*X144421Y270163*Y272694*X145648D02*G01X147557Y269150D01*Y272694D02*G01X145648Y269150D01*X585505Y199860D02*G01X587414Y196316D01*Y199860D02*G01X585505Y196316D01*X588641Y199860D02*G01Y196316D01*X589868Y199860D02*G01Y196316D01*X591505*X592732Y199860D02*G01Y196316D01*X593959Y199860D02*G01Y196316D01*Y199860D02*G01X595868Y196316D01*Y199860D02*G01Y196316D01*X597095Y199860D02*G01X599005Y196316D01*Y199860D02*G01X597095Y196316D01*X604732Y199860D02*G01Y197160D01*X604595Y196653*X604459Y196485*X604186Y196316*X603914*X603641Y196485*X603505Y196653*X603368Y197160*Y197497*X606914Y199860D02*G01Y196316D01*X605959Y199860D02*G01X607868D01*X610186D02*G01X609095Y196316D01*X610186Y199860D02*G01X611277Y196316D01*X609505Y197497D02*G01X610868D01*X614550Y199016D02*G01X614414Y199353D01*X614141Y199691*X613868Y199860*X613323*X613050Y199691*X612777Y199353*X612641Y199016*X612505Y198510*Y197666*X612641Y197160*X612777Y196822*X613050Y196485*X613323Y196316*X613868*X614141Y196485*X614414Y196822*X614550Y197160*Y197666*X613868D02*G01X614550D01*X575346Y248015D02*G01X575009Y247878D01*X574671Y247606*X574503Y247333*Y246787*X574671Y246515*X575009Y246242*X575346Y246106*X575853Y245969*X576696*X577203Y246106*X577540Y246242*X577878Y246515*X578046Y246787*Y247333*X577878Y247606*X577540Y247878*X577203Y248015*X576696*Y247333D02*G01Y248015D01*X574503Y249242D02*G01X578046D01*X574503D02*G01X578046Y251151D01*X574503D02*G01X578046D01*X574503Y252378D02*G01X578046D01*X574503D02*G01Y253333D01*X574671Y253742*X575009Y254015*X575346Y254151*X575853Y254287*X576696*X577203Y254151*X577540Y254015*X577878Y253742*X578046Y253333*Y252378*X584345Y246924D02*G01X587889D01*X584345Y245969D02*G01Y247878D01*X585189Y251151D02*G01X584851Y251015D01*X584514Y250742*X584345Y250469*Y249924*X584514Y249651*X584851Y249378*X585189Y249242*X585695Y249106*X586539*X587045Y249242*X587383Y249378*X587720Y249651*X587889Y249924*Y250469*X587720Y250742*X587383Y251015*X587045Y251151*X584345Y252378D02*G01X587889D01*X584345Y254287D02*G01X586708Y252378D01*X585864Y253060D02*G01X587889Y254287D01*X594188Y246924D02*G01X597731D01*X594188Y245969D02*G01Y247878D01*Y249106D02*G01X597731D01*X594188D02*G01X597731Y250197D01*X594188Y251287D02*G01X597731Y250197D01*X594188Y251287D02*G01X597731D01*X594694Y254424D02*G01X594356Y254151D01*X594188Y253742*Y253197*X594356Y252787*X594694Y252515*X595031*X595369Y252651*X595538Y252787*X595706Y253060*X596044Y253878*X596213Y254151*X596381Y254287*X596719Y254424*X597225*X597563Y254151*X597731Y253742*Y253197*X597563Y252787*X597225Y252515*X605999Y246924D02*G01X609543D01*X605999Y245969D02*G01Y247878D01*Y249106D02*G01X609543D01*X605999D02*G01Y250060D01*X606168Y250469*X606505Y250742*X606843Y250878*X607349Y251015*X608193*X608699Y250878*X609036Y250742*X609374Y250469*X609543Y250060*Y249106*X605999Y253060D02*G01X606168Y252787D01*X606505Y252515*X606843Y252378*X607349Y252242*X608193*X608699Y252378*X609036Y252515*X609374Y252787*X609543Y253060*Y253606*X609374Y253878*X609036Y254151*X608699Y254287*X608193Y254424*X607349*X606843Y254287*X606505Y254151*X606168Y253878*X605999Y253606*Y253060*X615841Y246924D02*G01X619385D01*X615841Y245969D02*G01Y247878D01*Y249106D02*G01X619385D01*X615841D02*G01Y250060D01*X616010Y250469*X616348Y250742*X616685Y250878*X617191Y251015*X618035*X618541Y250878*X618879Y250742*X619216Y250469*X619385Y250060*Y249106*X615841Y252242D02*G01X619385D01*X626359Y245969D02*G01X626190Y246242D01*X625684Y246651*X629228*X625684Y247878D02*G01X629228Y248969D01*X625684Y250060D02*G01X629228Y248969D01*X625684Y251969D02*G01X625853Y251560D01*X626190Y251424*X626528*X626865Y251560*X627034Y251833*X627203Y252378*X627371Y252787*X627709Y253060*X628046Y253197*X628553*X628890Y253060*X629059Y252924*X629228Y252515*Y251969*X629059Y251560*X628890Y251424*X628553Y251287*X628046*X627709Y251424*X627371Y251697*X627203Y252106*X627034Y252651*X626865Y252924*X626528Y253060*X626190*X625853Y252924*X625684Y252515*Y251969*X654087Y248015D02*G01X653749Y247878D01*X653412Y247606*X653243Y247333*Y246787*X653412Y246515*X653749Y246242*X654087Y246106*X654593Y245969*X655437*X655943Y246106*X656280Y246242*X656618Y246515*X656787Y246787*Y247333*X656618Y247606*X656280Y247878*X655943Y248015*X655437*Y247333D02*G01Y248015D01*X653243Y249242D02*G01X656787D01*X653243D02*G01X656787Y251151D01*X653243D02*G01X656787D01*X653243Y252378D02*G01X656787D01*X653243D02*G01Y253333D01*X653412Y253742*X653749Y254015*X654087Y254151*X654593Y254287*X655437*X655943Y254151*X656280Y254015*X656618Y253742*X656787Y253333*Y252378*X663085Y246924D02*G01X666629D01*X663085Y245969D02*G01Y247878D01*X663929Y251151D02*G01X663592Y251015D01*X663254Y250742*X663085Y250469*Y249924*X663254Y249651*X663592Y249378*X663929Y249242*X664435Y249106*X665279*X665785Y249242*X666123Y249378*X666460Y249651*X666629Y249924*Y250469*X666460Y250742*X666123Y251015*X665785Y251151*X663085Y252378D02*G01X666629D01*X663085Y254287D02*G01X665448Y252378D01*X664604Y253060D02*G01X666629Y254287D01*X672928Y246924D02*G01X676472D01*X672928Y245969D02*G01Y247878D01*Y249106D02*G01X676472D01*X672928D02*G01X676472Y250197D01*X672928Y251287D02*G01X676472Y250197D01*X672928Y251287D02*G01X676472D01*X673434Y254424D02*G01X673097Y254151D01*X672928Y253742*Y253197*X673097Y252787*X673434Y252515*X673772*X674109Y252651*X674278Y252787*X674447Y253060*X674784Y253878*X674953Y254151*X675122Y254287*X675459Y254424*X675965*X676303Y254151*X676472Y253742*Y253197*X676303Y252787*X675965Y252515*X684739Y246924D02*G01X688283D01*X684739Y245969D02*G01Y247878D01*Y249106D02*G01X688283D01*X684739D02*G01Y250060D01*X684908Y250469*X685245Y250742*X685583Y250878*X686089Y251015*X686933*X687439Y250878*X687776Y250742*X688114Y250469*X688283Y250060*Y249106*X684739Y253060D02*G01X684908Y252787D01*X685245Y252515*X685583Y252378*X686089Y252242*X686933*X687439Y252378*X687776Y252515*X688114Y252787*X688283Y253060*Y253606*X688114Y253878*X687776Y254151*X687439Y254287*X686933Y254424*X686089*X685583Y254287*X685245Y254151*X684908Y253878*X684739Y253606*Y253060*X694581Y246924D02*G01X698125D01*X694581Y245969D02*G01Y247878D01*Y249106D02*G01X698125D01*X694581D02*G01Y250060D01*X694750Y250469*X695088Y250742*X695425Y250878*X695931Y251015*X696775*X697281Y250878*X697619Y250742*X697956Y250469*X698125Y250060*Y249106*X694581Y252242D02*G01X698125D01*X705268Y246106D02*G01X705099D01*X704761Y246242*X704593Y246378*X704424Y246651*Y247197*X704593Y247469*X704761Y247606*X705099Y247742*X705436*X705774Y247606*X706280Y247333*X707968Y245969*Y247878*X704424Y249106D02*G01X707968Y250197D01*X704424Y251287D02*G01X707968Y250197D01*X704424Y254287D02*G01Y252924D01*X705943Y252787*X705774Y252924*X705605Y253333*Y253742*X705774Y254151*X706111Y254424*X706618Y254560*X706955Y254424*X707461Y254287*X707799Y254015*X707968Y253606*Y253197*X707799Y252787*X707630Y252651*X707293Y252515*X575346Y125968D02*G01X575009Y125831D01*X574671Y125558*X574503Y125286*Y124740*X574671Y124468*Y124468D02*G01X575009Y124195D01*X575346Y124058*X575853Y123922*X576696*X577203Y124058*X577540Y124195*X577878Y124468*Y124468D02*G01X578046Y124740D01*Y125286*X577878Y125558*X577540Y125831*X577203Y125968*Y125968D02*G01X576696D01*Y125286D02*G01Y125968D01*X574503Y127195D02*G01X578046D01*X574503D02*G01X578046Y129104D01*X574503D02*G01X578046D01*X574503Y130331D02*G01X578046D01*X574503D02*G01Y131286D01*X574671Y131695*X575009Y131968*Y131968D02*G01X575346Y132104D01*X575853Y132240*X576696*X577203Y132104*X577540Y131968*Y131968D02*G01X577878Y131695D01*X578046Y131286*Y130331*X584345Y124877D02*G01X587889D01*X584345Y123922D02*G01Y125831D01*X585189Y129104D02*G01X584851Y128968D01*Y128968D02*G01X584514Y128695D01*X584345Y128422*Y127877*X584514Y127604*X584851Y127331*X585189Y127195*X585695Y127058*X586539*X587045Y127195*X587383Y127331*X587720Y127604*X587889Y127877*Y128422*X587720Y128695*X587383Y128968*Y128968D02*G01X587045Y129104D01*X584345Y130331D02*G01X587889D01*X584345Y132240D02*G01X586708Y130331D01*X585864Y131013D02*G01X587889Y132240D01*X594188Y124877D02*G01X597731D01*X594188Y123922D02*G01Y125831D01*Y127058D02*G01X597731D01*X594188D02*G01X597731Y128149D01*X594188Y129240D02*G01X597731Y128149D01*X594188Y129240D02*G01X597731D01*X594694Y132377D02*G01X594356Y132104D01*X594188Y131695*Y131149*X594356Y130740*X594694Y130468*Y130468D02*G01X595031D01*Y130468D02*G01X595369Y130604D01*X595538Y130740*X595706Y131013*X596044Y131831*X596213Y132104*X596381Y132240*X596719Y132377*X597225*X597563Y132104*X597731Y131695*Y131149*X597563Y130740*X597225Y130468*X605999Y124877D02*G01X609543D01*X605999Y123922D02*G01Y125831D01*Y127058D02*G01X609543D01*X605999D02*G01Y128013D01*X606168Y128422*X606505Y128695*X606843Y128831*X607349Y128968*Y128968D02*G01X608193D01*Y128968D02*G01X608699Y128831D01*X609036Y128695*X609374Y128422*X609543Y128013*Y127058*X605999Y131013D02*G01X606168Y130740D01*X606505Y130468*Y130468D02*G01X606843Y130331D01*X607349Y130195*X608193*X608699Y130331*X609036Y130468*Y130468D02*G01X609374Y130740D01*X609543Y131013*Y131558*X609374Y131831*X609036Y132104*X608699Y132240*X608193Y132377*X607349*X606843Y132240*X606505Y132104*X606168Y131831*X605999Y131558*Y131013*X615841Y124877D02*G01X619385D01*X615841Y123922D02*G01Y125831D01*Y127058D02*G01X619385D01*X615841D02*G01Y128013D01*X616010Y128422*X616348Y128695*X616685Y128831*X617191Y128968*Y128968D02*G01X618035D01*Y128968D02*G01X618541Y128831D01*X618879Y128695*X619216Y128422*X619385Y128013*Y127058*X615841Y130195D02*G01X619385D01*X626528Y124058D02*G01X626359D01*X626021Y124195*X625853Y124331*X625684Y124604*Y125149*X625853Y125422*X626021Y125558*X626359Y125695*X626696*X627034Y125558*X627540Y125286*X629228Y123922*Y125831*X625684Y127058D02*G01X629228Y128149D01*X625684Y129240D02*G01X629228Y128149D01*X625684Y132240D02*G01Y130877D01*X627203Y130740*X627034Y130877*X626865Y131286*Y131695*X627034Y132104*X627371Y132377*X627878Y132513*X628215Y132377*X628721Y132240*X629059Y131968*Y131968D02*G01X629228Y131558D01*Y131149*X629059Y130740*X628890Y130604*X628553Y130468*X654087Y125968D02*G01X653749Y125831D01*X653412Y125558*X653243Y125286*Y124740*X653412Y124468*Y124468D02*G01X653749Y124195D01*X654087Y124058*X654593Y123922*X655437*X655943Y124058*X656280Y124195*X656618Y124468*Y124468D02*G01X656787Y124740D01*Y125286*X656618Y125558*X656280Y125831*X655943Y125968*Y125968D02*G01X655437D01*Y125286D02*G01Y125968D01*X653243Y127195D02*G01X656787D01*X653243D02*G01X656787Y129104D01*X653243D02*G01X656787D01*X653243Y130331D02*G01X656787D01*X653243D02*G01Y131286D01*X653412Y131695*X653749Y131968*Y131968D02*G01X654087Y132104D01*X654593Y132240*X655437*X655943Y132104*X656280Y131968*Y131968D02*G01X656618Y131695D01*X656787Y131286*Y130331*X663085Y124877D02*G01X666629D01*X663085Y123922D02*G01Y125831D01*X663929Y129104D02*G01X663592Y128968D01*Y128968D02*G01X663254Y128695D01*X663085Y128422*Y127877*X663254Y127604*X663592Y127331*X663929Y127195*X664435Y127058*X665279*X665785Y127195*X666123Y127331*X666460Y127604*X666629Y127877*Y128422*X666460Y128695*X666123Y128968*Y128968D02*G01X665785Y129104D01*X663085Y130331D02*G01X666629D01*X663085Y132240D02*G01X665448Y130331D01*X664604Y131013D02*G01X666629Y132240D01*X674896Y124877D02*G01X678440D01*X674896Y123922D02*G01Y125831D01*Y127058D02*G01X678440D01*X674896D02*G01X678440Y128149D01*X674896Y129240D02*G01X678440Y128149D01*X674896Y129240D02*G01X678440D01*X675403Y132377D02*G01X675065Y132104D01*X674896Y131695*Y131149*X675065Y130740*X675403Y130468*Y130468D02*G01X675740D01*Y130468D02*G01X676078Y130604D01*X676246Y130740*X676415Y131013*X676753Y131831*X676921Y132104*X677090Y132240*X677428Y132377*X677934*X678271Y132104*X678440Y131695*Y131149*X678271Y130740*X677934Y130468*X684739Y124877D02*G01X688283D01*X684739Y123922D02*G01Y125831D01*Y127058D02*G01X688283D01*X684739D02*G01Y128013D01*X684908Y128422*X685245Y128695*X685583Y128831*X686089Y128968*Y128968D02*G01X686933D01*Y128968D02*G01X687439Y128831D01*X687776Y128695*X688114Y128422*X688283Y128013*Y127058*X684739Y131013D02*G01X684908Y130740D01*X685245Y130468*Y130468D02*G01X685583Y130331D01*X686089Y130195*X686933*X687439Y130331*X687776Y130468*Y130468D02*G01X688114Y130740D01*X688283Y131013*Y131558*X688114Y131831*X687776Y132104*X687439Y132240*X686933Y132377*X686089*X685583Y132240*X685245Y132104*X684908Y131831*X684739Y131558*Y131013*X694581Y124877D02*G01X698125D01*X694581Y123922D02*G01Y125831D01*Y127058D02*G01X698125D01*X694581D02*G01Y128013D01*X694750Y128422*X695088Y128695*X695425Y128831*X695931Y128968*Y128968D02*G01X696775D01*Y128968D02*G01X697281Y128831D01*X697619Y128695*X697956Y128422*X698125Y128013*Y127058*X694581Y130195D02*G01X698125D01*X705268Y124058D02*G01X705099D01*X704761Y124195*X704593Y124331*X704424Y124604*Y125149*X704593Y125422*X704761Y125558*X705099Y125695*X705436*X705774Y125558*X706280Y125286*X707968Y123922*Y125831*X704424Y127058D02*G01X707968Y128149D01*X704424Y129240D02*G01X707968Y128149D01*X704424Y132240D02*G01Y130877D01*X705943Y130740*X705774Y130877*X705605Y131286*Y131695*X705774Y132104*X706111Y132377*X706618Y132513*X706955Y132377*X707461Y132240*X707799Y131968*Y131968D02*G01X707968Y131558D01*Y131149*X707799Y130740*X707630Y130604*X707293Y130468*X210536Y141245D02*G01Y137702D01*Y141245D02*G01X211763D01*X212173Y141077*X212309Y140908*X212445Y140570*Y140233*X212309Y139895*X212173Y139727*X211763Y139558*X210536*X211491D02*G01X212445Y137702D01*X213673Y141245D02*G01X215582Y137702D01*Y141245D02*G01X213673Y137702D01*X216945Y140402D02*G01Y140570D01*X217082Y140908*X217218Y141077*X217491Y141245*X218036*X218309Y141077*X218445Y140908*X218582Y140570*Y140233*X218445Y139895*X218173Y139389*X216809Y137702*X218718*X219945Y141245D02*G01Y137702D01*Y141245D02*G01X221854Y137702D01*Y141245D02*G01Y137702D01*X258272Y141737D02*G01Y138194D01*Y141737D02*G01X259500D01*X259909Y141569*X260045Y141400*X260182Y141062*Y140725*X260045Y140387*X259909Y140219*X259500Y140050*X258272*X259227D02*G01X260182Y138194D01*X261409Y141737D02*G01X263318Y138194D01*Y141737D02*G01X261409Y138194D01*X264682Y140894D02*G01Y141062D01*X264818Y141400*X264954Y141569*X265227Y141737*X265772*X266045Y141569*X266182Y141400*X266318Y141062*Y140725*X266182Y140387*X265909Y139881*X264545Y138194*X266454*X267682Y141737D02*G01Y138194D01*Y141737D02*G01X268909D01*X269318Y141569*X269454Y141400*X269591Y141062*Y140556*X269454Y140219*X269318Y140050*X268909Y139881*X267682*X305517Y141737D02*G01Y138194D01*Y141737D02*G01X306744D01*X307153Y141569*X307289Y141400*X307426Y141062*Y140725*X307289Y140387*X307153Y140219*X306744Y140050*X305517*X306471D02*G01X307426Y138194D01*X308653Y141737D02*G01X310562Y138194D01*Y141737D02*G01X308653Y138194D01*X311789Y141062D02*G01X312062Y141231D01*X312471Y141737*Y138194*X313698Y141737D02*G01Y138194D01*Y141737D02*G01X315607Y138194D01*Y141737D02*G01Y138194D01*X353253Y142230D02*G01Y138686D01*Y142230D02*G01X354480D01*X354889Y142061*X355025Y141892*X355162Y141555*Y141217*X355025Y140880*X354889Y140711*X354480Y140542*X353253*X354207D02*G01X355162Y138686D01*X356389Y142230D02*G01X358298Y138686D01*Y142230D02*G01X356389Y138686D01*X359525Y141555D02*G01X359798Y141723D01*X360207Y142230*Y138686*X361435Y142230D02*G01Y138686D01*Y142230D02*G01X362662D01*X363071Y142061*X363207Y141892*X363344Y141555*Y141048*X363207Y140711*X363071Y140542*X362662Y140373*X361435*X399513Y141737D02*G01Y138194D01*Y141737D02*G01X400740D01*X401149Y141569*X401285Y141400*X401422Y141062*Y140725*X401285Y140387*X401149Y140219*X400740Y140050*X399513*X400467D02*G01X401422Y138194D01*X402649Y141737D02*G01X404558Y138194D01*Y141737D02*G01X402649Y138194D01*X406604Y141737D02*G01X406194Y141569D01*X405922Y141062*X405785Y140219*Y139712*X405922Y138869*X406194Y138362*X406604Y138194*X406876*X407285Y138362*X407558Y138869*X407694Y139712*Y140219*X407558Y141062*X407285Y141569*X406876Y141737*X406604*X408922D02*G01Y138194D01*Y141737D02*G01X410831Y138194D01*Y141737D02*G01Y138194D01*X447249Y142230D02*G01Y138686D01*Y142230D02*G01X448476D01*X448885Y142061*X449022Y141892*X449158Y141555*Y141217*X449022Y140880*X448885Y140711*X448476Y140542*X447249*X448203D02*G01X449158Y138686D01*X450385Y142230D02*G01X452294Y138686D01*Y142230D02*G01X450385Y138686D01*X454340Y142230D02*G01X453931Y142061D01*X453658Y141555*X453522Y140711*Y140205*X453658Y139361*X453931Y138855*X454340Y138686*X454612*X455022Y138855*X455294Y139361*X455431Y140205*Y140711*X455294Y141555*X455022Y142061*X454612Y142230*X454340*X456658D02*G01Y138686D01*Y142230D02*G01X457885D01*X458294Y142061*X458431Y141892*X458567Y141555*Y141048*X458431Y140711*X458294Y140542*X457885Y140373*X456658*X494493Y142230D02*G01Y138686D01*Y142230D02*G01X495720D01*X496129Y142061*X496266Y141892*X496402Y141555*Y141217*X496266Y140880*X496129Y140711*X495720Y140542*X494493*X495447D02*G01X496402Y138686D01*X497629Y142230D02*G01X499538Y138686D01*Y142230D02*G01X497629Y138686D01*X501038Y142230D02*G01X502538D01*X501720Y140880*X502129*X502402Y140711*X502538Y140542*X502675Y140036*Y139698*X502538Y139192*X502266Y138855*X501857Y138686*X501447*X501038Y138855*X500902Y139023*X500766Y139361*X503902Y142230D02*G01Y138686D01*Y142230D02*G01X505811Y138686D01*Y142230D02*G01Y138686D01*X542229Y142722D02*G01Y139178D01*Y142722D02*G01X543456D01*X543865Y142553*Y142553D02*G01X544002Y142384D01*X544138Y142047*Y141709*X544002Y141372*X543865Y141203*Y141203D02*G01X543456Y141034D01*X542229*X543184D02*G01X544138Y139178D01*X545365Y142722D02*G01X547275Y139178D01*Y142722D02*G01X545365Y139178D01*X548775Y142722D02*G01X550275D01*X549456Y141372*X549865*Y141372D02*G01X550138Y141203D01*X550275Y141034*X550411Y140528*Y140190*X550275Y139684*X550002Y139347*X549593Y139178*X549184*X548775Y139347*X548638Y139515*X548502Y139853*X551638Y142722D02*G01Y139178D01*Y142722D02*G01X552865D01*Y142722D02*G01X553275Y142553D01*X553411Y142384*X553547Y142047*Y141540*X553411Y141203*X553275Y141034*X552865Y140865*Y140865D02*G01X551638D01*X212475Y234257D02*G01Y230713D01*X211520Y234257D02*G01X213430D01*X214657D02*G01X216566Y230713D01*Y234257D02*G01X214657Y230713D01*X218611Y234257D02*G01X218202Y234088D01*X217930Y233582*X217793Y232738*Y232232*X217930Y231388*X218202Y230882*X218611Y230713*X218884*X219293Y230882*X219566Y231388*X219702Y232232*Y232738*X219566Y233582*X219293Y234088*X218884Y234257*X218611*X220930D02*G01Y230713D01*Y234257D02*G01X222839Y230713D01*Y234257D02*G01Y230713D01*X258735Y235241D02*G01Y231698D01*X257780Y235241D02*G01X259689D01*X260917D02*G01X262826Y231698D01*Y235241D02*G01X260917Y231698D01*X264871Y235241D02*G01X264462Y235073D01*X264189Y234566*X264053Y233723*Y233216*X264189Y232373*X264462Y231866*X264871Y231698*X265144*X265553Y231866*X265826Y232373*X265962Y233216*Y233723*X265826Y234566*X265553Y235073*X265144Y235241*X264871*X267189D02*G01Y231698D01*Y235241D02*G01X268417D01*X268826Y235073*X268962Y234904*X269098Y234566*Y234060*X268962Y233723*X268826Y233554*X268417Y233385*X267189*X306471Y235241D02*G01Y231698D01*X305517Y235241D02*G01X307426D01*X308653D02*G01X310562Y231698D01*Y235241D02*G01X308653Y231698D01*X311789Y234566D02*G01X312062Y234735D01*X312471Y235241*Y231698*X313698Y235241D02*G01Y231698D01*Y235241D02*G01X315607Y231698D01*Y235241D02*G01Y231698D01*X352731Y235241D02*G01Y231698D01*X351776Y235241D02*G01X353685D01*X354913D02*G01X356822Y231698D01*Y235241D02*G01X354913Y231698D01*X358049Y234566D02*G01X358322Y234735D01*X358731Y235241*Y231698*X359958Y235241D02*G01Y231698D01*Y235241D02*G01X361185D01*X361595Y235073*X361731Y234904*X361867Y234566*Y234060*X361731Y233723*X361595Y233554*X361185Y233385*X359958*X401451Y234749D02*G01Y231206D01*X400497Y234749D02*G01X402406D01*X403633D02*G01X405542Y231206D01*Y234749D02*G01X403633Y231206D01*X406906Y233906D02*G01Y234074D01*X407042Y234412*X407179Y234581*X407451Y234749*X407997*X408270Y234581*X408406Y234412*X408542Y234074*Y233737*X408406Y233399*X408133Y232893*X406770Y231206*X408679*X409906Y234749D02*G01Y231206D01*Y234749D02*G01X411815Y231206D01*Y234749D02*G01Y231206D01*X447219Y235734D02*G01Y232190D01*X446265Y235734D02*G01X448174D01*X449401D02*G01X451310Y232190D01*Y235734D02*G01X449401Y232190D01*X452674Y234890D02*G01Y235059D01*X452810Y235396*X452946Y235565*X453219Y235734*X453765*X454037Y235565*X454174Y235396*X454310Y235059*Y234721*X454174Y234384*X453901Y233877*X452537Y232190*X454446*X455674Y235734D02*G01Y232190D01*Y235734D02*G01X456901D01*X457310Y235565*X457446Y235396*X457583Y235059*Y234552*X457446Y234215*X457310Y234046*X456901Y233877*X455674*X494463Y235241D02*G01Y231698D01*X493509Y235241D02*G01X495418D01*X496645D02*G01X498554Y231698D01*Y235241D02*G01X496645Y231698D01*X500054Y235241D02*G01X501554D01*X500736Y233891*X501145*X501418Y233723*X501554Y233554*X501690Y233048*Y232710*X501554Y232204*X501281Y231866*X500872Y231698*X500463*X500054Y231866*X499918Y232035*X499781Y232373*X502918Y235241D02*G01Y231698D01*Y235241D02*G01X504827Y231698D01*Y235241D02*G01Y231698D01*X541707Y235241D02*G01Y231698D01*X540753Y235241D02*G01X542662D01*X543889D02*G01X545798Y231698D01*Y235241D02*G01X543889Y231698D01*X547298Y235241D02*G01X548798D01*X547980Y233891*X548389*X548662Y233723*X548798Y233554*X548935Y233048*Y232710*X548798Y232204*X548525Y231866*X548116Y231698*X547707*X547298Y231866*X547162Y232035*X547025Y232373*X550162Y235241D02*G01Y231698D01*Y235241D02*G01X551389D01*X551798Y235073*X551935Y234904*X552071Y234566*Y234060*X551935Y233723*X551798Y233554*X551389Y233385*X550162*G54D35*X101864Y147539D02*G01X105610D01*X101864D02*G01Y149401D01*X103648Y147539D02*G01Y148685D01*X105610Y147539D02*G01Y149401D01*X103113Y150689D02*G01X105610D01*X103826D02*G01X103291Y151118D01*X103113Y151405*Y151834*X103291Y152121*X103826Y152264*X105610*X103113Y155270D02*G01X105967D01*X106502Y155127*X106681Y154984*X106859Y154698*Y154268*X106681Y153982*X103648Y155270D02*G01X103291Y154984D01*X103113Y154698*Y154268*X103291Y153982*X103648Y153695*X104183Y153552*X104540*X105075Y153695*X105432Y153982*X105610Y154268*Y154698*X105432Y154984*X105075Y155270*X101864Y156559D02*G01X102042Y156702D01*X101864Y156845*X101686Y156702*X101864Y156559*X103113Y156702D02*G01X105610D01*X103113Y158134D02*G01X105610D01*X103826D02*G01X103291Y158563D01*X103113Y158849*Y159279*X103291Y159565*X103826Y159708*X105610*X104183Y160997D02*G01Y162715D01*X103826*X103469Y162572*X103291Y162428*X103113Y162142*Y161713*X103291Y161426*X103648Y161140*X104183Y160997*X104540*X105075Y161140*X105432Y161426*X105610Y161713*Y162142*X105432Y162428*X105075Y162715*X104183Y164003D02*G01Y165721D01*X103826*X103469Y165578*X103291Y165435*X103113Y165149*Y164719*X103291Y164433*X103648Y164146*X104183Y164003*X104540*X105075Y164146*X105432Y164433*X105610Y164719*Y165149*X105432Y165435*X105075Y165721*X103113Y167010D02*G01X105610D01*X104183D02*G01X103648Y167153D01*X103291Y167439*X103113Y167725*Y168155*X104183Y169443D02*G01Y171161D01*X103826*X103469Y171018*X103291Y170875*X103113Y170589*Y170159*X103291Y169873*X103648Y169587*X104183Y169443*X104540*X105075Y169587*X105432Y169873*X105610Y170159*Y170589*X105432Y170875*X105075Y171161*X101864Y174168D02*G01X105610D01*X103648D02*G01X103291Y173882D01*X103113Y173595*Y173166*X103291Y172879*X103648Y172593*X104183Y172450*X104540*X105075Y172593*X105432Y172879*X105610Y173166*Y173595*X105432Y173882*X105075Y174168*X101864Y178749D02*G01X105610D01*X103648D02*G01X103291Y179035D01*X103113Y179322*Y179751*X103291Y180038*X103648Y180324*X104183Y180467*X104540*X105075Y180324*X105432Y180038*X105610Y179751*Y179322*X105432Y179035*X105075Y178749*X103113Y181899D02*G01X105610Y182758D01*X103113Y183617D02*G01X105610Y182758D01*X106324Y182471*X106681Y182185*X106859Y181899*Y181756*X101864Y188198D02*G01X105610D01*X101864D02*G01Y189200D01*X102042Y189630*X102399Y189916*X102756Y190059*X103291Y190202*X104183*X104718Y190059*X105075Y189916*X105432Y189630*X105610Y189200*Y188198*X103113Y191491D02*G01X105610D01*X104183D02*G01X103648Y191634D01*X103291Y191920*X103113Y192207*Y192636*X105253Y194068D02*G01X105432Y193924D01*X105610Y194068*X105432Y194211*X105253Y194068*X101864Y198792D02*G01X105610D01*Y200510*X103113Y201798D02*G01X104897D01*X105432Y201942*X105610Y202228*Y202657*X105432Y202944*X104897Y203373*X103113D02*G01X105610D01*X101864Y206380D02*G01X105610D01*X103648D02*G01X103291Y206093D01*X103113Y205807*Y205378*X103291Y205091*X103648Y204805*X104183Y204662*X104540*X105075Y204805*X105432Y205091*X105610Y205378*Y205807*X105432Y206093*X105075Y206380*X103113Y208384D02*G01X103291Y208098D01*X103648Y207811*X104183Y207668*X104540*X105075Y207811*X105432Y208098*X105610Y208384*Y208814*X105432Y209100*X105075Y209386*X104540Y209529*X104183*X103648Y209386*X103291Y209100*X103113Y208814*Y208384*Y210818D02*G01X105610Y211677D01*X103113Y212536D02*G01X105610Y211677D01*X101864Y213824D02*G01X102042Y213967D01*X101864Y214111*X101686Y213967*X101864Y213824*X103113Y213967D02*G01X105610D01*X103648Y217117D02*G01X103291Y216831D01*X103113Y216544*Y216115*X103291Y215829*X103648Y215542*X104183Y215399*X104540*X105075Y215542*X105432Y215829*X105610Y216115*Y216544*X105432Y216831*X105075Y217117*X103113Y219121D02*G01X103291Y218835D01*X103648Y218549*X104183Y218406*X104540*X105075Y218549*X105432Y218835*X105610Y219121*Y219551*X105432Y219837*X105075Y220123*X104540Y220267*X104183*X103648Y220123*X103291Y219837*X103113Y219551*Y219121*X101864Y224848D02*G01X105610D01*X101864D02*G01X105610Y225993D01*X101864Y227139D02*G01X105610Y225993D01*X101864Y227139D02*G01X105610D01*X101864Y228427D02*G01X102042Y228570D01*X101864Y228713*X101686Y228570*X101864Y228427*X103113Y228570D02*G01X105610D01*X103113Y230002D02*G01X105610D01*X103826D02*G01X103291Y230431D01*X103113Y230718*Y231147*X103291Y231433*X103826Y231577*X105610*X103113Y234583D02*G01X105610D01*X103648D02*G01X103291Y234297D01*X103113Y234010*Y233581*X103291Y233295*X103648Y233008*X104183Y232865*X104540*X105075Y233008*X105432Y233295*X105610Y233581*Y234010*X105432Y234297*X105075Y234583*X101864Y236301D02*G01X104897D01*X105432Y236444*X105610Y236730*Y237017*X103113Y235872D02*G01Y236874D01*X101864Y238305D02*G01X102042Y238448D01*X101864Y238592*X101686Y238448*X101864Y238305*X103113Y238448D02*G01X105610D01*X105432Y240166D02*G01X105610Y240023D01*X105432Y239880*X105253Y240023*X105432Y240166*X105789*X106145Y240023*X106324Y239880*X110630Y149687D02*G01X110273Y149544D01*X109916Y149257*X109738Y148971*Y148398*X109916Y148112*X110273Y147826*X110630Y147683*X111165Y147539*X112057*X112592Y147683*X112949Y147826*X113306Y148112*X113484Y148398*Y148971*X113306Y149257*X112949Y149544*X112592Y149687*X109738Y150975D02*G01X113484D01*X109738D02*G01Y152836D01*X111522Y150975D02*G01Y152121D01*X113484Y150975D02*G01Y152836D01*X110987Y154125D02*G01X113484D01*X111700D02*G01X111165Y154554D01*X110987Y154841*Y155270*X111165Y155557*X111700Y155700*X113484*X110987Y158706D02*G01X113841D01*X114376Y158563*X114555Y158420*X114733Y158134*Y158134D02*G01Y157704D01*X114555Y157418*X111522Y158706D02*G01X111165Y158420D01*X110987Y158134*Y158134D02*G01Y157704D01*X111165Y157418*X111522Y157131*X112057Y156988*X112414*X112949Y157131*X113306Y157418*X113484Y157704*Y158134*Y158134D02*G01X113306Y158420D01*X112949Y158706*X109024Y164290D02*G01X109381Y164003D01*X109916Y163717*X110630Y163431*X111522Y163287*X112235*X113127Y163431*X113841Y163717*X114376Y164003*X114733Y164290*X109738Y167439D02*G01Y166008D01*X111344Y165864*X111165Y166008*X110987Y166437*Y166866*Y166866D02*G01X111165Y167296D01*X111522Y167582*X112057Y167725*X112414Y167582*X112949Y167439*X113306Y167153*X113484Y166723*Y166294*X113306Y165864*X113127Y165721*X112771Y165578*X109738Y169730D02*G01X109916Y169300D01*X110273Y169157*X110630*X110987Y169300*X111165Y169587*X111344Y170159*X111522Y170589*X111879Y170875*X112235Y171018*X112771*X113127Y170875*X113306Y170732*X113484Y170302*Y169730*X113306Y169300*X113127Y169157*X112771Y169014*X112235*X111879Y169157*X111522Y169443*X111344Y169873*X111165Y170446*X110987Y170732*X110630Y170875*X110273*X109916Y170732*X109738Y170302*Y169730*X110273Y174025D02*G01X109916Y173882D01*X109738Y173452*Y173166*X109916Y172736*X110452Y172450*X111344Y172307*X112235*X112949Y172450*X113306Y172736*X113484Y173166*Y173309*X113306Y173738*X112949Y174025*X112414Y174168*X112235*X111700Y174025*X111344Y173738*X111165Y173309*Y173166*X111344Y172736*X111700Y172450*X112235Y172307*X110273Y177174D02*G01X109916Y177031D01*X109738Y176602*Y176315*X109916Y175886*X110452Y175599*Y175599D02*G01X111344Y175456D01*X112235*X112949Y175599*Y175599D02*G01X113306Y175886D01*X113484Y176315*Y176458*X113306Y176888*X112949Y177174*X112414Y177317*X112235*X111700Y177174*X111344Y176888*X111165Y176458*Y176315*X111344Y175886*X111700Y175599*Y175599D02*G01X112235Y175456D01*X109738Y180610D02*G01X113484Y179179D01*X109738Y178606D02*G01Y180610D01*X110987Y183760D02*G01X111522Y183617D01*X111879Y183330*X112057Y182901*Y182758*X111879Y182328*X111522Y182042*X110987Y181899*X110808*X110273Y182042*X109916Y182328*X109738Y182758*Y182901*X109916Y183330*X110273Y183617*X110987Y183760*X111879*X112771Y183617*X113306Y183330*X113484Y182901*Y182615*X113306Y182185*X112949Y182042*X109024Y185048D02*G01X109381Y185335D01*X109916Y185621*X110630Y185907*X111522Y186050*X112235*X113127Y185907*X113841Y185621*X114376Y185335*X114733Y185048*G54D36*X665901Y272776D02*G01Y269030D01*X664899Y272776D02*G01X666903D01*X669051D02*G01X668764Y272598D01*X668478Y272241*X668335Y271884*X668192Y271349*Y270457*X668335Y269922*X668478Y269565*X668764Y269209*X669051Y269030*X669623*X669909Y269209*X670196Y269565*X670339Y269922*X670482Y270457*Y271349*X670339Y271884*X670196Y272241*X669909Y272598*X669623Y272776*X669051*X671771D02*G01Y269030D01*Y272776D02*G01X673059D01*X673488Y272598*X673632Y272419*X673775Y272063*Y271527*X673632Y271171*X673488Y270992*X673059Y270814*X671771*X678356Y272776D02*G01Y269030D01*Y272776D02*G01X679644D01*X680074Y272598*X680217Y272419*X680360Y272063*Y271706*X680217Y271349*X680074Y271171*X679644Y270992*X678356*X679358D02*G01X680360Y269030D01*X682507Y272776D02*G01X682221Y272598D01*X681935Y272241*X681792Y271884*X681649Y271349*Y270457*X681792Y269922*X681935Y269565*X682221Y269209*X682507Y269030*X683080*X683366Y269209*X683653Y269565*X683796Y269922*X683939Y270457*Y271349*X683796Y271884*X683653Y272241*X683366Y272598*X683080Y272776*X682507*X685227D02*G01X685943Y269030D01*X686659Y272776D02*G01X685943Y269030D01*X686659Y272776D02*G01X687375Y269030D01*X688091Y272776D02*G01X687375Y269030D01*X694103Y272776D02*G01Y269922D01*X693960Y269387*X693817Y269209*X693531Y269030*X693244*X692958Y269209*X692815Y269387*X692672Y269922*Y270279*X696394Y272776D02*G01Y269030D01*X695392Y272776D02*G01X697396D01*X699830D02*G01X698684Y269030D01*X699830Y272776D02*G01X700975Y269030D01*X699114Y270279D02*G01X700546D01*X704411Y271884D02*G01X704268Y272241D01*X703981Y272598*X703695Y272776*X703122*X702836Y272598*X702550Y272241*X702407Y271884*X702263Y271349*Y270457*X702407Y269922*X702550Y269565*X702836Y269209*X703122Y269030*X703695*X703981Y269209*X704268Y269565*X704411Y269922*Y270457*X703695D02*G01X704411D01*X590668Y272776D02*G01X592672Y269030D01*Y272776D02*G01X590668Y269030D01*X593961Y272776D02*G01Y269030D01*X595249Y272776D02*G01Y269030D01*X596967*X598256Y272776D02*G01Y269030D01*X599544Y272776D02*G01Y269030D01*Y272776D02*G01X601548Y269030D01*Y272776D02*G01Y269030D01*X602837Y272776D02*G01X604841Y269030D01*Y272776D02*G01X602837Y269030D01*X610854Y272776D02*G01Y269922D01*X610711Y269387*X610567Y269209*X610281Y269030*X609995*X609708Y269209*X609565Y269387*X609422Y269922*Y270279*X613144Y272776D02*G01Y269030D01*X612142Y272776D02*G01X614146D01*X616580D02*G01X615435Y269030D01*X616580Y272776D02*G01X617725Y269030D01*X615864Y270279D02*G01X617296D01*X621161Y271884D02*G01X621018Y272241D01*X620732Y272598*X620445Y272776*X619873*X619586Y272598*X619300Y272241*X619157Y271884*X619014Y271349*Y270457*X619157Y269922*X619300Y269565*X619586Y269209*X619873Y269030*X620445*X620732Y269209*X621018Y269565*X621161Y269922*Y270457*X620445D02*G01X621161D01*X587161Y107422D02*G01Y103676D01*Y107422D02*G01X588306Y103676D01*X589451Y107422D02*G01X588306Y103676D01*X589451Y107422D02*G01Y103676D01*X590740Y107422D02*G01Y103676D01*X592028Y107422D02*G01Y103676D01*Y107422D02*G01X593030D01*X593460Y107243*X593746Y106887*X593889Y106530*X594032Y105995*Y105103*X593889Y104568*X593746Y104211*X593460Y103854*X593030Y103676*X592028*X598614Y107422D02*G01Y103676D01*Y107422D02*G01X599902D01*X600331Y107243*X600475Y107065*X600618Y106708*Y106351*X600475Y105995*X600331Y105816*X599902Y105638*X598614*X599616D02*G01X600618Y103676D01*X602765Y107422D02*G01X602479Y107243D01*X602193Y106887*X602049Y106530*X601906Y105995*Y105103*X602049Y104568*X602193Y104211*X602479Y103854*X602765Y103676*X603338*X603624Y103854*X603910Y104211*X604054Y104568*X604197Y105103*Y105995*X604054Y106530*X603910Y106887*X603624Y107243*X603338Y107422*X602765*X605485D02*G01X606201Y103676D01*X606917Y107422D02*G01X606201Y103676D01*X606917Y107422D02*G01X607633Y103676D01*X608348Y107422D02*G01X607633Y103676D01*X614361Y107422D02*G01Y104568D01*X614218Y104033*X614075Y103854*X613788Y103676*X613502*X613216Y103854*X613073Y104033*X612929Y104568*Y104924*X616652Y107422D02*G01Y103676D01*X615650Y107422D02*G01X617654D01*X620087D02*G01X618942Y103676D01*X620087Y107422D02*G01X621233Y103676D01*X619372Y104924D02*G01X620803D01*X624669Y106530D02*G01X624525Y106887D01*X624239Y107243*X623953Y107422*X623380*X623094Y107243*X622807Y106887*X622664Y106530*X622521Y105995*Y105103*X622664Y104568*X622807Y104211*X623094Y103854*X623380Y103676*X623953*X624239Y103854*X624525Y104211*X624669Y104568*Y105103*X623953D02*G01X624669D01*X664899Y107422D02*G01Y103676D01*Y107422D02*G01X666187D01*X666617Y107243*X666760Y107065*X666903Y106708*Y106351*X666760Y105995*X666617Y105816*X666187Y105638*X664899D02*G01X666187D01*X666617Y105460*X666760Y105281*X666903Y104924*Y104389*X666760Y104033*X666617Y103854*X666187Y103676*X664899*X669051Y107422D02*G01X668764Y107243D01*X668478Y106887*X668335Y106530*X668192Y105995*Y105103*X668335Y104568*X668478Y104211*X668764Y103854*X669051Y103676*X669623*X669909Y103854*X670196Y104211*X670339Y104568*X670482Y105103*Y105995*X670339Y106530*X670196Y106887*X669909Y107243*X669623Y107422*X669051*X672773D02*G01Y103676D01*X671771Y107422D02*G01X673775D01*X678356D02*G01Y103676D01*Y107422D02*G01X679644D01*X680074Y107243*X680217Y107065*X680360Y106708*Y106351*X680217Y105995*X680074Y105816*X679644Y105638*X678356*X679358D02*G01X680360Y103676D01*X682507Y107422D02*G01X682221Y107243D01*X681935Y106887*X681792Y106530*X681649Y105995*Y105103*X681792Y104568*X681935Y104211*X682221Y103854*X682507Y103676*X683080*X683366Y103854*X683653Y104211*X683796Y104568*X683939Y105103*Y105995*X683796Y106530*X683653Y106887*X683366Y107243*X683080Y107422*X682507*X685227D02*G01X685943Y103676D01*X686659Y107422D02*G01X685943Y103676D01*X686659Y107422D02*G01X687375Y103676D01*X688091Y107422D02*G01X687375Y103676D01*X694103Y107422D02*G01Y104568D01*X693960Y104033*X693817Y103854*X693531Y103676*X693244*X692958Y103854*X692815Y104033*X692672Y104568*Y104924*X696394Y107422D02*G01Y103676D01*X695392Y107422D02*G01X697396D01*X699830D02*G01X698684Y103676D01*X699830Y107422D02*G01X700975Y103676D01*X699114Y104924D02*G01X700546D01*X704411Y106530D02*G01X704268Y106887D01*X703981Y107243*X703695Y107422*X703122*X702836Y107243*X702550Y106887*X702407Y106530*X702263Y105995*Y105103*X702407Y104568*X702550Y104211*X702836Y103854*X703122Y103676*X703695*X703981Y103854*X704268Y104211*X704411Y104568*Y105103*X703695D02*G01X704411D01*G54D37*X551556Y174709D02*G01X551956Y174909D01*X547556Y178709D02*G01X547456Y178909D01*X548156Y175109D02*G01X548356Y175309D01*X546456Y174709D02*G01X546056Y174809D01*X545456Y174709*G54D38*X552156Y191809D02*G01X549156Y186809D01*X554056Y187709*X551956Y190909*G54D39*X556056Y187109D02*G01X556356Y187209D01*X552156Y195009*X551856Y194409*X546456Y184809D02*G01X546256Y184509D01*X546956Y184009*X547356Y184609*X563256Y175009D02*G01X564056Y173809D01*X562856Y174609*X558256Y181809D02*G01X558956Y181909D01*X559356Y182209*X559456Y181709*X556256Y179309D02*G01X555756Y178809D01*X556656Y178309*X549156Y172509D02*G01X550356Y172609D01*X539256Y172009D02*G01X538956Y171609D01*X539456Y171709*X549456Y172309D02*G01X550256Y172709D01*X548156Y175209D02*G01X548256Y173709D01*X548756Y173409*X548956Y172809*X561756Y172209D02*G01X562756Y171609D01*X560556*X562256Y171809*X552656Y174109D02*G01X553256D01*X553656Y174609*X553556Y175309*X553356Y175909*X553056Y176109*X550356Y172809D02*G01X553056D01*X552556Y173509D02*G01X552156Y173009D01*X551556Y172909*X551056*X550856Y173009*Y173409*X550556Y172809*X552656Y173509D02*G01X552456Y174309D01*X552056Y174809*Y175109D02*G01X552756Y173909D01*X553656Y176909D02*G01X552756Y176109D01*X552156Y175609*X551856Y174709*X551656Y174609*X551056Y174009*X550156Y172809D02*G01X551056Y174009D01*X551156Y174509*X551656Y175009*X551956Y175409*X552756Y176509*X553456Y177009*X549656Y179409D02*G01X549356Y178909D01*X549256Y178309*X549556Y177809*X549856*X549056Y176909D02*G01X548256Y178009D01*X548456Y178409*X548556Y179209*X549056Y179709*X548956Y176209D02*G01X548456Y175109D01*Y173809*X548856Y173709*X549356Y174609*X549756Y175109*X550256*X551156Y174609*X550456Y178209D02*G01X550356Y178709D01*X550656Y178509*X546456Y172609D02*G01X547056Y172909D01*X547356*X547756Y173209*X547956Y173509*X548056Y174009*Y174609*X547956Y175509*X547356Y176709*X547556Y177309*X547456Y178509*X547256Y178909*X548156Y179909*X548256Y180209*X548456Y180009*X547656Y179109*Y176709*X548256Y175409*X548456*X549056Y176609*X549156Y177009*X550256Y178209*X550156Y178609*X550056*X550256Y179009*X550956Y178609*X549156Y176709*X548656Y173209D02*G01X549256Y174509D01*X549756Y175109*X550256*X551356Y174609*X551156Y174509*G54D40*X563156Y174709D02*G01X564056Y173809D01*X546756Y174209D02*G01X546556Y174709D01*X546956Y172909D02*G01X546756Y173909D01*G54D41*X107874Y229921D02*G01Y230029D01*X107960Y229835D02*G01Y230029D01*X108047Y229662D02*G01Y230116D01*Y209617D02*G01Y209725D01*X108133Y229576D02*G01Y230029D01*Y209531D02*G01Y209725D01*X108220Y229489D02*G01Y230029D01*Y209444D02*G01Y209725D01*X108306Y229835D02*G01Y230029D01*Y229403D02*G01Y229684D01*Y209358D02*G01Y209639D01*X108392Y229835D02*G01Y230029D01*Y229316D02*G01Y229597D01*Y209272D02*G01Y209639D01*X108479Y229748D02*G01Y229943D01*Y229230D02*G01Y229511D01*Y211518D02*G01Y211712D01*Y209272D02*G01Y209552D01*X108565Y229748D02*G01Y229943D01*Y229144D02*G01Y229424D01*Y211345D02*G01Y211712D01*Y209272D02*G01Y209466D01*X108652Y229662D02*G01Y229943D01*Y229057D02*G01Y229338D01*Y211259D02*G01Y211712D01*Y209272D02*G01Y209466D01*X108738Y229662D02*G01Y229856D01*Y228971D02*G01Y229252D01*Y219380D02*G01Y219661D01*Y211172D02*G01Y211626D01*Y209185D02*G01Y209380D01*X108824Y229662D02*G01Y229856D01*Y228884D02*G01Y229165D01*Y219208D02*G01Y219661D01*Y211086D02*G01Y211626D01*Y209099D02*G01Y209380D01*X108911Y229576D02*G01Y229770D01*Y228798D02*G01Y228992D01*Y225860D02*G01Y226228D01*Y219035D02*G01Y219661D01*Y211432D02*G01Y211626D01*Y211000D02*G01Y211280D01*Y209099D02*G01Y209293D01*X108997Y229576D02*G01Y229770D01*Y228712D02*G01Y228906D01*Y225688D02*G01Y226228D01*Y222664D02*G01Y223117D01*Y219467D02*G01Y219661D01*Y218862D02*G01Y219316D01*Y211345D02*G01Y211540D01*Y210913D02*G01Y211108D01*Y209012D02*G01Y209207D01*X109084Y229489D02*G01Y229770D01*Y228625D02*G01Y228820D01*Y225428D02*G01Y226228D01*Y222491D02*G01Y223031D01*Y219467D02*G01Y219661D01*Y218689D02*G01Y219143D01*Y211345D02*G01Y211540D01*Y210827D02*G01Y211021D01*Y209012D02*G01Y209207D01*X109170Y229489D02*G01Y229684D01*Y228539D02*G01Y228733D01*Y225256D02*G01Y226141D01*Y222232D02*G01Y223031D01*Y219467D02*G01Y219661D01*Y218516D02*G01Y218970D01*Y211259D02*G01Y211453D01*Y210654D02*G01Y210935D01*Y208926D02*G01Y209120D01*X109256Y229403D02*G01Y229684D01*Y228452D02*G01Y228733D01*Y225860D02*G01Y226141D01*Y225083D02*G01Y225623D01*Y222836D02*G01Y223031D01*Y222059D02*G01Y222685D01*Y219380D02*G01Y219575D01*Y218344D02*G01Y218797D01*Y211259D02*G01Y211453D01*Y210568D02*G01Y210848D01*Y208926D02*G01Y209120D01*X109343Y229403D02*G01Y229597D01*Y228366D02*G01Y228647D01*Y225860D02*G01Y226141D01*Y224996D02*G01Y225450D01*Y222750D02*G01Y223031D01*Y221972D02*G01Y222426D01*Y219380D02*G01Y219575D01*Y218257D02*G01Y218624D01*Y211172D02*G01Y211367D01*Y210481D02*G01Y210762D01*Y208840D02*G01Y209034D01*X109429Y229403D02*G01Y229597D01*Y228280D02*G01Y228560D01*Y225774D02*G01Y226055D01*Y224824D02*G01Y225277D01*Y222750D02*G01Y222944D01*Y221800D02*G01Y222253D01*Y219294D02*G01Y219488D01*Y218084D02*G01Y218452D01*Y211172D02*G01Y211367D01*Y210395D02*G01Y210676D01*Y208840D02*G01Y208948D01*X109516Y229316D02*G01Y229511D01*Y228193D02*G01Y228474D01*Y225774D02*G01Y225968D01*Y224651D02*G01Y225104D01*Y222664D02*G01Y222944D01*Y221627D02*G01Y222080D01*Y219294D02*G01Y219488D01*Y217998D02*G01Y218279D01*Y211086D02*G01Y211280D01*Y210395D02*G01Y210589D01*Y208753D02*G01Y208948D01*X109602Y229316D02*G01Y229511D01*Y228107D02*G01Y228388D01*Y225688D02*G01Y225968D01*Y224564D02*G01Y224932D01*Y222664D02*G01Y222858D01*Y221540D02*G01Y221908D01*Y219208D02*G01Y219402D01*Y217825D02*G01Y218192D01*Y211086D02*G01Y211280D01*Y210308D02*G01Y210503D01*Y208667D02*G01Y208861D01*X109688Y229230D02*G01Y229424D01*Y228107D02*G01Y228301D01*Y225601D02*G01Y225882D01*Y224392D02*G01Y224845D01*Y222577D02*G01Y222772D01*Y221368D02*G01Y221735D01*Y219208D02*G01Y219402D01*Y217652D02*G01Y218020D01*Y211000D02*G01Y211280D01*Y210222D02*G01Y210416D01*Y208667D02*G01Y208861D01*X109775Y229230D02*G01Y229424D01*Y228020D02*G01Y228215D01*Y225601D02*G01Y225796D01*Y224305D02*G01Y224672D01*Y222491D02*G01Y222772D01*Y221195D02*G01Y221648D01*Y219121D02*G01Y219402D01*Y217480D02*G01Y217933D01*Y211000D02*G01Y211194D01*Y210136D02*G01Y210330D01*Y208580D02*G01Y208775D01*X109861Y229144D02*G01Y229338D01*Y227934D02*G01Y228128D01*Y225515D02*G01Y225796D01*Y224219D02*G01Y224586D01*Y222491D02*G01Y222685D01*Y221108D02*G01Y221476D01*Y219121D02*G01Y219316D01*Y217393D02*G01Y217760D01*Y211000D02*G01Y211194D01*Y210049D02*G01Y210244D01*Y208580D02*G01Y208688D01*X109948Y229144D02*G01Y229338D01*Y227848D02*G01Y228042D01*Y225428D02*G01Y225709D01*Y224046D02*G01Y224413D01*Y222404D02*G01Y222685D01*Y220936D02*G01Y221303D01*Y219035D02*G01Y219229D01*Y217220D02*G01Y217588D01*Y210913D02*G01Y211108D01*Y209963D02*G01Y210157D01*Y208494D02*G01Y208688D01*X110034Y229057D02*G01Y229252D01*Y227761D02*G01Y227956D01*Y225428D02*G01Y225623D01*Y223873D02*G01Y224240D01*Y222404D02*G01Y222599D01*Y220849D02*G01Y221216D01*Y219035D02*G01Y219229D01*Y217134D02*G01Y217415D01*Y210913D02*G01Y211108D01*Y209876D02*G01Y210071D01*Y208494D02*G01Y208602D01*X110120Y229057D02*G01Y229252D01*Y227675D02*G01Y227956D01*Y225342D02*G01Y225536D01*Y223787D02*G01Y224154D01*Y222318D02*G01Y222512D01*Y220763D02*G01Y221044D01*Y218948D02*G01Y219143D01*Y216961D02*G01Y217328D01*Y210827D02*G01Y211021D01*Y209790D02*G01Y210071D01*Y208408D02*G01Y208602D01*X110207Y228971D02*G01Y229252D01*Y227588D02*G01Y227869D01*Y225256D02*G01Y225536D01*Y223614D02*G01Y223981D01*Y222232D02*G01Y222512D01*Y220590D02*G01Y220957D01*Y218948D02*G01Y219143D01*Y216875D02*G01Y217156D01*Y210827D02*G01Y211021D01*Y209704D02*G01Y209984D01*Y208321D02*G01Y208516D01*X110293Y228971D02*G01Y229165D01*Y227588D02*G01Y227783D01*Y225256D02*G01Y225450D01*Y223528D02*G01Y223895D01*Y222232D02*G01Y222426D01*Y220504D02*G01Y220784D01*Y218862D02*G01Y219056D01*Y216702D02*G01Y217069D01*Y210740D02*G01Y210935D01*Y209617D02*G01Y209898D01*Y208321D02*G01Y208516D01*X110380Y228884D02*G01Y229079D01*Y227502D02*G01Y227696D01*Y225169D02*G01Y225364D01*Y223355D02*G01Y223722D01*Y222145D02*G01Y222340D01*Y220331D02*G01Y220698D01*Y218776D02*G01Y218970D01*Y216616D02*G01Y216983D01*Y210740D02*G01Y210848D01*Y209617D02*G01Y209812D01*Y208235D02*G01Y208429D01*X110466Y228884D02*G01Y229079D01*Y227416D02*G01Y227610D01*Y225083D02*G01Y225364D01*Y223268D02*G01Y223636D01*Y222059D02*G01Y222340D01*Y220244D02*G01Y220612D01*Y218776D02*G01Y218970D01*Y216443D02*G01Y216810D01*Y210654D02*G01Y210848D01*Y209531D02*G01Y209725D01*Y208235D02*G01Y208429D01*X110552Y228798D02*G01Y228992D01*Y227329D02*G01Y227610D01*Y224996D02*G01Y225277D01*Y223182D02*G01Y223463D01*Y221972D02*G01Y222253D01*Y220072D02*G01Y220439D01*Y218689D02*G01Y218884D01*Y216356D02*G01Y216724D01*Y210568D02*G01Y210762D01*Y209444D02*G01Y209639D01*Y208148D02*G01Y208343D01*X110639Y228712D02*G01Y228992D01*Y227329D02*G01Y227524D01*Y224996D02*G01Y225191D01*Y223096D02*G01Y223376D01*Y221972D02*G01Y222167D01*Y219985D02*G01Y220352D01*Y218689D02*G01Y218884D01*Y216270D02*G01Y216551D01*Y210568D02*G01Y210762D01*Y209444D02*G01Y209639D01*Y208148D02*G01Y208343D01*X110725Y228712D02*G01Y228906D01*Y227243D02*G01Y227437D01*Y224910D02*G01Y225104D01*Y222923D02*G01Y223290D01*Y221886D02*G01Y222080D01*Y219899D02*G01Y220180D01*Y218603D02*G01Y218797D01*Y216097D02*G01Y216464D01*Y210481D02*G01Y210676D01*Y209358D02*G01Y209552D01*Y208062D02*G01Y208256D01*X110812Y228625D02*G01Y228820D01*Y227156D02*G01Y227437D01*Y224824D02*G01Y225104D01*Y222836D02*G01Y223117D01*Y221800D02*G01Y222080D01*Y219726D02*G01Y220093D01*Y218516D02*G01Y218797D01*Y216011D02*G01Y216378D01*Y210481D02*G01Y210676D01*Y209272D02*G01Y209466D01*Y208062D02*G01Y208256D01*X110898Y228625D02*G01Y228820D01*Y227156D02*G01Y227351D01*Y224824D02*G01Y225018D01*Y222750D02*G01Y223031D01*Y221800D02*G01Y221994D01*Y219640D02*G01Y219920D01*Y218516D02*G01Y218711D01*Y215838D02*G01Y216205D01*Y210395D02*G01Y210589D01*Y209185D02*G01Y209466D01*Y207976D02*G01Y208170D01*X110984Y228539D02*G01Y228733D01*Y227070D02*G01Y227264D01*Y224737D02*G01Y224932D01*Y222577D02*G01Y222944D01*Y221713D02*G01Y221994D01*Y219553D02*G01Y219834D01*Y218430D02*G01Y218624D01*Y215752D02*G01Y216119D01*Y210395D02*G01Y210503D01*Y209185D02*G01Y209380D01*Y207976D02*G01Y208170D01*X111071Y231044D02*G01Y231239D01*Y228539D02*G01Y228733D01*Y226984D02*G01Y227264D01*Y224651D02*G01Y224845D01*Y222491D02*G01Y222772D01*Y221627D02*G01Y221908D01*Y219380D02*G01Y219748D01*Y218344D02*G01Y218538D01*Y215579D02*G01Y215946D01*Y210308D02*G01Y210503D01*Y209099D02*G01Y209293D01*Y207889D02*G01Y208084D01*X111157Y230872D02*G01Y231325D01*Y228452D02*G01Y228647D01*Y226897D02*G01Y227178D01*Y224564D02*G01Y224845D01*Y222404D02*G01Y222685D01*Y221627D02*G01Y221821D01*Y219294D02*G01Y219575D01*Y218344D02*G01Y218538D01*Y215492D02*G01Y215860D01*Y210222D02*G01Y210416D01*Y209012D02*G01Y209207D01*Y207889D02*G01Y208084D01*X111244Y230785D02*G01Y231325D01*Y228366D02*G01Y228647D01*Y226897D02*G01Y227092D01*Y224478D02*G01Y224759D01*Y222232D02*G01Y222599D01*Y221540D02*G01Y221735D01*Y219121D02*G01Y219488D01*Y218257D02*G01Y218452D01*Y215406D02*G01Y215773D01*Y210222D02*G01Y210416D01*Y209012D02*G01Y209207D01*Y207803D02*G01Y207997D01*X111330Y231131D02*G01Y231325D01*Y230872D02*G01Y230980D01*Y228366D02*G01Y228560D01*Y226811D02*G01Y227005D01*Y224478D02*G01Y224672D01*Y222145D02*G01Y222512D01*Y221454D02*G01Y221648D01*Y219035D02*G01Y219402D01*Y218257D02*G01Y218452D01*Y215320D02*G01Y215600D01*Y210136D02*G01Y210330D01*Y208926D02*G01Y209120D01*Y207803D02*G01Y207997D01*X111416Y231131D02*G01Y231239D01*Y228280D02*G01Y228474D01*Y226724D02*G01Y227005D01*Y224392D02*G01Y224586D01*Y222059D02*G01Y222340D01*Y221368D02*G01Y221648D01*Y218862D02*G01Y219229D01*Y218171D02*G01Y218365D01*Y215147D02*G01Y215514D01*Y210136D02*G01Y210330D01*Y208926D02*G01Y209034D01*Y207716D02*G01Y207911D01*X111503Y231044D02*G01Y231239D01*Y228280D02*G01Y228474D01*Y226724D02*G01Y226919D01*Y224305D02*G01Y224500D01*Y221972D02*G01Y222253D01*Y221368D02*G01Y221562D01*Y218776D02*G01Y219143D01*Y218084D02*G01Y218279D01*Y215060D02*G01Y215428D01*Y210049D02*G01Y210244D01*Y208840D02*G01Y209034D01*Y207716D02*G01Y207911D01*X111589Y231044D02*G01Y231152D01*Y228193D02*G01Y228388D01*Y226638D02*G01Y226832D01*Y224305D02*G01Y224500D01*Y221800D02*G01Y222167D01*Y221281D02*G01Y221562D01*Y218689D02*G01Y219056D01*Y218084D02*G01Y218279D01*Y214888D02*G01Y215255D01*Y210049D02*G01Y210244D01*Y208753D02*G01Y208948D01*Y207630D02*G01Y207824D01*X111676Y231044D02*G01Y231152D01*Y228107D02*G01Y228388D01*Y226552D02*G01Y226746D01*Y224219D02*G01Y224413D01*Y221713D02*G01Y222080D01*Y221195D02*G01Y221476D01*Y218516D02*G01Y218884D01*Y217998D02*G01Y218192D01*Y214801D02*G01Y215168D01*Y209963D02*G01Y210157D01*Y208753D02*G01Y208948D01*Y207630D02*G01Y207824D01*X111762Y231044D02*G01Y231066D01*Y228107D02*G01Y228301D01*Y226465D02*G01Y226660D01*Y224132D02*G01Y224327D01*Y221627D02*G01Y221908D01*Y221195D02*G01Y221389D01*Y218430D02*G01Y218797D01*Y217912D02*G01Y218106D01*Y214715D02*G01Y215082D01*Y209963D02*G01Y210071D01*Y208667D02*G01Y208861D01*Y207544D02*G01Y207738D01*X111848Y230958D02*G01Y231066D01*Y228020D02*G01Y228301D01*Y226379D02*G01Y226660D01*Y224046D02*G01Y224240D01*Y221540D02*G01Y221821D01*Y221108D02*G01Y221389D01*Y218257D02*G01Y218711D01*Y217912D02*G01Y218106D01*Y214542D02*G01Y214909D01*Y209876D02*G01Y210071D01*Y208667D02*G01Y208775D01*Y207544D02*G01Y207738D01*X111935Y230872D02*G01Y230980D01*Y228020D02*G01Y228215D01*Y226379D02*G01Y226573D01*Y223960D02*G01Y224240D01*Y221454D02*G01Y221735D01*Y221022D02*G01Y221303D01*Y218171D02*G01Y218797D01*Y217825D02*G01Y218020D01*Y214542D02*G01Y214823D01*Y209790D02*G01Y209984D01*Y208580D02*G01Y208775D01*Y207457D02*G01Y207652D01*X112021Y230785D02*G01Y230893D01*Y227934D02*G01Y228128D01*Y226292D02*G01Y226487D01*Y223960D02*G01Y224154D01*Y221368D02*G01Y221735D01*Y221022D02*G01Y221216D01*Y217739D02*G01Y218624D01*Y214542D02*G01Y214650D01*Y209790D02*G01Y209984D01*Y208494D02*G01Y208688D01*Y207457D02*G01Y207652D01*X112108Y230699D02*G01Y230807D01*Y227848D02*G01Y228128D01*Y226206D02*G01Y226400D01*Y223873D02*G01Y224068D01*Y221281D02*G01Y221648D01*Y220936D02*G01Y221130D01*Y217739D02*G01Y218538D01*Y209704D02*G01Y209898D01*Y208494D02*G01Y208602D01*Y207371D02*G01Y207565D01*X112194Y230612D02*G01Y230720D01*Y227848D02*G01Y228042D01*Y226120D02*G01Y226400D01*Y223787D02*G01Y223981D01*Y220849D02*G01Y221562D01*Y217652D02*G01Y218365D01*Y209704D02*G01Y209898D01*Y208408D02*G01Y208602D01*Y207371D02*G01Y207565D01*X112280Y230440D02*G01Y230634D01*Y227761D02*G01Y228042D01*Y226033D02*G01Y226314D01*Y223700D02*G01Y223981D01*Y221195D02*G01Y221476D01*Y220849D02*G01Y221044D01*Y217998D02*G01Y218106D01*Y217566D02*G01Y217847D01*Y209617D02*G01Y209812D01*Y208321D02*G01Y208516D01*Y207371D02*G01Y207565D01*X112367Y230267D02*G01Y230461D01*Y227761D02*G01Y227956D01*Y226033D02*G01Y226228D01*Y223700D02*G01Y223895D01*Y221195D02*G01Y221389D01*Y220763D02*G01Y220957D01*Y217566D02*G01Y217760D01*Y209617D02*G01Y209812D01*Y208235D02*G01Y208429D01*Y207284D02*G01Y207479D01*X112453Y230008D02*G01Y230375D01*Y227675D02*G01Y227869D01*Y225947D02*G01Y226228D01*Y223614D02*G01Y223808D01*Y220763D02*G01Y220957D01*Y217480D02*G01Y217674D01*Y209531D02*G01Y209725D01*Y208235D02*G01Y208429D01*Y207284D02*G01Y207479D01*X112540Y229748D02*G01Y230202D01*Y227675D02*G01Y227869D01*Y225860D02*G01Y226141D01*Y223528D02*G01Y223722D01*Y220676D02*G01Y220871D01*Y217480D02*G01Y217674D01*Y209531D02*G01Y209725D01*Y208148D02*G01Y208343D01*Y207198D02*G01Y207392D01*X112626Y229489D02*G01Y229943D01*Y227588D02*G01Y227783D01*Y225774D02*G01Y226055D01*Y223441D02*G01Y223722D01*Y220590D02*G01Y220871D01*Y217393D02*G01Y217588D01*Y209444D02*G01Y209639D01*Y208062D02*G01Y208256D01*Y207198D02*G01Y207392D01*X112712Y229144D02*G01Y229597D01*Y227502D02*G01Y227783D01*Y225774D02*G01Y225968D01*Y223441D02*G01Y223636D01*Y220590D02*G01Y220784D01*Y217307D02*G01Y217501D01*Y209444D02*G01Y209552D01*Y208062D02*G01Y208256D01*Y207112D02*G01Y207306D01*X112799Y228798D02*G01Y229338D01*Y227502D02*G01Y227696D01*Y225688D02*G01Y225882D01*Y223355D02*G01Y223549D01*Y220504D02*G01Y220698D01*Y217307D02*G01Y217501D01*Y209358D02*G01Y209552D01*Y207976D02*G01Y208170D01*Y207112D02*G01Y207306D01*X112885Y228539D02*G01Y229079D01*Y227502D02*G01Y227610D01*Y225601D02*G01Y225796D01*Y223268D02*G01Y223463D01*Y220417D02*G01Y220698D01*Y217220D02*G01Y217415D01*Y209358D02*G01Y209466D01*Y207889D02*G01Y208170D01*Y207112D02*G01Y207220D01*X112972Y228452D02*G01Y228820D01*Y227416D02*G01Y227610D01*Y225515D02*G01Y225796D01*Y223182D02*G01Y223463D01*Y220417D02*G01Y220612D01*Y217134D02*G01Y217415D01*Y209272D02*G01Y209466D01*Y207889D02*G01Y208084D01*Y207025D02*G01Y207220D01*X113058Y228193D02*G01Y228647D01*Y227416D02*G01Y227610D01*Y225428D02*G01Y225709D01*Y223182D02*G01Y223376D01*Y220331D02*G01Y220525D01*Y217134D02*G01Y217328D01*Y209272D02*G01Y209380D01*Y207803D02*G01Y207997D01*Y207025D02*G01Y207220D01*X113144Y228020D02*G01Y228388D01*Y227329D02*G01Y227524D01*Y225342D02*G01Y225623D01*Y223096D02*G01Y223290D01*Y220244D02*G01Y220525D01*Y217048D02*G01Y217242D01*Y209185D02*G01Y209380D01*Y207716D02*G01Y207911D01*Y206939D02*G01Y207133D01*X113231Y227848D02*G01Y228301D01*Y227329D02*G01Y227524D01*Y225256D02*G01Y225536D01*Y223009D02*G01Y223204D01*Y220244D02*G01Y220439D01*Y216961D02*G01Y217242D01*Y209185D02*G01Y209293D01*Y207630D02*G01Y207911D01*Y206939D02*G01Y207133D01*X113317Y227675D02*G01Y228128D01*Y227243D02*G01Y227437D01*Y226984D02*G01Y227092D01*Y225169D02*G01Y225450D01*Y223009D02*G01Y223204D01*Y220158D02*G01Y220352D01*Y216961D02*G01Y217156D01*Y209099D02*G01Y209293D01*Y207630D02*G01Y207824D01*Y206852D02*G01Y207047D01*X113404Y226897D02*G01Y227956D01*Y225083D02*G01Y225364D01*Y222923D02*G01Y223117D01*Y220158D02*G01Y220352D01*Y216875D02*G01Y217069D01*Y210395D02*G01Y210416D01*Y209099D02*G01Y209293D01*Y207544D02*G01Y207738D01*Y206852D02*G01Y207047D01*X113490Y226984D02*G01Y227783D01*Y225083D02*G01Y225277D01*Y222836D02*G01Y223031D01*Y220072D02*G01Y220266D01*Y216875D02*G01Y217069D01*Y210308D02*G01Y210416D01*Y209012D02*G01Y209207D01*Y207457D02*G01Y207652D01*Y206852D02*G01Y207047D01*X113576Y226984D02*G01Y227610D01*Y224996D02*G01Y225191D01*Y222836D02*G01Y223031D01*Y219985D02*G01Y220266D01*Y216788D02*G01Y216983D01*Y210308D02*G01Y210416D01*Y209012D02*G01Y209207D01*Y207284D02*G01Y207652D01*Y206852D02*G01Y206960D01*X113663Y226984D02*G01Y227437D01*Y224910D02*G01Y225104D01*Y222750D02*G01Y222944D01*Y219985D02*G01Y220180D01*Y216788D02*G01Y216983D01*Y210222D02*G01Y210330D01*Y209012D02*G01Y209120D01*Y207198D02*G01Y207479D01*Y206766D02*G01Y206960D01*X113749Y227070D02*G01Y227264D01*Y224737D02*G01Y225018D01*Y222664D02*G01Y222858D01*Y219899D02*G01Y220093D01*Y216702D02*G01Y216896D01*Y210222D02*G01Y210330D01*Y208926D02*G01Y209120D01*Y206852D02*G01Y207392D01*X113836Y224651D02*G01Y224932D01*Y222577D02*G01Y222772D01*Y219812D02*G01Y220093D01*Y216702D02*G01Y216896D01*Y210136D02*G01Y210330D01*Y208926D02*G01Y209120D01*Y206852D02*G01Y207306D01*X113922Y224564D02*G01Y224845D01*Y222577D02*G01Y222772D01*Y219812D02*G01Y220007D01*Y216616D02*G01Y216810D01*Y210049D02*G01Y210244D01*Y208926D02*G01Y209034D01*Y207025D02*G01Y207047D01*X114008Y224478D02*G01Y224759D01*Y222491D02*G01Y222685D01*Y219726D02*G01Y219920D01*Y216616D02*G01Y216810D01*Y209876D02*G01Y210157D01*Y208926D02*G01Y209034D01*X114095Y224392D02*G01Y224672D01*Y222491D02*G01Y222685D01*Y219726D02*G01Y219920D01*Y216529D02*G01Y216724D01*Y209704D02*G01Y209984D01*Y208926D02*G01Y209034D01*X114181Y224219D02*G01Y224586D01*Y222404D02*G01Y222599D01*Y219985D02*G01Y220093D01*Y219640D02*G01Y219834D01*Y216529D02*G01Y216724D01*Y209617D02*G01Y209812D01*Y208926D02*G01Y209034D01*X114268Y223960D02*G01Y224500D01*Y222404D02*G01Y222599D01*Y219985D02*G01Y220007D01*Y219640D02*G01Y219834D01*Y216443D02*G01Y216637D01*Y209444D02*G01Y209725D01*Y209272D02*G01Y209293D01*Y208926D02*G01Y209120D01*X114354Y223528D02*G01Y224327D01*Y222404D02*G01Y222512D01*Y219899D02*G01Y220007D01*Y219553D02*G01Y219748D01*Y217220D02*G01Y217328D01*Y216443D02*G01Y216637D01*Y208926D02*G01Y209552D01*X114440Y223441D02*G01Y224240D01*Y222404D02*G01Y222599D01*Y219899D02*G01Y220007D01*Y219553D02*G01Y219748D01*Y217220D02*G01Y217242D01*Y216356D02*G01Y216637D01*Y209099D02*G01Y209293D01*X114527Y223528D02*G01Y223981D01*Y222404D02*G01Y222858D01*Y219812D02*G01Y219920D01*Y219467D02*G01Y219661D01*Y217134D02*G01Y217242D01*Y216356D02*G01Y216551D01*X114613Y222577D02*G01Y222772D01*Y219467D02*G01Y219834D01*Y217048D02*G01Y217156D01*Y216356D02*G01Y216551D01*X114700Y219380D02*G01Y219834D01*Y216961D02*G01Y217069D01*Y216270D02*G01Y216464D01*X114786Y219380D02*G01Y219748D01*Y216961D02*G01Y217069D01*Y216270D02*G01Y216464D01*X114872Y219294D02*G01Y219748D01*Y216875D02*G01Y216983D01*Y216184D02*G01Y216378D01*X114959Y219294D02*G01Y219661D01*Y216788D02*G01Y216896D01*Y216184D02*G01Y216378D01*X115045Y219380D02*G01Y219575D01*Y216702D02*G01Y216896D01*Y216184D02*G01Y216378D01*X115132Y219380D02*G01Y219402D01*Y216616D02*G01Y216810D01*Y216097D02*G01Y216292D01*X115218Y216443D02*G01Y216724D01*Y216097D02*G01Y216292D01*X115304Y216097D02*G01Y216637D01*X115391Y216097D02*G01Y216551D01*X115477Y216270D02*G01Y216378D01*G54D42*X439700Y217160D02*G01X438941Y217005D01*X438035Y216569*X437293Y215894*X436866Y215248*X436771Y215013*X436638Y214692*X436579Y213019*X437283Y211500*X437530Y211252*X437777Y211007*X439301Y210310*X440974Y210378*X441297Y210510*X441529Y210608*X442172Y211040*X442845Y211784*X443274Y212691*X443426Y213451*Y214039*X443155Y215048*X442415Y216146*X441319Y216888*X440310Y217160*X439700*X440210Y215497D02*G01X440985Y215178D01*X441612Y214390*X441727Y213390*X441406Y212615*X441224Y212433*X441041Y212250*X440267Y211930*X439264Y212044*X438476Y212672*X438157Y213446*Y213878*X438298Y214403*X438682Y214972*X439253Y215358*X439778Y215497*X440210*X439954Y187515D02*G01X439700D01*X438941Y187361*X438035Y186925*X437293Y186250*X436866Y185604*X436771Y185369*X436638Y185046*X436581Y183373*X437285Y181854*X437532Y181606*X437779Y181361*X439303Y180667*X440978Y180734*X441301Y180868*X441534Y180966*X442176Y181400*X442849Y182144*X443277Y183054*X443426Y183813*Y184401*X443155Y185410*X442415Y186509*X441319Y187251*X440310Y187522*X439975*X439954Y187515*X440210Y185853D02*G01X440985Y185534D01*X441612Y184746*X441727Y183746*X441406Y182971*X441224Y182789*X441041Y182607*X440267Y182285*X439264Y182400*X438476Y183028*X438157Y183802*Y184234*X438298Y184759*X438682Y185328*X439253Y185714*X439778Y185853*X440210*X478949Y187355D02*G01Y208349D01*X471508*Y210122*X488368*Y208349*X480926*Y187355*X478949*X448741Y190565D02*G01X450004Y192032D01*X450327Y191645*X451469Y190627*X453185Y189586*X455084Y188935*X456597Y188709*X457103Y188707*X457501*X458701Y188824*X460013Y189143*X461057Y189631*X461857Y190248*X462439Y190955*X462825Y191717*X463040Y192492*X463107Y193058*Y193765*X462519Y195321*X460974Y196695*X458787Y197624*X456280Y198355*X453773Y199147*X451586Y200252*X450041Y201921*X449455Y203789*Y205042*X450039Y206934*X451636Y208854*X454010Y210078*X456200Y210506*X457528*X459325Y210289*X461401Y209657*X463170Y208648*X464318Y207670*X464648Y207296*X463374Y205855*X463077Y206207*X462022Y207122*X460442Y208043*X458698Y208588*X457311Y208744*X456853Y208726*X456323*X454739Y208416*X453051Y207550*X451931Y206222*X451527Y204952*Y204076*X452113Y202722*X453658Y201522*X455846Y200682*X458353Y199961*X460859Y199117*X463047Y197904*X464591Y196081*X465180Y194071*Y193121*X465082Y192281*X464778Y191155*X464240Y190072*X463439Y189076*X462350Y188219*X460946Y187548*X459201Y187110*X457619Y186951*X456430*X454448Y187220*X452172Y187967*X450275Y189113*X449105Y190167*X448780Y190569*X448741Y190565*X438978Y211508D02*G01X440922D01*Y187355*X438978*Y211508*X428639Y187355D02*G01X422257Y196775D01*X417237*Y187355*X415291*Y210122*X424474*X426529Y209668*X428728Y208357*X430191Y206268*X430722Y204173*Y202787*X430210Y200719*X428830Y198692*X426818Y197418*X425011Y196945*X424405Y196919*X430993Y187361*X428639Y187355*X397992Y208038D02*G01X392634Y194742D01*X403389*X397992Y208038*X406304Y187355D02*G01X404049Y192952D01*X391981*X389726Y187355*X387465*X396785Y210122*X399208*X408519Y187355*X406304*X367131D02*G01Y210122D01*X381571*Y208349*X369075*Y199916*X381332*Y198143*X369075*Y189128*X381571*Y187355*X367131*X356143D02*G01X341805Y206914D01*Y187355*X339859*Y210122*X341842*X356111Y190836*Y210122*X358055*Y187355*X356143*X422380Y198855D02*G01X418866D01*X417503*Y208198*X423932*X425371Y207880*X426909Y206963*X427933Y205500*X428306Y204034*Y203063*X427947Y201616*X426981Y200197*X425573Y199305*X424307Y198974*X423883Y198956*X422438Y198875*M02*